<svg width="587" height="497" viewBox="0 0 587 497" fill="none" xmlns="http://www.w3.org/2000/svg">
<path d="M427.097 25.1195L430.902 16.8271C427.729 21.2077 427.963 19.0264 423.383 30.4555L427.115 25.1195H427.097Z" fill="url(#paint0_linear_4167_29167)" stroke="url(#paint1_linear_4167_29167)" stroke-width="0.5" stroke-miterlimit="10" stroke-linejoin="bevel"/>
<path d="M420.624 19.0986L419.506 21.5683L415.25 26.6699L416.458 24.0199L420.624 19.0986Z" fill="url(#paint2_linear_4167_29167)" stroke="url(#paint3_linear_4167_29167)" stroke-width="0.5" stroke-miterlimit="10" stroke-linejoin="bevel"/>
<path d="M416.746 23.2636L418.982 18.3242L414.691 23.2095L412.311 28.4733L416.746 23.2636Z" fill="url(#paint4_linear_4167_29167)" stroke="url(#paint5_linear_4167_29167)" stroke-width="0.5" stroke-miterlimit="10" stroke-linejoin="bevel"/>
<path d="M442.081 28.1845L444.317 23.2451L440.026 28.1124L437.646 33.3943L442.081 28.1845Z" fill="url(#paint6_linear_4167_29167)" stroke="url(#paint7_linear_4167_29167)" stroke-width="0.5" stroke-miterlimit="10" stroke-linejoin="bevel"/>
<path d="M411.824 23.3536L412.708 21.3887L407.984 26.4542L407.046 28.5634L411.824 23.3536Z" fill="url(#paint8_linear_4167_29167)" stroke="url(#paint9_linear_4167_29167)" stroke-width="0.5" stroke-miterlimit="10" stroke-linejoin="bevel"/>
<path d="M407.965 25.12L409.299 22.1816L404.359 27.3013L402.952 30.438L407.965 25.12Z" fill="url(#paint10_linear_4167_29167)" stroke="url(#paint11_linear_4167_29167)" stroke-width="0.5" stroke-miterlimit="10" stroke-linejoin="bevel"/>
<path d="M447.816 18.7384L409.678 1L404.701 4.69549L445.508 23.6779L447.816 18.7384Z" fill="url(#paint12_linear_4167_29167)" stroke="url(#paint13_linear_4167_29167)" stroke-width="0.5" stroke-miterlimit="10" stroke-linejoin="bevel"/>
<path d="M441.451 32.3486L445.508 23.6777L404.719 4.69531L395 26.7242L402.952 30.4378L404.359 27.2831L407.063 28.5449L408.001 26.4358L412.329 28.4548L414.709 23.1909L416.476 24.0201L415.286 26.6521L423.401 30.4378L427.44 21.5865L431.515 23.4974L429.928 26.9405L434.671 29.1578L433.444 31.7898L437.502 33.6826L438.728 31.0507L441.451 32.3125V32.3486Z" fill="#120820"/>
<path d="M441.451 32.3486L445.508 23.6777L404.719 4.69531L395 26.7242L402.952 30.4378L404.359 27.2831L407.063 28.5449L408.001 26.4358L412.329 28.4548L414.709 23.1909L416.476 24.0201L415.286 26.6521L423.401 30.4378L427.44 21.5865L431.515 23.4974L429.928 26.9405L434.671 29.1578L433.444 31.7898L437.502 33.6826L438.728 31.0507L441.451 32.3125V32.3486Z" fill="url(#paint14_linear_4167_29167)"/>
<path d="M441.451 32.3486L445.508 23.6777L404.719 4.69531L395 26.7242L402.952 30.4378L404.359 27.2831L407.063 28.5449L408.001 26.4358L412.329 28.4548L414.709 23.1909L416.476 24.0201L415.286 26.6521L423.401 30.4378L427.44 21.5865L431.515 23.4974L429.928 26.9405L434.671 29.1578L433.444 31.7898L437.502 33.6826L438.728 31.0507L441.451 32.3125V32.3486Z" stroke="url(#paint15_linear_4167_29167)" stroke-width="0.5" stroke-miterlimit="10" stroke-linejoin="bevel"/>
<path d="M448.561 297.884L453.994 292.4C463.325 284.307 482.737 291.659 497.349 308.828C511.966 325.994 516.352 345.63 508.139 353.68L502.696 358.917" fill="#130722"/>
<path d="M448.561 297.884L453.994 292.4C463.325 284.307 482.737 291.659 497.349 308.828C511.966 325.994 516.352 345.63 508.139 353.68L502.696 358.917" stroke="url(#paint16_linear_4167_29167)" stroke-miterlimit="10"/>
<path d="M449.061 297.505C439.749 305.494 444.074 325.758 458.72 342.766C473.365 359.774 492.786 367.086 502.098 359.097C511.409 351.109 507.085 330.845 492.439 313.837C477.793 296.829 458.372 289.517 449.061 297.505Z" fill="#130722"/>
<path d="M449.061 297.505C439.749 305.494 444.074 325.758 458.72 342.766C473.365 359.774 492.786 367.086 502.098 359.097C511.409 351.109 507.085 330.845 492.439 313.837C477.793 296.829 458.372 289.517 449.061 297.505Z" fill="url(#paint17_linear_4167_29167)"/>
<path d="M449.061 297.505C439.749 305.494 444.074 325.758 458.72 342.766C473.365 359.774 492.786 367.086 502.098 359.097C511.409 351.109 507.085 330.845 492.439 313.837C477.793 296.829 458.372 289.517 449.061 297.505Z" stroke="url(#paint18_linear_4167_29167)" stroke-miterlimit="10"/>
<path d="M457.2 308.882C451.38 313.876 454.679 327.235 464.57 338.721C474.46 350.207 487.197 355.47 493.017 350.476C498.838 345.483 495.539 332.123 485.648 320.637C475.757 309.151 463.021 303.888 457.2 308.882Z" fill="#130722"/>
<path d="M457.2 308.882C451.38 313.876 454.679 327.235 464.57 338.721C474.46 350.207 487.197 355.47 493.017 350.476C498.838 345.483 495.539 332.123 485.648 320.637C475.757 309.151 463.021 303.888 457.2 308.882Z" fill="url(#paint19_linear_4167_29167)"/>
<path d="M457.2 308.882C451.38 313.876 454.679 327.235 464.57 338.721C474.46 350.207 487.197 355.47 493.017 350.476C498.838 345.483 495.539 332.123 485.648 320.637C475.757 309.151 463.021 303.888 457.2 308.882Z" stroke="url(#paint20_linear_4167_29167)" stroke-miterlimit="10"/>
<path d="M479.792 467.52L475.458 470.681L470.485 459.946L474.819 456.785L479.792 467.52Z" fill="black" stroke="url(#paint21_linear_4167_29167)" stroke-width="0.5" stroke-linejoin="bevel"/>
<path d="M475.458 470.68L478.9 472.924L473.927 462.189L470.484 459.945L475.458 470.68Z" stroke="url(#paint22_linear_4167_29167)" stroke-width="0.5" stroke-miterlimit="10" stroke-linejoin="bevel"/>
<path d="M478.899 472.925L474.349 476.252L469.35 465.517L473.926 462.19L478.899 472.925Z" fill="black" stroke="url(#paint23_linear_4167_29167)" stroke-width="0.5" stroke-linejoin="bevel"/>
<path d="M512.746 456.012L530.924 442.73L526.116 431.957L507.874 445.251L512.746 456.012Z" fill="url(#paint24_linear_4167_29167)" stroke="url(#paint25_linear_4167_29167)" stroke-width="0.5" stroke-linejoin="bevel"/>
<path d="M493.155 482.234L521.428 461.508L516.557 450.697L488.181 471.422L493.155 482.234Z" fill="url(#paint26_linear_4167_29167)" stroke="url(#paint27_linear_4167_29167)" stroke-width="0.5" stroke-linejoin="bevel"/>
<path d="M490.26 480.333L493.155 482.233L488.181 471.422L485.287 469.547L490.26 480.333Z" fill="black" stroke="url(#paint28_linear_4167_29167)" stroke-width="0.5" stroke-linejoin="bevel"/>
<path d="M485.684 483.686L490.26 480.334L485.287 469.547L480.685 472.9L485.684 483.686Z" fill="url(#paint29_linear_4167_29167)" stroke="url(#paint30_linear_4167_29167)" stroke-width="0.5" stroke-linejoin="bevel"/>
<path d="M483.402 482.194L485.684 483.686L480.685 472.9L478.416 471.421L483.402 482.194Z" fill="url(#paint31_linear_4167_29167)" stroke="url(#paint32_linear_4167_29167)" stroke-width="0.5" stroke-linejoin="bevel"/>
<path d="M480.049 484.653L483.402 482.193L478.416 471.42L475.038 473.88L480.049 484.653Z" fill="black" stroke="url(#paint33_linear_4167_29167)" stroke-width="0.5" stroke-linejoin="bevel"/>
<path d="M475.51 481.67L480.049 484.654L475.037 473.881L470.511 470.91L475.51 481.67Z" fill="url(#paint34_linear_4167_29167)" stroke="url(#paint35_linear_4167_29167)" stroke-width="0.5" stroke-linejoin="bevel"/>
<path d="M495.93 455.742L486.102 462.918L481.154 452.183L491.033 445.007L495.93 455.742Z" fill="black" stroke="url(#paint36_linear_4167_29167)" stroke-width="0.5" stroke-linejoin="bevel"/>
<path d="M491.111 452.681L495.93 455.742L491.033 445.006L486.214 441.946L491.111 452.681Z" stroke="url(#paint37_linear_4167_29167)" stroke-width="0.5" stroke-miterlimit="10" stroke-linejoin="bevel"/>
<path d="M495.738 449.303L491.111 452.681L486.214 441.946L490.854 438.581L495.738 449.303Z" fill="black" stroke="url(#paint38_linear_4167_29167)" stroke-width="0.5" stroke-linejoin="bevel"/>
<path d="M502.94 443.861L500.084 445.926L495.225 435.204L498.094 433.126L502.94 443.861Z" fill="black" stroke="url(#paint39_linear_4167_29167)" stroke-width="0.5" stroke-linejoin="bevel"/>
<path d="M506.917 439.221L501.665 443.045L496.807 432.322L502.084 428.498L506.917 439.221Z" fill="black" stroke="url(#paint40_linear_4167_29167)" stroke-width="0.5" stroke-linejoin="bevel"/>
<path d="M514.067 424.675L508.458 428.754L506.112 427.3L503.359 429.289L502.084 428.498L496.806 432.322L498.094 433.125L495.226 435.203L497.559 436.67L493.034 439.971L490.854 438.581L486.213 441.946L491.033 445.006L481.154 452.182L484.622 454.401L478.286 459.028L474.818 456.784L470.484 459.945L473.927 462.189L469.35 465.516L473.876 468.462L470.511 470.909L475.037 473.88L478.415 471.42L480.685 472.899L485.287 469.547L488.181 471.421L516.557 450.696L507.874 445.251L526.116 431.957L514.067 424.675Z" fill="#0C0A1A"/>
<path d="M514.067 424.675L508.458 428.754L506.112 427.3L503.359 429.289L502.084 428.498L496.806 432.322L498.094 433.125L495.226 435.203L497.559 436.67L493.034 439.971L490.854 438.581L486.213 441.946L491.033 445.006L481.154 452.182L484.622 454.401L478.286 459.028L474.818 456.784L470.484 459.945L473.927 462.189L469.35 465.516L473.876 468.462L470.511 470.909L475.037 473.88L478.415 471.42L480.685 472.899L485.287 469.547L488.181 471.421L516.557 450.696L507.874 445.251L526.116 431.957L514.067 424.675Z" fill="url(#paint41_linear_4167_29167)"/>
<path d="M514.067 424.675L508.458 428.754L506.112 427.3L503.359 429.289L502.084 428.498L496.806 432.322L498.094 433.125L495.226 435.203L497.559 436.67L493.034 439.971L490.854 438.581L486.213 441.946L491.033 445.006L481.154 452.182L484.622 454.401L478.286 459.028L474.818 456.784L470.484 459.945L473.927 462.189L469.35 465.516L473.876 468.462L470.511 470.909L475.037 473.88L478.415 471.42L480.685 472.899L485.287 469.547L488.181 471.421L516.557 450.696L507.874 445.251L526.116 431.957L514.067 424.675Z" stroke="url(#paint42_linear_4167_29167)" stroke-width="0.5" stroke-linejoin="bevel"/>
<rect x="277.5" y="384.5" width="309" height="59" rx="14.5" fill="#130722"/>
<rect x="277.5" y="384.5" width="309" height="59" rx="14.5" fill="url(#paint43_radial_4167_29167)"/>
<rect x="277.5" y="384.5" width="309" height="59" rx="14.5" stroke="url(#paint44_linear_4167_29167)"/>
<path d="M316.5 408.5H301.5V419.5H316.5V408.5Z" stroke="#E1FF0B"/>
<path d="M306.75 415.28C307.794 415.28 308.64 414.434 308.64 413.39C308.64 412.346 307.794 411.5 306.75 411.5C305.706 411.5 304.86 412.346 304.86 413.39C304.86 414.434 305.706 415.28 306.75 415.28Z" stroke="#E1FF0B"/>
<path d="M304.02 417.591V416.961C304.02 416.029 304.768 415.281 305.7 415.281H307.8C308.724 415.281 309.48 416.029 309.48 416.961V417.591" stroke="#E1FF0B"/>
<path d="M311.37 412.76H314.31" stroke="#E1FF0B"/>
<path d="M311.37 415.281H314.31" stroke="#E1FF0B"/>
<path d="M331.44 420.224C328.544 420.224 326.512 418.72 326.384 416.144H328.208C328.336 417.68 329.248 418.72 331.392 418.72C333.232 418.72 333.792 417.92 333.792 416.88C333.792 415.424 332.672 415.216 330.592 414.688C328.8 414.208 326.832 413.632 326.832 411.456C326.832 409.472 328.368 408.336 330.832 408.336C333.44 408.336 335.136 409.664 335.312 411.968H333.488C333.296 410.592 332.512 409.84 330.848 409.84C329.408 409.84 328.672 410.368 328.672 411.36C328.672 412.64 329.872 412.912 331.344 413.28C333.552 413.84 335.632 414.368 335.632 416.784C335.632 418.752 334.304 420.224 331.44 420.224ZM344.446 415.744C344.446 415.968 344.446 416.208 344.43 416.336H338.158C338.19 417.696 338.99 418.96 340.606 418.96C342.046 418.96 342.606 418.032 342.75 417.488H344.35C343.918 419.056 342.718 420.24 340.574 420.24C337.982 420.24 336.542 418.4 336.542 415.904C336.542 413.344 338.078 411.584 340.574 411.584C343.054 411.584 344.446 413.216 344.446 415.744ZM338.158 415.104H342.814C342.814 413.824 341.918 412.864 340.526 412.864C339.214 412.864 338.254 413.76 338.158 415.104ZM349.355 420.24C346.923 420.24 345.339 418.48 345.339 415.92C345.339 413.36 346.923 411.6 349.339 411.6C351.435 411.6 352.827 412.96 353.019 414.8H351.403C351.323 413.952 350.843 412.896 349.355 412.896C347.611 412.896 346.971 414.384 346.971 415.92C346.971 417.456 347.611 418.928 349.355 418.928C350.859 418.928 351.323 417.904 351.403 416.976H353.019C352.907 418.848 351.451 420.24 349.355 420.24ZM359.647 416.848V411.84H361.215V420H359.647V418.976H359.615C359.183 419.6 358.335 420.224 356.927 420.224C355.423 420.224 354.207 419.36 354.207 417.488V411.84H355.775V417.056C355.775 418.16 356.255 418.896 357.439 418.896C358.783 418.896 359.647 418.08 359.647 416.848ZM366.766 411.648C367.054 411.648 367.278 411.664 367.518 411.696V413.2C367.326 413.168 367.182 413.152 366.99 413.152C365.566 413.152 364.542 414.224 364.542 415.776V420H362.974V411.84H364.542V413.392H364.574C365.006 412.368 365.662 411.648 366.766 411.648ZM375.681 415.744C375.681 415.968 375.681 416.208 375.665 416.336H369.393C369.424 417.696 370.225 418.96 371.841 418.96C373.281 418.96 373.841 418.032 373.985 417.488H375.585C375.153 419.056 373.953 420.24 371.809 420.24C369.217 420.24 367.777 418.4 367.777 415.904C367.777 413.344 369.312 411.584 371.809 411.584C374.289 411.584 375.681 413.216 375.681 415.744ZM369.393 415.104H374.049C374.049 413.824 373.153 412.864 371.761 412.864C370.449 412.864 369.489 413.76 369.393 415.104ZM376.69 422.176V421.312C377.282 421.136 377.538 420.832 377.522 420H376.69V418.256H378.434V420C378.434 421.04 377.97 421.856 376.69 422.176ZM386.205 420.224C383.725 420.224 382.493 418.944 382.445 417.28H384.029C384.093 418.224 384.669 418.96 386.189 418.96C387.565 418.96 387.933 418.352 387.933 417.76C387.933 416.736 386.845 416.624 385.789 416.4C384.365 416.064 382.733 415.648 382.733 413.952C382.733 412.544 383.869 411.6 385.837 411.6C388.077 411.6 389.149 412.8 389.261 414.208H387.677C387.565 413.584 387.229 412.864 385.869 412.864C384.813 412.864 384.365 413.28 384.365 413.888C384.365 414.736 385.277 414.816 386.429 415.072C387.933 415.424 389.565 415.856 389.565 417.68C389.565 419.264 388.349 420.224 386.205 420.224ZM398.29 415.744C398.29 415.968 398.29 416.208 398.274 416.336H392.002C392.034 417.696 392.834 418.96 394.45 418.96C395.89 418.96 396.45 418.032 396.594 417.488H398.194C397.762 419.056 396.562 420.24 394.418 420.24C391.826 420.24 390.386 418.4 390.386 415.904C390.386 413.344 391.922 411.584 394.418 411.584C396.898 411.584 398.29 413.216 398.29 415.744ZM392.002 415.104H396.658C396.658 413.824 395.762 412.864 394.37 412.864C393.058 412.864 392.098 413.76 392.002 415.104ZM401.87 420.224C400.238 420.224 399.198 419.28 399.198 417.888C399.198 416.064 400.574 415.52 402.606 415.136C403.886 414.896 404.67 414.736 404.67 413.936C404.67 413.344 404.318 412.848 403.118 412.848C401.694 412.848 401.262 413.296 401.182 414.384H399.582C399.662 412.816 400.686 411.584 403.182 411.584C404.862 411.584 406.206 412.288 406.206 414.4V418.144C406.206 418.736 406.286 419.04 406.59 419.04C406.638 419.04 406.686 419.04 406.782 419.024V419.984C406.51 420.048 406.238 420.08 405.982 420.08C405.198 420.08 404.782 419.776 404.686 418.848H404.654C404.126 419.696 403.198 420.224 401.87 420.224ZM402.222 418.96C403.63 418.96 404.67 418.24 404.67 416.816V415.648C404.414 415.888 403.71 416.064 402.878 416.24C401.438 416.528 400.83 416.928 400.83 417.776C400.83 418.544 401.246 418.96 402.222 418.96ZM416.994 411.6C418.642 411.6 419.474 412.592 419.474 414.336V420H417.906V414.768C417.906 413.68 417.682 412.944 416.482 412.944C415.314 412.944 414.578 413.76 414.578 414.992V420H413.01V414.768C413.01 413.68 412.786 412.944 411.586 412.944C410.418 412.944 409.682 413.76 409.682 414.992V420H408.114V411.84H409.682V412.864H409.714C410.146 412.24 410.898 411.6 412.13 411.6C413.266 411.6 413.97 412.112 414.29 413.024H414.322C414.914 412.24 415.746 411.6 416.994 411.6ZM422.761 420H421.193V408.56H422.761V420ZM432.009 415.744C432.009 415.968 432.009 416.208 431.993 416.336H425.721C425.753 417.696 426.553 418.96 428.169 418.96C429.609 418.96 430.169 418.032 430.313 417.488H431.913C431.481 419.056 430.281 420.24 428.137 420.24C425.545 420.24 424.105 418.4 424.105 415.904C424.105 413.344 425.641 411.584 428.137 411.584C430.617 411.584 432.009 413.216 432.009 415.744ZM425.721 415.104H430.377C430.377 413.824 429.481 412.864 428.089 412.864C426.777 412.864 425.817 413.76 425.721 415.104ZM436.549 420.224C434.069 420.224 432.837 418.944 432.789 417.28H434.373C434.437 418.224 435.013 418.96 436.533 418.96C437.909 418.96 438.277 418.352 438.277 417.76C438.277 416.736 437.189 416.624 436.133 416.4C434.709 416.064 433.077 415.648 433.077 413.952C433.077 412.544 434.213 411.6 436.181 411.6C438.421 411.6 439.493 412.8 439.605 414.208H438.021C437.909 413.584 437.573 412.864 436.213 412.864C435.157 412.864 434.709 413.28 434.709 413.888C434.709 414.736 435.621 414.816 436.773 415.072C438.277 415.424 439.909 415.856 439.909 417.68C439.909 419.264 438.693 420.224 436.549 420.224ZM444.362 420.224C441.882 420.224 440.65 418.944 440.602 417.28H442.186C442.25 418.224 442.826 418.96 444.346 418.96C445.722 418.96 446.09 418.352 446.09 417.76C446.09 416.736 445.002 416.624 443.946 416.4C442.522 416.064 440.89 415.648 440.89 413.952C440.89 412.544 442.026 411.6 443.994 411.6C446.234 411.6 447.306 412.8 447.418 414.208H445.834C445.722 413.584 445.386 412.864 444.026 412.864C442.97 412.864 442.522 413.28 442.522 413.888C442.522 414.736 443.434 414.816 444.586 415.072C446.09 415.424 447.722 415.856 447.722 417.68C447.722 419.264 446.506 420.224 444.362 420.224ZM453.87 420H452.302V408.56H453.87V420ZM459.278 420.24C456.734 420.24 455.198 418.48 455.198 415.92C455.198 413.376 456.734 411.584 459.294 411.584C461.822 411.584 463.358 413.36 463.358 415.904C463.358 418.464 461.822 420.24 459.278 420.24ZM459.294 418.944C460.958 418.944 461.726 417.616 461.726 415.92C461.726 414.208 460.958 412.896 459.294 412.896C457.598 412.896 456.83 414.208 456.83 415.92C456.83 417.616 457.598 418.944 459.294 418.944ZM470.453 412.8V411.84H472.021V419.36C472.021 421.824 470.533 422.928 468.197 422.928C465.861 422.928 464.693 421.808 464.533 420.336H466.164C466.325 421.072 466.869 421.648 468.197 421.648C469.685 421.648 470.453 420.992 470.453 419.456V418.352H470.421C469.973 419.008 469.221 419.584 467.909 419.584C465.877 419.584 464.309 418.208 464.309 415.6C464.309 412.976 465.877 411.6 467.909 411.6C469.221 411.6 469.973 412.224 470.421 412.8H470.453ZM468.197 418.288C469.605 418.288 470.437 417.376 470.437 415.6C470.437 413.808 469.605 412.912 468.197 412.912C466.661 412.912 465.941 414.064 465.941 415.6C465.941 417.136 466.661 418.288 468.197 418.288ZM475.451 410.384H473.675V408.688H475.451V410.384ZM475.339 420H473.771V411.84H475.339V420ZM481.387 411.6C482.891 411.6 484.107 412.464 484.107 414.336V420H482.539V414.768C482.539 413.68 482.059 412.944 480.875 412.944C479.531 412.944 478.667 413.76 478.667 414.992V420H477.099V411.84H478.667V412.864H478.699C479.131 412.24 479.979 411.6 481.387 411.6ZM496.634 415.744C496.634 415.968 496.634 416.208 496.618 416.336H490.346C490.378 417.696 491.178 418.96 492.794 418.96C494.234 418.96 494.794 418.032 494.938 417.488H496.538C496.106 419.056 494.906 420.24 492.762 420.24C490.17 420.24 488.73 418.4 488.73 415.904C488.73 413.344 490.266 411.584 492.762 411.584C495.242 411.584 496.634 413.216 496.634 415.744ZM490.346 415.104H495.002C495.002 413.824 494.106 412.864 492.714 412.864C491.402 412.864 490.442 413.76 490.346 415.104ZM498.384 420H496.559L499.632 415.824L496.832 411.84H498.624L500.576 414.752H500.608L502.528 411.84H504.32L501.52 415.824L504.624 420H502.784L500.576 416.88H500.544L498.384 420ZM509.476 411.6C511.556 411.6 513.14 413.232 513.14 415.92C513.14 418.608 511.556 420.224 509.476 420.224C508.196 420.224 507.412 419.648 506.964 418.992H506.932V422.832H505.364V411.84H506.932V412.8H506.964C507.412 412.224 508.196 411.6 509.476 411.6ZM509.22 418.928C510.756 418.928 511.492 417.52 511.492 415.92C511.492 414.32 510.756 412.912 509.22 412.912C507.812 412.912 506.948 414.064 506.948 415.92C506.948 417.76 507.812 418.928 509.22 418.928ZM521.977 415.744C521.977 415.968 521.977 416.208 521.961 416.336H515.689C515.721 417.696 516.521 418.96 518.137 418.96C519.577 418.96 520.137 418.032 520.281 417.488H521.881C521.449 419.056 520.249 420.24 518.105 420.24C515.513 420.24 514.073 418.4 514.073 415.904C514.073 413.344 515.609 411.584 518.105 411.584C520.585 411.584 521.977 413.216 521.977 415.744ZM515.689 415.104H520.345C520.345 413.824 519.449 412.864 518.057 412.864C516.745 412.864 515.785 413.76 515.689 415.104ZM527.094 411.648C527.382 411.648 527.606 411.664 527.846 411.696V413.2C527.654 413.168 527.51 413.152 527.318 413.152C525.894 413.152 524.87 414.224 524.87 415.776V420H523.302V411.84H524.87V413.392H524.902C525.334 412.368 525.99 411.648 527.094 411.648ZM530.544 410.384H528.768V408.688H530.544V410.384ZM530.432 420H528.864V411.84H530.432V420ZM539.681 415.744C539.681 415.968 539.681 416.208 539.665 416.336H533.393C533.424 417.696 534.225 418.96 535.841 418.96C537.281 418.96 537.841 418.032 537.985 417.488H539.585C539.153 419.056 537.953 420.24 535.809 420.24C533.217 420.24 531.777 418.4 531.777 415.904C531.777 413.344 533.312 411.584 535.809 411.584C538.289 411.584 539.681 413.216 539.681 415.744ZM533.393 415.104H538.049C538.049 413.824 537.153 412.864 535.761 412.864C534.449 412.864 533.489 413.76 533.393 415.104ZM545.293 411.6C546.797 411.6 548.013 412.464 548.013 414.336V420H546.445V414.768C546.445 413.68 545.965 412.944 544.781 412.944C543.437 412.944 542.573 413.76 542.573 414.992V420H541.005V411.84H542.573V412.864H542.605C543.037 412.24 543.885 411.6 545.293 411.6ZM553.292 420.24C550.86 420.24 549.276 418.48 549.276 415.92C549.276 413.36 550.86 411.6 553.276 411.6C555.372 411.6 556.764 412.96 556.956 414.8H555.34C555.26 413.952 554.78 412.896 553.292 412.896C551.548 412.896 550.908 414.384 550.908 415.92C550.908 417.456 551.548 418.928 553.292 418.928C554.796 418.928 555.26 417.904 555.34 416.976H556.956C556.844 418.848 555.388 420.24 553.292 420.24ZM565.696 415.744C565.696 415.968 565.696 416.208 565.68 416.336H559.408C559.44 417.696 560.24 418.96 561.856 418.96C563.296 418.96 563.856 418.032 564 417.488H565.6C565.168 419.056 563.968 420.24 561.824 420.24C559.232 420.24 557.792 418.4 557.792 415.904C557.792 413.344 559.328 411.584 561.824 411.584C564.304 411.584 565.696 413.216 565.696 415.744ZM559.408 415.104H564.064C564.064 413.824 563.168 412.864 561.776 412.864C560.464 412.864 559.504 413.76 559.408 415.104Z" fill="#C3B6CF"/>
<path d="M114.875 191.223L45.7398 262.422C99.6616 333.701 154.109 375.802 189.283 394.556L256.399 325.352C179.577 275.343 114.875 191.229 114.875 191.229L114.875 191.223Z" fill="#130722"/>
<path d="M114.875 191.223L45.7398 262.422C99.6616 333.701 154.109 375.802 189.283 394.556L256.399 325.352C179.577 275.343 114.875 191.229 114.875 191.229L114.875 191.223Z" fill="url(#paint45_linear_4167_29167)"/>
<path d="M114.875 191.223L45.7398 262.422C99.6616 333.701 154.109 375.802 189.283 394.556L256.399 325.352C179.577 275.343 114.875 191.229 114.875 191.229L114.875 191.223Z" stroke="url(#paint46_linear_4167_29167)" stroke-miterlimit="10"/>
<path d="M190.326 187.987L234.009 161.266L235.668 164.321L238.801 162.396L240.109 164.799L242.402 163.385L245.018 168.191L242.739 169.602L244.047 172.006L240.918 173.943L242.745 177.319L239.758 179.178L241.85 183.04L228.753 191.202L226.641 187.318L222.758 189.729L224.873 193.625L222.537 195.079L224.301 198.323L217.273 202.716L215.506 199.459L211.578 201.909L209.456 197.987L207.098 199.46L203.424 192.685L195.499 197.576C193.774 194.375 192.039 191.191 190.314 187.991L190.326 187.987Z" fill="url(#paint47_linear_4167_29167)" stroke="url(#paint48_linear_4167_29167)" stroke-width="0.18" stroke-miterlimit="10"/>
<path d="M240.106 164.787L238.81 162.38L248.256 168.327L249.65 170.898L240.106 164.787Z" fill="url(#paint49_linear_4167_29167)" stroke="url(#paint50_linear_4167_29167)" stroke-width="0.5" stroke-miterlimit="10"/>
<path d="M242.402 163.384L240.106 164.786L249.65 170.897L252.093 169.388L242.402 163.384Z" fill="url(#paint51_linear_4167_29167)" stroke="url(#paint52_linear_4167_29167)" stroke-width="0.5" stroke-miterlimit="10"/>
<path d="M238.81 162.38L235.665 164.308L244.904 170.392L248.256 168.327L238.81 162.38Z" fill="url(#paint53_linear_4167_29167)" stroke="url(#paint54_linear_4167_29167)" stroke-width="0.5" stroke-miterlimit="10"/>
<path d="M226.654 187.315L228.754 191.202L237.584 199.255L235.314 195.088L226.654 187.315Z" fill="url(#paint55_linear_4167_29167)" stroke="url(#paint56_linear_4167_29167)" stroke-width="0.5" stroke-miterlimit="10"/>
<path d="M217.274 202.715L224.302 198.322L232.829 206.917L225.325 211.654L217.274 202.715Z" fill="url(#paint57_linear_4167_29167)" stroke="url(#paint58_linear_4167_29167)" stroke-width="0.5" stroke-miterlimit="10"/>
<path d="M211.591 201.905L215.518 199.455L223.45 208.155L219.262 210.796C216.705 207.832 214.161 204.865 211.603 201.901L211.591 201.905Z" fill="url(#paint59_linear_4167_29167)" stroke="url(#paint60_linear_4167_29167)" stroke-width="0.5" stroke-miterlimit="10"/>
<path d="M207.111 199.456L209.469 197.983L216.971 206.595L214.452 208.179C212.004 205.267 209.559 202.368 207.111 199.456Z" fill="url(#paint61_linear_4167_29167)" stroke="url(#paint62_linear_4167_29167)" stroke-width="0.5" stroke-miterlimit="10"/>
<path d="M235.665 164.308L234.005 161.252L243.132 167.123L244.903 170.392L235.665 164.308Z" stroke="url(#paint63_linear_4167_29167)" stroke-width="0.5" stroke-miterlimit="10"/>
<path d="M234.006 161.253L190.327 187.987L196.476 195.903L243.132 167.123L234.006 161.253Z" fill="url(#paint64_linear_4167_29167)" stroke="url(#paint65_linear_4167_29167)" stroke-width="0.5" stroke-miterlimit="10"/>
<path d="M245.067 170.624L248.191 168.686L249.458 171.023L249.584 171.256L249.809 171.117L252.028 169.746L254.593 174.457L252.353 175.854L252.153 175.978L252.265 176.185L253.551 178.562L250.417 180.524L250.218 180.649L250.33 180.855L252.176 184.261L249.193 186.129L248.994 186.254L249.106 186.46L251.24 190.387L237.705 198.906L235.575 194.971L235.448 194.736L235.222 194.878L231.078 197.481L230.88 197.605L230.991 197.811L233.136 201.776L230.838 203.215L230.64 203.34L230.751 203.546L232.523 206.824L225.441 211.295L223.67 208.036L223.542 207.802L223.317 207.944L219.355 210.443L217.203 206.473L217.075 206.238L216.85 206.38L214.557 207.822L210.742 200.784L210.615 200.55L210.39 200.691L202.144 205.831L196.82 195.989L243.055 167.465L244.715 170.53L244.842 170.763L245.067 170.624Z" fill="#170B26"/>
<path d="M245.067 170.624L248.191 168.686L249.458 171.023L249.584 171.256L249.809 171.117L252.028 169.746L254.593 174.457L252.353 175.854L252.153 175.978L252.265 176.185L253.551 178.562L250.417 180.524L250.218 180.649L250.33 180.855L252.176 184.261L249.193 186.129L248.994 186.254L249.106 186.46L251.24 190.387L237.705 198.906L235.575 194.971L235.448 194.736L235.222 194.878L231.078 197.481L230.88 197.605L230.991 197.811L233.136 201.776L230.838 203.215L230.64 203.34L230.751 203.546L232.523 206.824L225.441 211.295L223.67 208.036L223.542 207.802L223.317 207.944L219.355 210.443L217.203 206.473L217.075 206.238L216.85 206.38L214.557 207.822L210.742 200.784L210.615 200.55L210.39 200.691L202.144 205.831L196.82 195.989L243.055 167.465L244.715 170.53L244.842 170.763L245.067 170.624Z" fill="url(#paint66_linear_4167_29167)"/>
<path d="M245.067 170.624L248.191 168.686L249.458 171.023L249.584 171.256L249.809 171.117L252.028 169.746L254.593 174.457L252.353 175.854L252.153 175.978L252.265 176.185L253.551 178.562L250.417 180.524L250.218 180.649L250.33 180.855L252.176 184.261L249.193 186.129L248.994 186.254L249.106 186.46L251.24 190.387L237.705 198.906L235.575 194.971L235.448 194.736L235.222 194.878L231.078 197.481L230.88 197.605L230.991 197.811L233.136 201.776L230.838 203.215L230.64 203.34L230.751 203.546L232.523 206.824L225.441 211.295L223.67 208.036L223.542 207.802L223.317 207.944L219.355 210.443L217.203 206.473L217.075 206.238L216.85 206.38L214.557 207.822L210.742 200.784L210.615 200.55L210.39 200.691L202.144 205.831L196.82 195.989L243.055 167.465L244.715 170.53L244.842 170.763L245.067 170.624Z" stroke="url(#paint67_linear_4167_29167)" stroke-width="0.5"/>
<path d="M202.039 206.187L195.513 197.572L190.327 187.987L196.476 195.903L202.039 206.187Z" fill="url(#paint68_linear_4167_29167)" stroke="url(#paint69_linear_4167_29167)" stroke-width="0.18" stroke-miterlimit="10"/>
<path d="M146.305 311.778L74.019 380.125C74.019 380.125 154.804 459.339 230.299 490.62L303.553 419.391C303.553 419.391 250.189 408.15 146.305 311.778Z" fill="#130722"/>
<path d="M146.305 311.778L74.019 380.125C74.019 380.125 154.804 459.339 230.299 490.62L303.553 419.391C303.553 419.391 250.189 408.15 146.305 311.778Z" fill="url(#paint70_linear_4167_29167)"/>
<path d="M146.305 311.778L74.019 380.125C74.019 380.125 154.804 459.339 230.299 490.62L303.553 419.391C303.553 419.391 250.189 408.15 146.305 311.778Z" stroke="url(#paint71_linear_4167_29167)" stroke-miterlimit="10"/>
<g clip-path="url(#clip0_4167_29167)">
<mask id="path-50-inside-1_4167_29167" fill="white">
<path d="M110.53 135.024C98.2797 142.124 86.7994 148.87 72.3524 142.259C59.8871 136.56 45.2222 120.034 38.0145 107.393C30.792 94.7302 24.1961 73.7091 25.1694 60.6096C26.3753 44.9077 36.9421 39.1234 49.1449 31.8671C49.2937 31.762 49.4361 31.6931 49.5998 31.6092"/>
</mask>
<path d="M110.53 135.024C98.2797 142.124 86.7994 148.87 72.3524 142.259C59.8871 136.56 45.2222 120.034 38.0145 107.393C30.792 94.7302 24.1961 73.7091 25.1694 60.6096C26.3753 44.9077 36.9421 39.1234 49.1449 31.8671C49.2937 31.762 49.4361 31.6931 49.5998 31.6092" fill="#130822"/>
<path d="M72.3524 142.259L72.7102 141.477L72.71 141.477L72.3524 142.259ZM38.0145 107.393L38.7616 106.967L38.7616 106.967L38.0145 107.393ZM25.1694 60.6096L24.3119 60.5437L24.3118 60.5458L25.1694 60.6096ZM49.1449 31.8671L49.5845 32.6063L49.6135 32.589L49.641 32.5696L49.1449 31.8671ZM110.098 134.28C97.784 141.417 86.6981 147.878 72.7102 141.477L71.9946 143.041C86.9008 149.862 98.7754 142.831 110.961 135.768L110.098 134.28ZM72.71 141.477C66.6209 138.693 59.927 133.226 53.8343 126.836C47.7509 120.456 42.3267 113.22 38.7616 106.967L37.2674 107.819C40.9101 114.208 46.4221 121.555 52.5894 128.023C58.7474 134.481 65.6186 140.126 71.9948 143.041L72.71 141.477ZM38.7616 106.967C35.19 100.705 31.7599 92.3496 29.3452 83.928C26.927 75.494 25.5513 67.0764 26.027 60.6733L24.3118 60.5458C23.8142 67.2422 25.2498 75.885 27.6918 84.4021C30.1374 92.9316 33.6165 101.418 37.2675 107.819L38.7616 106.967ZM26.0269 60.6754C26.6132 53.0409 29.4603 47.8586 33.6413 43.6795C37.8657 39.457 43.4475 36.2556 49.5845 32.6063L48.7054 31.1279C42.6395 34.7349 36.8365 38.0538 32.4253 42.463C27.9707 46.9156 24.9315 52.4764 24.3119 60.5437L26.0269 60.6754ZM49.641 32.5696C49.7284 32.5079 49.8061 32.4699 49.9922 32.3744L49.2074 30.8439C49.0662 30.9163 48.859 31.0162 48.6488 31.1646L49.641 32.5696Z" fill="url(#paint72_linear_4167_29167)" mask="url(#path-50-inside-1_4167_29167)"/>
<path d="M108.576 65.1921C124.19 92.3521 127.283 124.65 110.384 134.367C93.4852 144.085 65.327 127.621 49.7136 100.461C34.1001 73.3008 32.8679 41.9691 49.7516 32.2303C66.6503 22.5127 92.9629 38.0321 108.576 65.1921Z" fill="#150925"/>
<path d="M108.576 65.1921C124.19 92.3521 127.283 124.65 110.384 134.367C93.4852 144.085 65.327 127.621 49.7136 100.461C34.1001 73.3008 32.8679 41.9691 49.7516 32.2303C66.6503 22.5127 92.9629 38.0321 108.576 65.1921Z" fill="url(#paint73_linear_4167_29167)"/>
<path d="M108.576 65.1921C124.19 92.3521 127.283 124.65 110.384 134.367C93.4852 144.085 65.327 127.621 49.7136 100.461C34.1001 73.3008 32.8679 41.9691 49.7516 32.2303C66.6503 22.5127 92.9629 38.0321 108.576 65.1921Z" stroke="url(#paint74_linear_4167_29167)" stroke-width="0.86" stroke-miterlimit="10"/>
<path d="M61.5292 102.534C60.0372 100.421 58.6216 98.1908 57.3357 95.9642C43.7076 72.2467 42.3729 45.3252 54.4677 38.3669C65.3827 32.0834 84.6062 42.2553 98.2133 61.523C99.7799 63.7413 101.285 66.0981 102.654 68.4876C116.756 93.0106 118.944 120.374 107.368 127.03C96.3678 133.373 75.375 122.139 61.5292 102.534Z" fill="url(#paint75_linear_4167_29167)" fill-opacity="0.6" stroke="url(#paint76_linear_4167_29167)" stroke-width="0.86" stroke-miterlimit="10"/>
<path d="M110.384 134.367C93.4853 144.085 65.327 127.621 49.7136 100.461C34.1002 73.3008 32.8679 41.969 49.7516 32.2302" stroke="url(#paint77_linear_4167_29167)" stroke-width="0.86" stroke-miterlimit="10"/>
</g>
<g clip-path="url(#clip1_4167_29167)">
<path d="M95.4539 106.475C95.726 105.265 95.9752 104.159 96.2045 103.121C96.619 101.298 96.8262 100.386 97.2583 98.5526C97.2583 98.5526 97.2535 98.5438 97.2487 98.535C97.3959 97.9298 97.5343 97.3293 97.6768 96.7153C97.6768 96.7153 97.6816 96.7241 97.6864 96.7329C98.1232 94.9083 98.348 93.9869 98.812 92.1703C99.0535 91.2169 99.3196 90.2044 99.6095 89.1104C99.8994 88.0164 99.6745 86.566 99.0135 85.2975C94.8562 77.3586 92.7029 73.43 88.2474 65.6545C87.5338 64.4149 86.4321 63.4451 85.3539 63.1009C78.5954 60.9438 75.1235 59.6651 68.4993 57.2747C67.9642 57.089 67.4893 57.0756 67.1153 57.2464C66.7414 57.4171 66.4548 57.7681 66.3033 58.2616C64.419 64.54 63.5202 67.9975 61.6697 74.8161C61.375 75.9013 61.6247 77.418 62.3385 78.7829C66.8389 87.3891 69.1699 91.6422 74.0035 100.066C74.7699 101.402 75.9237 102.446 76.997 102.781C83.7491 104.885 87.1384 105.992 93.4446 107.781C93.9469 107.928 94.3881 107.88 94.7372 107.643C95.0823 107.42 95.3353 107.007 95.4579 106.461L95.4539 106.475ZM75.8269 99.1691C70.9908 90.6784 68.6453 86.399 64.0899 77.7546C63.9553 77.5091 63.918 77.233 63.9687 77.0342C65.848 70.2681 66.7565 66.8281 68.6815 60.5616C68.7093 60.4666 68.7562 60.4067 68.8312 60.377C68.9013 60.3385 68.9868 60.3487 69.0818 60.3765C75.6938 62.6823 79.1505 63.9123 85.8658 65.9905C86.0607 66.0548 86.2597 66.2307 86.3935 66.4539C90.9084 74.3794 93.1 78.3781 97.3519 86.4478C97.4768 86.6758 97.5093 86.9431 97.4586 87.1419C97.2067 88.0554 96.9794 88.9098 96.7552 89.7283C91.5704 83.6183 88.1146 79.6851 81.8725 72.4783C81.5918 72.1532 81.2888 72.3079 81.4157 72.7059C82.2995 75.6083 82.7398 77.0775 83.6253 80.0247C83.6824 80.2328 83.7929 80.4345 83.9377 80.5947C88.8007 86.2424 91.5574 89.4412 95.5911 94.2207C95.4439 94.826 95.2918 95.4225 95.1486 96.0141C91.8877 92.1452 89.571 89.458 85.6055 84.8235C85.3247 84.4985 85.0401 84.6659 85.1583 85.0687C86.0582 88.0421 86.5041 89.5424 87.4224 92.5286C87.4795 92.7368 87.5948 92.9472 87.7396 93.1074C90.3572 96.1771 91.9772 98.0717 94.066 100.53C93.7922 101.695 93.4986 102.928 93.1789 104.301C93.1512 104.396 93.1138 104.473 93.0437 104.512C92.9735 104.55 92.8977 104.557 92.8075 104.538C91.5594 104.196 90.4239 103.872 89.3562 103.568C85.6664 92.0086 82.1935 80.3875 78.6671 68.7729C78.5707 68.4722 78.2981 68.2453 78.1267 68.3278C77.0232 68.8528 76.4778 69.1061 75.3839 69.6487C75.1774 69.7504 75.1174 70.057 75.2251 70.4199C78.2936 80.575 81.3621 90.73 84.6076 100.834C84.0508 100.546 83.5035 100.276 82.751 99.9012C79.6869 90.3368 76.7735 80.7353 73.8729 71.1154C73.7814 70.8235 73.5039 70.5878 73.3373 70.6791C72.2483 71.2304 71.7085 71.5149 70.6378 72.0789C70.4361 72.1894 70.3673 72.5008 70.4886 72.8677C73.2663 82.076 76.0264 91.2939 78.9851 100.437C78.1745 100.186 77.3145 99.9274 76.3905 99.6356C76.1956 99.5713 75.9917 99.3866 75.8484 99.1459L75.8269 99.1691Z" fill="url(#paint78_linear_4167_29167)"/>
</g>
<path d="M334.919 296.683C352.592 287.585 357.601 260.411 345.548 236.943C333.499 213.473 310.32 202.254 291.611 211.793L287.757 213.852" fill="#130722"/>
<path d="M334.919 296.683C352.592 287.585 357.601 260.411 345.548 236.943C333.499 213.473 310.32 202.254 291.611 211.793L287.757 213.852" stroke="url(#paint79_linear_4167_29167)" stroke-miterlimit="10"/>
<path d="M277.574 272.818C289.626 296.288 313.722 307.938 331.396 298.839C349.069 289.74 353.627 263.338 341.576 239.868C329.525 216.397 305.428 204.747 287.755 213.846C270.081 222.945 265.523 249.348 277.574 272.818Z" fill="#130722"/>
<path d="M277.574 272.818C289.626 296.288 313.722 307.938 331.396 298.839C349.069 289.74 353.627 263.338 341.576 239.868C329.525 216.397 305.428 204.747 287.755 213.846C270.081 222.945 265.523 249.348 277.574 272.818Z" fill="url(#paint80_linear_4167_29167)"/>
<path d="M277.574 272.818C289.626 296.288 313.722 307.938 331.396 298.839C349.069 289.74 353.627 263.338 341.576 239.868C329.525 216.397 305.428 204.747 287.755 213.846C270.081 222.945 265.523 249.348 277.574 272.818Z" stroke="url(#paint81_linear_4167_29167)" stroke-miterlimit="10"/>
<path d="M284.504 269.25C293.946 287.638 312.824 296.766 326.671 289.637C340.518 282.508 344.088 261.823 334.647 243.435C325.205 225.047 306.326 215.92 292.48 223.048C278.633 230.177 275.062 250.862 284.504 269.25Z" fill="#130722"/>
<path d="M284.504 269.25C293.946 287.638 312.824 296.766 326.671 289.637C340.518 282.508 344.088 261.823 334.647 243.435C325.205 225.047 306.326 215.92 292.48 223.048C278.633 230.177 275.062 250.862 284.504 269.25Z" fill="url(#paint82_linear_4167_29167)"/>
<path d="M284.504 269.25C293.946 287.638 312.824 296.766 326.671 289.637C340.518 282.508 344.088 261.823 334.647 243.435C325.205 225.047 306.326 215.92 292.48 223.048C278.633 230.177 275.062 250.862 284.504 269.25Z" stroke="url(#paint83_linear_4167_29167)" stroke-miterlimit="10"/>
<path d="M314.643 245.654C313.028 241.353 310.102 240.628 306.846 241.158L304.986 235.07L302.563 235.804L304.373 241.731C303.737 241.926 303.09 242.14 302.45 242.357L300.628 236.392L298.208 237.125L300.063 243.21C299.542 243.385 299.034 243.556 298.531 243.711L298.525 243.692L295.183 244.703L296.391 248.659C296.391 248.659 298.164 248.063 298.149 248.124C299.128 247.824 299.715 248.6 300.039 249.328L302.155 256.262C302.223 256.241 302.314 256.218 302.42 256.212C302.34 256.236 302.254 256.263 302.164 256.29L305.13 266.004C305.232 266.49 305.281 267.297 304.595 267.507C304.639 267.54 302.832 268.038 302.832 268.038L303.701 272.605L306.855 271.652C307.441 271.472 308.025 271.314 308.593 271.15L310.472 277.304L312.893 276.571L311.033 270.483C311.704 270.303 312.35 270.115 312.978 269.927L314.825 275.987L317.249 275.254L315.375 269.108C319.34 267.518 321.711 265.084 320.278 259.129C319.126 254.333 317.037 252.669 314.465 252.523C315.536 251.005 315.826 248.812 314.638 245.661L314.643 245.654ZM315.268 259.846C316.673 264.444 311.362 265.481 309.721 265.979L307.234 257.825C308.876 257.331 313.804 255.047 315.268 259.846ZM310.629 248.681C311.904 252.865 307.46 253.677 306.094 254.091L303.836 246.693C305.202 246.279 309.295 244.314 310.628 248.676" fill="url(#paint84_linear_4167_29167)"/>
<defs>
<linearGradient id="paint0_linear_4167_29167" x1="423.383" y1="17.8122" x2="432.341" y2="19.2555" gradientUnits="userSpaceOnUse">
<stop stop-color="#130722"/>
<stop offset="0.228235" stop-color="#0A0A18"/>
<stop offset="0.523392" stop-color="#130722"/>
</linearGradient>
<linearGradient id="paint1_linear_4167_29167" x1="423.383" y1="17.3788" x2="432.948" y2="19.1018" gradientUnits="userSpaceOnUse">
<stop stop-color="#685879"/>
<stop offset="0.687247" stop-color="#713DFF" stop-opacity="0.08"/>
<stop offset="1" stop-color="#F9EE98" stop-opacity="0.1"/>
</linearGradient>
<linearGradient id="paint2_linear_4167_29167" x1="415.25" y1="19.6459" x2="421.547" y2="20.951" gradientUnits="userSpaceOnUse">
<stop stop-color="#130722"/>
<stop offset="0.228235" stop-color="#0A0A18"/>
<stop offset="0.523392" stop-color="#130722"/>
</linearGradient>
<linearGradient id="paint3_linear_4167_29167" x1="415.25" y1="19.4051" x2="421.947" y2="20.9571" gradientUnits="userSpaceOnUse">
<stop stop-color="#685879"/>
<stop offset="0.687247" stop-color="#713DFF" stop-opacity="0.08"/>
<stop offset="1" stop-color="#F9EE98" stop-opacity="0.1"/>
</linearGradient>
<linearGradient id="paint4_linear_4167_29167" x1="412.311" y1="19.0578" x2="420.175" y2="20.5676" gradientUnits="userSpaceOnUse">
<stop stop-color="#130722"/>
<stop offset="0.228235" stop-color="#0A0A18"/>
<stop offset="0.523392" stop-color="#130722"/>
</linearGradient>
<linearGradient id="paint5_linear_4167_29167" x1="412.311" y1="18.735" x2="420.687" y2="20.5329" gradientUnits="userSpaceOnUse">
<stop stop-color="#685879"/>
<stop offset="0.687247" stop-color="#713DFF" stop-opacity="0.08"/>
<stop offset="1" stop-color="#F9EE98" stop-opacity="0.1"/>
</linearGradient>
<linearGradient id="paint6_linear_4167_29167" x1="437.646" y1="23.9787" x2="445.51" y2="25.4885" gradientUnits="userSpaceOnUse">
<stop stop-color="#130722"/>
<stop offset="0.228235" stop-color="#0A0A18"/>
<stop offset="0.523392" stop-color="#130722"/>
</linearGradient>
<linearGradient id="paint7_linear_4167_29167" x1="437.646" y1="23.6559" x2="446.022" y2="25.4538" gradientUnits="userSpaceOnUse">
<stop stop-color="#685879"/>
<stop offset="0.687247" stop-color="#713DFF" stop-opacity="0.08"/>
<stop offset="1" stop-color="#F9EE98" stop-opacity="0.1"/>
</linearGradient>
<linearGradient id="paint8_linear_4167_29167" x1="407.046" y1="21.9073" x2="413.617" y2="23.4217" gradientUnits="userSpaceOnUse">
<stop stop-color="#130722"/>
<stop offset="0.228235" stop-color="#0A0A18"/>
<stop offset="0.523392" stop-color="#130722"/>
</linearGradient>
<linearGradient id="paint9_linear_4167_29167" x1="407.046" y1="21.6791" x2="414.019" y2="23.4758" gradientUnits="userSpaceOnUse">
<stop stop-color="#685879"/>
<stop offset="0.687247" stop-color="#713DFF" stop-opacity="0.08"/>
<stop offset="1" stop-color="#F9EE98" stop-opacity="0.1"/>
</linearGradient>
<linearGradient id="paint10_linear_4167_29167" x1="402.952" y1="22.7784" x2="410.338" y2="24.4365" gradientUnits="userSpaceOnUse">
<stop stop-color="#130722"/>
<stop offset="0.228235" stop-color="#0A0A18"/>
<stop offset="0.523392" stop-color="#130722"/>
</linearGradient>
<linearGradient id="paint11_linear_4167_29167" x1="402.952" y1="22.5158" x2="410.794" y2="24.4842" gradientUnits="userSpaceOnUse">
<stop stop-color="#685879"/>
<stop offset="0.687247" stop-color="#713DFF" stop-opacity="0.08"/>
<stop offset="1" stop-color="#F9EE98" stop-opacity="0.1"/>
</linearGradient>
<linearGradient id="paint12_linear_4167_29167" x1="404.701" y1="2.63913" x2="444.98" y2="25.0023" gradientUnits="userSpaceOnUse">
<stop stop-color="#130722"/>
<stop offset="0.228235" stop-color="#0A0A18"/>
<stop offset="0.523392" stop-color="#130722"/>
</linearGradient>
<linearGradient id="paint13_linear_4167_29167" x1="404.701" y1="1.91791" x2="445.574" y2="27.2895" gradientUnits="userSpaceOnUse">
<stop stop-color="#685879"/>
<stop offset="0.687247" stop-color="#713DFF" stop-opacity="0.08"/>
<stop offset="1" stop-color="#F9EE98" stop-opacity="0.1"/>
</linearGradient>
<linearGradient id="paint14_linear_4167_29167" x1="395" y1="5.86861" x2="445.112" y2="34.3778" gradientUnits="userSpaceOnUse">
<stop stop-color="#685879"/>
<stop offset="0.687247" stop-color="#713DFF" stop-opacity="0.08"/>
<stop offset="1" stop-color="#F9EE98" stop-opacity="0.1"/>
</linearGradient>
<linearGradient id="paint15_linear_4167_29167" x1="395" y1="5.86861" x2="445.112" y2="34.3778" gradientUnits="userSpaceOnUse">
<stop stop-color="#685879"/>
<stop offset="0.687247" stop-color="#713DFF" stop-opacity="0.08"/>
<stop offset="1" stop-color="#F9EE98" stop-opacity="0.1"/>
</linearGradient>
<linearGradient id="paint16_linear_4167_29167" x1="509.783" y1="357.665" x2="434.835" y2="312.825" gradientUnits="userSpaceOnUse">
<stop stop-color="#685879"/>
<stop offset="0.687247" stop-color="#713DFF" stop-opacity="0.08"/>
<stop offset="1" stop-color="#F9EE98" stop-opacity="0.1"/>
</linearGradient>
<linearGradient id="paint17_linear_4167_29167" x1="531.461" y1="347.71" x2="467.935" y2="377.518" gradientUnits="userSpaceOnUse">
<stop stop-color="#685879" stop-opacity="0.42"/>
<stop offset="0.831172" stop-color="#713DFF" stop-opacity="0"/>
</linearGradient>
<linearGradient id="paint18_linear_4167_29167" x1="516.811" y1="342.14" x2="467.359" y2="371.396" gradientUnits="userSpaceOnUse">
<stop stop-color="#685879"/>
<stop offset="0.687247" stop-color="#713DFF" stop-opacity="0.08"/>
<stop offset="1" stop-color="#F9EE98" stop-opacity="0.1"/>
</linearGradient>
<linearGradient id="paint19_linear_4167_29167" x1="495.04" y1="310.526" x2="457.404" y2="335.734" gradientUnits="userSpaceOnUse">
<stop stop-color="#685879" stop-opacity="0.5"/>
<stop offset="0.870794" stop-color="#713DFF" stop-opacity="0.08"/>
</linearGradient>
<linearGradient id="paint20_linear_4167_29167" x1="502.107" y1="339.751" x2="471.365" y2="358.478" gradientUnits="userSpaceOnUse">
<stop stop-color="#685879"/>
<stop offset="0.687247" stop-color="#713DFF" stop-opacity="0.08"/>
<stop offset="1" stop-color="#F9EE98" stop-opacity="0.1"/>
</linearGradient>
<linearGradient id="paint21_linear_4167_29167" x1="476.313" y1="470.999" x2="470.791" y2="457.618" gradientUnits="userSpaceOnUse">
<stop stop-color="#685879"/>
<stop offset="0.687247" stop-color="#713DFF" stop-opacity="0.08"/>
<stop offset="1" stop-color="#F9EE98" stop-opacity="0.1"/>
</linearGradient>
<linearGradient id="paint22_linear_4167_29167" x1="478.442" y1="473.383" x2="478.468" y2="459.359" gradientUnits="userSpaceOnUse">
<stop stop-color="#685879"/>
<stop offset="0.687247" stop-color="#713DFF" stop-opacity="0.08"/>
<stop offset="1" stop-color="#F9EE98" stop-opacity="0.1"/>
</linearGradient>
<linearGradient id="paint23_linear_4167_29167" x1="475.237" y1="476.588" x2="469.558" y2="463.147" gradientUnits="userSpaceOnUse">
<stop stop-color="#685879"/>
<stop offset="0.687247" stop-color="#713DFF" stop-opacity="0.08"/>
<stop offset="1" stop-color="#F9EE98" stop-opacity="0.1"/>
</linearGradient>
<linearGradient id="paint24_linear_4167_29167" x1="516.547" y1="457.107" x2="506.275" y2="442.917" gradientUnits="userSpaceOnUse">
<stop stop-color="#130722"/>
<stop offset="0.228235" stop-color="#0A0A18"/>
<stop offset="0.523392" stop-color="#130722"/>
</linearGradient>
<linearGradient id="paint25_linear_4167_29167" x1="515.952" y1="457.703" x2="505.23" y2="442.302" gradientUnits="userSpaceOnUse">
<stop stop-color="#685879"/>
<stop offset="0.687247" stop-color="#713DFF" stop-opacity="0.08"/>
<stop offset="1" stop-color="#F9EE98" stop-opacity="0.1"/>
</linearGradient>
<linearGradient id="paint26_linear_4167_29167" x1="498.914" y1="484.022" x2="486.613" y2="468.237" gradientUnits="userSpaceOnUse">
<stop stop-color="#130722"/>
<stop offset="0.228235" stop-color="#0A0A18"/>
<stop offset="0.523392" stop-color="#130722"/>
</linearGradient>
<linearGradient id="paint27_linear_4167_29167" x1="498.041" y1="484.896" x2="485.092" y2="467.779" gradientUnits="userSpaceOnUse">
<stop stop-color="#685879"/>
<stop offset="0.687247" stop-color="#713DFF" stop-opacity="0.08"/>
<stop offset="1" stop-color="#F9EE98" stop-opacity="0.1"/>
</linearGradient>
<linearGradient id="paint28_linear_4167_29167" x1="492.796" y1="482.592" x2="492.674" y2="468.976" gradientUnits="userSpaceOnUse">
<stop stop-color="#685879"/>
<stop offset="0.687247" stop-color="#713DFF" stop-opacity="0.08"/>
<stop offset="1" stop-color="#F9EE98" stop-opacity="0.1"/>
</linearGradient>
<linearGradient id="paint29_linear_4167_29167" x1="486.792" y1="483.801" x2="480.922" y2="471.285" gradientUnits="userSpaceOnUse">
<stop stop-color="#130722"/>
<stop offset="0.228235" stop-color="#0A0A18"/>
<stop offset="0.523392" stop-color="#130722"/>
</linearGradient>
<linearGradient id="paint30_linear_4167_29167" x1="486.574" y1="484.02" x2="480.853" y2="470.539" gradientUnits="userSpaceOnUse">
<stop stop-color="#685879"/>
<stop offset="0.687247" stop-color="#713DFF" stop-opacity="0.08"/>
<stop offset="1" stop-color="#F9EE98" stop-opacity="0.1"/>
</linearGradient>
<linearGradient id="paint31_linear_4167_29167" x1="485.527" y1="483.843" x2="484.623" y2="471.122" gradientUnits="userSpaceOnUse">
<stop stop-color="#130722"/>
<stop offset="0.228235" stop-color="#0A0A18"/>
<stop offset="0.523392" stop-color="#130722"/>
</linearGradient>
<linearGradient id="paint32_linear_4167_29167" x1="485.422" y1="483.948" x2="485.222" y2="470.927" gradientUnits="userSpaceOnUse">
<stop stop-color="#685879"/>
<stop offset="0.687247" stop-color="#713DFF" stop-opacity="0.08"/>
<stop offset="1" stop-color="#F9EE98" stop-opacity="0.1"/>
</linearGradient>
<linearGradient id="paint33_linear_4167_29167" x1="480.73" y1="484.865" x2="475.969" y2="471.678" gradientUnits="userSpaceOnUse">
<stop stop-color="#685879"/>
<stop offset="0.687247" stop-color="#713DFF" stop-opacity="0.08"/>
<stop offset="1" stop-color="#F9EE98" stop-opacity="0.1"/>
</linearGradient>
<linearGradient id="paint34_linear_4167_29167" x1="479.536" y1="485.167" x2="478.996" y2="470.437" gradientUnits="userSpaceOnUse">
<stop stop-color="#130722"/>
<stop offset="0.228235" stop-color="#0A0A18"/>
<stop offset="0.523392" stop-color="#130722"/>
</linearGradient>
<linearGradient id="paint35_linear_4167_29167" x1="479.42" y1="485.284" x2="479.706" y2="470.293" gradientUnits="userSpaceOnUse">
<stop stop-color="#685879"/>
<stop offset="0.687247" stop-color="#713DFF" stop-opacity="0.08"/>
<stop offset="1" stop-color="#F9EE98" stop-opacity="0.1"/>
</linearGradient>
<linearGradient id="paint36_linear_4167_29167" x1="487.89" y1="463.782" x2="479.577" y2="449.563" gradientUnits="userSpaceOnUse">
<stop stop-color="#685879"/>
<stop offset="0.687247" stop-color="#713DFF" stop-opacity="0.08"/>
<stop offset="1" stop-color="#F9EE98" stop-opacity="0.1"/>
</linearGradient>
<linearGradient id="paint37_linear_4167_29167" x1="495.204" y1="456.467" x2="495.284" y2="441.109" gradientUnits="userSpaceOnUse">
<stop stop-color="#685879"/>
<stop offset="0.687247" stop-color="#713DFF" stop-opacity="0.08"/>
<stop offset="1" stop-color="#F9EE98" stop-opacity="0.1"/>
</linearGradient>
<linearGradient id="paint38_linear_4167_29167" x1="492.016" y1="453.026" x2="486.257" y2="439.647" gradientUnits="userSpaceOnUse">
<stop stop-color="#685879"/>
<stop offset="0.687247" stop-color="#713DFF" stop-opacity="0.08"/>
<stop offset="1" stop-color="#F9EE98" stop-opacity="0.1"/>
</linearGradient>
<linearGradient id="paint39_linear_4167_29167" x1="500.698" y1="446.103" x2="496.332" y2="433.193" gradientUnits="userSpaceOnUse">
<stop stop-color="#685879"/>
<stop offset="0.687247" stop-color="#713DFF" stop-opacity="0.08"/>
<stop offset="1" stop-color="#F9EE98" stop-opacity="0.1"/>
</linearGradient>
<linearGradient id="paint40_linear_4167_29167" x1="502.682" y1="443.456" x2="496.508" y2="429.996" gradientUnits="userSpaceOnUse">
<stop stop-color="#685879"/>
<stop offset="0.687247" stop-color="#713DFF" stop-opacity="0.08"/>
<stop offset="1" stop-color="#F9EE98" stop-opacity="0.1"/>
</linearGradient>
<linearGradient id="paint41_linear_4167_29167" x1="485.341" y1="481.912" x2="463.533" y2="453.297" gradientUnits="userSpaceOnUse">
<stop stop-color="#685879"/>
<stop offset="1" stop-color="#713DFF" stop-opacity="0.08"/>
</linearGradient>
<linearGradient id="paint42_linear_4167_29167" x1="485.341" y1="481.912" x2="463.533" y2="453.297" gradientUnits="userSpaceOnUse">
<stop stop-color="#685879"/>
<stop offset="0.687247" stop-color="#713DFF" stop-opacity="0.08"/>
<stop offset="1" stop-color="#F9EE98" stop-opacity="0.1"/>
</linearGradient>
<radialGradient id="paint43_radial_4167_29167" cx="0" cy="0" r="1" gradientUnits="userSpaceOnUse" gradientTransform="translate(432 414) rotate(14.5891) scale(88.4716 50.7003)">
<stop stop-color="#713DFF" stop-opacity="0.08"/>
<stop offset="1" stop-color="#713DFF" stop-opacity="0"/>
</radialGradient>
<linearGradient id="paint44_linear_4167_29167" x1="277" y1="386.429" x2="382.862" y2="565.011" gradientUnits="userSpaceOnUse">
<stop stop-color="#685879"/>
<stop offset="0.687247" stop-color="#713DFF" stop-opacity="0.08"/>
<stop offset="1" stop-color="#F9EE98" stop-opacity="0.1"/>
</linearGradient>
<linearGradient id="paint45_linear_4167_29167" x1="70.7916" y1="221.66" x2="117.528" y2="389.869" gradientUnits="userSpaceOnUse">
<stop stop-color="#713DFF" stop-opacity="0.4"/>
<stop offset="0.554476" stop-color="#6A5390" stop-opacity="0.17"/>
<stop offset="0.696509" stop-color="#713DFF" stop-opacity="0.12"/>
<stop offset="1" stop-color="#713DFF" stop-opacity="0.31"/>
</linearGradient>
<linearGradient id="paint46_linear_4167_29167" x1="236.789" y1="181.65" x2="174.454" y2="433.981" gradientUnits="userSpaceOnUse">
<stop stop-color="#685879"/>
<stop offset="0.687247" stop-color="#713DFF" stop-opacity="0.08"/>
<stop offset="1" stop-color="#F9EE98" stop-opacity="0.1"/>
</linearGradient>
<linearGradient id="paint47_linear_4167_29167" x1="238.503" y1="160.061" x2="242.098" y2="202.862" gradientUnits="userSpaceOnUse">
<stop stop-color="#130722"/>
<stop offset="0.228235" stop-color="#0A0A18"/>
<stop offset="0.523392" stop-color="#130722"/>
</linearGradient>
<linearGradient id="paint48_linear_4167_29167" x1="240.283" y1="159.584" x2="243.192" y2="205.464" gradientUnits="userSpaceOnUse">
<stop stop-color="#685879"/>
<stop offset="0.34375" stop-color="#713DFF"/>
<stop offset="0.90625" stop-color="#72606F"/>
</linearGradient>
<linearGradient id="paint49_linear_4167_29167" x1="246.217" y1="160.395" x2="244.839" y2="172.883" gradientUnits="userSpaceOnUse">
<stop stop-color="#130722"/>
<stop offset="0.228235" stop-color="#0A0A18"/>
<stop offset="0.523392" stop-color="#130722"/>
</linearGradient>
<linearGradient id="paint50_linear_4167_29167" x1="246.471" y1="160.327" x2="244.497" y2="173.463" gradientUnits="userSpaceOnUse">
<stop stop-color="#685879"/>
<stop offset="0.34375" stop-color="#713DFF"/>
<stop offset="0.90625" stop-color="#72606F"/>
</linearGradient>
<linearGradient id="paint51_linear_4167_29167" x1="249.218" y1="161.558" x2="249.331" y2="172.369" gradientUnits="userSpaceOnUse">
<stop stop-color="#130722"/>
<stop offset="0.228235" stop-color="#0A0A18"/>
<stop offset="0.523392" stop-color="#130722"/>
</linearGradient>
<linearGradient id="paint52_linear_4167_29167" x1="249.537" y1="161.473" x2="249.333" y2="172.999" gradientUnits="userSpaceOnUse">
<stop stop-color="#685879"/>
<stop offset="0.34375" stop-color="#713DFF"/>
<stop offset="0.90625" stop-color="#72606F"/>
</linearGradient>
<linearGradient id="paint53_linear_4167_29167" x1="245.36" y1="160.625" x2="245.602" y2="171.683" gradientUnits="userSpaceOnUse">
<stop stop-color="#130722"/>
<stop offset="0.228235" stop-color="#0A0A18"/>
<stop offset="0.523392" stop-color="#130722"/>
</linearGradient>
<linearGradient id="paint54_linear_4167_29167" x1="245.702" y1="160.534" x2="245.641" y2="172.335" gradientUnits="userSpaceOnUse">
<stop stop-color="#685879"/>
<stop offset="0.34375" stop-color="#713DFF"/>
<stop offset="0.90625" stop-color="#72606F"/>
</linearGradient>
<linearGradient id="paint55_linear_4167_29167" x1="233.345" y1="185.522" x2="229.56" y2="200.35" gradientUnits="userSpaceOnUse">
<stop stop-color="#130722"/>
<stop offset="0.228235" stop-color="#0A0A18"/>
<stop offset="0.523392" stop-color="#130722"/>
</linearGradient>
<linearGradient id="paint56_linear_4167_29167" x1="233.575" y1="185.461" x2="228.871" y2="200.725" gradientUnits="userSpaceOnUse">
<stop stop-color="#685879"/>
<stop offset="0.34375" stop-color="#713DFF"/>
<stop offset="0.90625" stop-color="#72606F"/>
</linearGradient>
<linearGradient id="paint57_linear_4167_29167" x1="229.137" y1="197.027" x2="229.03" y2="212.513" gradientUnits="userSpaceOnUse">
<stop stop-color="#130722"/>
<stop offset="0.228235" stop-color="#0A0A18"/>
<stop offset="0.523392" stop-color="#130722"/>
</linearGradient>
<linearGradient id="paint58_linear_4167_29167" x1="229.565" y1="196.912" x2="228.957" y2="213.397" gradientUnits="userSpaceOnUse">
<stop stop-color="#685879"/>
<stop offset="0.34375" stop-color="#713DFF"/>
<stop offset="0.90625" stop-color="#72606F"/>
</linearGradient>
<linearGradient id="paint59_linear_4167_29167" x1="220.057" y1="198.239" x2="218.981" y2="211.935" gradientUnits="userSpaceOnUse">
<stop stop-color="#130722"/>
<stop offset="0.228235" stop-color="#0A0A18"/>
<stop offset="0.523392" stop-color="#130722"/>
</linearGradient>
<linearGradient id="paint60_linear_4167_29167" x1="220.359" y1="198.158" x2="218.688" y2="212.622" gradientUnits="userSpaceOnUse">
<stop stop-color="#685879"/>
<stop offset="0.34375" stop-color="#713DFF"/>
<stop offset="0.90625" stop-color="#72606F"/>
</linearGradient>
<linearGradient id="paint61_linear_4167_29167" x1="213.779" y1="196.828" x2="212.043" y2="209.241" gradientUnits="userSpaceOnUse">
<stop stop-color="#130722"/>
<stop offset="0.228235" stop-color="#0A0A18"/>
<stop offset="0.523392" stop-color="#130722"/>
</linearGradient>
<linearGradient id="paint62_linear_4167_29167" x1="214.015" y1="196.765" x2="211.64" y2="209.769" gradientUnits="userSpaceOnUse">
<stop stop-color="#685879"/>
<stop offset="0.34375" stop-color="#713DFF"/>
<stop offset="0.90625" stop-color="#72606F"/>
</linearGradient>
<linearGradient id="paint63_linear_4167_29167" x1="241.569" y1="159.226" x2="239.164" y2="172.882" gradientUnits="userSpaceOnUse">
<stop stop-color="#685879"/>
<stop offset="0.34375" stop-color="#713DFF"/>
<stop offset="0.90625" stop-color="#72606F"/>
</linearGradient>
<linearGradient id="paint64_linear_4167_29167" x1="237.115" y1="160.419" x2="241.12" y2="188.958" gradientUnits="userSpaceOnUse">
<stop stop-color="#130722"/>
<stop offset="0.228235" stop-color="#0A0A18"/>
<stop offset="0.523392" stop-color="#130722"/>
</linearGradient>
<linearGradient id="paint65_linear_4167_29167" x1="238.848" y1="159.955" x2="242.706" y2="190.621" gradientUnits="userSpaceOnUse">
<stop stop-color="#685879"/>
<stop offset="0.34375" stop-color="#713DFF"/>
<stop offset="0.90625" stop-color="#72606F"/>
</linearGradient>
<linearGradient id="paint66_linear_4167_29167" x1="249.857" y1="165.321" x2="252.928" y2="214.661" gradientUnits="userSpaceOnUse">
<stop stop-color="#685879"/>
<stop offset="0.687247" stop-color="#713DFF" stop-opacity="0.08"/>
<stop offset="1" stop-color="#F9EE98" stop-opacity="0.1"/>
</linearGradient>
<linearGradient id="paint67_linear_4167_29167" x1="249.857" y1="165.321" x2="252.928" y2="214.661" gradientUnits="userSpaceOnUse">
<stop stop-color="#685879"/>
<stop offset="0.34375" stop-color="#713DFF"/>
<stop offset="0.90625" stop-color="#72606F"/>
</linearGradient>
<linearGradient id="paint68_linear_4167_29167" x1="196.243" y1="186.402" x2="187.689" y2="202.936" gradientUnits="userSpaceOnUse">
<stop stop-color="#130722"/>
<stop offset="0.228235" stop-color="#0A0A18"/>
<stop offset="0.523392" stop-color="#130722"/>
</linearGradient>
<linearGradient id="paint69_linear_4167_29167" x1="196.446" y1="186.347" x2="186.811" y2="202.673" gradientUnits="userSpaceOnUse">
<stop stop-color="#685879"/>
<stop offset="0.34375" stop-color="#713DFF"/>
<stop offset="0.90625" stop-color="#72606F"/>
</linearGradient>
<linearGradient id="paint70_linear_4167_29167" x1="102.197" y1="335.269" x2="128.563" y2="475.606" gradientUnits="userSpaceOnUse">
<stop stop-color="#713DFF" stop-opacity="0.6"/>
<stop offset="0.554476" stop-color="#6A5390" stop-opacity="0.17"/>
<stop offset="0.696509" stop-color="#713DFF" stop-opacity="0.12"/>
<stop offset="1" stop-color="#713DFF" stop-opacity="0.31"/>
</linearGradient>
<linearGradient id="paint71_linear_4167_29167" x1="290.104" y1="306.41" x2="240.223" y2="532.071" gradientUnits="userSpaceOnUse">
<stop stop-color="#685879"/>
<stop offset="0.687247" stop-color="#713DFF" stop-opacity="0.08"/>
<stop offset="1" stop-color="#F9EE98" stop-opacity="0.1"/>
</linearGradient>
<linearGradient id="paint72_linear_4167_29167" x1="47.3956" y1="32.2462" x2="45.0817" y2="159.678" gradientUnits="userSpaceOnUse">
<stop stop-color="#685879"/>
<stop offset="0.34375" stop-color="#713DFF"/>
<stop offset="0.90625" stop-color="#72606F"/>
</linearGradient>
<linearGradient id="paint73_linear_4167_29167" x1="99.6852" y1="7.19545" x2="131.843" y2="162.9" gradientUnits="userSpaceOnUse">
<stop stop-color="#685879"/>
<stop offset="0.446909" stop-color="#713DFF" stop-opacity="0.12"/>
<stop offset="1" stop-color="#6663F6" stop-opacity="0"/>
</linearGradient>
<linearGradient id="paint74_linear_4167_29167" x1="71.4731" y1="16.7852" x2="85.7265" y2="151.955" gradientUnits="userSpaceOnUse">
<stop stop-color="#685879"/>
<stop offset="0.34375" stop-color="#713DFF"/>
<stop offset="0.90625" stop-color="#72606F"/>
</linearGradient>
<linearGradient id="paint75_linear_4167_29167" x1="41.3742" y1="126.655" x2="57.4456" y2="43.4061" gradientUnits="userSpaceOnUse">
<stop stop-color="#685879"/>
<stop offset="0.626558" stop-color="#713DFF" stop-opacity="0.12"/>
<stop offset="1" stop-color="#6663F6" stop-opacity="0"/>
</linearGradient>
<linearGradient id="paint76_linear_4167_29167" x1="70.9415" y1="26.6686" x2="77.1929" y2="141.125" gradientUnits="userSpaceOnUse">
<stop stop-color="#685879"/>
<stop offset="0.34375" stop-color="#713DFF"/>
<stop offset="0.90625" stop-color="#72606F"/>
</linearGradient>
<linearGradient id="paint77_linear_4167_29167" x1="48.3867" y1="33.0891" x2="30.996" y2="143.29" gradientUnits="userSpaceOnUse">
<stop stop-color="#685879"/>
<stop offset="0.34375" stop-color="#713DFF"/>
<stop offset="0.90625" stop-color="#72606F"/>
</linearGradient>
<linearGradient id="paint78_linear_4167_29167" x1="78.8921" y1="50.7878" x2="74.5536" y2="114.205" gradientUnits="userSpaceOnUse">
<stop stop-color="#685879"/>
<stop offset="0.34375" stop-color="#713DFF"/>
<stop offset="0.90625" stop-color="#72606F"/>
</linearGradient>
<linearGradient id="paint79_linear_4167_29167" x1="370.504" y1="257.606" x2="314.332" y2="296.246" gradientUnits="userSpaceOnUse">
<stop stop-color="#685879"/>
<stop offset="0.687247" stop-color="#713DFF" stop-opacity="0.08"/>
<stop offset="1" stop-color="#F9EE98" stop-opacity="0.1"/>
</linearGradient>
<linearGradient id="paint80_linear_4167_29167" x1="320.671" y1="178.84" x2="305.11" y2="307.615" gradientUnits="userSpaceOnUse">
<stop stop-color="#685879" stop-opacity="0.42"/>
<stop offset="0.831172" stop-color="#713DFF" stop-opacity="0"/>
</linearGradient>
<linearGradient id="paint81_linear_4167_29167" x1="317.165" y1="198.705" x2="324.801" y2="313.626" gradientUnits="userSpaceOnUse">
<stop stop-color="#685879"/>
<stop offset="0.687247" stop-color="#713DFF" stop-opacity="0.08"/>
<stop offset="1" stop-color="#F9EE98" stop-opacity="0.1"/>
</linearGradient>
<linearGradient id="paint82_linear_4167_29167" x1="318.268" y1="195.622" x2="306.077" y2="296.513" gradientUnits="userSpaceOnUse">
<stop stop-color="#685879" stop-opacity="0.8"/>
<stop offset="0.831172" stop-color="#713DFF" stop-opacity="0.08"/>
</linearGradient>
<linearGradient id="paint83_linear_4167_29167" x1="315.522" y1="211.186" x2="321.504" y2="301.222" gradientUnits="userSpaceOnUse">
<stop stop-color="#685879"/>
<stop offset="0.687247" stop-color="#713DFF" stop-opacity="0.08"/>
<stop offset="1" stop-color="#F9EE98" stop-opacity="0.1"/>
</linearGradient>
<linearGradient id="paint84_linear_4167_29167" x1="293.77" y1="240.268" x2="319.254" y2="236.546" gradientUnits="userSpaceOnUse">
<stop stop-color="#685879"/>
<stop offset="0.479092" stop-color="#713DFF" stop-opacity="0.56"/>
<stop offset="1" stop-color="#F9EE98" stop-opacity="0.19"/>
</linearGradient>
<clipPath id="clip0_4167_29167">
<rect width="122.596" height="85" fill="white" transform="translate(73.3057 12.5879) rotate(54.7697)"/>
</clipPath>
<clipPath id="clip1_4167_29167">
<rect width="57.48" height="29.31" fill="white" transform="translate(79.936 50.2197) rotate(61.2734)"/>
</clipPath>
</defs>
</svg>
