<svg width="540" height="578" viewBox="0 0 540 578" fill="none" xmlns="http://www.w3.org/2000/svg">
<g clip-path="url(#clip0_4167_29235)">
<path d="M85.2046 178.106C107.754 194.094 122.172 218.827 112.226 232.859C102.279 246.892 73.633 244.111 51.0834 228.123C28.5337 212.135 15.9638 187.488 25.8904 173.444C35.8367 159.412 62.655 162.118 85.2046 178.106Z" fill="#150925"/>
<path d="M85.2046 178.106C107.754 194.094 122.172 218.827 112.226 232.859C102.279 246.892 73.633 244.111 51.0834 228.123C28.5337 212.135 15.9638 187.488 25.8904 173.444C35.8367 159.412 62.655 162.118 85.2046 178.106Z" fill="url(#paint0_linear_4167_29235)"/>
<path d="M85.2046 178.106C107.754 194.094 122.172 218.827 112.226 232.859C102.279 246.892 73.633 244.111 51.0834 228.123C28.5337 212.135 15.9638 187.488 25.8904 173.444C35.8367 159.412 62.655 162.118 85.2046 178.106Z" stroke="url(#paint1_linear_4167_29235)" stroke-width="0.86" stroke-miterlimit="10"/>
<mask id="path-2-inside-1_4167_29235" fill="white">
<path d="M112.585 233.332C105.395 243.549 98.6915 253.198 84.673 253.242C72.5794 253.285 54.7209 245.466 44.273 238.002C33.8053 230.527 20.7497 216.124 16.6869 205.269C11.8483 192.243 18.1759 183.703 25.27 173.378C25.3503 173.239 25.439 173.131 25.5391 173.003"/>
</mask>
<path d="M84.673 253.242L84.6703 252.382L84.67 252.382L84.673 253.242ZM44.273 238.002L44.7729 237.302L44.7728 237.302L44.273 238.002ZM16.6869 205.269L15.8807 205.569L15.8815 205.571L16.6869 205.269ZM25.27 173.378L25.9788 173.865L25.9979 173.837L26.0148 173.808L25.27 173.378ZM111.882 232.837C104.649 243.115 98.1838 252.339 84.6703 252.382L84.6757 254.102C99.1992 254.056 106.142 243.983 113.288 233.827L111.882 232.837ZM84.67 252.382C78.7811 252.403 71.4108 250.502 64.1724 247.637C56.9467 244.777 49.9331 240.989 44.7729 237.302L43.7731 238.702C49.0608 242.479 56.2005 246.332 63.5394 249.237C70.8656 252.136 78.4713 254.124 84.676 254.102L84.67 252.382ZM44.7728 237.302C39.6041 233.611 33.773 228.191 28.7295 222.342C23.6774 216.482 19.4722 210.257 17.4923 204.968L15.8815 205.571C17.9644 211.136 22.3184 217.54 27.4268 223.465C32.5437 229.399 38.4742 234.918 43.7732 238.702L44.7728 237.302ZM17.4931 204.97C15.1493 198.66 15.5137 193.481 17.3106 188.608C19.1287 183.678 22.4083 179.062 25.9788 173.865L24.5612 172.891C21.0375 178.019 17.6063 182.835 15.6968 188.013C13.766 193.249 13.3859 198.852 15.8807 205.569L17.4931 204.97ZM26.0148 173.808C26.0575 173.734 26.1003 173.681 26.216 173.534L24.8622 172.473C24.7776 172.581 24.6431 172.744 24.5252 172.948L26.0148 173.808Z" fill="url(#paint2_linear_4167_29235)" mask="url(#path-2-inside-1_4167_29235)"/>
<path d="M61.3162 225.416C59.3398 224.275 57.3812 223.011 55.5279 221.703C35.8415 207.739 24.8198 186.664 31.9375 176.618C38.3595 167.548 57.5212 168.591 75.5458 178.998C77.621 180.196 79.6981 181.528 81.6783 182.936C102.042 197.37 113.911 218.484 107.097 228.096C100.629 237.245 79.657 236.005 61.3162 225.416Z" fill="url(#paint3_linear_4167_29235)" fill-opacity="0.6" stroke="url(#paint4_linear_4167_29235)" stroke-width="0.86" stroke-miterlimit="10"/>
<path d="M112.226 232.86C102.279 246.892 73.6331 244.111 51.0835 228.123C28.5339 212.135 15.9639 187.489 25.8905 173.445" stroke="url(#paint5_linear_4167_29235)" stroke-width="0.86" stroke-miterlimit="10"/>
<path fill-rule="evenodd" clip-rule="evenodd" d="M55.2459 203.69C54.9799 203.631 54.7089 203.418 54.6254 203.238L54.2914 202.516C54.2079 202.336 54.3319 202.219 54.592 202.256C56.8356 202.626 58.8188 202.733 60.5051 202.575C66.7716 202.022 69.0352 198.101 66.3808 192.398C65.6669 190.872 64.6049 189.202 63.148 187.436C62.9778 187.244 63.0173 187.078 63.2234 187.046L64.015 186.974C64.213 186.957 64.5248 187.099 64.7172 187.285L85.4479 208.992C86.6039 210.207 86.0482 211.17 84.4182 210.776L55.2541 203.676L55.2459 203.69Z" fill="url(#paint6_linear_4167_29235)" stroke="url(#paint7_linear_4167_29235)" stroke-width="0.86" stroke-miterlimit="10"/>
</g>
<path d="M441.004 500.371L445.19 505.823C459.849 524.562 450.854 550.361 429.911 565.119C397.174 588.194 373.299 572.31 365.655 557.47" fill="#130722"/>
<path d="M441.004 500.371L445.19 505.823C459.849 524.562 450.854 550.361 429.911 565.119C397.174 588.194 373.299 572.31 365.655 557.47" stroke="url(#paint8_linear_4167_29235)" stroke-miterlimit="10"/>
<path d="M426.092 560.488C402.476 578.27 376.621 573.236 365.66 557.479C355.089 542.276 363.086 518.125 383.744 502.976C404.406 487.828 430.922 486.684 441.842 501.637C452.767 516.586 451.62 541.272 426.092 560.493L426.092 560.488Z" fill="#130722"/>
<path d="M426.092 560.488C402.476 578.27 376.621 573.236 365.66 557.479C355.089 542.276 363.086 518.125 383.744 502.976C404.406 487.828 430.922 486.684 441.842 501.637C452.767 516.586 451.62 541.272 426.092 560.493L426.092 560.488Z" fill="url(#paint9_linear_4167_29235)"/>
<path d="M426.092 560.488C402.476 578.27 376.621 573.236 365.66 557.479C355.089 542.276 363.086 518.125 383.744 502.976C404.406 487.828 430.922 486.684 441.842 501.637C452.767 516.586 451.62 541.272 426.092 560.493L426.092 560.488Z" stroke="url(#paint10_linear_4167_29235)" stroke-miterlimit="10"/>
<path d="M421.793 554.843C403.146 568.938 382.733 564.948 374.079 552.458C365.732 540.407 372.047 521.263 388.357 509.255C404.671 497.247 425.606 496.34 434.228 508.194C442.854 520.043 441.949 539.611 421.793 554.847L421.793 554.843Z" fill="#130722"/>
<path d="M421.793 554.843C403.146 568.938 382.733 564.948 374.079 552.458C365.732 540.407 372.047 521.263 388.357 509.255C404.671 497.247 425.606 496.34 434.228 508.194C442.854 520.043 441.949 539.611 421.793 554.847L421.793 554.843Z" fill="url(#paint11_linear_4167_29235)"/>
<path d="M421.793 554.843C403.146 568.938 382.733 564.948 374.079 552.458C365.732 540.407 372.047 521.263 388.357 509.255C404.671 497.247 425.606 496.34 434.228 508.194C442.854 520.043 441.949 539.611 421.793 554.847L421.793 554.843Z" stroke="url(#paint12_linear_4167_29235)" stroke-miterlimit="10"/>
<path fill-rule="evenodd" clip-rule="evenodd" d="M386.746 544.126C381.233 536.619 384.872 524.579 394.874 517.235C404.875 509.891 417.452 510.023 422.965 517.531C428.478 525.039 424.839 537.079 414.838 544.423C404.836 551.767 392.259 551.634 386.746 544.126ZM406.015 521.651L409.53 519.07C410.268 518.528 410.633 518.26 410.934 518.203C411.26 518.144 411.549 518.23 411.724 518.431C411.882 518.618 411.876 518.992 411.864 519.741L411.618 537.595C411.606 538.354 411.599 538.735 411.429 538.998C411.247 539.281 410.944 539.503 410.619 539.592C410.317 539.675 409.951 539.569 409.224 539.352L405.724 538.325L405.706 538.319C404.923 538.089 404.526 537.973 404.233 537.759C403.912 537.527 403.677 537.206 403.551 536.831C403.434 536.485 403.438 536.071 403.453 535.242L403.57 525.847L403.571 525.822C403.585 525 403.592 524.584 403.726 524.175C403.871 523.729 404.123 523.298 404.461 522.91C404.774 522.562 405.188 522.258 406.015 521.651ZM397.14 528.168L392.104 531.866C391.361 532.411 390.987 532.686 390.845 532.959C390.691 533.253 390.685 533.561 390.828 533.784C390.955 533.984 391.303 534.084 391.986 534.281C392.009 534.287 392.033 534.294 392.057 534.301L396.958 535.688L397.013 535.703C397.698 535.893 398.044 535.989 398.338 535.908C398.663 535.819 398.961 535.6 399.143 535.317C399.309 535.057 399.321 534.682 399.34 533.934L399.475 528.849L399.475 528.831C399.493 528.084 399.502 527.711 399.345 527.525C399.17 527.324 398.879 527.235 398.553 527.295C398.256 527.348 397.883 527.622 397.14 528.168Z" fill="url(#paint13_linear_4167_29235)"/>
<g clip-path="url(#clip1_4167_29235)">
<path d="M514.367 162.101L360.722 301.746C357.589 304.591 352.768 304.436 349.829 301.392L259.999 207.987C256.479 204.328 256.668 198.476 260.417 195.049L406.791 61.2381C412.29 56.2988 420.699 56.5464 425.894 61.8109L514.647 151.669C517.534 154.59 517.408 159.335 514.367 162.101Z" fill="url(#paint14_linear_4167_29235)"/>
<path d="M514.367 162.101L360.722 301.746C357.589 304.591 352.768 304.436 349.829 301.392L259.999 207.987C256.479 204.328 256.668 198.476 260.417 195.049L406.791 61.2381C412.29 56.2988 420.699 56.5464 425.894 61.8109L514.647 151.669C517.534 154.59 517.408 159.335 514.367 162.101Z" fill="url(#paint15_linear_4167_29235)" fill-opacity="0.1"/>
<path d="M514.367 162.101L360.722 301.746C357.589 304.591 352.768 304.436 349.829 301.392L259.999 207.987C256.479 204.328 256.668 198.476 260.417 195.049L406.791 61.2381C412.29 56.2988 420.699 56.5464 425.894 61.8109L514.647 151.669C517.534 154.59 517.408 159.335 514.367 162.101Z" stroke="url(#paint16_linear_4167_29235)" stroke-miterlimit="10"/>
<path d="M346.021 310.258C342.414 313.275 337.107 313.024 333.805 309.682L246.584 221.462C243.099 217.933 243.106 212.252 246.598 208.735L244.24 211.971L230.856 224.945C226.745 228.93 226.694 235.51 230.746 239.556L316.072 324.695C320.061 328.677 326.519 328.678 330.521 324.703L343.61 311.684" fill="#130722"/>
<path d="M346.021 310.258C342.414 313.275 337.107 313.024 333.805 309.682L246.584 221.462C243.099 217.933 243.106 212.252 246.598 208.735L244.24 211.971L230.856 224.945C226.745 228.93 226.694 235.51 230.746 239.556L316.072 324.695C320.061 328.677 326.519 328.678 330.521 324.703L343.61 311.684" fill="url(#paint17_linear_4167_29235)"/>
<path d="M346.021 310.258C342.414 313.275 337.107 313.024 333.805 309.682L246.584 221.462C243.099 217.933 243.106 212.252 246.598 208.735L244.24 211.971L230.856 224.945C226.745 228.93 226.694 235.51 230.746 239.556L316.072 324.695C320.061 328.677 326.519 328.678 330.521 324.703L343.61 311.684" stroke="url(#paint18_linear_4167_29235)" stroke-miterlimit="10"/>
<path d="M259.999 207.987L349.829 301.392C350.98 302.582 352.421 303.331 353.935 303.629L346.029 310.254C342.422 313.271 337.115 313.02 333.813 309.678L246.592 221.458C243.107 217.929 243.113 212.248 246.606 208.731L253.328 201.97L259.999 207.987Z" fill="#130722"/>
<path d="M259.999 207.987L349.829 301.392C350.98 302.582 352.421 303.331 353.935 303.629L346.029 310.254C342.422 313.271 337.115 313.02 333.813 309.678L246.592 221.458C243.107 217.929 243.113 212.248 246.606 208.731L253.328 201.97L259.999 207.987Z" fill="url(#paint19_linear_4167_29235)"/>
<path d="M259.999 207.987L349.829 301.392C350.98 302.582 352.421 303.331 353.935 303.629L346.029 310.254C342.422 313.271 337.115 313.02 333.813 309.678L246.592 221.458C243.107 217.929 243.113 212.248 246.606 208.731L253.328 201.97L259.999 207.987Z" stroke="url(#paint20_linear_4167_29235)" stroke-miterlimit="10"/>
<path d="M250.91 199.807C248.259 197.436 248.236 193.294 250.854 190.885L403.37 50.5857C406.084 48.0866 410.244 48.0364 413.022 50.465L411.313 48.7483C406.341 44.8536 402.638 40.7366 384.981 58.0631L249.981 181.233C247.494 183.498 245.891 186.628 245.72 189.994C245.59 192.516 246.212 195.359 248.68 197.77" fill="#130722"/>
<path d="M250.91 199.807C248.259 197.436 248.236 193.294 250.854 190.885L403.37 50.5857C406.084 48.0866 410.244 48.0364 413.022 50.465L411.313 48.7483C406.341 44.8536 402.638 40.7366 384.981 58.0631L249.981 181.233C247.494 183.498 245.891 186.628 245.72 189.994C245.59 192.516 246.212 195.359 248.68 197.77" fill="url(#paint21_linear_4167_29235)"/>
<path d="M248.68 197.77C246.212 195.359 245.59 192.516 245.72 189.994C245.891 186.628 247.494 183.498 249.981 181.233L384.981 58.0631C402.638 40.7366 406.341 44.8536 411.313 48.7483L413.022 50.465C410.244 48.0364 406.084 48.0866 403.37 50.5857L250.854 190.885C248.236 193.294 248.259 197.436 250.91 199.807L258 206" stroke="url(#paint22_linear_4167_29235)" stroke-miterlimit="10"/>
<path d="M259.999 207.987C256.479 204.328 256.668 198.476 260.417 195.048L406.791 61.2378C412.29 56.2985 420.699 56.5461 425.894 61.8106L430.447 66.322C419.473 57.0894 415.437 61.7644 399.093 76.5664L263.739 199.869C260.343 202.962 260.184 208.251 263.389 211.538L259.992 207.991L259.999 207.987Z" fill="url(#paint23_linear_4167_29235)" stroke="url(#paint24_linear_4167_29235)" stroke-miterlimit="10"/>
<path d="M411.312 48.7483C406.341 44.8536 402.637 40.7366 384.981 58.0631L249.981 181.233C247.494 183.498 245.891 186.628 245.72 189.994C245.59 192.516 246.211 195.359 248.68 197.77L250.905 199.799L245.494 194.608C240.986 190.28 241.056 183.052 245.648 178.808L390.291 46.1066C396.52 40.3546 403.625 41.8017 409.856 47.5484L424 59.9995" fill="#130722"/>
<path d="M411.312 48.7483C406.341 44.8536 402.637 40.7366 384.981 58.0631L249.981 181.233C247.494 183.498 245.891 186.628 245.72 189.994C245.59 192.516 246.211 195.359 248.68 197.77L250.905 199.799L245.494 194.608C240.986 190.28 241.056 183.052 245.648 178.808L390.291 46.1066C396.52 40.3546 403.625 41.8017 409.856 47.5484L424 59.9995" fill="url(#paint25_linear_4167_29235)"/>
<path d="M411.312 48.7483C406.341 44.8536 402.637 40.7366 384.981 58.0631L249.981 181.233C247.494 183.498 245.891 186.628 245.72 189.994C245.59 192.516 246.211 195.359 248.68 197.77L250.905 199.799L245.494 194.608C240.986 190.28 241.056 183.052 245.648 178.808L390.291 46.1066C396.52 40.3546 403.625 41.8017 409.856 47.5484L424 59.9995" fill="url(#paint26_linear_4167_29235)"/>
<path d="M411.312 48.7483C406.341 44.8536 402.637 40.7366 384.981 58.0631L249.981 181.233C247.494 183.498 245.891 186.628 245.72 189.994C245.59 192.516 246.211 195.359 248.68 197.77L250.905 199.799L245.494 194.608C240.986 190.28 241.056 183.052 245.648 178.808L390.291 46.1066C396.52 40.3546 403.625 41.8017 409.856 47.5484L424 59.9995" stroke="url(#paint27_linear_4167_29235)" stroke-miterlimit="10"/>
<path d="M228.724 227.935C226.931 231.737 227.605 236.414 230.752 239.558L316.078 324.697C320.067 328.68 326.525 328.68 330.527 324.705L328.203 326.743L308.19 347.57C305.507 350.362 301.113 350.543 298.21 347.989L206.655 267.413C201.669 263.023 201.453 255.324 206.191 250.659L228.73 227.936L228.724 227.935Z" fill="#130722"/>
<path d="M228.724 227.935C226.931 231.737 227.605 236.414 230.752 239.558L316.078 324.697C320.067 328.68 326.525 328.68 330.527 324.705L328.203 326.743L308.19 347.57C305.507 350.362 301.113 350.543 298.21 347.989L206.655 267.413C201.669 263.023 201.453 255.324 206.191 250.659L228.73 227.936L228.724 227.935Z" fill="url(#paint28_linear_4167_29235)"/>
<path d="M228.724 227.935C226.931 231.737 227.605 236.414 230.752 239.558L316.078 324.697C320.067 328.68 326.525 328.68 330.527 324.705L328.203 326.743L308.19 347.57C305.507 350.362 301.113 350.543 298.21 347.989L206.655 267.413C201.669 263.023 201.453 255.324 206.191 250.659L228.73 227.936L228.724 227.935Z" stroke="url(#paint29_linear_4167_29235)" stroke-miterlimit="10"/>
<path d="M203.231 261.951L172.358 296.978C169.112 300.658 169.678 306.316 173.584 309.279L266.804 379.96C271.119 383.236 277.237 382.573 280.765 378.456L305.864 349.135L308.184 347.569C305.501 350.36 301.107 350.541 298.204 347.987L206.076 267.018C204.58 265.699 203.572 263.91 203.232 261.945L203.231 261.951Z" fill="#130722"/>
<path d="M203.231 261.951L172.358 296.978C169.112 300.658 169.678 306.316 173.584 309.279L266.804 379.96C271.119 383.236 277.237 382.573 280.765 378.456L305.864 349.135L308.184 347.569C305.501 350.36 301.107 350.541 298.204 347.987L206.076 267.018C204.58 265.699 203.572 263.91 203.232 261.945L203.231 261.951Z" fill="url(#paint30_linear_4167_29235)"/>
<path d="M203.231 261.951L172.358 296.978C169.112 300.658 169.678 306.316 173.584 309.279L266.804 379.96C271.119 383.236 277.237 382.573 280.765 378.456L305.864 349.135L308.184 347.569C305.501 350.36 301.107 350.541 298.204 347.987L206.076 267.018C204.58 265.699 203.572 263.91 203.232 261.945L203.231 261.951Z" stroke="url(#paint31_linear_4167_29235)" stroke-miterlimit="10"/>
<path d="M331.759 99.8093C331.759 99.8093 324.196 97.7334 319.558 101.774C316.711 104.252 309.272 111.937 303.947 117.508C300.578 121.031 300.369 126.506 303.453 130.279L314.508 143.797C319.132 149.45 324.136 154.783 329.473 159.763L340.085 169.654C347.273 176.356 358.502 176.056 365.324 168.978C372.694 161.336 371.899 149.001 363.606 142.375L347.941 129.861C343.617 126.407 339.703 122.466 336.277 118.117L325.992 105.134L331.751 99.7943L331.759 99.8093Z" fill="#130722"/>
<path d="M331.759 99.8093C331.759 99.8093 324.196 97.7334 319.558 101.774C316.711 104.252 309.272 111.937 303.947 117.508C300.578 121.031 300.369 126.506 303.453 130.279L314.508 143.797C319.132 149.45 324.136 154.783 329.473 159.763L340.085 169.654C347.273 176.356 358.502 176.056 365.324 168.978C372.694 161.336 371.899 149.001 363.606 142.375L347.941 129.861C343.617 126.407 339.703 122.466 336.277 118.117L325.992 105.134L331.751 99.7943L331.759 99.8093Z" fill="url(#paint32_linear_4167_29235)"/>
<path d="M331.759 99.8093C331.759 99.8093 324.196 97.7334 319.558 101.774C316.711 104.252 309.272 111.937 303.947 117.508C300.578 121.031 300.369 126.506 303.453 130.279L314.508 143.797C319.132 149.45 324.136 154.783 329.473 159.763L340.085 169.654C347.273 176.356 358.502 176.056 365.324 168.978C372.694 161.336 371.899 149.001 363.606 142.375L347.941 129.861C343.617 126.407 339.703 122.466 336.277 118.117L325.992 105.134L331.751 99.7943L331.759 99.8093Z" stroke="url(#paint33_linear_4167_29235)" stroke-miterlimit="10"/>
<path d="M342.407 163.994C337.702 158.868 337.894 151.03 342.836 146.489C347.778 141.948 355.598 142.423 360.304 147.55C365.009 152.676 364.817 160.514 359.875 165.055C354.933 169.596 347.113 169.121 342.407 163.994Z" stroke="url(#paint34_linear_4167_29235)" stroke-width="1.02" stroke-miterlimit="10"/>
</g>
<path d="M482.343 306.746L373.155 328.879C373.063 406.9 335.319 450.764 321.741 458.903L432.075 436.834C469.253 406.247 482.411 347.601 482.343 306.746Z" fill="#130722"/>
<path d="M482.343 306.746L373.155 328.879C373.063 406.9 335.319 450.764 321.741 458.903L432.075 436.834C469.253 406.247 482.411 347.601 482.343 306.746Z" fill="url(#paint35_linear_4167_29235)"/>
<path d="M482.343 306.746L373.155 328.879C373.063 406.9 335.319 450.764 321.741 458.903L432.075 436.834C469.253 406.247 482.411 347.601 482.343 306.746Z" stroke="url(#paint36_linear_4167_29235)" stroke-miterlimit="10"/>
<rect x="73.5" y="359.5" width="303" height="59" rx="14.5" fill="#130722"/>
<rect x="73.5" y="359.5" width="303" height="59" rx="14.5" fill="url(#paint37_radial_4167_29235)"/>
<rect x="73.5" y="359.5" width="303" height="59" rx="14.5" stroke="url(#paint38_linear_4167_29235)"/>
<path d="M111 383H99V395H111V383Z" stroke="#E1FF0B"/>
<path d="M103.759 386.931L102.724 387.965L101.69 389L103.759 391.069" stroke="#E1FF0B"/>
<path d="M106.241 386.931L108.31 389L106.241 391.069" stroke="#E1FF0B"/>
<path d="M128.048 395H126.144L122.112 383.56H124.048L127.088 393.144H127.104L130.128 383.56H131.984L128.048 395ZM139.524 390.744C139.524 390.968 139.524 391.208 139.508 391.336H133.236C133.268 392.696 134.068 393.96 135.684 393.96C137.124 393.96 137.684 393.032 137.828 392.488H139.428C138.996 394.056 137.796 395.24 135.652 395.24C133.06 395.24 131.62 393.4 131.62 390.904C131.62 388.344 133.156 386.584 135.652 386.584C138.132 386.584 139.524 388.216 139.524 390.744ZM133.236 390.104H137.892C137.892 388.824 136.996 387.864 135.604 387.864C134.292 387.864 133.332 388.76 133.236 390.104ZM144.641 386.648C144.929 386.648 145.153 386.664 145.393 386.696V388.2C145.201 388.168 145.057 388.152 144.865 388.152C143.441 388.152 142.417 389.224 142.417 390.776V395H140.849V386.84H142.417V388.392H142.449C142.881 387.368 143.537 386.648 144.641 386.648ZM149.455 395.224C146.975 395.224 145.743 393.944 145.695 392.28H147.279C147.343 393.224 147.919 393.96 149.439 393.96C150.815 393.96 151.183 393.352 151.183 392.76C151.183 391.736 150.095 391.624 149.039 391.4C147.615 391.064 145.983 390.648 145.983 388.952C145.983 387.544 147.119 386.6 149.087 386.6C151.327 386.6 152.399 387.8 152.511 389.208H150.927C150.815 388.584 150.479 387.864 149.119 387.864C148.063 387.864 147.615 388.28 147.615 388.888C147.615 389.736 148.527 389.816 149.679 390.072C151.183 390.424 152.815 390.856 152.815 392.68C152.815 394.264 151.599 395.224 149.455 395.224ZM156.308 395.224C154.676 395.224 153.636 394.28 153.636 392.888C153.636 391.064 155.012 390.52 157.044 390.136C158.324 389.896 159.108 389.736 159.108 388.936C159.108 388.344 158.756 387.848 157.556 387.848C156.132 387.848 155.7 388.296 155.62 389.384H154.02C154.1 387.816 155.124 386.584 157.62 386.584C159.3 386.584 160.644 387.288 160.644 389.4V393.144C160.644 393.736 160.724 394.04 161.028 394.04C161.076 394.04 161.124 394.04 161.22 394.024V394.984C160.948 395.048 160.676 395.08 160.42 395.08C159.636 395.08 159.22 394.776 159.124 393.848H159.092C158.564 394.696 157.636 395.224 156.308 395.224ZM156.66 393.96C158.068 393.96 159.108 393.24 159.108 391.816V390.648C158.852 390.888 158.148 391.064 157.316 391.24C155.876 391.528 155.268 391.928 155.268 392.776C155.268 393.544 155.684 393.96 156.66 393.96ZM165.404 393.8C165.676 393.8 165.804 393.784 166.076 393.736V395C165.676 395.08 165.42 395.096 165.084 395.096C163.74 395.096 162.924 394.584 162.924 392.696V388.136H161.74V386.84H162.924V384.216H164.492V386.84H166.06V388.136H164.492V392.744C164.492 393.608 164.732 393.8 165.404 393.8ZM169.044 385.384H167.268V383.688H169.044V385.384ZM168.932 395H167.364V386.84H168.932V395ZM172.261 395H170.693V383.56H172.261V395ZM181.509 390.744C181.509 390.968 181.509 391.208 181.493 391.336H175.221C175.253 392.696 176.053 393.96 177.669 393.96C179.109 393.96 179.669 393.032 179.813 392.488H181.413C180.981 394.056 179.781 395.24 177.637 395.24C175.045 395.24 173.605 393.4 173.605 390.904C173.605 388.344 175.141 386.584 177.637 386.584C180.117 386.584 181.509 388.216 181.509 390.744ZM175.221 390.104H179.877C179.877 388.824 178.981 387.864 177.589 387.864C176.277 387.864 175.317 388.76 175.221 390.104ZM182.518 397.176V396.312C183.11 396.136 183.366 395.832 183.35 395H182.518V393.256H184.262V395C184.262 396.04 183.798 396.856 182.518 397.176ZM194.61 387.832V383.56H196.178V395H194.61V394.04H194.578C194.13 394.616 193.346 395.224 192.066 395.224C189.986 395.224 188.402 393.608 188.402 390.92C188.402 388.232 189.986 386.6 192.066 386.6C193.346 386.6 194.13 387.192 194.578 387.832H194.61ZM192.322 393.928C193.73 393.928 194.594 392.76 194.594 390.92C194.594 389.064 193.73 387.912 192.322 387.912C190.786 387.912 190.034 389.32 190.034 390.92C190.034 392.52 190.786 393.928 192.322 393.928ZM205.431 390.744C205.431 390.968 205.431 391.208 205.415 391.336H199.143C199.174 392.696 199.975 393.96 201.591 393.96C203.031 393.96 203.591 393.032 203.735 392.488H205.335C204.903 394.056 203.703 395.24 201.559 395.24C198.967 395.24 197.527 393.4 197.527 390.904C197.527 388.344 199.062 386.584 201.559 386.584C204.039 386.584 205.431 388.216 205.431 390.744ZM199.143 390.104H203.799C203.799 388.824 202.903 387.864 201.511 387.864C200.199 387.864 199.239 388.76 199.143 390.104ZM210.409 395H208.649L205.737 386.84H207.417L209.561 393.384H209.577L211.689 386.84H213.321L210.409 395ZM221.54 390.744C221.54 390.968 221.54 391.208 221.524 391.336H215.252C215.284 392.696 216.084 393.96 217.7 393.96C219.14 393.96 219.7 393.032 219.844 392.488H221.444C221.012 394.056 219.812 395.24 217.668 395.24C215.076 395.24 213.636 393.4 213.636 390.904C213.636 388.344 215.172 386.584 217.668 386.584C220.148 386.584 221.54 388.216 221.54 390.744ZM215.252 390.104H219.908C219.908 388.824 219.012 387.864 217.62 387.864C216.308 387.864 215.348 388.76 215.252 390.104ZM224.432 395H222.864V383.56H224.432V395ZM229.841 395.24C227.297 395.24 225.761 393.48 225.761 390.92C225.761 388.376 227.297 386.584 229.857 386.584C232.385 386.584 233.921 388.36 233.921 390.904C233.921 393.464 232.385 395.24 229.841 395.24ZM229.857 393.944C231.521 393.944 232.289 392.616 232.289 390.92C232.289 389.208 231.521 387.896 229.857 387.896C228.161 387.896 227.393 389.208 227.393 390.92C227.393 392.616 228.161 393.944 229.857 393.944ZM239.367 386.6C241.447 386.6 243.031 388.232 243.031 390.92C243.031 393.608 241.447 395.224 239.367 395.224C238.087 395.224 237.303 394.648 236.855 393.992H236.823V397.832H235.255V386.84H236.823V387.8H236.855C237.303 387.224 238.087 386.6 239.367 386.6ZM239.111 393.928C240.647 393.928 241.383 392.52 241.383 390.92C241.383 389.32 240.647 387.912 239.111 387.912C237.703 387.912 236.839 389.064 236.839 390.92C236.839 392.76 237.703 393.928 239.111 393.928ZM251.868 390.744C251.868 390.968 251.868 391.208 251.852 391.336H245.58C245.612 392.696 246.412 393.96 248.028 393.96C249.468 393.96 250.028 393.032 250.172 392.488H251.772C251.34 394.056 250.14 395.24 247.996 395.24C245.404 395.24 243.964 393.4 243.964 390.904C243.964 388.344 245.5 386.584 247.996 386.584C250.476 386.584 251.868 388.216 251.868 390.744ZM245.58 390.104H250.236C250.236 388.824 249.34 387.864 247.948 387.864C246.636 387.864 245.676 388.76 245.58 390.104ZM256.985 386.648C257.273 386.648 257.497 386.664 257.737 386.696V388.2C257.545 388.168 257.401 388.152 257.209 388.152C255.785 388.152 254.761 389.224 254.761 390.776V395H253.193V386.84H254.761V388.392H254.793C255.225 387.368 255.881 386.648 256.985 386.648ZM261.913 391.672H257.625V390.184H261.913V391.672ZM266.169 384.76C265.513 384.76 265.321 384.952 265.321 385.816V386.84H266.841V388.136H265.321V395H263.737V388.136H262.617V386.84H263.737V385.848C263.737 383.96 264.521 383.448 265.849 383.448C266.153 383.448 266.393 383.48 266.841 383.544V384.808C266.521 384.776 266.393 384.76 266.169 384.76ZM271.625 386.648C271.913 386.648 272.137 386.664 272.377 386.696V388.2C272.185 388.168 272.041 388.152 271.849 388.152C270.425 388.152 269.401 389.224 269.401 390.776V395H267.833V386.84H269.401V388.392H269.433C269.865 387.368 270.521 386.648 271.625 386.648ZM275.076 385.384H273.3V383.688H275.076V385.384ZM274.964 395H273.396V386.84H274.964V395ZM284.212 390.744C284.212 390.968 284.212 391.208 284.196 391.336H277.924C277.956 392.696 278.756 393.96 280.372 393.96C281.812 393.96 282.372 393.032 282.516 392.488H284.116C283.684 394.056 282.484 395.24 280.34 395.24C277.748 395.24 276.308 393.4 276.308 390.904C276.308 388.344 277.844 386.584 280.34 386.584C282.82 386.584 284.212 388.216 284.212 390.744ZM277.924 390.104H282.58C282.58 388.824 281.684 387.864 280.292 387.864C278.98 387.864 278.02 388.76 277.924 390.104ZM289.824 386.6C291.328 386.6 292.544 387.464 292.544 389.336V395H290.976V389.768C290.976 388.68 290.496 387.944 289.312 387.944C287.968 387.944 287.104 388.76 287.104 389.992V395H285.536V386.84H287.104V387.864H287.136C287.568 387.24 288.416 386.6 289.824 386.6ZM300.031 387.832V383.56H301.599V395H300.031V394.04H299.999C299.551 394.616 298.767 395.224 297.487 395.224C295.407 395.224 293.823 393.608 293.823 390.92C293.823 388.232 295.407 386.6 297.487 386.6C298.767 386.6 299.551 387.192 299.999 387.832H300.031ZM297.743 393.928C299.151 393.928 300.015 392.76 300.015 390.92C300.015 389.064 299.151 387.912 297.743 387.912C296.207 387.912 295.455 389.32 295.455 390.92C295.455 392.52 296.207 393.928 297.743 393.928ZM304.932 395H303.364V383.56H304.932V395ZM307.749 397.864C307.397 397.864 307.157 397.832 306.741 397.752V396.472C307.013 396.504 307.157 396.52 307.413 396.52C308.037 396.52 308.773 396.2 309.093 394.92L305.796 386.84H307.509L309.893 393.08H309.924L312.165 386.84H313.812L310.581 395.192C309.797 397.208 309.013 397.864 307.749 397.864ZM322.284 395.224C319.388 395.224 317.356 393.72 317.228 391.144H319.052C319.18 392.68 320.092 393.72 322.236 393.72C324.076 393.72 324.636 392.92 324.636 391.88C324.636 390.424 323.516 390.216 321.436 389.688C319.644 389.208 317.676 388.632 317.676 386.456C317.676 384.472 319.212 383.336 321.676 383.336C324.284 383.336 325.98 384.664 326.156 386.968H324.332C324.14 385.592 323.356 384.84 321.692 384.84C320.252 384.84 319.516 385.368 319.516 386.36C319.516 387.64 320.716 387.912 322.188 388.28C324.396 388.84 326.476 389.368 326.476 391.784C326.476 393.752 325.148 395.224 322.284 395.224ZM332.473 395H328.089V383.56H332.441C335.609 383.56 337.529 385.608 337.529 389.288C337.529 392.968 335.641 395 332.473 395ZM329.849 393.48H332.361C335.017 393.48 335.705 391.496 335.705 389.288C335.705 387.08 335.017 385.08 332.361 385.08H329.849V393.48ZM348.797 395H346.733L342.861 389.496L341.037 391.432V395H339.277V383.56H341.037V389.352L346.461 383.56H348.429L343.949 388.328L348.797 395ZM352.393 395.224C349.913 395.224 348.681 393.944 348.633 392.28H350.217C350.281 393.224 350.857 393.96 352.377 393.96C353.753 393.96 354.121 393.352 354.121 392.76C354.121 391.736 353.033 391.624 351.977 391.4C350.553 391.064 348.921 390.648 348.921 388.952C348.921 387.544 350.057 386.6 352.025 386.6C354.265 386.6 355.337 387.8 355.449 389.208H353.865C353.753 388.584 353.417 387.864 352.057 387.864C351.001 387.864 350.553 388.28 350.553 388.888C350.553 389.736 351.465 389.816 352.617 390.072C354.121 390.424 355.753 390.856 355.753 392.68C355.753 394.264 354.537 395.224 352.393 395.224Z" fill="#C3B6CF"/>
<defs>
<linearGradient id="paint0_linear_4167_29235" x1="56.6411" y1="134.927" x2="139.966" y2="247.786" gradientUnits="userSpaceOnUse">
<stop stop-color="#685879"/>
<stop offset="0.446909" stop-color="#713DFF" stop-opacity="0.12"/>
<stop offset="1" stop-color="#6663F6" stop-opacity="0"/>
</linearGradient>
<linearGradient id="paint1_linear_4167_29235" x1="37.5834" y1="153.04" x2="98.9726" y2="256.066" gradientUnits="userSpaceOnUse">
<stop stop-color="#685879"/>
<stop offset="0.34375" stop-color="#713DFF"/>
<stop offset="0.90625" stop-color="#72606F"/>
</linearGradient>
<linearGradient id="paint2_linear_4167_29235" x1="24.0086" y1="174.328" x2="69.2638" y2="277.279" gradientUnits="userSpaceOnUse">
<stop stop-color="#685879"/>
<stop offset="0.34375" stop-color="#713DFF"/>
<stop offset="0.90625" stop-color="#72606F"/>
</linearGradient>
<linearGradient id="paint3_linear_4167_29235" x1="54.0858" y1="252.193" x2="36.1862" y2="179.554" gradientUnits="userSpaceOnUse">
<stop stop-color="#685879"/>
<stop offset="0.626558" stop-color="#713DFF" stop-opacity="0.12"/>
<stop offset="1" stop-color="#6663F6" stop-opacity="0"/>
</linearGradient>
<linearGradient id="paint4_linear_4167_29235" x1="40.8113" y1="161.155" x2="88.1322" y2="250.544" gradientUnits="userSpaceOnUse">
<stop stop-color="#685879"/>
<stop offset="0.34375" stop-color="#713DFF"/>
<stop offset="0.90625" stop-color="#72606F"/>
</linearGradient>
<linearGradient id="paint5_linear_4167_29235" x1="25.1145" y1="174.637" x2="51.9207" y2="269.357" gradientUnits="userSpaceOnUse">
<stop stop-color="#685879"/>
<stop offset="0.34375" stop-color="#713DFF"/>
<stop offset="0.90625" stop-color="#72606F"/>
</linearGradient>
<linearGradient id="paint6_linear_4167_29235" x1="63.0429" y1="187.169" x2="82.1073" y2="218.185" gradientUnits="userSpaceOnUse">
<stop stop-color="#685879"/>
<stop offset="0.34375" stop-color="#713DFF"/>
<stop offset="0.90625" stop-color="#72606F"/>
</linearGradient>
<linearGradient id="paint7_linear_4167_29235" x1="63.0429" y1="187.169" x2="82.1073" y2="218.185" gradientUnits="userSpaceOnUse">
<stop stop-color="#685879"/>
<stop offset="0.34375" stop-color="#713DFF"/>
<stop offset="0.90625" stop-color="#72606F"/>
</linearGradient>
<linearGradient id="paint8_linear_4167_29235" x1="369.166" y1="576.76" x2="395.809" y2="484.099" gradientUnits="userSpaceOnUse">
<stop stop-color="#685879"/>
<stop offset="0.687247" stop-color="#713DFF" stop-opacity="0.08"/>
<stop offset="1" stop-color="#F9EE98" stop-opacity="0.1"/>
</linearGradient>
<linearGradient id="paint9_linear_4167_29235" x1="349.735" y1="585.308" x2="400.78" y2="477.048" gradientUnits="userSpaceOnUse">
<stop stop-color="#685879" stop-opacity="0.42"/>
<stop offset="0.831172" stop-color="#713DFF" stop-opacity="0"/>
</linearGradient>
<linearGradient id="paint10_linear_4167_29235" x1="364.537" y1="571.739" x2="393.855" y2="474.548" gradientUnits="userSpaceOnUse">
<stop stop-color="#685879"/>
<stop offset="0.687247" stop-color="#713DFF" stop-opacity="0.08"/>
<stop offset="1" stop-color="#F9EE98" stop-opacity="0.1"/>
</linearGradient>
<linearGradient id="paint11_linear_4167_29235" x1="361.505" y1="574.517" x2="402.068" y2="488.826" gradientUnits="userSpaceOnUse">
<stop stop-color="#685879" stop-opacity="0.8"/>
<stop offset="0.831172" stop-color="#713DFF" stop-opacity="0.08"/>
</linearGradient>
<linearGradient id="paint12_linear_4167_29235" x1="373.192" y1="563.761" x2="396.508" y2="486.772" gradientUnits="userSpaceOnUse">
<stop stop-color="#685879"/>
<stop offset="0.687247" stop-color="#713DFF" stop-opacity="0.08"/>
<stop offset="1" stop-color="#F9EE98" stop-opacity="0.1"/>
</linearGradient>
<linearGradient id="paint13_linear_4167_29235" x1="432.139" y1="530.025" x2="379.366" y2="541.998" gradientUnits="userSpaceOnUse">
<stop stop-color="#685879"/>
<stop offset="0.536333" stop-color="#713DFF" stop-opacity="0.68"/>
<stop offset="1" stop-color="#F9EE98" stop-opacity="0"/>
</linearGradient>
<linearGradient id="paint14_linear_4167_29235" x1="217.785" y1="191.087" x2="445.813" y2="291.346" gradientUnits="userSpaceOnUse">
<stop stop-color="#130722"/>
<stop offset="0.254381" stop-color="#0A0A18"/>
<stop offset="0.658623" stop-color="#130722"/>
</linearGradient>
<linearGradient id="paint15_linear_4167_29235" x1="422" y1="69.9995" x2="337.461" y2="248.545" gradientUnits="userSpaceOnUse">
<stop stop-color="#713DFF" stop-opacity="0.35"/>
<stop offset="0.453838" stop-color="#713DFF" stop-opacity="0.14"/>
</linearGradient>
<linearGradient id="paint16_linear_4167_29235" x1="533.211" y1="103.095" x2="236.651" y2="103.688" gradientUnits="userSpaceOnUse">
<stop stop-color="#685879"/>
<stop offset="0.687247" stop-color="#713DFF" stop-opacity="0.08"/>
<stop offset="1" stop-color="#F9EE98" stop-opacity="0.1"/>
</linearGradient>
<linearGradient id="paint17_linear_4167_29235" x1="296.5" y1="273" x2="279" y2="286.5" gradientUnits="userSpaceOnUse">
<stop stop-color="#713DFF" stop-opacity="0"/>
<stop offset="1" stop-color="#713DFF" stop-opacity="0.14"/>
</linearGradient>
<linearGradient id="paint18_linear_4167_29235" x1="364.708" y1="248.197" x2="205.595" y2="273.346" gradientUnits="userSpaceOnUse">
<stop stop-color="#685879"/>
<stop offset="0.687247" stop-color="#713DFF" stop-opacity="0.08"/>
<stop offset="1" stop-color="#F9EE98" stop-opacity="0.1"/>
</linearGradient>
<linearGradient id="paint19_linear_4167_29235" x1="314.5" y1="263" x2="302" y2="275" gradientUnits="userSpaceOnUse">
<stop offset="0.116347" stop-color="#6A5390" stop-opacity="0"/>
<stop offset="1" stop-color="#713DFF" stop-opacity="0.14"/>
</linearGradient>
<linearGradient id="paint20_linear_4167_29235" x1="372.692" y1="241.337" x2="223.222" y2="270.675" gradientUnits="userSpaceOnUse">
<stop stop-color="#685879"/>
<stop offset="0.687247" stop-color="#713DFF" stop-opacity="0.08"/>
<stop offset="1" stop-color="#F9EE98" stop-opacity="0.1"/>
</linearGradient>
<linearGradient id="paint21_linear_4167_29235" x1="238.219" y1="141.751" x2="356.895" y2="188.417" gradientUnits="userSpaceOnUse">
<stop stop-color="#130722"/>
<stop offset="0.254381" stop-color="#0A0A18"/>
<stop offset="0.658623" stop-color="#130722"/>
</linearGradient>
<linearGradient id="paint22_linear_4167_29235" x1="299" y1="153.5" x2="390.5" y2="70.4995" gradientUnits="userSpaceOnUse">
<stop stop-color="#713DFF" stop-opacity="0.3"/>
<stop offset="0.60078" stop-color="#713DFF" stop-opacity="0.08"/>
<stop offset="1" stop-color="#713DFF" stop-opacity="0.08"/>
</linearGradient>
<linearGradient id="paint23_linear_4167_29235" x1="394.156" y1="212.223" x2="277.046" y2="169.903" gradientUnits="userSpaceOnUse">
<stop stop-color="#6A5390" stop-opacity="0"/>
<stop offset="1" stop-color="#713DFF" stop-opacity="0.1"/>
</linearGradient>
<linearGradient id="paint24_linear_4167_29235" x1="429.563" y1="69.259" x2="267.091" y2="56.2774" gradientUnits="userSpaceOnUse">
<stop stop-color="#462E7A"/>
<stop offset="0.41" stop-color="#713DFF" stop-opacity="0.08"/>
</linearGradient>
<linearGradient id="paint25_linear_4167_29235" x1="233.328" y1="139.886" x2="356.253" y2="188.566" gradientUnits="userSpaceOnUse">
<stop stop-color="#130722"/>
<stop offset="0.254381" stop-color="#0A0A18"/>
<stop offset="0.658623" stop-color="#130722"/>
</linearGradient>
<linearGradient id="paint26_linear_4167_29235" x1="375.989" y1="198.389" x2="260.841" y2="156.969" gradientUnits="userSpaceOnUse">
<stop stop-color="#6A5390" stop-opacity="0"/>
<stop offset="1" stop-color="#713DFF" stop-opacity="0.1"/>
</linearGradient>
<linearGradient id="paint27_linear_4167_29235" x1="411.938" y1="54.0623" x2="252.17" y2="40.3987" gradientUnits="userSpaceOnUse">
<stop stop-color="#482F81"/>
<stop offset="0.315" stop-color="#713DFF" stop-opacity="0.08"/>
</linearGradient>
<linearGradient id="paint28_linear_4167_29235" x1="272.5" y1="281" x2="240.5" y2="301" gradientUnits="userSpaceOnUse">
<stop offset="0.116347" stop-color="#6A5390" stop-opacity="0"/>
<stop offset="0.626301" stop-color="#713DFF" stop-opacity="0.1"/>
<stop offset="1" stop-color="#713DFF" stop-opacity="0.14"/>
</linearGradient>
<linearGradient id="paint29_linear_4167_29235" x1="347.811" y1="267.304" x2="182.076" y2="293.456" gradientUnits="userSpaceOnUse">
<stop stop-color="#685879"/>
<stop offset="0.687247" stop-color="#713DFF" stop-opacity="0.08"/>
<stop offset="1" stop-color="#F9EE98" stop-opacity="0.1"/>
</linearGradient>
<linearGradient id="paint30_linear_4167_29235" x1="240" y1="292" x2="197.5" y2="328" gradientUnits="userSpaceOnUse">
<stop offset="0.116347" stop-color="#6A5390" stop-opacity="0"/>
<stop offset="1" stop-color="#713DFF" stop-opacity="0.14"/>
</linearGradient>
<linearGradient id="paint31_linear_4167_29235" x1="321.986" y1="301.732" x2="153.498" y2="330.595" gradientUnits="userSpaceOnUse">
<stop stop-color="#685879"/>
<stop offset="0.687247" stop-color="#713DFF" stop-opacity="0.08"/>
<stop offset="1" stop-color="#F9EE98" stop-opacity="0.1"/>
</linearGradient>
<linearGradient id="paint32_linear_4167_29235" x1="372.341" y1="167.932" x2="302.931" y2="139.636" gradientUnits="userSpaceOnUse">
<stop offset="0.116347" stop-color="#6A5390" stop-opacity="0.53"/>
<stop offset="0.626301" stop-color="#713DFF" stop-opacity="0.1"/>
<stop offset="1" stop-color="#713DFF" stop-opacity="0.14"/>
</linearGradient>
<linearGradient id="paint33_linear_4167_29235" x1="382.774" y1="117.963" x2="288.796" y2="124.388" gradientUnits="userSpaceOnUse">
<stop stop-color="#685879"/>
<stop offset="0.687247" stop-color="#713DFF" stop-opacity="0.08"/>
<stop offset="1" stop-color="#F9EE98" stop-opacity="0.1"/>
</linearGradient>
<linearGradient id="paint34_linear_4167_29235" x1="368.099" y1="157.498" x2="340.613" y2="142.437" gradientUnits="userSpaceOnUse">
<stop stop-color="#685879"/>
<stop offset="0.687247" stop-color="#713DFF" stop-opacity="0.08"/>
<stop offset="1" stop-color="#F9EE98" stop-opacity="0.1"/>
</linearGradient>
<linearGradient id="paint35_linear_4167_29235" x1="409.972" y1="294.357" x2="381.277" y2="450.379" gradientUnits="userSpaceOnUse">
<stop stop-color="#713DFF" stop-opacity="0.5"/>
<stop offset="0.505156" stop-color="#6A5390" stop-opacity="0.17"/>
<stop offset="0.696509" stop-color="#713DFF" stop-opacity="0.12"/>
<stop offset="1" stop-color="#713DFF" stop-opacity="0.31"/>
</linearGradient>
<linearGradient id="paint36_linear_4167_29235" x1="502.871" y1="318.598" x2="294.259" y2="430.5" gradientUnits="userSpaceOnUse">
<stop stop-color="#685879"/>
<stop offset="0.687247" stop-color="#713DFF" stop-opacity="0.08"/>
<stop offset="1" stop-color="#F9EE98" stop-opacity="0.1"/>
</linearGradient>
<radialGradient id="paint37_radial_4167_29235" cx="0" cy="0" r="1" gradientUnits="userSpaceOnUse" gradientTransform="translate(225 389) rotate(14.8644) scale(86.8689 50.6363)">
<stop stop-color="#713DFF" stop-opacity="0.08"/>
<stop offset="1" stop-color="#713DFF" stop-opacity="0"/>
</radialGradient>
<linearGradient id="paint38_linear_4167_29235" x1="73" y1="361.429" x2="179.844" y2="538.179" gradientUnits="userSpaceOnUse">
<stop stop-color="#685879"/>
<stop offset="0.687247" stop-color="#713DFF" stop-opacity="0.08"/>
<stop offset="1" stop-color="#F9EE98" stop-opacity="0.1"/>
</linearGradient>
<clipPath id="clip0_4167_29235">
<rect width="108.173" height="75" fill="white" transform="translate(37.5 149) rotate(30)"/>
</clipPath>
<clipPath id="clip1_4167_29235">
<rect width="291" height="363" fill="white" transform="matrix(-0.957533 -0.288323 -0.288323 0.957533 539.304 83.9019)"/>
</clipPath>
</defs>
</svg>
