<svg width="752" height="660" viewBox="0 0 752 660" fill="none" xmlns="http://www.w3.org/2000/svg">
<rect x="133" y="512.5" width="317" height="59" rx="14.5" fill="#130722"/>
<rect x="133" y="512.5" width="317" height="59" rx="14.5" fill="url(#paint0_radial_4167_29013)"/>
<rect x="133" y="512.5" width="317" height="59" rx="14.5" stroke="url(#paint1_linear_4167_29013)"/>
<path d="M167.5 542.426L170.5 545.426L167.5 548.426" stroke="#E1FF0B"/>
<path d="M170.5 545.427H158.5" stroke="#E1FF0B"/>
<path d="M161.5 535.57L158.5 538.57L161.5 541.57" stroke="#E1FF0B"/>
<path d="M158.5 538.57H170.5" stroke="#E1FF0B"/>
<path d="M184.396 548H182.636V536.56H187.404C189.564 536.56 191.148 537.568 191.148 539.968C191.148 542.368 189.564 543.36 187.404 543.36H184.396V548ZM184.396 541.84H187.324C188.652 541.84 189.324 541.248 189.324 539.968C189.324 538.672 188.652 538.08 187.324 538.08H184.396V541.84ZM196.047 539.648C196.335 539.648 196.559 539.664 196.799 539.696V541.2C196.607 541.168 196.463 541.152 196.271 541.152C194.847 541.152 193.823 542.224 193.823 543.776V548H192.255V539.84H193.823V541.392H193.855C194.287 540.368 194.943 539.648 196.047 539.648ZM201.122 548.24C198.578 548.24 197.042 546.48 197.042 543.92C197.042 541.376 198.578 539.584 201.138 539.584C203.666 539.584 205.202 541.36 205.202 543.904C205.202 546.464 203.666 548.24 201.122 548.24ZM201.138 546.944C202.802 546.944 203.57 545.616 203.57 543.92C203.57 542.208 202.802 540.896 201.138 540.896C199.442 540.896 198.674 542.208 198.674 543.92C198.674 545.616 199.442 546.944 201.138 546.944ZM212.296 540.8V539.84H213.864V547.36C213.864 549.824 212.376 550.928 210.04 550.928C207.704 550.928 206.536 549.808 206.376 548.336H208.008C208.168 549.072 208.712 549.648 210.04 549.648C211.528 549.648 212.296 548.992 212.296 547.456V546.352H212.264C211.816 547.008 211.064 547.584 209.752 547.584C207.72 547.584 206.152 546.208 206.152 543.6C206.152 540.976 207.72 539.6 209.752 539.6C211.064 539.6 211.816 540.224 212.264 540.8H212.296ZM210.04 546.288C211.448 546.288 212.28 545.376 212.28 543.6C212.28 541.808 211.448 540.912 210.04 540.912C208.504 540.912 207.784 542.064 207.784 543.6C207.784 545.136 208.504 546.288 210.04 546.288ZM219.406 539.648C219.694 539.648 219.918 539.664 220.158 539.696V541.2C219.966 541.168 219.822 541.152 219.63 541.152C218.206 541.152 217.182 542.224 217.182 543.776V548H215.614V539.84H217.182V541.392H217.214C217.646 540.368 218.302 539.648 219.406 539.648ZM223.152 548.224C221.52 548.224 220.48 547.28 220.48 545.888C220.48 544.064 221.856 543.52 223.888 543.136C225.168 542.896 225.952 542.736 225.952 541.936C225.952 541.344 225.6 540.848 224.4 540.848C222.976 540.848 222.544 541.296 222.464 542.384H220.864C220.944 540.816 221.968 539.584 224.464 539.584C226.144 539.584 227.488 540.288 227.488 542.4V546.144C227.488 546.736 227.568 547.04 227.872 547.04C227.92 547.04 227.968 547.04 228.064 547.024V547.984C227.792 548.048 227.52 548.08 227.264 548.08C226.48 548.08 226.064 547.776 225.968 546.848H225.936C225.408 547.696 224.48 548.224 223.152 548.224ZM223.504 546.96C224.912 546.96 225.952 546.24 225.952 544.816V543.648C225.696 543.888 224.992 544.064 224.16 544.24C222.72 544.528 222.112 544.928 222.112 545.776C222.112 546.544 222.528 546.96 223.504 546.96ZM238.276 539.6C239.924 539.6 240.756 540.592 240.756 542.336V548H239.188V542.768C239.188 541.68 238.964 540.944 237.764 540.944C236.596 540.944 235.86 541.76 235.86 542.992V548H234.292V542.768C234.292 541.68 234.068 540.944 232.868 540.944C231.7 540.944 230.964 541.76 230.964 542.992V548H229.396V539.84H230.964V540.864H230.996C231.428 540.24 232.18 539.6 233.412 539.6C234.548 539.6 235.252 540.112 235.572 541.024H235.604C236.196 540.24 237.028 539.6 238.276 539.6ZM251.354 539.6C253.002 539.6 253.834 540.592 253.834 542.336V548H252.266V542.768C252.266 541.68 252.042 540.944 250.842 540.944C249.674 540.944 248.938 541.76 248.938 542.992V548H247.37V542.768C247.37 541.68 247.146 540.944 245.946 540.944C244.778 540.944 244.042 541.76 244.042 542.992V548H242.474V539.84H244.042V540.864H244.074C244.506 540.24 245.258 539.6 246.49 539.6C247.626 539.6 248.33 540.112 248.65 541.024H248.682C249.274 540.24 250.106 539.6 251.354 539.6ZM257.808 548.224C256.176 548.224 255.136 547.28 255.136 545.888C255.136 544.064 256.512 543.52 258.544 543.136C259.824 542.896 260.608 542.736 260.608 541.936C260.608 541.344 260.256 540.848 259.056 540.848C257.632 540.848 257.2 541.296 257.12 542.384H255.52C255.6 540.816 256.624 539.584 259.12 539.584C260.8 539.584 262.144 540.288 262.144 542.4V546.144C262.144 546.736 262.224 547.04 262.528 547.04C262.576 547.04 262.624 547.04 262.72 547.024V547.984C262.448 548.048 262.176 548.08 261.92 548.08C261.136 548.08 260.72 547.776 260.624 546.848H260.592C260.064 547.696 259.136 548.224 257.808 548.224ZM258.16 546.96C259.568 546.96 260.608 546.24 260.608 544.816V543.648C260.352 543.888 259.648 544.064 258.816 544.24C257.376 544.528 256.768 544.928 256.768 545.776C256.768 546.544 257.184 546.96 258.16 546.96ZM268.164 539.6C270.244 539.6 271.828 541.232 271.828 543.92C271.828 546.608 270.244 548.224 268.164 548.224C266.884 548.224 266.1 547.648 265.652 546.992H265.62V548H264.052V536.56H265.62V540.8H265.652C266.1 540.224 266.884 539.6 268.164 539.6ZM267.908 546.928C269.444 546.928 270.18 545.52 270.18 543.92C270.18 542.32 269.444 540.912 267.908 540.912C266.5 540.912 265.636 542.064 265.636 543.92C265.636 545.76 266.5 546.928 267.908 546.928ZM274.745 548H273.177V536.56H274.745V548ZM283.993 543.744C283.993 543.968 283.993 544.208 283.977 544.336H277.705C277.737 545.696 278.537 546.96 280.153 546.96C281.593 546.96 282.153 546.032 282.297 545.488H283.897C283.465 547.056 282.265 548.24 280.121 548.24C277.529 548.24 276.089 546.4 276.089 543.904C276.089 541.344 277.625 539.584 280.121 539.584C282.601 539.584 283.993 541.216 283.993 543.744ZM277.705 543.104H282.361C282.361 541.824 281.465 540.864 280.073 540.864C278.761 540.864 277.801 541.76 277.705 543.104ZM294.421 540.8V539.84H295.989V547.36C295.989 549.824 294.501 550.928 292.165 550.928C289.829 550.928 288.661 549.808 288.501 548.336H290.133C290.293 549.072 290.837 549.648 292.165 549.648C293.653 549.648 294.421 548.992 294.421 547.456V546.352H294.389C293.941 547.008 293.189 547.584 291.877 547.584C289.845 547.584 288.277 546.208 288.277 543.6C288.277 540.976 289.845 539.6 291.877 539.6C293.189 539.6 293.941 540.224 294.389 540.8H294.421ZM292.165 546.288C293.573 546.288 294.405 545.376 294.405 543.6C294.405 541.808 293.573 540.912 292.165 540.912C290.629 540.912 289.909 542.064 289.909 543.6C289.909 545.136 290.629 546.288 292.165 546.288ZM299.995 548.224C298.363 548.224 297.323 547.28 297.323 545.888C297.323 544.064 298.699 543.52 300.731 543.136C302.011 542.896 302.795 542.736 302.795 541.936C302.795 541.344 302.443 540.848 301.243 540.848C299.819 540.848 299.387 541.296 299.307 542.384H297.707C297.787 540.816 298.811 539.584 301.307 539.584C302.987 539.584 304.331 540.288 304.331 542.4V546.144C304.331 546.736 304.411 547.04 304.715 547.04C304.763 547.04 304.811 547.04 304.907 547.024V547.984C304.635 548.048 304.363 548.08 304.107 548.08C303.323 548.08 302.907 547.776 302.811 546.848H302.779C302.251 547.696 301.323 548.224 299.995 548.224ZM300.347 546.96C301.755 546.96 302.795 546.24 302.795 544.816V543.648C302.539 543.888 301.835 544.064 301.003 544.24C299.563 544.528 298.955 544.928 298.955 545.776C298.955 546.544 299.371 546.96 300.347 546.96ZM309.455 548.224C306.975 548.224 305.743 546.944 305.695 545.28H307.279C307.343 546.224 307.919 546.96 309.439 546.96C310.815 546.96 311.183 546.352 311.183 545.76C311.183 544.736 310.095 544.624 309.039 544.4C307.615 544.064 305.983 543.648 305.983 541.952C305.983 540.544 307.119 539.6 309.087 539.6C311.327 539.6 312.399 540.8 312.511 542.208H310.927C310.815 541.584 310.479 540.864 309.119 540.864C308.063 540.864 307.615 541.28 307.615 541.888C307.615 542.736 308.527 542.816 309.679 543.072C311.183 543.424 312.815 543.856 312.815 545.68C312.815 547.264 311.599 548.224 309.455 548.224ZM315.62 548H314.052V536.56H315.62V548ZM324.868 543.744C324.868 543.968 324.868 544.208 324.852 544.336H318.58C318.612 545.696 319.412 546.96 321.028 546.96C322.468 546.96 323.028 546.032 323.172 545.488H324.772C324.34 547.056 323.14 548.24 320.996 548.24C318.404 548.24 316.964 546.4 316.964 543.904C316.964 541.344 318.5 539.584 320.996 539.584C323.476 539.584 324.868 541.216 324.868 543.744ZM318.58 543.104H323.236C323.236 541.824 322.34 540.864 320.948 540.864C319.636 540.864 318.676 541.76 318.58 543.104ZM329.409 548.224C326.929 548.224 325.697 546.944 325.649 545.28H327.233C327.297 546.224 327.873 546.96 329.393 546.96C330.769 546.96 331.137 546.352 331.137 545.76C331.137 544.736 330.049 544.624 328.993 544.4C327.569 544.064 325.937 543.648 325.937 541.952C325.937 540.544 327.073 539.6 329.041 539.6C331.281 539.6 332.353 540.8 332.465 542.208H330.881C330.769 541.584 330.433 540.864 329.073 540.864C328.017 540.864 327.569 541.28 327.569 541.888C327.569 542.736 328.481 542.816 329.633 543.072C331.137 543.424 332.769 543.856 332.769 545.68C332.769 547.264 331.553 548.224 329.409 548.224ZM337.221 548.224C334.741 548.224 333.509 546.944 333.461 545.28H335.045C335.109 546.224 335.685 546.96 337.205 546.96C338.581 546.96 338.949 546.352 338.949 545.76C338.949 544.736 337.861 544.624 336.805 544.4C335.381 544.064 333.749 543.648 333.749 541.952C333.749 540.544 334.885 539.6 336.853 539.6C339.093 539.6 340.165 540.8 340.277 542.208H338.693C338.581 541.584 338.245 540.864 336.885 540.864C335.829 540.864 335.381 541.28 335.381 541.888C335.381 542.736 336.293 542.816 337.445 543.072C338.949 543.424 340.581 543.856 340.581 545.68C340.581 547.264 339.365 548.224 337.221 548.224ZM348.169 546.8C348.441 546.8 348.569 546.784 348.841 546.736V548C348.441 548.08 348.185 548.096 347.849 548.096C346.505 548.096 345.689 547.584 345.689 545.696V541.136H344.505V539.84H345.689V537.216H347.257V539.84H348.825V541.136H347.257V545.744C347.257 546.608 347.497 546.8 348.169 546.8ZM353.922 539.648C354.21 539.648 354.434 539.664 354.674 539.696V541.2C354.482 541.168 354.338 541.152 354.146 541.152C352.722 541.152 351.698 542.224 351.698 543.776V548H350.13V539.84H351.698V541.392H351.73C352.162 540.368 352.818 539.648 353.922 539.648ZM357.667 548.224C356.035 548.224 354.995 547.28 354.995 545.888C354.995 544.064 356.371 543.52 358.403 543.136C359.683 542.896 360.467 542.736 360.467 541.936C360.467 541.344 360.115 540.848 358.915 540.848C357.491 540.848 357.059 541.296 356.979 542.384H355.379C355.459 540.816 356.483 539.584 358.979 539.584C360.659 539.584 362.003 540.288 362.003 542.4V546.144C362.003 546.736 362.083 547.04 362.387 547.04C362.435 547.04 362.483 547.04 362.579 547.024V547.984C362.307 548.048 362.035 548.08 361.779 548.08C360.995 548.08 360.579 547.776 360.483 546.848H360.451C359.923 547.696 358.995 548.224 357.667 548.224ZM358.019 546.96C359.427 546.96 360.467 546.24 360.467 544.816V543.648C360.211 543.888 359.507 544.064 358.675 544.24C357.235 544.528 356.627 544.928 356.627 545.776C356.627 546.544 357.043 546.96 358.019 546.96ZM368.199 539.6C369.703 539.6 370.919 540.464 370.919 542.336V548H369.351V542.768C369.351 541.68 368.871 540.944 367.687 540.944C366.343 540.944 365.479 541.76 365.479 542.992V548H363.911V539.84H365.479V540.864H365.511C365.943 540.24 366.791 539.6 368.199 539.6ZM375.83 548.224C373.35 548.224 372.118 546.944 372.07 545.28H373.654C373.718 546.224 374.294 546.96 375.814 546.96C377.19 546.96 377.558 546.352 377.558 545.76C377.558 544.736 376.47 544.624 375.414 544.4C373.99 544.064 372.358 543.648 372.358 541.952C372.358 540.544 373.494 539.6 375.462 539.6C377.702 539.6 378.774 540.8 378.886 542.208H377.302C377.19 541.584 376.854 540.864 375.494 540.864C374.438 540.864 373.99 541.28 373.99 541.888C373.99 542.736 374.902 542.816 376.054 543.072C377.558 543.424 379.19 543.856 379.19 545.68C379.19 547.264 377.974 548.224 375.83 548.224ZM382.683 548.224C381.051 548.224 380.011 547.28 380.011 545.888C380.011 544.064 381.387 543.52 383.419 543.136C384.699 542.896 385.483 542.736 385.483 541.936C385.483 541.344 385.131 540.848 383.931 540.848C382.507 540.848 382.075 541.296 381.995 542.384H380.395C380.475 540.816 381.499 539.584 383.995 539.584C385.675 539.584 387.019 540.288 387.019 542.4V546.144C387.019 546.736 387.099 547.04 387.403 547.04C387.451 547.04 387.499 547.04 387.595 547.024V547.984C387.323 548.048 387.051 548.08 386.795 548.08C386.011 548.08 385.595 547.776 385.499 546.848H385.467C384.939 547.696 384.011 548.224 382.683 548.224ZM383.035 546.96C384.443 546.96 385.483 546.24 385.483 544.816V543.648C385.227 543.888 384.523 544.064 383.691 544.24C382.251 544.528 381.643 544.928 381.643 545.776C381.643 546.544 382.059 546.96 383.035 546.96ZM392.433 548.24C390.001 548.24 388.417 546.48 388.417 543.92C388.417 541.36 390.001 539.6 392.417 539.6C394.513 539.6 395.905 540.96 396.097 542.8H394.481C394.401 541.952 393.921 540.896 392.433 540.896C390.689 540.896 390.049 542.384 390.049 543.92C390.049 545.456 390.689 546.928 392.433 546.928C393.937 546.928 394.401 545.904 394.481 544.976H396.097C395.985 546.848 394.529 548.24 392.433 548.24ZM400.294 546.8C400.566 546.8 400.694 546.784 400.966 546.736V548C400.566 548.08 400.31 548.096 399.974 548.096C398.63 548.096 397.814 547.584 397.814 545.696V541.136H396.63V539.84H397.814V537.216H399.382V539.84H400.95V541.136H399.382V545.744C399.382 546.608 399.622 546.8 400.294 546.8ZM403.935 538.384H402.159V536.688H403.935V538.384ZM403.823 548H402.255V539.84H403.823V548ZM409.231 548.24C406.687 548.24 405.151 546.48 405.151 543.92C405.151 541.376 406.687 539.584 409.247 539.584C411.775 539.584 413.311 541.36 413.311 543.904C413.311 546.464 411.775 548.24 409.231 548.24ZM409.247 546.944C410.911 546.944 411.679 545.616 411.679 543.92C411.679 542.208 410.911 540.896 409.247 540.896C407.551 540.896 406.783 542.208 406.783 543.92C406.783 545.616 407.551 546.944 409.247 546.944ZM418.934 539.6C420.438 539.6 421.654 540.464 421.654 542.336V548H420.086V542.768C420.086 541.68 419.606 540.944 418.422 540.944C417.078 540.944 416.214 541.76 416.214 542.992V548H414.646V539.84H416.214V540.864H416.246C416.678 540.24 417.526 539.6 418.934 539.6ZM426.565 548.224C424.085 548.224 422.853 546.944 422.805 545.28H424.389C424.453 546.224 425.029 546.96 426.549 546.96C427.925 546.96 428.293 546.352 428.293 545.76C428.293 544.736 427.205 544.624 426.149 544.4C424.725 544.064 423.093 543.648 423.093 541.952C423.093 540.544 424.229 539.6 426.197 539.6C428.437 539.6 429.509 540.8 429.621 542.208H428.037C427.925 541.584 427.589 540.864 426.229 540.864C425.173 540.864 424.725 541.28 424.725 541.888C424.725 542.736 425.637 542.816 426.789 543.072C428.293 543.424 429.925 543.856 429.925 545.68C429.925 547.264 428.709 548.224 426.565 548.224Z" fill="#C3B6CF"/>
<rect x="387.5" y="158.5" width="321" height="59" rx="14.5" fill="#130722"/>
<rect x="387.5" y="158.5" width="321" height="59" rx="14.5" fill="url(#paint2_radial_4167_29013)"/>
<rect x="387.5" y="158.5" width="321" height="59" rx="14.5" stroke="url(#paint3_linear_4167_29013)"/>
<path d="M424 187.2V184.6L419 182L414 184.6V187.2C414 192 419 194.2 419 194.2C419 194.2 424 192 424 187.2Z" stroke="#E1FF0B"/>
<path d="M416.6 187.998L418.2 189.598L421.4 186.398" stroke="#E1FF0B"/>
<path d="M445.392 194H437.136V182.56H445.232V184.08H438.896V187.328H444.448V188.848H438.896V192.48H445.392V194ZM450.918 185.6C452.422 185.6 453.638 186.464 453.638 188.336V194H452.07V188.768C452.07 187.68 451.59 186.944 450.406 186.944C449.062 186.944 448.198 187.76 448.198 188.992V194H446.63V185.84H448.198V186.864H448.23C448.662 186.24 449.51 185.6 450.918 185.6ZM458.917 194.24C456.485 194.24 454.901 192.48 454.901 189.92C454.901 187.36 456.485 185.6 458.901 185.6C460.997 185.6 462.389 186.96 462.581 188.8H460.965C460.885 187.952 460.405 186.896 458.917 186.896C457.173 186.896 456.533 188.384 456.533 189.92C456.533 191.456 457.173 192.928 458.917 192.928C460.421 192.928 460.885 191.904 460.965 190.976H462.581C462.469 192.848 461.013 194.24 458.917 194.24ZM465.401 194H463.833V182.56H465.401V194ZM469.417 194.224C467.785 194.224 466.745 193.28 466.745 191.888C466.745 190.064 468.121 189.52 470.153 189.136C471.433 188.896 472.217 188.736 472.217 187.936C472.217 187.344 471.865 186.848 470.665 186.848C469.241 186.848 468.809 187.296 468.729 188.384H467.129C467.209 186.816 468.233 185.584 470.729 185.584C472.409 185.584 473.753 186.288 473.753 188.4V192.144C473.753 192.736 473.833 193.04 474.137 193.04C474.185 193.04 474.233 193.04 474.329 193.024V193.984C474.057 194.048 473.785 194.08 473.529 194.08C472.745 194.08 472.329 193.776 472.233 192.848H472.201C471.673 193.696 470.745 194.224 469.417 194.224ZM469.769 192.96C471.177 192.96 472.217 192.24 472.217 190.816V189.648C471.961 189.888 471.257 190.064 470.425 190.24C468.985 190.528 468.377 190.928 468.377 191.776C468.377 192.544 468.793 192.96 469.769 192.96ZM479.268 194H477.508L474.596 185.84H476.276L478.42 192.384H478.436L480.548 185.84H482.18L479.268 194ZM490.399 189.744C490.399 189.968 490.399 190.208 490.383 190.336H484.111C484.143 191.696 484.943 192.96 486.559 192.96C487.999 192.96 488.559 192.032 488.703 191.488H490.303C489.871 193.056 488.671 194.24 486.527 194.24C483.935 194.24 482.495 192.4 482.495 189.904C482.495 187.344 484.031 185.584 486.527 185.584C489.007 185.584 490.399 187.216 490.399 189.744ZM484.111 189.104H488.767C488.767 187.824 487.871 186.864 486.479 186.864C485.167 186.864 484.207 187.76 484.111 189.104ZM495.804 190.672H491.516V189.184H495.804V190.672ZM501.461 185.6C503.541 185.6 505.125 187.232 505.125 189.92C505.125 192.608 503.541 194.224 501.461 194.224C500.181 194.224 499.397 193.648 498.949 192.992H498.917V194H497.349V182.56H498.917V186.8H498.949C499.397 186.224 500.181 185.6 501.461 185.6ZM501.205 192.928C502.741 192.928 503.477 191.52 503.477 189.92C503.477 188.32 502.741 186.912 501.205 186.912C499.797 186.912 498.933 188.064 498.933 189.92C498.933 191.76 499.797 192.928 501.205 192.928ZM508.73 194.224C507.098 194.224 506.058 193.28 506.058 191.888C506.058 190.064 507.434 189.52 509.466 189.136C510.746 188.896 511.53 188.736 511.53 187.936C511.53 187.344 511.178 186.848 509.978 186.848C508.554 186.848 508.122 187.296 508.042 188.384H506.442C506.522 186.816 507.546 185.584 510.042 185.584C511.722 185.584 513.066 186.288 513.066 188.4V192.144C513.066 192.736 513.146 193.04 513.45 193.04C513.498 193.04 513.546 193.04 513.642 193.024V193.984C513.37 194.048 513.098 194.08 512.842 194.08C512.058 194.08 511.642 193.776 511.546 192.848H511.514C510.986 193.696 510.058 194.224 508.73 194.224ZM509.082 192.96C510.49 192.96 511.53 192.24 511.53 190.816V189.648C511.274 189.888 510.57 190.064 509.738 190.24C508.298 190.528 507.69 190.928 507.69 191.776C507.69 192.544 508.106 192.96 509.082 192.96ZM518.48 194.24C516.048 194.24 514.464 192.48 514.464 189.92C514.464 187.36 516.048 185.6 518.464 185.6C520.56 185.6 521.952 186.96 522.144 188.8H520.528C520.448 187.952 519.968 186.896 518.48 186.896C516.736 186.896 516.096 188.384 516.096 189.92C516.096 191.456 516.736 192.928 518.48 192.928C519.984 192.928 520.448 191.904 520.528 190.976H522.144C522.032 192.848 520.576 194.24 518.48 194.24ZM530.676 194H528.82L526.148 189.824L524.964 190.96V194H523.396V182.56H524.964V189.296L528.532 185.84H530.34L527.204 188.832L530.676 194ZM538.399 189.744C538.399 189.968 538.399 190.208 538.383 190.336H532.111C532.143 191.696 532.943 192.96 534.559 192.96C535.999 192.96 536.559 192.032 536.703 191.488H538.303C537.871 193.056 536.671 194.24 534.527 194.24C531.935 194.24 530.495 192.4 530.495 189.904C530.495 187.344 532.031 185.584 534.527 185.584C537.007 185.584 538.399 187.216 538.399 189.744ZM532.111 189.104H536.767C536.767 187.824 535.871 186.864 534.479 186.864C533.167 186.864 532.207 187.76 532.111 189.104ZM545.516 186.832V182.56H547.084V194H545.516V193.04H545.484C545.036 193.616 544.252 194.224 542.972 194.224C540.892 194.224 539.308 192.608 539.308 189.92C539.308 187.232 540.892 185.6 542.972 185.6C544.252 185.6 545.036 186.192 545.484 186.832H545.516ZM543.228 192.928C544.636 192.928 545.5 191.76 545.5 189.92C545.5 188.064 544.636 186.912 543.228 186.912C541.692 186.912 540.94 188.32 540.94 189.92C540.94 191.52 541.692 192.928 543.228 192.928ZM554.177 194H552.449V182.56H554.769L558.065 191.552H558.097L561.409 182.56H563.729V194H562.001V185.12H561.969L558.817 194H557.361L554.209 185.12H554.177V194ZM567.755 194H565.995V182.56H570.763C572.923 182.56 574.507 183.568 574.507 185.968C574.507 188.368 572.923 189.36 570.763 189.36H567.755V194ZM567.755 187.84H570.683C572.011 187.84 572.683 187.248 572.683 185.968C572.683 184.672 572.011 184.08 570.683 184.08H567.755V187.84ZM580.701 194.224C577.453 194.224 575.357 191.728 575.357 188.288C575.357 184.832 577.469 182.336 580.717 182.336C583.581 182.336 585.357 184.16 585.629 186.448H583.789C583.581 185.328 582.877 183.856 580.685 183.856C578.157 183.856 577.197 186 577.197 188.272C577.197 190.56 578.157 192.704 580.685 192.704C582.893 192.704 583.677 191.232 583.789 189.84H585.629C585.373 192.384 583.581 194.224 580.701 194.224ZM593.413 194H591.797L589.269 185.84H590.965L592.693 192.16H592.725L594.421 185.84H596.005L597.701 192.16H597.733L599.477 185.84H601.109L598.581 194H596.965L595.205 187.712H595.173L593.413 194ZM604.152 194.224C602.52 194.224 601.48 193.28 601.48 191.888C601.48 190.064 602.856 189.52 604.888 189.136C606.168 188.896 606.952 188.736 606.952 187.936C606.952 187.344 606.6 186.848 605.4 186.848C603.976 186.848 603.544 187.296 603.464 188.384H601.864C601.944 186.816 602.968 185.584 605.464 185.584C607.144 185.584 608.488 186.288 608.488 188.4V192.144C608.488 192.736 608.568 193.04 608.872 193.04C608.92 193.04 608.968 193.04 609.064 193.024V193.984C608.792 194.048 608.52 194.08 608.264 194.08C607.48 194.08 607.064 193.776 606.968 192.848H606.936C606.408 193.696 605.48 194.224 604.152 194.224ZM604.504 192.96C605.912 192.96 606.952 192.24 606.952 190.816V189.648C606.696 189.888 605.992 190.064 605.16 190.24C603.72 190.528 603.112 190.928 603.112 191.776C603.112 192.544 603.528 192.96 604.504 192.96ZM611.964 194H610.396V182.56H611.964V194ZM615.292 194H613.724V182.56H615.292V194ZM624.54 189.744C624.54 189.968 624.54 190.208 624.524 190.336H618.252C618.284 191.696 619.084 192.96 620.7 192.96C622.14 192.96 622.7 192.032 622.844 191.488H624.444C624.012 193.056 622.812 194.24 620.668 194.24C618.076 194.24 616.636 192.4 616.636 189.904C616.636 187.344 618.172 185.584 620.668 185.584C623.148 185.584 624.54 187.216 624.54 189.744ZM618.252 189.104H622.908C622.908 187.824 622.012 186.864 620.62 186.864C619.308 186.864 618.348 187.76 618.252 189.104ZM628.747 192.8C629.019 192.8 629.147 192.784 629.419 192.736V194C629.019 194.08 628.763 194.096 628.427 194.096C627.083 194.096 626.267 193.584 626.267 191.696V187.136H625.083V185.84H626.267V183.216H627.835V185.84H629.403V187.136H627.835V191.744C627.835 192.608 628.075 192.8 628.747 192.8ZM637.268 194.224C634.788 194.224 633.556 192.944 633.508 191.28H635.092C635.156 192.224 635.732 192.96 637.252 192.96C638.628 192.96 638.996 192.352 638.996 191.76C638.996 190.736 637.908 190.624 636.852 190.4C635.428 190.064 633.796 189.648 633.796 187.952C633.796 186.544 634.932 185.6 636.9 185.6C639.14 185.6 640.212 186.8 640.324 188.208H638.74C638.628 187.584 638.292 186.864 636.932 186.864C635.876 186.864 635.428 187.28 635.428 187.888C635.428 188.736 636.34 188.816 637.492 189.072C638.996 189.424 640.628 189.856 640.628 191.68C640.628 193.264 639.412 194.224 637.268 194.224ZM649.352 189.744C649.352 189.968 649.352 190.208 649.336 190.336H643.064C643.096 191.696 643.896 192.96 645.512 192.96C646.952 192.96 647.512 192.032 647.656 191.488H649.256C648.824 193.056 647.624 194.24 645.48 194.24C642.888 194.24 641.448 192.4 641.448 189.904C641.448 187.344 642.984 185.584 645.48 185.584C647.96 185.584 649.352 187.216 649.352 189.744ZM643.064 189.104H647.72C647.72 187.824 646.824 186.864 645.432 186.864C644.12 186.864 643.16 187.76 643.064 189.104ZM654.261 194.24C651.829 194.24 650.245 192.48 650.245 189.92C650.245 187.36 651.829 185.6 654.245 185.6C656.341 185.6 657.733 186.96 657.925 188.8H656.309C656.229 187.952 655.749 186.896 654.261 186.896C652.517 186.896 651.877 188.384 651.877 189.92C651.877 191.456 652.517 192.928 654.261 192.928C655.765 192.928 656.229 191.904 656.309 190.976H657.925C657.813 192.848 656.357 194.24 654.261 194.24ZM664.553 190.848V185.84H666.121V194H664.553V192.976H664.521C664.089 193.6 663.241 194.224 661.833 194.224C660.329 194.224 659.113 193.36 659.113 191.488V185.84H660.681V191.056C660.681 192.16 661.161 192.896 662.345 192.896C663.689 192.896 664.553 192.08 664.553 190.848ZM671.672 185.648C671.96 185.648 672.184 185.664 672.424 185.696V187.2C672.232 187.168 672.088 187.152 671.896 187.152C670.472 187.152 669.448 188.224 669.448 189.776V194H667.88V185.84H669.448V187.392H669.48C669.912 186.368 670.568 185.648 671.672 185.648ZM675.123 184.384H673.347V182.688H675.123V184.384ZM675.011 194H673.443V185.84H675.011V194ZM679.779 192.8C680.051 192.8 680.179 192.784 680.451 192.736V194C680.051 194.08 679.795 194.096 679.459 194.096C678.115 194.096 677.299 193.584 677.299 191.696V187.136H676.115V185.84H677.299V183.216H678.867V185.84H680.435V187.136H678.867V191.744C678.867 192.608 679.107 192.8 679.779 192.8ZM682.795 196.864C682.443 196.864 682.203 196.832 681.787 196.752V195.472C682.059 195.504 682.203 195.52 682.459 195.52C683.083 195.52 683.819 195.2 684.139 193.92L680.843 185.84H682.555L684.939 192.08H684.971L687.211 185.84H688.859L685.627 194.192C684.843 196.208 684.059 196.864 682.795 196.864Z" fill="#C3B6CF"/>
<path d="M663.171 227.46L667.962 236.296L664.485 239.194L659.679 230.359L663.171 227.46Z" fill="black" stroke="url(#paint4_linear_4167_29013)" stroke-width="0.5"/>
<path d="M660.678 225.918L663.061 227.256L667.644 235.709L665.27 234.361L660.678 225.918Z" stroke="url(#paint5_linear_4167_29013)" stroke-width="0.5" stroke-miterlimit="10"/>
<path d="M707.937 197.595L712.589 206.466L697.541 219.001L692.837 210.132L707.937 197.595Z" fill="url(#paint6_linear_4167_29013)" stroke="url(#paint7_linear_4167_29013)" stroke-width="0.5"/>
<path d="M700.487 214.821L705.186 223.721L681.568 243.439L676.774 234.558L700.487 214.821Z" fill="url(#paint8_linear_4167_29013)" stroke="url(#paint9_linear_4167_29013)" stroke-width="0.5"/>
<path d="M674.4 233.627L676.271 234.68L680.861 243.182L678.991 242.125L674.4 233.627Z" fill="black" stroke="url(#paint10_linear_4167_29013)" stroke-width="0.5"/>
<path d="M673.694 233.372L678.488 242.246L674.989 245.167L670.18 236.295L673.694 233.372Z" fill="url(#paint11_linear_4167_29013)" stroke="url(#paint12_linear_4167_29013)" stroke-width="0.5"/>
<path d="M668.389 235.687L669.677 236.416L674.278 244.905L672.992 244.172L668.389 235.687Z" fill="url(#paint13_linear_4167_29013)" stroke="url(#paint14_linear_4167_29013)" stroke-width="0.5"/>
<path d="M667.68 235.427L672.488 244.293L670.028 246.343L665.212 237.478L667.68 235.427Z" fill="black" stroke="url(#paint15_linear_4167_29013)" stroke-width="0.5"/>
<path d="M661.331 235.687L664.709 237.6L669.314 246.077L665.937 244.147L661.331 235.687Z" fill="url(#paint16_linear_4167_29013)" stroke="url(#paint17_linear_4167_29013)" stroke-width="0.5"/>
<path d="M663.662 222.604L668.438 231.433L665.159 234.156L660.362 225.336L663.662 222.604Z" fill="black" stroke="url(#paint18_linear_4167_29013)" stroke-width="0.5"/>
<path d="M677.432 211.199L682.164 220.037L674.196 226.648L669.436 217.82L677.432 211.199Z" fill="black" stroke="url(#paint19_linear_4167_29013)" stroke-width="0.5"/>
<path d="M673.657 208.988L677.323 210.996L681.862 219.473L678.196 217.454L673.657 208.988Z" stroke="url(#paint20_linear_4167_29013)" stroke-width="0.5" stroke-miterlimit="10"/>
<path d="M676.908 205.492L681.623 214.316L678.087 217.249L673.357 208.427L676.908 205.492Z" fill="black" stroke="url(#paint21_linear_4167_29013)" stroke-width="0.5"/>
<path d="M683.044 200.225L687.737 209.049L685.705 210.738L681.005 201.915L683.044 200.225Z" fill="black" stroke="url(#paint22_linear_4167_29013)" stroke-width="0.5"/>
<path d="M686.345 195.874L691.015 204.699L686.941 208.078L682.249 199.262L686.345 195.874Z" fill="black" stroke="url(#paint23_linear_4167_29013)" stroke-width="0.5"/>
<path d="M696.88 191.418L692.117 195.358L689.941 194.193L687.611 196.124L686.422 195.486L681.932 199.199L683.121 199.837L680.688 201.853L682.85 203.027L679.009 206.21L676.984 205.105L673.04 208.364L677.509 210.812L669.119 217.758L672.336 219.54L666.94 224.016L663.738 222.218L660.044 225.275L663.246 227.073L659.362 230.298L663.546 232.662L660.694 235.038L664.895 237.417L667.755 235.041L669.863 236.234L673.769 232.984L676.457 234.497L700.564 214.431L692.521 210.07L708.015 197.205L696.88 191.418Z" fill="#130723"/>
<path d="M696.88 191.418L692.117 195.358L689.941 194.193L687.611 196.124L686.422 195.486L681.932 199.199L683.121 199.837L680.688 201.853L682.85 203.027L679.009 206.21L676.984 205.105L673.04 208.364L677.509 210.812L669.119 217.758L672.336 219.54L666.94 224.016L663.738 222.218L660.044 225.275L663.246 227.073L659.362 230.298L663.546 232.662L660.694 235.038L664.895 237.417L667.755 235.041L669.863 236.234L673.769 232.984L676.457 234.497L700.564 214.431L692.521 210.07L708.015 197.205L696.88 191.418Z" fill="url(#paint24_linear_4167_29013)"/>
<path d="M362.316 483.519L372.314 478.75C365.948 480.364 367.863 478.513 354.701 485.603L362.332 483.533L362.316 483.519Z" fill="url(#paint25_linear_4167_29013)" stroke="url(#paint26_linear_4167_29013)" stroke-width="0.5" stroke-miterlimit="10" stroke-linejoin="bevel"/>
<path d="M360.966 472.869L358.002 474.302L350.066 475.746L353.254 474.216L360.966 472.869Z" fill="url(#paint27_linear_4167_29013)" stroke="url(#paint28_linear_4167_29013)" stroke-width="0.5" stroke-miterlimit="10" stroke-linejoin="bevel"/>
<path d="M354.111 473.735L360.039 470.871L352.237 472.085L345.923 475.14L354.111 473.735Z" fill="url(#paint29_linear_4167_29013)" stroke="url(#paint30_linear_4167_29013)" stroke-width="0.5" stroke-miterlimit="10" stroke-linejoin="bevel"/>
<path d="M373.898 498.034L379.825 495.17L372.038 496.367L365.709 499.439L373.898 498.034Z" fill="url(#paint31_linear_4167_29013)" stroke="url(#paint32_linear_4167_29013)" stroke-width="0.5" stroke-miterlimit="10" stroke-linejoin="bevel"/>
<path d="M349.454 469.989L351.806 468.845L343.461 469.891L340.946 471.127L349.454 469.989Z" fill="url(#paint33_linear_4167_29013)" stroke="url(#paint34_linear_4167_29013)" stroke-width="0.5" stroke-miterlimit="10" stroke-linejoin="bevel"/>
<path d="M344.482 468.633L348.012 466.933L339.423 467.861L335.671 469.69L344.482 468.633Z" fill="url(#paint35_linear_4167_29013)" stroke="url(#paint36_linear_4167_29013)" stroke-width="0.5" stroke-miterlimit="10" stroke-linejoin="bevel"/>
<path d="M386.593 493.692L364.846 447.484L357.331 447.056L380.598 496.5L386.593 493.692Z" fill="url(#paint37_linear_4167_29013)" stroke="url(#paint38_linear_4167_29013)" stroke-width="0.5" stroke-miterlimit="10" stroke-linejoin="bevel"/>
<path d="M370.069 501.425L380.598 496.499L357.348 447.069L331.148 460.04L335.671 469.689L339.437 467.843L340.976 471.124L343.491 469.887L345.954 475.136L352.268 472.082L353.27 474.23L350.113 475.757L354.731 485.599L365.383 480.492L367.695 485.444L363.537 487.419L366.232 493.175L363.041 494.674L365.35 499.596L368.541 498.096L370.097 501.391L370.069 501.425Z" fill="#120820"/>
<path d="M370.069 501.425L380.598 496.499L357.348 447.069L331.148 460.04L335.671 469.689L339.437 467.843L340.976 471.124L343.491 469.887L345.954 475.136L352.268 472.082L353.27 474.23L350.113 475.757L354.731 485.599L365.383 480.492L367.695 485.444L363.537 487.419L366.232 493.175L363.041 494.674L365.35 499.596L368.541 498.096L370.097 501.391L370.069 501.425Z" fill="url(#paint39_linear_4167_29013)"/>
<path d="M370.069 501.425L380.598 496.499L357.348 447.069L331.148 460.04L335.671 469.689L339.437 467.843L340.976 471.124L343.491 469.887L345.954 475.136L352.268 472.082L353.27 474.23L350.113 475.757L354.731 485.599L365.383 480.492L367.695 485.444L363.537 487.419L366.232 493.175L363.041 494.674L365.35 499.596L368.541 498.096L370.097 501.391L370.069 501.425Z" stroke="url(#paint40_linear_4167_29013)" stroke-width="0.5" stroke-miterlimit="10" stroke-linejoin="bevel"/>
<path d="M616.217 593.323L612.394 596.972C611.394 597.926 609.965 598.276 608.637 597.899C604.666 596.766 601.594 593.611 600.559 589.612L597.129 576.353C596.985 575.796 596.829 575.087 596.677 574.324C595.895 570.414 596.152 566.364 597.397 562.575C599.274 555.356 600.01 549.713 598.055 542.513L576.806 464.413L576.405 464.733L465.926 567.575C463.664 570.048 464.151 572.949 464.151 572.949C464.151 576.057 467.92 578.678 481.632 580.336L609.112 602.354C614.329 603.253 617.88 598.347 616.217 593.323Z" stroke="url(#paint41_linear_4167_29013)" stroke-width="0.99" stroke-miterlimit="10"/>
<path d="M695.535 317.068L587.925 416.126C580.458 422.999 577.425 433.459 580.061 443.26L615.988 576.89L616.389 578.124L611.651 577.143L616.217 593.319L612.394 596.968C611.394 597.922 609.965 598.272 608.637 597.895C604.666 596.762 601.594 593.607 600.559 589.608L597.129 576.349C596.985 575.792 596.829 575.083 596.677 574.32C595.895 570.41 596.152 566.36 597.397 562.571C599.274 555.352 600.01 549.709 598.055 542.509L570.76 442.018C568.12 432.299 571.052 421.917 578.387 415.017L686.093 315.114C687.939 313.377 690.512 312.649 692.996 313.159L702.811 315.012" fill="url(#paint42_linear_4167_29013)"/>
<path d="M695.535 317.068L587.925 416.126C580.458 422.999 577.425 433.459 580.061 443.26L615.988 576.89L616.389 578.124L611.651 577.143L616.217 593.319L612.394 596.968C611.394 597.922 609.965 598.272 608.637 597.895C604.666 596.762 601.594 593.607 600.559 589.608L597.129 576.349C596.985 575.792 596.829 575.083 596.677 574.32C595.895 570.41 596.152 566.36 597.397 562.571C599.274 555.352 600.01 549.709 598.055 542.509L570.76 442.018C568.12 432.299 571.052 421.917 578.387 415.017L686.093 315.114C687.939 313.377 690.512 312.649 692.996 313.159L702.811 315.012" stroke="url(#paint43_linear_4167_29013)" stroke-width="0.99" stroke-miterlimit="10"/>
<path d="M597.401 562.572C599.278 555.352 600.014 549.71 598.059 542.509L583.07 487.322L581.046 479.939L532.439 471.82C524.672 470.527 516.745 472.918 510.995 478.3L435.485 548.132C432.659 550.777 434.087 556.294 437.907 556.933L599.056 583.989L597.133 576.349C596.989 575.792 596.833 575.083 596.681 574.32C595.899 570.411 596.156 566.361 597.401 562.572Z" fill="#130722"/>
<path d="M597.401 562.572C599.278 555.352 600.014 549.71 598.059 542.509L583.07 487.322L581.046 479.939L532.439 471.82C524.672 470.527 516.745 472.918 510.995 478.3L435.485 548.132C432.659 550.777 434.087 556.294 437.907 556.933L599.056 583.989L597.133 576.349C596.989 575.792 596.833 575.083 596.681 574.32C595.899 570.411 596.156 566.361 597.401 562.572Z" fill="url(#paint44_linear_4167_29013)"/>
<path d="M597.401 562.572C599.278 555.352 600.014 549.71 598.059 542.509L583.07 487.322L581.046 479.939L532.439 471.82C524.672 470.527 516.745 472.918 510.995 478.3L435.485 548.132C432.659 550.777 434.087 556.294 437.907 556.933L599.056 583.989L597.133 576.349C596.989 575.792 596.833 575.083 596.681 574.32C595.899 570.411 596.156 566.361 597.401 562.572Z" stroke="url(#paint45_linear_4167_29013)" stroke-width="0.99" stroke-miterlimit="10"/>
<path d="M626.324 589.425L586.57 440.604C585.095 435.086 586.761 429.202 590.907 425.273L623.486 394.42C631.253 387.064 630.225 374.413 621.376 368.408L605.573 357.684C598.324 352.761 597.534 342.376 603.957 336.414C612.34 328.634 624.969 327.637 634.461 334.007C638.853 336.955 643.182 339.919 646.071 342.045C654.258 348.065 657.63 363.965 669.43 352.162C677.341 344.249 689.282 332.979 696.29 326.414C698.867 324 703.091 325.207 703.998 328.622L743.846 478.385" stroke="url(#paint46_linear_4167_29013)" stroke-width="0.99" stroke-miterlimit="10"/>
<path d="M626.324 589.425L586.57 440.604C585.095 435.086 586.761 429.202 590.907 425.273L623.486 394.42C631.253 387.064 630.225 374.413 621.376 368.408L605.573 357.684C598.324 352.761 597.534 342.376 603.957 336.414C612.34 328.634 624.969 327.637 634.461 334.007C638.853 336.955 643.182 339.919 646.071 342.045C654.258 348.065 657.63 363.965 669.43 352.162C677.341 344.249 689.282 332.979 696.29 326.414C698.867 324 703.091 325.207 703.998 328.622L743.846 478.385L626.324 589.425Z" fill="#130822"/>
<path d="M626.324 589.425L586.57 440.604C585.095 435.086 586.761 429.202 590.907 425.273L623.486 394.42C631.253 387.064 630.225 374.413 621.376 368.408L605.573 357.684C598.324 352.761 597.534 342.376 603.957 336.414C612.34 328.634 624.969 327.637 634.461 334.007C638.853 336.955 643.182 339.919 646.071 342.045C654.258 348.065 657.63 363.965 669.43 352.162C677.341 344.249 689.282 332.979 696.29 326.414C698.867 324 703.091 325.207 703.998 328.622L743.846 478.385L626.324 589.425Z" fill="url(#paint47_linear_4167_29013)"/>
<path d="M619.379 603.323L747.257 484.511C750.114 481.855 751.267 477.836 750.25 474.071L708.966 320.959C707.366 315.032 700.051 312.914 695.535 317.073L587.925 416.13C580.458 423.004 577.425 433.463 580.061 443.265L620.948 595.337C622.641 601.657 617.206 607.599 610.763 606.478L471.825 582.276C466.503 581.349 463.559 576.47 464.151 571.832L464.151 572.953C464.151 576.061 467.92 578.682 481.632 580.34L609.112 602.354C614.329 603.253 617.88 598.347 616.218 593.323L611.631 577.151L616.377 578.16L620.948 595.337C622.641 601.657 617.206 607.599 610.763 606.478L611.265 606.544C613.675 606.859 616.105 606.135 617.95 604.554L619.379 603.327L619.379 603.323Z" fill="url(#paint48_linear_4167_29013)"/>
<path d="M620.948 595.337L580.061 443.265C577.425 433.463 580.458 423.004 587.925 416.13L695.535 317.073C700.051 312.914 707.366 315.032 708.966 320.959L750.25 474.071C751.267 477.836 750.114 481.855 747.257 484.511L619.379 603.323L619.379 603.327L617.95 604.554C616.105 606.135 613.675 606.859 611.265 606.544L610.763 606.478M620.948 595.337C622.641 601.657 617.206 607.599 610.763 606.478M620.948 595.337L616.377 578.16L611.631 577.151L616.218 593.323C617.88 598.347 614.329 603.253 609.112 602.354L481.632 580.34C467.92 578.682 464.151 576.061 464.151 572.953L464.151 571.832C463.559 576.47 466.503 581.349 471.825 582.276L610.763 606.478" stroke="url(#paint49_linear_4167_29013)" stroke-miterlimit="10"/>
<path d="M616.218 593.323L611.631 577.151L616.377 578.16" stroke="url(#paint50_linear_4167_29013)" stroke-width="0.99" stroke-miterlimit="10"/>
<path d="M618.754 333.271C611.806 332.897 605.972 336.345 605.723 340.973C605.474 345.601 610.905 349.656 617.853 350.03C624.801 350.404 630.635 346.955 630.884 342.327C631.133 337.699 625.702 333.645 618.754 333.271Z" fill="url(#paint51_radial_4167_29013)" stroke="url(#paint52_linear_4167_29013)" stroke-miterlimit="10"/>
<path d="M630.899 342.466C630.813 349.534 624.814 352.746 617.868 352.326C608.446 351.753 605.324 346.847 605.737 340.955" stroke="url(#paint53_linear_4167_29013)" stroke-miterlimit="10"/>
<path d="M292.625 14.2407L298.999 18.5954C308.642 26.3137 304.911 46.7331 290.659 64.2026C276.411 81.676 257.888 89.5308 248.489 82.9051L242.356 78.4958" fill="#130722"/>
<path d="M292.625 14.2407L298.999 18.5954C308.642 26.3137 304.911 46.7331 290.659 64.2026C276.411 81.676 257.888 89.5308 248.489 82.9051L242.356 78.4958" stroke="url(#paint54_linear_4167_29013)" stroke-miterlimit="10"/>
<path d="M293.088 14.6639C283.551 6.94599 264.399 14.8541 250.311 32.3272C236.223 49.8002 232.534 70.2216 242.071 77.9395C251.608 85.6574 270.76 77.7493 284.847 60.2763C298.935 42.8032 302.625 22.3819 293.088 14.6639Z" fill="#130722"/>
<path d="M293.088 14.6639C283.551 6.94599 264.399 14.8541 250.311 32.3272C236.223 49.8002 232.534 70.2216 242.071 77.9395C251.608 85.6574 270.76 77.7493 284.847 60.2763C298.935 42.8032 302.625 22.3819 293.088 14.6639Z" fill="url(#paint55_linear_4167_29013)"/>
<path d="M293.088 14.6639C283.551 6.94599 264.399 14.8541 250.311 32.3272C236.223 49.8002 232.534 70.2216 242.071 77.9395C251.608 85.6574 270.76 77.7493 284.847 60.2763C298.935 42.8032 302.625 22.3819 293.088 14.6639Z" stroke="url(#paint56_linear_4167_29013)" stroke-miterlimit="10"/>
<path d="M283.365 24.722C277.404 19.8975 264.859 25.5522 255.345 37.3521C245.831 49.1521 242.951 62.6288 248.913 67.4534C254.874 72.2779 267.42 66.6232 276.934 54.8233C286.447 43.0234 289.327 29.5466 283.365 24.722Z" fill="#130722"/>
<path d="M283.365 24.722C277.404 19.8975 264.859 25.5522 255.345 37.3521C245.831 49.1521 242.951 62.6288 248.913 67.4534C254.874 72.2779 267.42 66.6232 276.934 54.8233C286.447 43.0234 289.327 29.5466 283.365 24.722Z" fill="url(#paint57_linear_4167_29013)"/>
<path d="M283.365 24.722C277.404 19.8975 264.859 25.5522 255.345 37.3521C245.831 49.1521 242.951 62.6288 248.913 67.4534C254.874 72.2779 267.42 66.6232 276.934 54.8233C286.447 43.0234 289.327 29.5466 283.365 24.722Z" stroke="url(#paint58_linear_4167_29013)" stroke-miterlimit="10"/>
<path d="M543.189 98.5575L525.98 111.271L499.45 98.6063L516.526 85.705L543.189 98.5575Z" fill="#120821"/>
<path d="M543.189 98.5575L525.98 111.271L499.45 98.6063L516.526 85.705L543.189 98.5575Z" fill="url(#paint59_linear_4167_29013)"/>
<path d="M543.189 98.5575L525.98 111.271L499.45 98.6063L516.526 85.705L543.189 98.5575Z" stroke="url(#paint60_linear_4167_29013)" stroke-width="0.93" stroke-linecap="round" stroke-linejoin="round"/>
<path d="M516.567 127.416L499.45 98.6062L525.98 111.271L516.567 127.416Z" fill="#170C33"/>
<path d="M516.567 127.416L499.45 98.6062L525.98 111.271L516.567 127.416Z" fill="url(#paint61_linear_4167_29013)"/>
<path d="M516.567 127.416L499.45 98.6062L525.98 111.271L516.567 127.416Z" stroke="url(#paint62_linear_4167_29013)" stroke-width="0.93" stroke-linecap="round" stroke-linejoin="round"/>
<path d="M543.189 98.5581L516.567 127.416L525.98 111.271L543.189 98.5581Z" fill="#170C33"/>
<path d="M543.189 98.5581L516.567 127.416L525.98 111.271L543.189 98.5581Z" fill="url(#paint63_linear_4167_29013)"/>
<path d="M543.189 98.5581L516.567 127.416L525.98 111.271L543.189 98.5581Z" stroke="url(#paint64_linear_4167_29013)" stroke-width="0.93" stroke-linecap="round" stroke-linejoin="round"/>
<path d="M500.962 91.0447L528.9 55.5573L527.659 104.103L500.962 91.0447Z" fill="#170C33"/>
<path d="M500.962 91.0447L528.9 55.5573L527.659 104.103L500.962 91.0447Z" fill="url(#paint65_linear_4167_29013)"/>
<path d="M500.962 91.0447L528.9 55.5573L527.659 104.103L500.962 91.0447Z" stroke="url(#paint66_linear_4167_29013)" stroke-width="0.93" stroke-linecap="round" stroke-linejoin="round"/>
<path d="M544.146 91.1355L527.659 104.104L528.9 55.5575L544.146 91.1355Z" fill="#170C33"/>
<path d="M544.146 91.1355L527.659 104.104L528.9 55.5575L544.146 91.1355Z" fill="url(#paint67_linear_4167_29013)"/>
<path d="M544.146 91.1355L527.659 104.104L528.9 55.5575L544.146 91.1355Z" stroke="url(#paint68_linear_4167_29013)" stroke-width="0.93" stroke-linecap="round" stroke-linejoin="round"/>
<path d="M395.697 336.539C409.06 351.254 436.604 349.059 456.152 331.344C475.705 313.63 480.542 288.337 466.486 272.735L463.499 269.546" fill="#130722"/>
<path d="M395.697 336.539C409.06 351.254 436.604 349.059 456.152 331.344C475.705 313.63 480.542 288.337 466.486 272.735L463.499 269.546" stroke="url(#paint69_linear_4167_29013)" stroke-miterlimit="10"/>
<path d="M403.908 274.971C384.356 292.686 379.34 318.977 392.703 333.693C406.066 348.41 432.748 345.979 452.3 328.264C471.851 310.549 476.868 284.258 463.505 269.542C450.141 254.825 423.459 257.256 403.908 274.971Z" fill="#130722"/>
<path d="M403.908 274.971C384.356 292.686 379.34 318.977 392.703 333.693C406.066 348.41 432.748 345.979 452.3 328.264C471.851 310.549 476.868 284.258 463.505 269.542C450.141 254.825 423.459 257.256 403.908 274.971Z" fill="url(#paint70_linear_4167_29013)"/>
<path d="M403.908 274.971C384.356 292.686 379.34 318.977 392.703 333.693C406.066 348.41 432.748 345.979 452.3 328.264C471.851 310.549 476.868 284.258 463.505 269.542C450.141 254.825 423.459 257.256 403.908 274.971Z" stroke="url(#paint71_linear_4167_29013)" stroke-miterlimit="10"/>
<path d="M409.147 280.741C393.829 294.62 389.899 315.218 400.368 326.748C410.838 338.278 431.743 336.373 447.061 322.494C462.378 308.615 466.309 288.017 455.839 276.487C445.37 264.958 424.465 266.862 409.147 280.741Z" fill="#130722"/>
<path d="M409.147 280.741C393.829 294.62 389.899 315.218 400.368 326.748C410.838 338.278 431.743 336.373 447.061 322.494C462.378 308.615 466.309 288.017 455.839 276.487C445.37 264.958 424.465 266.862 409.147 280.741Z" fill="url(#paint72_linear_4167_29013)"/>
<path d="M409.147 280.741C393.829 294.62 389.899 315.218 400.368 326.748C410.838 338.278 431.743 336.373 447.061 322.494C462.378 308.615 466.309 288.017 455.839 276.487C445.37 264.958 424.465 266.862 409.147 280.741Z" stroke="url(#paint73_linear_4167_29013)" stroke-miterlimit="10"/>
<path d="M439.74 303.746C443.477 301.073 443.42 298.059 442.065 295.051L447.464 291.679L446.128 289.528L440.871 292.81C440.518 292.247 440.144 291.677 439.768 291.115L445.059 287.812L443.724 285.664L438.328 289.03C438.023 288.573 437.726 288.126 437.447 287.68L437.463 287.669L435.622 284.703L432.113 286.894C432.113 286.894 433.148 288.452 433.085 288.454C433.629 289.321 433.031 290.089 432.412 290.591L426.261 294.43C426.299 294.49 426.345 294.572 426.379 294.673C426.334 294.601 426.286 294.525 426.236 294.445L417.622 299.824C417.179 300.048 416.412 300.304 416.031 299.697C416.01 299.748 415.062 298.131 415.062 298.131L410.875 300.152L412.612 302.952C412.938 303.472 413.242 303.994 413.547 304.501L408.089 307.909L409.424 310.057L414.823 306.686C415.171 307.287 415.519 307.862 415.863 308.42L410.487 311.773L411.824 313.924L417.275 310.524C419.837 313.942 422.802 315.602 428.183 312.677C432.517 310.323 433.584 307.874 433.059 305.352C434.802 305.994 436.996 305.706 439.732 303.743L439.74 303.746ZM426.194 308.022C422.115 310.57 419.74 305.709 418.833 304.253L426.066 299.74C426.968 301.198 430.45 305.367 426.194 308.022ZM435.777 300.653C432.066 302.967 430.132 298.884 429.378 297.672L435.939 293.576C436.693 294.788 439.65 298.233 435.781 300.65" fill="url(#paint74_linear_4167_29013)"/>
<path d="M439.45 328.409C427.943 346.965 430.379 373.087 450.447 391.756C475.166 414.756 513.953 418.704 536.416 400.157C548.998 389.769 552.465 373.922 552.465 373.922" fill="#130722"/>
<path d="M439.45 328.409C427.943 346.965 430.379 373.087 450.447 391.756C475.166 414.756 513.953 418.704 536.416 400.157C548.998 389.769 552.465 373.922 552.465 373.922" stroke="url(#paint75_linear_4167_29013)" stroke-miterlimit="10"/>
<path d="M452.135 312.503C474.619 293.988 510.353 296.16 535.069 319.152C559.787 342.152 561.086 375.513 538.607 394.031C516.12 412.55 478.366 409.213 453.648 386.213C428.935 363.215 429.647 331.022 452.135 312.503Z" fill="#130722"/>
<path d="M452.135 312.503C474.619 293.988 510.353 296.16 535.069 319.152C559.787 342.152 561.086 375.513 538.607 394.031C516.12 412.55 478.366 409.213 453.648 386.213C428.935 363.215 429.647 331.022 452.135 312.503Z" fill="url(#paint76_linear_4167_29013)"/>
<path d="M452.135 312.503C474.619 293.988 510.353 296.16 535.069 319.152C559.787 342.152 561.086 375.513 538.607 394.031C516.12 412.55 478.366 409.213 453.648 386.213C428.935 363.215 429.647 331.022 452.135 312.503Z" stroke="url(#paint77_linear_4167_29013)" stroke-miterlimit="10"/>
<path d="M460.778 320.405C478.757 305.668 507.404 307.487 527.27 325.912C547.137 344.344 548.257 370.997 530.282 385.736C512.301 400.477 482.032 397.722 462.165 379.29C442.302 360.861 442.797 335.146 460.778 320.405Z" fill="#130722"/>
<path d="M460.778 320.405C478.757 305.668 507.404 307.487 527.27 325.912C547.137 344.344 548.257 370.997 530.282 385.736C512.301 400.477 482.032 397.722 462.165 379.29C442.302 360.861 442.797 335.146 460.778 320.405Z" fill="url(#paint78_linear_4167_29013)"/>
<path d="M460.778 320.405C478.757 305.668 507.404 307.487 527.27 325.912C547.137 344.344 548.257 370.997 530.282 385.736C512.301 400.477 482.032 397.722 462.165 379.29C442.302 360.861 442.797 335.146 460.778 320.405Z" stroke="url(#paint79_linear_4167_29013)" stroke-miterlimit="10"/>
<g clip-path="url(#clip0_4167_29013)">
<path fill-rule="evenodd" clip-rule="evenodd" d="M507.298 340.65L510.334 335.392L503.253 331.304L500.217 336.561L486.064 328.39L482.983 333.726L482.979 333.733L479.898 339.069L486.979 343.158L490.06 337.821L518.385 354.175L521.47 348.832L507.298 340.65ZM508.442 355.544L487.198 343.279L484.113 348.622L505.357 360.887L508.442 355.544ZM470.607 355.162L506.013 375.604L509.093 370.268L509.097 370.261L512.178 364.925L505.097 360.836L502.016 366.173L473.691 349.819L470.607 355.162ZM481.673 368.68L488.755 372.769L491.839 367.426L484.758 363.337L481.673 368.68Z" fill="url(#paint80_linear_4167_29013)"/>
</g>
<path d="M62.7953 632.085L65.883 635.44L81.1506 644.734L77.9005 641.133L62.7953 632.085Z" fill="url(#paint81_linear_4167_29013)" stroke="url(#paint82_linear_4167_29013)" stroke-width="0.5" stroke-miterlimit="10" stroke-linejoin="bevel"/>
<path d="M57.5144 636.878L62.7957 632.085L77.9008 641.133L72.2255 646.257L57.5144 636.878Z" fill="url(#paint83_linear_4167_29013)" stroke="url(#paint84_linear_4167_29013)" stroke-width="0.5" stroke-miterlimit="10" stroke-linejoin="bevel"/>
<path d="M50.602 636.542L54.1968 633.262L68.7153 642.403L64.8604 645.914L50.602 636.542Z" fill="url(#paint85_linear_4167_29013)" stroke="url(#paint86_linear_4167_29013)" stroke-width="0.5" stroke-miterlimit="10" stroke-linejoin="bevel"/>
<path d="M43.5665 636.594L47.4134 633.054L61.4874 642.217L57.3424 645.966L43.5665 636.594Z" fill="url(#paint87_linear_4167_29013)" stroke="url(#paint88_linear_4167_29013)" stroke-width="0.5" stroke-miterlimit="10" stroke-linejoin="bevel"/>
<path d="M34.6462 633.932L38.167 630.736L51.612 639.714L47.8311 643.141L34.6462 633.932Z" fill="url(#paint89_linear_4167_29013)" stroke="url(#paint90_linear_4167_29013)" stroke-width="0.5" stroke-miterlimit="10" stroke-linejoin="bevel"/>
<path d="M19.5959 610.553L16.0611 613.817L28.085 621.695L31.8579 618.239L19.5959 610.553Z" fill="url(#paint91_linear_4167_29013)" stroke="url(#paint92_linear_4167_29013)" stroke-width="0.5" stroke-miterlimit="10" stroke-linejoin="bevel"/>
<path d="M14.7333 605.259L19.5954 610.552L31.8574 618.238L26.6726 612.581L14.7333 605.259Z" fill="url(#paint93_linear_4167_29013)" stroke="url(#paint94_linear_4167_29013)" stroke-width="0.5" stroke-miterlimit="10" stroke-linejoin="bevel"/>
<path d="M18.6025 601.681L14.7337 605.259L26.6729 612.582L30.8319 608.764L18.6025 601.681Z" fill="url(#paint95_linear_4167_29013)" stroke="url(#paint96_linear_4167_29013)" stroke-width="0.5" stroke-miterlimit="10" stroke-linejoin="bevel"/>
<path d="M15.4226 598.22L18.6024 601.679L30.8318 608.763L27.4594 605.065L15.4226 598.22Z" fill="url(#paint97_linear_4167_29013)" stroke="url(#paint98_linear_4167_29013)" stroke-width="0.5" stroke-miterlimit="10" stroke-linejoin="bevel"/>
<path d="M22.7734 591.426L15.4218 598.222L27.4587 605.067L35.3304 597.81L22.7734 591.426Z" fill="url(#paint99_linear_4167_29013)" stroke="url(#paint100_linear_4167_29013)" stroke-width="0.5" stroke-miterlimit="10" stroke-linejoin="bevel"/>
<path d="M10.6267 584.769L17.4938 592.26L29.6824 598.711L22.3542 590.7L10.6267 584.769Z" fill="url(#paint101_linear_4167_29013)" stroke="url(#paint102_linear_4167_29013)" stroke-width="0.5" stroke-miterlimit="10" stroke-linejoin="bevel"/>
<path d="M14.4435 581.238L10.6267 584.77L22.3541 590.701L26.461 586.93L14.4435 581.238Z" fill="url(#paint103_linear_4167_29013)" stroke="url(#paint104_linear_4167_29013)" stroke-width="0.5" stroke-miterlimit="10" stroke-linejoin="bevel"/>
<path d="M1.72976 567.3L14.4434 581.236L26.4609 586.929L12.9172 572.057L1.72976 567.3Z" fill="url(#paint105_linear_4167_29013)" stroke="url(#paint106_linear_4167_29013)" stroke-width="0.5" stroke-miterlimit="10" stroke-linejoin="bevel"/>
<path d="M12.1918 557.581L1.72957 567.302L12.917 572.059L24.1294 561.654L12.1918 557.581Z" fill="url(#paint107_linear_4167_29013)" stroke="url(#paint108_linear_4167_29013)" stroke-width="0.5" stroke-miterlimit="10" stroke-linejoin="bevel"/>
<path d="M80.4836 572.936L50.8729 600.079L65.2949 607.057L97.0462 578.054L80.4836 572.936Z" fill="url(#paint109_linear_4167_29013)" stroke="url(#paint110_linear_4167_29013)" stroke-width="0.5" stroke-miterlimit="10" stroke-linejoin="bevel"/>
<path d="M107.015 589.315L97.0456 578.055L65.2943 607.058L24.1295 561.653L12.9171 572.057L26.4608 586.929L22.3539 590.7L29.6821 598.711L33.1868 595.455L35.3302 597.809L27.4584 605.066L30.8308 608.763L26.6719 612.581L31.8568 618.238L28.0839 621.694L47.8309 643.141L51.6118 639.714L57.342 645.965L61.487 642.216L64.8594 645.914L68.7143 642.403L72.2251 646.257L77.9005 641.133L81.1506 644.734L104.84 623.36L101.574 619.699L107.77 614.113L104.273 610.192L108.076 606.728L104.747 602.954L108.58 599.482L102.908 593.086L107.015 589.315Z" fill="#0B0B19"/>
<path d="M107.015 589.315L97.0456 578.055L65.2943 607.058L24.1295 561.653L12.9171 572.057L26.4608 586.929L22.3539 590.7L29.6821 598.711L33.1868 595.455L35.3302 597.809L27.4584 605.066L30.8308 608.763L26.6719 612.581L31.8568 618.238L28.0839 621.694L47.8309 643.141L51.6118 639.714L57.342 645.965L61.487 642.216L64.8594 645.914L68.7143 642.403L72.2251 646.257L77.9005 641.133L81.1506 644.734L104.84 623.36L101.574 619.699L107.77 614.113L104.273 610.192L108.076 606.728L104.747 602.954L108.58 599.482L102.908 593.086L107.015 589.315Z" fill="url(#paint111_linear_4167_29013)"/>
<path d="M107.015 589.315L97.0456 578.055L65.2943 607.058L24.1295 561.653L12.9171 572.057L26.4608 586.929L22.3539 590.7L29.6821 598.711L33.1868 595.455L35.3302 597.809L27.4584 605.066L30.8308 608.763L26.6719 612.581L31.8568 618.238L28.0839 621.694L47.8309 643.141L51.6118 639.714L57.342 645.965L61.487 642.216L64.8594 645.914L68.7143 642.403L72.2251 646.257L77.9005 641.133L81.1506 644.734L104.84 623.36L101.574 619.699L107.77 614.113L104.273 610.192L108.076 606.728L104.747 602.954L108.58 599.482L102.908 593.086L107.015 589.315Z" stroke="url(#paint112_linear_4167_29013)" stroke-width="0.5" stroke-linejoin="bevel"/>
<path d="M16.0601 613.815L34.6461 633.932L47.8311 643.141L28.0841 621.694L16.0601 613.815Z" fill="url(#paint113_linear_4167_29013)" stroke="url(#paint114_linear_4167_29013)" stroke-width="0.5" stroke-miterlimit="10" stroke-linejoin="bevel"/>
<defs>
<radialGradient id="paint0_radial_4167_29013" cx="0" cy="0" r="1" gradientUnits="userSpaceOnUse" gradientTransform="translate(291.5 542) rotate(14.2372) scale(90.6116 50.7804)">
<stop stop-color="#713DFF" stop-opacity="0.08"/>
<stop offset="1" stop-color="#713DFF" stop-opacity="0"/>
</radialGradient>
<linearGradient id="paint1_linear_4167_29013" x1="132.5" y1="514.429" x2="237.049" y2="695.348" gradientUnits="userSpaceOnUse">
<stop stop-color="#685879"/>
<stop offset="0.687247" stop-color="#713DFF" stop-opacity="0.08"/>
<stop offset="1" stop-color="#F9EE98" stop-opacity="0.1"/>
</linearGradient>
<radialGradient id="paint2_radial_4167_29013" cx="0" cy="0" r="1" gradientUnits="userSpaceOnUse" gradientTransform="translate(548 188) rotate(14.0674) scale(91.6829 50.8183)">
<stop stop-color="#713DFF" stop-opacity="0.08"/>
<stop offset="1" stop-color="#713DFF" stop-opacity="0"/>
</radialGradient>
<linearGradient id="paint3_linear_4167_29013" x1="387" y1="160.429" x2="490.893" y2="342.473" gradientUnits="userSpaceOnUse">
<stop stop-color="#685879"/>
<stop offset="0.687247" stop-color="#713DFF" stop-opacity="0.08"/>
<stop offset="1" stop-color="#F9EE98" stop-opacity="0.1"/>
</linearGradient>
<linearGradient id="paint4_linear_4167_29013" x1="659.205" y1="227.839" x2="669.996" y2="229.522" gradientUnits="userSpaceOnUse">
<stop stop-color="#685879"/>
<stop offset="0.34375" stop-color="#713DFF"/>
<stop offset="0.90625" stop-color="#72606F"/>
</linearGradient>
<linearGradient id="paint5_linear_4167_29013" x1="660.074" y1="225.743" x2="669.631" y2="227.145" gradientUnits="userSpaceOnUse">
<stop stop-color="#685879"/>
<stop offset="0.34375" stop-color="#713DFF"/>
<stop offset="0.90625" stop-color="#72606F"/>
</linearGradient>
<linearGradient id="paint6_linear_4167_29013" x1="691.87" y1="199.783" x2="715.548" y2="204.817" gradientUnits="userSpaceOnUse">
<stop stop-color="#130722"/>
<stop offset="0.228235" stop-color="#0A0A18"/>
<stop offset="0.523392" stop-color="#130722"/>
</linearGradient>
<linearGradient id="paint7_linear_4167_29013" x1="691.826" y1="199.102" x2="716.867" y2="205.224" gradientUnits="userSpaceOnUse">
<stop stop-color="#685879"/>
<stop offset="0.34375" stop-color="#713DFF"/>
<stop offset="0.90625" stop-color="#72606F"/>
</linearGradient>
<linearGradient id="paint8_linear_4167_29013" x1="675.415" y1="218.062" x2="709.11" y2="226.146" gradientUnits="userSpaceOnUse">
<stop stop-color="#130722"/>
<stop offset="0.228235" stop-color="#0A0A18"/>
<stop offset="0.523392" stop-color="#130722"/>
</linearGradient>
<linearGradient id="paint9_linear_4167_29013" x1="675.359" y1="217.169" x2="710.877" y2="226.935" gradientUnits="userSpaceOnUse">
<stop stop-color="#685879"/>
<stop offset="0.34375" stop-color="#713DFF"/>
<stop offset="0.90625" stop-color="#72606F"/>
</linearGradient>
<linearGradient id="paint10_linear_4167_29013" x1="673.798" y1="233.441" x2="682.753" y2="234.674" gradientUnits="userSpaceOnUse">
<stop stop-color="#685879"/>
<stop offset="0.34375" stop-color="#713DFF"/>
<stop offset="0.90625" stop-color="#72606F"/>
</linearGradient>
<linearGradient id="paint11_linear_4167_29013" x1="669.731" y1="234.154" x2="679.883" y2="235.5" gradientUnits="userSpaceOnUse">
<stop stop-color="#130722"/>
<stop offset="0.228235" stop-color="#0A0A18"/>
<stop offset="0.523392" stop-color="#130722"/>
</linearGradient>
<linearGradient id="paint12_linear_4167_29013" x1="669.706" y1="233.753" x2="680.528" y2="235.436" gradientUnits="userSpaceOnUse">
<stop stop-color="#685879"/>
<stop offset="0.34375" stop-color="#713DFF"/>
<stop offset="0.90625" stop-color="#72606F"/>
</linearGradient>
<linearGradient id="paint13_linear_4167_29013" x1="667.804" y1="235.83" x2="675.565" y2="236.671" gradientUnits="userSpaceOnUse">
<stop stop-color="#130722"/>
<stop offset="0.228235" stop-color="#0A0A18"/>
<stop offset="0.523392" stop-color="#130722"/>
</linearGradient>
<linearGradient id="paint14_linear_4167_29013" x1="667.782" y1="235.483" x2="676.071" y2="236.547" gradientUnits="userSpaceOnUse">
<stop stop-color="#685879"/>
<stop offset="0.34375" stop-color="#713DFF"/>
<stop offset="0.90625" stop-color="#72606F"/>
</linearGradient>
<linearGradient id="paint15_linear_4167_29013" x1="664.786" y1="235.707" x2="674.283" y2="237.047" gradientUnits="userSpaceOnUse">
<stop stop-color="#685879"/>
<stop offset="0.34375" stop-color="#713DFF"/>
<stop offset="0.90625" stop-color="#72606F"/>
</linearGradient>
<linearGradient id="paint16_linear_4167_29013" x1="660.75" y1="235.923" x2="670.839" y2="237.31" gradientUnits="userSpaceOnUse">
<stop stop-color="#130722"/>
<stop offset="0.228235" stop-color="#0A0A18"/>
<stop offset="0.523392" stop-color="#130722"/>
</linearGradient>
<linearGradient id="paint17_linear_4167_29013" x1="660.725" y1="235.534" x2="671.477" y2="237.263" gradientUnits="userSpaceOnUse">
<stop stop-color="#685879"/>
<stop offset="0.34375" stop-color="#713DFF"/>
<stop offset="0.90625" stop-color="#72606F"/>
</linearGradient>
<linearGradient id="paint18_linear_4167_29013" x1="659.897" y1="222.963" x2="670.424" y2="224.577" gradientUnits="userSpaceOnUse">
<stop stop-color="#685879"/>
<stop offset="0.34375" stop-color="#713DFF"/>
<stop offset="0.90625" stop-color="#72606F"/>
</linearGradient>
<linearGradient id="paint19_linear_4167_29013" x1="668.755" y1="212.014" x2="685.143" y2="215.335" gradientUnits="userSpaceOnUse">
<stop stop-color="#685879"/>
<stop offset="0.34375" stop-color="#713DFF"/>
<stop offset="0.90625" stop-color="#72606F"/>
</linearGradient>
<linearGradient id="paint20_linear_4167_29013" x1="673.071" y1="208.862" x2="684.033" y2="210.665" gradientUnits="userSpaceOnUse">
<stop stop-color="#685879"/>
<stop offset="0.34375" stop-color="#713DFF"/>
<stop offset="0.90625" stop-color="#72606F"/>
</linearGradient>
<linearGradient id="paint21_linear_4167_29013" x1="672.882" y1="205.875" x2="683.656" y2="207.548" gradientUnits="userSpaceOnUse">
<stop stop-color="#685879"/>
<stop offset="0.34375" stop-color="#713DFF"/>
<stop offset="0.90625" stop-color="#72606F"/>
</linearGradient>
<linearGradient id="paint22_linear_4167_29013" x1="680.6" y1="200.46" x2="689.404" y2="201.622" gradientUnits="userSpaceOnUse">
<stop stop-color="#685879"/>
<stop offset="0.34375" stop-color="#713DFF"/>
<stop offset="0.90625" stop-color="#72606F"/>
</linearGradient>
<linearGradient id="paint23_linear_4167_29013" x1="681.749" y1="196.309" x2="693.164" y2="198.151" gradientUnits="userSpaceOnUse">
<stop stop-color="#685879"/>
<stop offset="0.34375" stop-color="#713DFF"/>
<stop offset="0.90625" stop-color="#72606F"/>
</linearGradient>
<linearGradient id="paint24_linear_4167_29013" x1="682.379" y1="192.337" x2="691.256" y2="240.693" gradientUnits="userSpaceOnUse">
<stop stop-color="#685879"/>
<stop offset="0.626558" stop-color="#713DFF" stop-opacity="0.12"/>
<stop offset="1" stop-color="#6663F6" stop-opacity="0"/>
</linearGradient>
<linearGradient id="paint25_linear_4167_29013" x1="364.539" y1="473.818" x2="371.765" y2="482.133" gradientUnits="userSpaceOnUse">
<stop stop-color="#130722"/>
<stop offset="0.228235" stop-color="#0A0A18"/>
<stop offset="0.523392" stop-color="#130722"/>
</linearGradient>
<linearGradient id="paint26_linear_4167_29013" x1="364.876" y1="473.414" x2="372.451" y2="482.462" gradientUnits="userSpaceOnUse">
<stop stop-color="#685879"/>
<stop offset="0.687247" stop-color="#713DFF" stop-opacity="0.08"/>
<stop offset="1" stop-color="#F9EE98" stop-opacity="0.1"/>
</linearGradient>
<linearGradient id="paint27_linear_4167_29013" x1="355.531" y1="469.199" x2="360.385" y2="475.315" gradientUnits="userSpaceOnUse">
<stop stop-color="#130722"/>
<stop offset="0.228235" stop-color="#0A0A18"/>
<stop offset="0.523392" stop-color="#130722"/>
</linearGradient>
<linearGradient id="paint28_linear_4167_29013" x1="355.719" y1="468.974" x2="360.754" y2="475.632" gradientUnits="userSpaceOnUse">
<stop stop-color="#685879"/>
<stop offset="0.687247" stop-color="#713DFF" stop-opacity="0.08"/>
<stop offset="1" stop-color="#F9EE98" stop-opacity="0.1"/>
</linearGradient>
<linearGradient id="paint29_linear_4167_29013" x1="353.249" y1="466.363" x2="359.405" y2="473.89" gradientUnits="userSpaceOnUse">
<stop stop-color="#130722"/>
<stop offset="0.228235" stop-color="#0A0A18"/>
<stop offset="0.523392" stop-color="#130722"/>
</linearGradient>
<linearGradient id="paint30_linear_4167_29013" x1="353.5" y1="466.063" x2="359.909" y2="474.256" gradientUnits="userSpaceOnUse">
<stop stop-color="#685879"/>
<stop offset="0.687247" stop-color="#713DFF" stop-opacity="0.08"/>
<stop offset="1" stop-color="#F9EE98" stop-opacity="0.1"/>
</linearGradient>
<linearGradient id="paint31_linear_4167_29013" x1="373.035" y1="490.662" x2="379.191" y2="498.189" gradientUnits="userSpaceOnUse">
<stop stop-color="#130722"/>
<stop offset="0.228235" stop-color="#0A0A18"/>
<stop offset="0.523392" stop-color="#130722"/>
</linearGradient>
<linearGradient id="paint32_linear_4167_29013" x1="373.286" y1="490.361" x2="379.695" y2="498.555" gradientUnits="userSpaceOnUse">
<stop stop-color="#685879"/>
<stop offset="0.687247" stop-color="#713DFF" stop-opacity="0.08"/>
<stop offset="1" stop-color="#F9EE98" stop-opacity="0.1"/>
</linearGradient>
<linearGradient id="paint33_linear_4167_29013" x1="346.125" y1="464.923" x2="351.072" y2="471.447" gradientUnits="userSpaceOnUse">
<stop stop-color="#130722"/>
<stop offset="0.228235" stop-color="#0A0A18"/>
<stop offset="0.523392" stop-color="#130722"/>
</linearGradient>
<linearGradient id="paint34_linear_4167_29013" x1="346.302" y1="464.71" x2="351.404" y2="471.81" gradientUnits="userSpaceOnUse">
<stop stop-color="#685879"/>
<stop offset="0.687247" stop-color="#713DFF" stop-opacity="0.08"/>
<stop offset="1" stop-color="#F9EE98" stop-opacity="0.1"/>
</linearGradient>
<linearGradient id="paint35_linear_4167_29013" x1="341.631" y1="462.55" x2="347.225" y2="469.842" gradientUnits="userSpaceOnUse">
<stop stop-color="#130722"/>
<stop offset="0.228235" stop-color="#0A0A18"/>
<stop offset="0.523392" stop-color="#130722"/>
</linearGradient>
<linearGradient id="paint36_linear_4167_29013" x1="341.835" y1="462.306" x2="347.613" y2="470.242" gradientUnits="userSpaceOnUse">
<stop stop-color="#685879"/>
<stop offset="0.687247" stop-color="#713DFF" stop-opacity="0.08"/>
<stop offset="1" stop-color="#F9EE98" stop-opacity="0.1"/>
</linearGradient>
<linearGradient id="paint37_linear_4167_29013" x1="358.931" y1="445.139" x2="379.076" y2="497.324" gradientUnits="userSpaceOnUse">
<stop stop-color="#130722"/>
<stop offset="0.228235" stop-color="#0A0A18"/>
<stop offset="0.523392" stop-color="#130722"/>
</linearGradient>
<linearGradient id="paint38_linear_4167_29013" x1="359.492" y1="444.467" x2="377.85" y2="499.918" gradientUnits="userSpaceOnUse">
<stop stop-color="#685879"/>
<stop offset="0.687247" stop-color="#713DFF" stop-opacity="0.08"/>
<stop offset="1" stop-color="#F9EE98" stop-opacity="0.1"/>
</linearGradient>
<linearGradient id="paint39_linear_4167_29013" x1="347.375" y1="440.6" x2="371.903" y2="506.165" gradientUnits="userSpaceOnUse">
<stop stop-color="#685879"/>
<stop offset="0.687247" stop-color="#713DFF" stop-opacity="0.08"/>
<stop offset="1" stop-color="#F9EE98" stop-opacity="0.1"/>
</linearGradient>
<linearGradient id="paint40_linear_4167_29013" x1="347.375" y1="440.6" x2="371.903" y2="506.165" gradientUnits="userSpaceOnUse">
<stop stop-color="#685879"/>
<stop offset="0.687247" stop-color="#713DFF" stop-opacity="0.08"/>
<stop offset="1" stop-color="#F9EE98" stop-opacity="0.1"/>
</linearGradient>
<linearGradient id="paint41_linear_4167_29013" x1="470.281" y1="602.461" x2="519.554" y2="435.725" gradientUnits="userSpaceOnUse">
<stop stop-color="#685879"/>
<stop offset="0.687247" stop-color="#713DFF" stop-opacity="0.08"/>
<stop offset="1" stop-color="#F9EE98" stop-opacity="0.1"/>
</linearGradient>
<linearGradient id="paint42_linear_4167_29013" x1="674.807" y1="341.308" x2="626.807" y2="559.808" gradientUnits="userSpaceOnUse">
<stop stop-color="#685879" stop-opacity="0.1"/>
<stop offset="0.687247" stop-color="#713DFF" stop-opacity="0.2"/>
</linearGradient>
<linearGradient id="paint43_linear_4167_29013" x1="575.189" y1="598.044" x2="751.034" y2="346.742" gradientUnits="userSpaceOnUse">
<stop stop-color="#685879"/>
<stop offset="0.687247" stop-color="#713DFF" stop-opacity="0.08"/>
<stop offset="1" stop-color="#F9EE98" stop-opacity="0.1"/>
</linearGradient>
<linearGradient id="paint44_linear_4167_29013" x1="417.807" y1="507.809" x2="623.807" y2="565.309" gradientUnits="userSpaceOnUse">
<stop stop-color="#685879"/>
<stop offset="0.694725" stop-color="#713DFF" stop-opacity="0.08"/>
<stop offset="1" stop-color="#F9EE98" stop-opacity="0"/>
</linearGradient>
<linearGradient id="paint45_linear_4167_29013" x1="440.687" y1="583.989" x2="471.995" y2="443.188" gradientUnits="userSpaceOnUse">
<stop stop-color="#685879"/>
<stop offset="0.687247" stop-color="#713DFF" stop-opacity="0.08"/>
<stop offset="1" stop-color="#F9EE98" stop-opacity="0.1"/>
</linearGradient>
<linearGradient id="paint46_linear_4167_29013" x1="592.429" y1="589.425" x2="738.526" y2="322.24" gradientUnits="userSpaceOnUse">
<stop stop-color="#685879"/>
<stop offset="0.687247" stop-color="#713DFF" stop-opacity="0.08"/>
<stop offset="1" stop-color="#F9EE98" stop-opacity="0.1"/>
</linearGradient>
<linearGradient id="paint47_linear_4167_29013" x1="644.807" y1="366.308" x2="604.307" y2="333.308" gradientUnits="userSpaceOnUse">
<stop stop-color="#685879" stop-opacity="0"/>
<stop offset="1" stop-color="#713DFF" stop-opacity="0.2"/>
</linearGradient>
<linearGradient id="paint48_linear_4167_29013" x1="623.5" y1="300.5" x2="697" y2="538.5" gradientUnits="userSpaceOnUse">
<stop stop-color="#130722"/>
<stop offset="0.254381" stop-color="#0A0A18"/>
<stop offset="0.798631" stop-color="#2A0A52"/>
</linearGradient>
<linearGradient id="paint49_linear_4167_29013" x1="475.674" y1="606.616" x2="590.346" y2="261.633" gradientUnits="userSpaceOnUse">
<stop stop-color="#685879"/>
<stop offset="0.687247" stop-color="#713DFF" stop-opacity="0.08"/>
<stop offset="1" stop-color="#F9EE98" stop-opacity="0.1"/>
</linearGradient>
<linearGradient id="paint50_linear_4167_29013" x1="611.823" y1="593.323" x2="622.383" y2="583.833" gradientUnits="userSpaceOnUse">
<stop stop-color="#685879"/>
<stop offset="0.687247" stop-color="#713DFF" stop-opacity="0.08"/>
<stop offset="1" stop-color="#F9EE98" stop-opacity="0.1"/>
</linearGradient>
<radialGradient id="paint51_radial_4167_29013" cx="0" cy="0" r="1" gradientUnits="userSpaceOnUse" gradientTransform="translate(618.304 341.65) rotate(-135.068) scale(9.34294 10.9157)">
<stop stop-color="#713DFF" stop-opacity="0.08"/>
<stop offset="1" stop-color="#713DFF" stop-opacity="0"/>
</radialGradient>
<linearGradient id="paint52_linear_4167_29013" x1="630.47" y1="350.029" x2="604.53" y2="335.536" gradientUnits="userSpaceOnUse">
<stop stop-color="#685879" stop-opacity="0.6"/>
<stop offset="1" stop-color="#713DFF" stop-opacity="0.4"/>
</linearGradient>
<linearGradient id="paint53_linear_4167_29013" x1="606.721" y1="352.362" x2="608.888" y2="337.702" gradientUnits="userSpaceOnUse">
<stop stop-color="#685879" stop-opacity="0.6"/>
<stop offset="1" stop-color="#713DFF" stop-opacity="0.4"/>
</linearGradient>
<linearGradient id="paint54_linear_4167_29013" x1="244.865" y1="85.2407" x2="275.453" y2="3.43393" gradientUnits="userSpaceOnUse">
<stop stop-color="#685879"/>
<stop offset="0.687247" stop-color="#713DFF" stop-opacity="0.08"/>
<stop offset="1" stop-color="#F9EE98" stop-opacity="0.1"/>
</linearGradient>
<linearGradient id="paint55_linear_4167_29013" x1="258.567" y1="104.767" x2="217.791" y2="47.6596" gradientUnits="userSpaceOnUse">
<stop stop-color="#685879" stop-opacity="0.42"/>
<stop offset="0.831172" stop-color="#713DFF" stop-opacity="0"/>
</linearGradient>
<linearGradient id="paint56_linear_4167_29013" x1="261.404" y1="89.3529" x2="223.708" y2="45.9887" gradientUnits="userSpaceOnUse">
<stop stop-color="#685879"/>
<stop offset="0.687247" stop-color="#713DFF" stop-opacity="0.08"/>
<stop offset="1" stop-color="#F9EE98" stop-opacity="0.1"/>
</linearGradient>
<linearGradient id="paint57_linear_4167_29013" x1="288.573" y1="62.2378" x2="256.991" y2="29.7656" gradientUnits="userSpaceOnUse">
<stop stop-color="#685879" stop-opacity="0.5"/>
<stop offset="0.870794" stop-color="#713DFF" stop-opacity="0.08"/>
</linearGradient>
<linearGradient id="paint58_linear_4167_29013" x1="261.102" y1="74.4594" x2="237.138" y2="47.5994" gradientUnits="userSpaceOnUse">
<stop stop-color="#685879"/>
<stop offset="0.687247" stop-color="#713DFF" stop-opacity="0.08"/>
<stop offset="1" stop-color="#F9EE98" stop-opacity="0.1"/>
</linearGradient>
<linearGradient id="paint59_linear_4167_29013" x1="544.409" y1="91.4795" x2="499.043" y2="108.928" gradientUnits="userSpaceOnUse">
<stop stop-color="#685879" stop-opacity="0.4"/>
<stop offset="0.522233" stop-color="#713DFF" stop-opacity="0.08"/>
<stop offset="1" stop-color="#713DFF" stop-opacity="0"/>
</linearGradient>
<linearGradient id="paint60_linear_4167_29013" x1="544.409" y1="91.4795" x2="499.043" y2="108.928" gradientUnits="userSpaceOnUse">
<stop stop-color="#685879"/>
<stop offset="0.687247" stop-color="#713DFF" stop-opacity="0.08"/>
<stop offset="1" stop-color="#F9EE98" stop-opacity="0.1"/>
</linearGradient>
<linearGradient id="paint61_linear_4167_29013" x1="511.424" y1="136.286" x2="519.436" y2="108.798" gradientUnits="userSpaceOnUse">
<stop stop-color="#685879" stop-opacity="0.7"/>
<stop offset="0.756156" stop-color="#713DFF" stop-opacity="0.08"/>
</linearGradient>
<linearGradient id="paint62_linear_4167_29013" x1="527.159" y1="104.429" x2="492.77" y2="110.584" gradientUnits="userSpaceOnUse">
<stop stop-color="#685879"/>
<stop offset="0.687247" stop-color="#713DFF" stop-opacity="0.08"/>
<stop offset="1" stop-color="#F9EE98" stop-opacity="0.1"/>
</linearGradient>
<linearGradient id="paint63_linear_4167_29013" x1="518.203" y1="119.177" x2="546.128" y2="120.579" gradientUnits="userSpaceOnUse">
<stop stop-color="#685879" stop-opacity="0.15"/>
<stop offset="0.699675" stop-color="#713DFF" stop-opacity="0"/>
</linearGradient>
<linearGradient id="paint64_linear_4167_29013" x1="542.962" y1="99.8728" x2="515.57" y2="100.903" gradientUnits="userSpaceOnUse">
<stop stop-color="#685879"/>
<stop offset="0.687247" stop-color="#713DFF" stop-opacity="0.08"/>
<stop offset="1" stop-color="#F9EE98" stop-opacity="0.1"/>
</linearGradient>
<linearGradient id="paint65_linear_4167_29013" x1="501.905" y1="87.2427" x2="539.27" y2="89.4884" gradientUnits="userSpaceOnUse">
<stop stop-color="#685879" stop-opacity="0.7"/>
<stop offset="0.699675" stop-color="#713DFF" stop-opacity="0.08"/>
</linearGradient>
<linearGradient id="paint66_linear_4167_29013" x1="535.49" y1="58.6667" x2="498.718" y2="59.4314" gradientUnits="userSpaceOnUse">
<stop stop-color="#685879"/>
<stop offset="0.687247" stop-color="#713DFF" stop-opacity="0.08"/>
<stop offset="1" stop-color="#F9EE98" stop-opacity="0.1"/>
</linearGradient>
<linearGradient id="paint67_linear_4167_29013" x1="523.025" y1="90.8829" x2="550.691" y2="67.9794" gradientUnits="userSpaceOnUse">
<stop stop-color="#685879"/>
<stop offset="0.687247" stop-color="#713DFF" stop-opacity="0.08"/>
<stop offset="1" stop-color="#F9EE98" stop-opacity="0.1"/>
</linearGradient>
<linearGradient id="paint68_linear_4167_29013" x1="549.331" y1="61.0524" x2="521.954" y2="60.2723" gradientUnits="userSpaceOnUse">
<stop stop-color="#685879"/>
<stop offset="0.687247" stop-color="#713DFF" stop-opacity="0.08"/>
<stop offset="1" stop-color="#F9EE98" stop-opacity="0.1"/>
</linearGradient>
<linearGradient id="paint69_linear_4167_29013" x1="442.653" y1="360.797" x2="390.791" y2="316.54" gradientUnits="userSpaceOnUse">
<stop stop-color="#685879"/>
<stop offset="0.687247" stop-color="#713DFF" stop-opacity="0.08"/>
<stop offset="1" stop-color="#F9EE98" stop-opacity="0.1"/>
</linearGradient>
<linearGradient id="paint70_linear_4167_29013" x1="505.837" y1="292.276" x2="377.423" y2="310.574" gradientUnits="userSpaceOnUse">
<stop stop-color="#685879" stop-opacity="0.42"/>
<stop offset="0.831172" stop-color="#713DFF" stop-opacity="0"/>
</linearGradient>
<linearGradient id="paint71_linear_4167_29013" x1="485.742" y1="294.031" x2="376.713" y2="331.151" gradientUnits="userSpaceOnUse">
<stop stop-color="#685879"/>
<stop offset="0.687247" stop-color="#713DFF" stop-opacity="0.08"/>
<stop offset="1" stop-color="#F9EE98" stop-opacity="0.1"/>
</linearGradient>
<linearGradient id="paint72_linear_4167_29013" x1="489.005" y1="294.299" x2="388.397" y2="308.635" gradientUnits="userSpaceOnUse">
<stop stop-color="#685879" stop-opacity="0.8"/>
<stop offset="0.831172" stop-color="#713DFF" stop-opacity="0.08"/>
</linearGradient>
<linearGradient id="paint73_linear_4167_29013" x1="473.261" y1="295.674" x2="387.841" y2="324.756" gradientUnits="userSpaceOnUse">
<stop stop-color="#685879"/>
<stop offset="0.687247" stop-color="#713DFF" stop-opacity="0.08"/>
<stop offset="1" stop-color="#F9EE98" stop-opacity="0.1"/>
</linearGradient>
<linearGradient id="paint74_linear_4167_29013" x1="439.54" y1="282.191" x2="449.732" y2="305.843" gradientUnits="userSpaceOnUse">
<stop stop-color="#685879"/>
<stop offset="0.479092" stop-color="#713DFF" stop-opacity="0.56"/>
<stop offset="1" stop-color="#F9EE98" stop-opacity="0.19"/>
</linearGradient>
<linearGradient id="paint75_linear_4167_29013" x1="521.392" y1="431.688" x2="452.695" y2="310.912" gradientUnits="userSpaceOnUse">
<stop stop-color="#685879"/>
<stop offset="0.687247" stop-color="#713DFF" stop-opacity="0.08"/>
<stop offset="1" stop-color="#F9EE98" stop-opacity="0.1"/>
</linearGradient>
<linearGradient id="paint76_linear_4167_29013" x1="533.4" y1="449.683" x2="451.222" y2="300.249" gradientUnits="userSpaceOnUse">
<stop stop-color="#685879" stop-opacity="0.42"/>
<stop offset="0.831172" stop-color="#713DFF" stop-opacity="0"/>
</linearGradient>
<linearGradient id="paint77_linear_4167_29013" x1="524.379" y1="424.421" x2="430.985" y2="308.372" gradientUnits="userSpaceOnUse">
<stop stop-color="#685879"/>
<stop offset="0.687247" stop-color="#713DFF" stop-opacity="0.08"/>
<stop offset="1" stop-color="#F9EE98" stop-opacity="0.1"/>
</linearGradient>
<linearGradient id="paint78_linear_4167_29013" x1="526.24" y1="430.18" x2="460.741" y2="310.22" gradientUnits="userSpaceOnUse">
<stop stop-color="#685879" stop-opacity="0.8"/>
<stop offset="0.831172" stop-color="#713DFF" stop-opacity="0.08"/>
</linearGradient>
<linearGradient id="paint79_linear_4167_29013" x1="518.95" y1="409.98" x2="444.244" y2="316.713" gradientUnits="userSpaceOnUse">
<stop stop-color="#685879"/>
<stop offset="0.687247" stop-color="#713DFF" stop-opacity="0.08"/>
<stop offset="1" stop-color="#F9EE98" stop-opacity="0.1"/>
</linearGradient>
<linearGradient id="paint80_linear_4167_29013" x1="488.226" y1="324.645" x2="523.086" y2="362.273" gradientUnits="userSpaceOnUse">
<stop stop-color="#685879"/>
<stop offset="0.34375" stop-color="#713DFF"/>
<stop offset="0.90625" stop-color="#72606F"/>
</linearGradient>
<linearGradient id="paint81_linear_4167_29013" x1="80.8332" y1="643.55" x2="63.6903" y2="643.858" gradientUnits="userSpaceOnUse">
<stop stop-color="#130722"/>
<stop offset="0.228235" stop-color="#0A0A18"/>
<stop offset="0.523392" stop-color="#130722"/>
</linearGradient>
<linearGradient id="paint82_linear_4167_29013" x1="80.9729" y1="644.071" x2="62.6832" y2="643.897" gradientUnits="userSpaceOnUse">
<stop stop-color="#685879"/>
<stop offset="0.34375" stop-color="#713DFF"/>
<stop offset="0.90625" stop-color="#72606F"/>
</linearGradient>
<linearGradient id="paint83_linear_4167_29013" x1="78.5" y1="643.369" x2="57.0079" y2="642.016" gradientUnits="userSpaceOnUse">
<stop stop-color="#130722"/>
<stop offset="0.228235" stop-color="#0A0A18"/>
<stop offset="0.523392" stop-color="#130722"/>
</linearGradient>
<linearGradient id="paint84_linear_4167_29013" x1="78.6328" y1="643.864" x2="55.8922" y2="641.626" gradientUnits="userSpaceOnUse">
<stop stop-color="#685879"/>
<stop offset="0.34375" stop-color="#713DFF"/>
<stop offset="0.90625" stop-color="#72606F"/>
</linearGradient>
<linearGradient id="paint85_linear_4167_29013" x1="69.0545" y1="643.669" x2="50.4232" y2="642.92" gradientUnits="userSpaceOnUse">
<stop stop-color="#130722"/>
<stop offset="0.228235" stop-color="#0A0A18"/>
<stop offset="0.523392" stop-color="#130722"/>
</linearGradient>
<linearGradient id="paint86_linear_4167_29013" x1="69.1778" y1="644.129" x2="49.4132" y2="642.677" gradientUnits="userSpaceOnUse">
<stop stop-color="#685879"/>
<stop offset="0.34375" stop-color="#713DFF"/>
<stop offset="0.90625" stop-color="#72606F"/>
</linearGradient>
<linearGradient id="paint87_linear_4167_29013" x1="61.8656" y1="643.629" x2="43.3575" y2="642.947" gradientUnits="userSpaceOnUse">
<stop stop-color="#130722"/>
<stop offset="0.228235" stop-color="#0A0A18"/>
<stop offset="0.523392" stop-color="#130722"/>
</linearGradient>
<linearGradient id="paint88_linear_4167_29013" x1="61.9894" y1="644.091" x2="42.3484" y2="642.72" gradientUnits="userSpaceOnUse">
<stop stop-color="#685879"/>
<stop offset="0.34375" stop-color="#713DFF"/>
<stop offset="0.90625" stop-color="#72606F"/>
</linearGradient>
<linearGradient id="paint89_linear_4167_29013" x1="51.9444" y1="640.955" x2="34.5208" y2="640.434" gradientUnits="userSpaceOnUse">
<stop stop-color="#130722"/>
<stop offset="0.228235" stop-color="#0A0A18"/>
<stop offset="0.523392" stop-color="#130722"/>
</linearGradient>
<linearGradient id="paint90_linear_4167_29013" x1="52.0636" y1="641.4" x2="33.5597" y2="640.249" gradientUnits="userSpaceOnUse">
<stop stop-color="#685879"/>
<stop offset="0.34375" stop-color="#713DFF"/>
<stop offset="0.90625" stop-color="#72606F"/>
</linearGradient>
<linearGradient id="paint91_linear_4167_29013" x1="32.2268" y1="619.616" x2="15.8053" y2="618.858" gradientUnits="userSpaceOnUse">
<stop stop-color="#130722"/>
<stop offset="0.228235" stop-color="#0A0A18"/>
<stop offset="0.523392" stop-color="#130722"/>
</linearGradient>
<linearGradient id="paint92_linear_4167_29013" x1="32.3335" y1="620.014" x2="14.9246" y2="618.621" gradientUnits="userSpaceOnUse">
<stop stop-color="#685879"/>
<stop offset="0.34375" stop-color="#713DFF"/>
<stop offset="0.90625" stop-color="#72606F"/>
</linearGradient>
<linearGradient id="paint93_linear_4167_29013" x1="31.54" y1="617.054" x2="15.8405" y2="617.662" gradientUnits="userSpaceOnUse">
<stop stop-color="#130722"/>
<stop offset="0.228235" stop-color="#0A0A18"/>
<stop offset="0.523392" stop-color="#130722"/>
</linearGradient>
<linearGradient id="paint94_linear_4167_29013" x1="31.6797" y1="617.575" x2="14.9015" y2="617.8" gradientUnits="userSpaceOnUse">
<stop stop-color="#685879"/>
<stop offset="0.34375" stop-color="#713DFF"/>
<stop offset="0.90625" stop-color="#72606F"/>
</linearGradient>
<linearGradient id="paint95_linear_4167_29013" x1="31.2715" y1="610.405" x2="14.3578" y2="609.305" gradientUnits="userSpaceOnUse">
<stop stop-color="#130722"/>
<stop offset="0.228235" stop-color="#0A0A18"/>
<stop offset="0.523392" stop-color="#130722"/>
</linearGradient>
<linearGradient id="paint96_linear_4167_29013" x1="31.3754" y1="610.793" x2="13.4835" y2="608.991" gradientUnits="userSpaceOnUse">
<stop stop-color="#685879"/>
<stop offset="0.34375" stop-color="#713DFF"/>
<stop offset="0.90625" stop-color="#72606F"/>
</linearGradient>
<linearGradient id="paint97_linear_4167_29013" x1="30.5667" y1="607.773" x2="16.1573" y2="608.009" gradientUnits="userSpaceOnUse">
<stop stop-color="#130722"/>
<stop offset="0.228235" stop-color="#0A0A18"/>
<stop offset="0.523392" stop-color="#130722"/>
</linearGradient>
<linearGradient id="paint98_linear_4167_29013" x1="30.6833" y1="608.209" x2="15.3121" y2="608.036" gradientUnits="userSpaceOnUse">
<stop stop-color="#685879"/>
<stop offset="0.34375" stop-color="#713DFF"/>
<stop offset="0.90625" stop-color="#72606F"/>
</linearGradient>
<linearGradient id="paint99_linear_4167_29013" x1="36.3482" y1="601.609" x2="14.4862" y2="599.146" gradientUnits="userSpaceOnUse">
<stop stop-color="#130722"/>
<stop offset="0.228235" stop-color="#0A0A18"/>
<stop offset="0.523392" stop-color="#130722"/>
</linearGradient>
<linearGradient id="paint100_linear_4167_29013" x1="36.4667" y1="602.051" x2="13.4788" y2="598.537" gradientUnits="userSpaceOnUse">
<stop stop-color="#685879"/>
<stop offset="0.34375" stop-color="#713DFF"/>
<stop offset="0.90625" stop-color="#72606F"/>
</linearGradient>
<linearGradient id="paint101_linear_4167_29013" x1="29.3382" y1="597.426" x2="11.7396" y2="597.974" gradientUnits="userSpaceOnUse">
<stop stop-color="#130722"/>
<stop offset="0.228235" stop-color="#0A0A18"/>
<stop offset="0.523392" stop-color="#130722"/>
</linearGradient>
<linearGradient id="paint102_linear_4167_29013" x1="29.4896" y1="597.992" x2="10.6932" y2="598.085" gradientUnits="userSpaceOnUse">
<stop stop-color="#685879"/>
<stop offset="0.34375" stop-color="#713DFF"/>
<stop offset="0.90625" stop-color="#72606F"/>
</linearGradient>
<linearGradient id="paint103_linear_4167_29013" x1="26.9194" y1="588.641" x2="10.2028" y2="586.873" gradientUnits="userSpaceOnUse">
<stop stop-color="#130722"/>
<stop offset="0.228235" stop-color="#0A0A18"/>
<stop offset="0.523392" stop-color="#130722"/>
</linearGradient>
<linearGradient id="paint104_linear_4167_29013" x1="27.0115" y1="588.984" x2="9.41806" y2="586.428" gradientUnits="userSpaceOnUse">
<stop stop-color="#685879"/>
<stop offset="0.34375" stop-color="#713DFF"/>
<stop offset="0.90625" stop-color="#72606F"/>
</linearGradient>
<linearGradient id="paint105_linear_4167_29013" x1="25.9865" y1="585.158" x2="3.5461" y2="586.248" gradientUnits="userSpaceOnUse">
<stop stop-color="#130722"/>
<stop offset="0.228235" stop-color="#0A0A18"/>
<stop offset="0.523392" stop-color="#130722"/>
</linearGradient>
<linearGradient id="paint106_linear_4167_29013" x1="26.1953" y1="585.937" x2="2.19542" y2="586.519" gradientUnits="userSpaceOnUse">
<stop stop-color="#685879"/>
<stop offset="0.34375" stop-color="#713DFF"/>
<stop offset="0.90625" stop-color="#72606F"/>
</linearGradient>
<linearGradient id="paint107_linear_4167_29013" x1="25.7144" y1="567.569" x2="0.646363" y2="562.944" gradientUnits="userSpaceOnUse">
<stop stop-color="#130722"/>
<stop offset="0.228235" stop-color="#0A0A18"/>
<stop offset="0.523392" stop-color="#130722"/>
</linearGradient>
<linearGradient id="paint108_linear_4167_29013" x1="25.831" y1="568.005" x2="-0.259691" y2="561.971" gradientUnits="userSpaceOnUse">
<stop stop-color="#685879"/>
<stop offset="0.34375" stop-color="#713DFF"/>
<stop offset="0.90625" stop-color="#72606F"/>
</linearGradient>
<linearGradient id="paint109_linear_4167_29013" x1="101.627" y1="595.15" x2="47.94" y2="583.894" gradientUnits="userSpaceOnUse">
<stop stop-color="#130722"/>
<stop offset="0.228235" stop-color="#0A0A18"/>
<stop offset="0.523392" stop-color="#130722"/>
</linearGradient>
<linearGradient id="paint110_linear_4167_29013" x1="101.866" y1="596.042" x2="46.2027" y2="581.646" gradientUnits="userSpaceOnUse">
<stop stop-color="#685879"/>
<stop offset="0.34375" stop-color="#713DFF"/>
<stop offset="0.90625" stop-color="#72606F"/>
</linearGradient>
<linearGradient id="paint111_linear_4167_29013" x1="92.0002" y1="573.5" x2="72.2572" y2="668.393" gradientUnits="userSpaceOnUse">
<stop stop-color="#685879" stop-opacity="0.5"/>
<stop offset="0.70165" stop-color="#713DFF" stop-opacity="0.3"/>
</linearGradient>
<linearGradient id="paint112_linear_4167_29013" x1="118.142" y1="630.841" x2="9.37783" y2="627.914" gradientUnits="userSpaceOnUse">
<stop stop-color="#685879"/>
<stop offset="0.34375" stop-color="#713DFF"/>
<stop offset="0.90625" stop-color="#72606F"/>
</linearGradient>
<linearGradient id="paint113_linear_4167_29013" x1="47.1473" y1="640.589" x2="19.4722" y2="642.788" gradientUnits="userSpaceOnUse">
<stop stop-color="#130722"/>
<stop offset="0.228235" stop-color="#0A0A18"/>
<stop offset="0.523392" stop-color="#130722"/>
</linearGradient>
<linearGradient id="paint114_linear_4167_29013" x1="47.4482" y1="641.712" x2="17.7897" y2="643.443" gradientUnits="userSpaceOnUse">
<stop stop-color="#685879"/>
<stop offset="0.34375" stop-color="#713DFF"/>
<stop offset="0.90625" stop-color="#72606F"/>
</linearGradient>
<clipPath id="clip0_4167_29013">
<rect width="40.8833" height="43.1546" fill="white" transform="translate(489.099 323.132) rotate(30)"/>
</clipPath>
</defs>
</svg>
