<svg width="583" height="671" viewBox="0 0 583 671" fill="none" xmlns="http://www.w3.org/2000/svg">
<rect x="71.5" y="368.5" width="316" height="59" rx="14.5" fill="#130722"/>
<rect x="71.5" y="368.5" width="316" height="59" rx="14.5" fill="url(#paint0_radial_4167_29114)"/>
<rect x="71.5" y="368.5" width="316" height="59" rx="14.5" stroke="url(#paint1_linear_4167_29114)"/>
<path d="M106 395.143H109" stroke="#E1FF0B"/>
<path d="M102.25 400.856H109" stroke="#E1FF0B"/>
<path d="M97 400.858H100.562M100.562 400.858V403M100.562 400.858V398.715" stroke="#E1FF0B"/>
<path d="M97 395.143H104.313M104.313 395.143V393M104.313 395.143V397.286" stroke="#E1FF0B"/>
<path d="M121.92 404H120.064L124.32 392.56H126.224L130.512 404H128.592L127.648 401.248H122.864L121.92 404ZM125.248 394.192L123.392 399.76H127.152L125.28 394.192H125.248ZM133.459 404H131.699V392.56H136.467C138.627 392.56 140.211 393.568 140.211 395.968C140.211 398.368 138.627 399.36 136.467 399.36H133.459V404ZM133.459 397.84H136.387C137.715 397.84 138.387 397.248 138.387 395.968C138.387 394.672 137.715 394.08 136.387 394.08H133.459V397.84ZM143.443 404H141.683V392.56H143.443V404ZM149.538 400.672H145.25V399.184H149.538V400.672ZM155.195 395.6C157.275 395.6 158.859 397.232 158.859 399.92C158.859 402.608 157.275 404.224 155.195 404.224C153.915 404.224 153.131 403.648 152.683 402.992H152.651V404H151.083V392.56H152.651V396.8H152.683C153.131 396.224 153.915 395.6 155.195 395.6ZM154.939 402.928C156.475 402.928 157.211 401.52 157.211 399.92C157.211 398.32 156.475 396.912 154.939 396.912C153.531 396.912 152.667 398.064 152.667 399.92C152.667 401.76 153.531 402.928 154.939 402.928ZM162.464 404.224C160.832 404.224 159.792 403.28 159.792 401.888C159.792 400.064 161.168 399.52 163.2 399.136C164.48 398.896 165.264 398.736 165.264 397.936C165.264 397.344 164.912 396.848 163.712 396.848C162.288 396.848 161.856 397.296 161.776 398.384H160.176C160.256 396.816 161.28 395.584 163.776 395.584C165.456 395.584 166.8 396.288 166.8 398.4V402.144C166.8 402.736 166.88 403.04 167.184 403.04C167.232 403.04 167.28 403.04 167.376 403.024V403.984C167.104 404.048 166.832 404.08 166.576 404.08C165.792 404.08 165.376 403.776 165.28 402.848H165.248C164.72 403.696 163.792 404.224 162.464 404.224ZM162.816 402.96C164.224 402.96 165.264 402.24 165.264 400.816V399.648C165.008 399.888 164.304 400.064 163.472 400.24C162.032 400.528 161.424 400.928 161.424 401.776C161.424 402.544 161.84 402.96 162.816 402.96ZM171.924 404.224C169.444 404.224 168.212 402.944 168.164 401.28H169.748C169.812 402.224 170.388 402.96 171.908 402.96C173.284 402.96 173.652 402.352 173.652 401.76C173.652 400.736 172.564 400.624 171.508 400.4C170.084 400.064 168.452 399.648 168.452 397.952C168.452 396.544 169.588 395.6 171.556 395.6C173.796 395.6 174.868 396.8 174.98 398.208H173.396C173.284 397.584 172.948 396.864 171.588 396.864C170.532 396.864 170.084 397.28 170.084 397.888C170.084 398.736 170.996 398.816 172.148 399.072C173.652 399.424 175.284 399.856 175.284 401.68C175.284 403.264 174.068 404.224 171.924 404.224ZM184.009 399.744C184.009 399.968 184.009 400.208 183.993 400.336H177.721C177.753 401.696 178.553 402.96 180.169 402.96C181.609 402.96 182.169 402.032 182.313 401.488H183.913C183.481 403.056 182.281 404.24 180.137 404.24C177.545 404.24 176.105 402.4 176.105 399.904C176.105 397.344 177.641 395.584 180.137 395.584C182.617 395.584 184.009 397.216 184.009 399.744ZM177.721 399.104H182.377C182.377 397.824 181.481 396.864 180.089 396.864C178.777 396.864 177.817 397.76 177.721 399.104ZM191.125 396.832V392.56H192.693V404H191.125V403.04H191.093C190.645 403.616 189.861 404.224 188.581 404.224C186.501 404.224 184.917 402.608 184.917 399.92C184.917 397.232 186.501 395.6 188.581 395.6C189.861 395.6 190.645 396.192 191.093 396.832H191.125ZM188.837 402.928C190.245 402.928 191.109 401.76 191.109 399.92C191.109 398.064 190.245 396.912 188.837 396.912C187.301 396.912 186.549 398.32 186.549 399.92C186.549 401.52 187.301 402.928 188.837 402.928ZM201.914 395.6C203.994 395.6 205.578 397.232 205.578 399.92C205.578 402.608 203.994 404.224 201.914 404.224C200.634 404.224 199.85 403.648 199.402 402.992H199.37V406.832H197.802V395.84H199.37V396.8H199.402C199.85 396.224 200.634 395.6 201.914 395.6ZM201.658 402.928C203.194 402.928 203.93 401.52 203.93 399.92C203.93 398.32 203.194 396.912 201.658 396.912C200.25 396.912 199.386 398.064 199.386 399.92C199.386 401.76 200.25 402.928 201.658 402.928ZM210.575 404.24C208.031 404.24 206.495 402.48 206.495 399.92C206.495 397.376 208.031 395.584 210.591 395.584C213.119 395.584 214.655 397.36 214.655 399.904C214.655 402.464 213.119 404.24 210.575 404.24ZM210.591 402.944C212.255 402.944 213.023 401.616 213.023 399.92C213.023 398.208 212.255 396.896 210.591 396.896C208.895 396.896 208.127 398.208 208.127 399.92C208.127 401.616 208.895 402.944 210.591 402.944ZM217.557 404H215.989V392.56H217.557V404ZM220.998 394.384H219.222V392.688H220.998V394.384ZM220.886 404H219.318V395.84H220.886V404ZM226.23 404.24C223.798 404.24 222.214 402.48 222.214 399.92C222.214 397.36 223.798 395.6 226.214 395.6C228.31 395.6 229.702 396.96 229.894 398.8H228.278C228.198 397.952 227.718 396.896 226.23 396.896C224.486 396.896 223.846 398.384 223.846 399.92C223.846 401.456 224.486 402.928 226.23 402.928C227.734 402.928 228.198 401.904 228.278 400.976H229.894C229.782 402.848 228.326 404.24 226.23 404.24ZM232.826 394.384H231.05V392.688H232.826V394.384ZM232.714 404H231.146V395.84H232.714V404ZM241.962 399.744C241.962 399.968 241.962 400.208 241.946 400.336H235.674C235.706 401.696 236.506 402.96 238.122 402.96C239.562 402.96 240.122 402.032 240.266 401.488H241.866C241.434 403.056 240.234 404.24 238.09 404.24C235.498 404.24 234.058 402.4 234.058 399.904C234.058 397.344 235.594 395.584 238.09 395.584C240.57 395.584 241.962 397.216 241.962 399.744ZM235.674 399.104H240.33C240.33 397.824 239.434 396.864 238.042 396.864C236.73 396.864 235.77 397.76 235.674 399.104ZM246.502 404.224C244.022 404.224 242.79 402.944 242.742 401.28H244.326C244.39 402.224 244.966 402.96 246.486 402.96C247.862 402.96 248.23 402.352 248.23 401.76C248.23 400.736 247.142 400.624 246.086 400.4C244.662 400.064 243.03 399.648 243.03 397.952C243.03 396.544 244.166 395.6 246.134 395.6C248.374 395.6 249.446 396.8 249.558 398.208H247.974C247.862 397.584 247.526 396.864 246.166 396.864C245.11 396.864 244.662 397.28 244.662 397.888C244.662 398.736 245.574 398.816 246.726 399.072C248.23 399.424 249.862 399.856 249.862 401.68C249.862 403.264 248.646 404.224 246.502 404.224ZM256.699 404.224C255.067 404.224 254.027 403.28 254.027 401.888C254.027 400.064 255.403 399.52 257.435 399.136C258.715 398.896 259.499 398.736 259.499 397.936C259.499 397.344 259.147 396.848 257.947 396.848C256.523 396.848 256.091 397.296 256.011 398.384H254.411C254.491 396.816 255.515 395.584 258.011 395.584C259.691 395.584 261.035 396.288 261.035 398.4V402.144C261.035 402.736 261.115 403.04 261.419 403.04C261.467 403.04 261.515 403.04 261.611 403.024V403.984C261.339 404.048 261.067 404.08 260.811 404.08C260.027 404.08 259.611 403.776 259.515 402.848H259.483C258.955 403.696 258.027 404.224 256.699 404.224ZM257.051 402.96C258.459 402.96 259.499 402.24 259.499 400.816V399.648C259.243 399.888 258.539 400.064 257.707 400.24C256.267 400.528 255.659 400.928 255.659 401.776C255.659 402.544 256.075 402.96 257.051 402.96ZM267.231 395.6C268.735 395.6 269.951 396.464 269.951 398.336V404H268.383V398.768C268.383 397.68 267.903 396.944 266.719 396.944C265.375 396.944 264.511 397.76 264.511 398.992V404H262.943V395.84H264.511V396.864H264.543C264.975 396.24 265.823 395.6 267.231 395.6ZM277.438 396.832V392.56H279.006V404H277.438V403.04H277.406C276.958 403.616 276.174 404.224 274.894 404.224C272.814 404.224 271.23 402.608 271.23 399.92C271.23 397.232 272.814 395.6 274.894 395.6C276.174 395.6 276.958 396.192 277.406 396.832H277.438ZM275.15 402.928C276.558 402.928 277.422 401.76 277.422 399.92C277.422 398.064 276.558 396.912 275.15 396.912C273.614 396.912 272.862 398.32 272.862 399.92C272.862 401.52 273.614 402.928 275.15 402.928ZM288.226 395.6C290.306 395.6 291.89 397.232 291.89 399.92C291.89 402.608 290.306 404.224 288.226 404.224C286.946 404.224 286.162 403.648 285.714 402.992H285.682V406.832H284.114V395.84H285.682V396.8H285.714C286.162 396.224 286.946 395.6 288.226 395.6ZM287.97 402.928C289.506 402.928 290.242 401.52 290.242 399.92C290.242 398.32 289.506 396.912 287.97 396.912C286.562 396.912 285.698 398.064 285.698 399.92C285.698 401.76 286.562 402.928 287.97 402.928ZM300.727 399.744C300.727 399.968 300.727 400.208 300.711 400.336H294.439C294.471 401.696 295.271 402.96 296.887 402.96C298.327 402.96 298.887 402.032 299.031 401.488H300.631C300.199 403.056 298.999 404.24 296.855 404.24C294.263 404.24 292.823 402.4 292.823 399.904C292.823 397.344 294.359 395.584 296.855 395.584C299.335 395.584 300.727 397.216 300.727 399.744ZM294.439 399.104H299.095C299.095 397.824 298.199 396.864 296.807 396.864C295.495 396.864 294.535 397.76 294.439 399.104ZM305.844 395.648C306.132 395.648 306.356 395.664 306.596 395.696V397.2C306.404 397.168 306.26 397.152 306.068 397.152C304.644 397.152 303.62 398.224 303.62 399.776V404H302.052V395.84H303.62V397.392H303.652C304.084 396.368 304.74 395.648 305.844 395.648ZM316.494 395.6C318.142 395.6 318.974 396.592 318.974 398.336V404H317.406V398.768C317.406 397.68 317.182 396.944 315.982 396.944C314.814 396.944 314.078 397.76 314.078 398.992V404H312.51V398.768C312.51 397.68 312.286 396.944 311.086 396.944C309.918 396.944 309.182 397.76 309.182 398.992V404H307.614V395.84H309.182V396.864H309.214C309.646 396.24 310.398 395.6 311.63 395.6C312.766 395.6 313.47 396.112 313.79 397.024H313.822C314.414 396.24 315.246 395.6 316.494 395.6ZM322.373 394.384H320.597V392.688H322.373V394.384ZM322.261 404H320.693V395.84H322.261V404ZM327.237 404.224C324.757 404.224 323.525 402.944 323.477 401.28H325.061C325.125 402.224 325.701 402.96 327.221 402.96C328.597 402.96 328.965 402.352 328.965 401.76C328.965 400.736 327.877 400.624 326.821 400.4C325.397 400.064 323.765 399.648 323.765 397.952C323.765 396.544 324.901 395.6 326.869 395.6C329.109 395.6 330.181 396.8 330.293 398.208H328.709C328.597 397.584 328.261 396.864 326.901 396.864C325.845 396.864 325.397 397.28 325.397 397.888C325.397 398.736 326.309 398.816 327.461 399.072C328.965 399.424 330.597 399.856 330.597 401.68C330.597 403.264 329.381 404.224 327.237 404.224ZM335.049 404.224C332.569 404.224 331.337 402.944 331.289 401.28H332.873C332.937 402.224 333.513 402.96 335.033 402.96C336.409 402.96 336.777 402.352 336.777 401.76C336.777 400.736 335.689 400.624 334.633 400.4C333.209 400.064 331.577 399.648 331.577 397.952C331.577 396.544 332.713 395.6 334.681 395.6C336.921 395.6 337.993 396.8 338.105 398.208H336.521C336.409 397.584 336.073 396.864 334.713 396.864C333.657 396.864 333.209 397.28 333.209 397.888C333.209 398.736 334.121 398.816 335.273 399.072C336.777 399.424 338.409 399.856 338.409 401.68C338.409 403.264 337.193 404.224 335.049 404.224ZM341.326 394.384H339.55V392.688H341.326V394.384ZM341.214 404H339.646V395.84H341.214V404ZM346.622 404.24C344.078 404.24 342.542 402.48 342.542 399.92C342.542 397.376 344.078 395.584 346.638 395.584C349.166 395.584 350.702 397.36 350.702 399.904C350.702 402.464 349.166 404.24 346.622 404.24ZM346.638 402.944C348.302 402.944 349.07 401.616 349.07 399.92C349.07 398.208 348.302 396.896 346.638 396.896C344.942 396.896 344.174 398.208 344.174 399.92C344.174 401.616 344.942 402.944 346.638 402.944ZM356.324 395.6C357.828 395.6 359.044 396.464 359.044 398.336V404H357.476V398.768C357.476 397.68 356.996 396.944 355.812 396.944C354.468 396.944 353.604 397.76 353.604 398.992V404H352.036V395.84H353.604V396.864H353.636C354.068 396.24 354.916 395.6 356.324 395.6ZM363.955 404.224C361.475 404.224 360.243 402.944 360.195 401.28H361.779C361.843 402.224 362.419 402.96 363.939 402.96C365.315 402.96 365.683 402.352 365.683 401.76C365.683 400.736 364.595 400.624 363.539 400.4C362.115 400.064 360.483 399.648 360.483 397.952C360.483 396.544 361.619 395.6 363.587 395.6C365.827 395.6 366.899 396.8 367.011 398.208H365.427C365.315 397.584 364.979 396.864 363.619 396.864C362.563 396.864 362.115 397.28 362.115 397.888C362.115 398.736 363.027 398.816 364.179 399.072C365.683 399.424 367.315 399.856 367.315 401.68C367.315 403.264 366.099 404.224 363.955 404.224Z" fill="#C3B6CF"/>
<path d="M10.2221 456.791L7.51733 461.099L8.56319 455.655L11.4483 451.058L10.2221 456.791Z" fill="url(#paint2_linear_4167_29114)"/>
<path d="M9.91613 448.3L6.25562 454.069L7.19328 448.138L11.1062 441.991L9.91613 448.3Z" fill="url(#paint3_linear_4167_29114)"/>
<path d="M7.87793 439.197L4.41577 444.551L5.20918 437.989L8.90576 432.292L7.87793 439.197Z" fill="url(#paint4_linear_4167_29114)"/>
<mask id="path-10-inside-1_4167_29114" fill="white">
<path fill-rule="evenodd" clip-rule="evenodd" d="M39.1281 402.854L72.5776 350.018L72.6317 350L90.8261 360.996L33.7185 457.259L28.2367 453.546L24.4319 459.855L20.1042 456.899L17.2552 461.55L8.61781 455.637L11.5029 451.04L7.22934 448.138L11.1423 441.991L5.24582 437.989L8.94239 432.292L0.732273 426.773L0.249438 433.96L0 433.943L0.486864 426.696L0.632737 426.706L0.629602 426.704L7.21131 416.825L16.8044 423.207L21.3304 416.212L6.67035 406.55L18.283 389.406C21.754 391.651 25.2296 393.89 28.7051 396.13C32.1809 398.37 35.6568 400.61 39.1281 402.854Z"/>
</mask>
<path fill-rule="evenodd" clip-rule="evenodd" d="M39.1281 402.854L72.5776 350.018L72.6317 350L90.8261 360.996L33.7185 457.259L28.2367 453.546L24.4319 459.855L20.1042 456.899L17.2552 461.55L8.61781 455.637L11.5029 451.04L7.22934 448.138L11.1423 441.991L5.24582 437.989L8.94239 432.292L0.732273 426.773L0.249438 433.96L0 433.943L0.486864 426.696L0.632737 426.706L0.629602 426.704L7.21131 416.825L16.8044 423.207L21.3304 416.212L6.67035 406.55L18.283 389.406C21.754 391.651 25.2296 393.89 28.7051 396.13C32.1809 398.37 35.6568 400.61 39.1281 402.854Z" fill="url(#paint5_linear_4167_29114)"/>
<path d="M72.5776 350.018L72.4986 349.78L72.414 349.809L72.3664 349.884L72.5776 350.018ZM39.1281 402.854L38.9924 403.064L39.2043 403.201L39.3393 402.988L39.1281 402.854ZM72.6317 350L72.761 349.786L72.6622 349.726L72.5527 349.762L72.6317 350ZM90.8261 360.996L91.0411 361.123L91.1676 360.91L90.9554 360.782L90.8261 360.996ZM33.7185 457.259L33.5783 457.466L33.798 457.615L33.9335 457.387L33.7185 457.259ZM28.2367 453.546L28.3769 453.339L28.1587 453.191L28.0226 453.417L28.2367 453.546ZM24.4319 459.855L24.2909 460.062L24.5094 460.211L24.646 459.984L24.4319 459.855ZM20.1042 456.899L20.2453 456.693L20.0283 456.544L19.8911 456.768L20.1042 456.899ZM17.2552 461.55L17.114 461.756L17.331 461.905L17.4684 461.68L17.2552 461.55ZM8.61781 455.637L8.40607 455.504L8.27835 455.708L8.47659 455.843L8.61781 455.637ZM11.5029 451.04L11.7147 451.173L11.8429 450.969L11.6434 450.833L11.5029 451.04ZM7.22934 448.138L7.01844 448.004L6.88813 448.208L7.08889 448.345L7.22934 448.138ZM11.1423 441.991L11.3532 442.125L11.4836 441.92L11.2827 441.784L11.1423 441.991ZM5.24582 437.989L5.0361 437.853L4.9028 438.058L5.10542 438.196L5.24582 437.989ZM8.94239 432.292L9.15211 432.428L9.286 432.222L9.08187 432.085L8.94239 432.292ZM0.732273 426.773L0.87175 426.565L0.511901 426.324L0.482835 426.756L0.732273 426.773ZM0.249438 433.96L0.232676 434.209L0.482117 434.226L0.498875 433.977L0.249438 433.96ZM0 433.943L-0.249438 433.926L-0.266195 434.176L-0.0167618 434.192L0 433.943ZM0.486864 426.696L0.503615 426.447L0.254183 426.43L0.237426 426.679L0.486864 426.696ZM0.632737 426.706L0.615986 426.955L1.5454 427.018L0.77213 426.498L0.632737 426.706ZM0.629602 426.704L0.421549 426.565L0.283452 426.773L0.490208 426.911L0.629602 426.704ZM7.21131 416.825L7.34978 416.617L7.14178 416.479L7.00326 416.687L7.21131 416.825ZM16.8044 423.207L16.6659 423.415L16.8767 423.555L17.0143 423.343L16.8044 423.207ZM21.3304 416.212L21.5403 416.348L21.675 416.14L21.468 416.004L21.3304 416.212ZM6.67035 406.55L6.46337 406.41L6.32138 406.619L6.53277 406.759L6.67035 406.55ZM18.283 389.406L18.4188 389.196L18.2133 389.063L18.076 389.266L18.283 389.406ZM28.7051 396.13L28.8405 395.92L28.8405 395.92L28.7051 396.13ZM72.3664 349.884L38.9169 402.721L39.3393 402.988L72.7888 350.151L72.3664 349.884ZM72.5527 349.762L72.4986 349.78L72.6566 350.255L72.7107 350.237L72.5527 349.762ZM90.9554 360.782L72.761 349.786L72.5024 350.213L90.6967 361.21L90.9554 360.782ZM33.9335 457.387L91.0411 361.123L90.611 360.868L33.5035 457.132L33.9335 457.387ZM28.0965 453.753L33.5783 457.466L33.8587 457.052L28.3769 453.339L28.0965 453.753ZM24.646 459.984L28.4508 453.675L28.0226 453.417L24.2179 459.726L24.646 459.984ZM19.9632 457.105L24.2909 460.062L24.573 459.649L20.2453 456.693L19.9632 457.105ZM17.4684 461.68L20.3174 457.03L19.8911 456.768L17.042 461.419L17.4684 461.68ZM8.47659 455.843L17.114 461.756L17.3964 461.344L8.75903 455.431L8.47659 455.843ZM11.2912 450.907L8.40607 455.504L8.82956 455.77L11.7147 451.173L11.2912 450.907ZM7.08889 448.345L11.3625 451.247L11.6434 450.833L7.3698 447.931L7.08889 448.345ZM10.9314 441.856L7.01844 448.004L7.44024 448.272L11.3532 442.125L10.9314 441.856ZM5.10542 438.196L11.0019 442.198L11.2827 441.784L5.38621 437.782L5.10542 438.196ZM8.73268 432.156L5.0361 437.853L5.45553 438.125L9.15211 432.428L8.73268 432.156ZM0.592796 426.98L8.80291 432.5L9.08187 432.085L0.87175 426.565L0.592796 426.98ZM0.482835 426.756L-9.42539e-10 433.943L0.498875 433.977L0.981711 426.79L0.482835 426.756ZM0.266199 433.71L0.0167618 433.694L-0.0167618 434.192L0.232676 434.209L0.266199 433.71ZM0.249438 433.96L0.736301 426.713L0.237426 426.679L-0.249438 433.926L0.249438 433.96ZM0.470112 426.946L0.615986 426.955L0.649488 426.457L0.503615 426.447L0.470112 426.946ZM0.490208 426.911L0.493343 426.914L0.77213 426.498L0.768995 426.496L0.490208 426.911ZM7.00326 416.687L0.421549 426.565L0.837654 426.843L7.41937 416.964L7.00326 416.687ZM16.9428 422.999L7.34978 416.617L7.07285 417.033L16.6659 423.415L16.9428 422.999ZM21.1205 416.076L16.5945 423.071L17.0143 423.343L21.5403 416.348L21.1205 416.076ZM6.53277 406.759L21.1929 416.421L21.468 416.004L6.80793 406.341L6.53277 406.759ZM18.076 389.266L6.46337 406.41L6.87733 406.69L18.49 389.546L18.076 389.266ZM28.8405 395.92C25.365 393.68 21.8896 391.44 18.4188 389.196L18.1473 389.616C21.6185 391.861 25.0942 394.1 28.5697 396.34L28.8405 395.92ZM39.2638 402.644C35.7923 400.4 32.3163 398.16 28.8405 395.92L28.5697 396.34C32.0455 398.58 35.5212 400.82 38.9924 403.064L39.2638 402.644Z" fill="url(#paint6_linear_4167_29114)" mask="url(#path-10-inside-1_4167_29114)"/>
<path d="M36.1528 411.363L67.8172 361.086L84.8575 371.524L30.8695 462.596L25.7844 459.135L22.214 465.047L18.1929 462.289L15.5241 466.652L7.49988 461.118L10.2047 456.809L6.23763 454.087L9.89814 448.319L4.39836 444.569L7.86052 439.197L0.124756 433.951L6.27369 424.631L15.2176 430.616L19.4551 424.018L5.76879 414.933L16.6602 398.691C23.1517 402.909 29.6433 407.145 36.1348 411.363H36.1528Z" fill="#0B0A19"/>
<path d="M36.1528 411.363L67.8172 361.086L84.8575 371.524L30.8695 462.596L25.7844 459.135L22.214 465.047L18.1929 462.289L15.5241 466.652L7.49988 461.118L10.2047 456.809L6.23763 454.087L9.89814 448.319L4.39836 444.569L7.86052 439.197L0.124756 433.951L6.27369 424.631L15.2176 430.616L19.4551 424.018L5.76879 414.933L16.6602 398.691C23.1517 402.909 29.6433 407.145 36.1348 411.363H36.1528Z" fill="url(#paint7_linear_4167_29114)"/>
<mask id="path-13-inside-2_4167_29114" fill="white">
<path d="M0.611619 426.703L7.19333 416.825L6.29173 424.63L0.124756 433.95"/>
</mask>
<path d="M0.611619 426.703L7.19333 416.825L6.29173 424.63L0.124756 433.95" fill="url(#paint8_linear_4167_29114)"/>
<path d="M7.19333 416.825L7.44168 416.853L6.98528 416.686L7.19333 416.825ZM6.29173 424.63L6.50022 424.768L6.53322 424.718L6.54008 424.659L6.29173 424.63ZM0.819672 426.842L7.40138 416.963L6.98528 416.686L0.403567 426.565L0.819672 426.842ZM6.94498 416.796L6.04338 424.602L6.54008 424.659L7.44168 416.853L6.94498 416.796ZM6.08324 424.492L-0.0837334 433.812L0.333245 434.088L6.50022 424.768L6.08324 424.492Z" fill="url(#paint9_linear_4167_29114)" mask="url(#path-13-inside-2_4167_29114)"/>
<path d="M6.77314 406.593L18.0625 389.953L16.5771 398.66L5.97898 414.465L6.77314 406.593Z" fill="url(#paint10_linear_4167_29114)" stroke="url(#paint11_linear_4167_29114)" stroke-width="0.25"/>
<path d="M84.8575 371.505L67.8171 361.086L72.5776 350.017L90.772 361.013L84.8575 371.505Z" stroke="url(#paint12_linear_4167_29114)" stroke-width="0.25" stroke-miterlimit="10"/>
<g clip-path="url(#clip0_4167_29114)">
<mask id="path-17-inside-3_4167_29114" fill="white">
<path d="M556.41 331.602C562.034 341.306 567.377 350.399 562.141 361.843C557.627 371.717 544.536 383.333 534.523 389.043C524.492 394.764 507.841 399.988 497.465 399.218C485.027 398.262 480.445 389.892 474.697 380.226C474.614 380.108 474.56 379.995 474.493 379.866"/>
</mask>
<path d="M556.41 331.602C562.034 341.306 567.377 350.399 562.141 361.843C557.627 371.717 544.536 383.333 534.523 389.043C524.492 394.764 507.841 399.988 497.465 399.218C485.027 398.262 480.445 389.892 474.697 380.226C474.614 380.108 474.56 379.995 474.493 379.866" fill="#170C33"/>
<path d="M562.141 361.843L561.359 361.485L561.359 361.485L562.141 361.843ZM534.523 389.043L534.097 388.296L534.097 388.296L534.523 389.043ZM497.465 399.218L497.399 400.075L497.401 400.075L497.465 399.218ZM474.697 380.226L475.437 379.787L475.419 379.758L475.4 379.73L474.697 380.226ZM555.666 332.033C561.327 341.801 566.385 350.501 561.359 361.485L562.923 362.201C568.369 350.298 562.74 340.81 557.154 331.171L555.666 332.033ZM561.359 361.485C559.167 366.279 554.855 371.563 549.801 376.382C544.756 381.192 539.036 385.48 534.097 388.296L534.949 389.79C540.024 386.896 545.855 382.521 550.988 377.627C556.11 372.742 560.6 367.281 562.923 362.201L561.359 361.485ZM534.097 388.296C529.151 391.117 522.546 393.828 515.887 395.738C509.214 397.651 502.57 398.734 497.529 398.36L497.401 400.075C502.736 400.472 509.605 399.328 516.361 397.391C523.128 395.451 529.864 392.69 534.949 389.79L534.097 388.296ZM497.531 398.36C491.528 397.899 487.463 395.664 484.181 392.38C480.855 389.054 478.332 384.655 475.437 379.787L473.958 380.666C476.811 385.463 479.452 390.083 482.964 393.596C486.52 397.153 490.964 399.581 497.399 400.075L497.531 398.36ZM475.4 379.73C475.36 379.673 475.336 379.625 475.258 379.473L473.728 380.258C473.783 380.365 473.868 380.543 473.995 380.722L475.4 379.73Z" fill="url(#paint13_linear_4167_29114)" mask="url(#path-17-inside-3_4167_29114)"/>
<path d="M501.095 333.149C522.609 320.782 548.192 318.332 555.889 331.718C563.587 345.103 550.545 367.408 529.032 379.776C507.518 392.143 482.699 393.119 474.985 379.745C467.287 366.36 479.581 345.517 501.095 333.149Z" fill="#150925"/>
<path d="M501.095 333.149C522.609 320.782 548.192 318.332 555.889 331.718C563.587 345.103 550.545 367.408 529.032 379.776C507.518 392.143 482.699 393.119 474.985 379.745C467.287 366.36 479.581 345.517 501.095 333.149Z" fill="url(#paint14_linear_4167_29114)"/>
<path d="M501.095 333.149C522.609 320.782 548.192 318.332 555.889 331.718C563.587 345.103 550.545 367.408 529.032 379.776C507.518 392.143 482.699 393.119 474.985 379.745C467.287 366.36 479.581 345.517 501.095 333.149Z" stroke="url(#paint15_linear_4167_29114)" stroke-width="0.86" stroke-miterlimit="10"/>
<path d="M530.674 370.416C529 371.598 527.234 372.719 525.47 373.738C506.683 384.533 485.358 385.59 479.846 376.01C474.869 367.364 482.926 352.136 498.188 341.358C499.946 340.117 501.812 338.925 503.705 337.84C523.13 326.67 544.806 324.937 550.077 334.107C555.102 342.82 546.204 359.449 530.674 370.416Z" fill="url(#paint16_linear_4167_29114)" fill-opacity="0.6" stroke="url(#paint17_linear_4167_29114)" stroke-width="0.86" stroke-miterlimit="10"/>
<path d="M555.889 331.718C563.587 345.103 550.545 367.408 529.032 379.776C507.518 392.143 482.699 393.119 474.985 379.745" stroke="url(#paint18_linear_4167_29114)" stroke-width="0.86" stroke-miterlimit="10"/>
</g>
<path d="M529.216 337.194C528.178 337.296 527.102 337.544 525.951 338.085C524.525 338.783 523.423 340.041 522.697 340.896C521.971 341.75 520.626 343.645 520.083 344.394C519.54 345.143 517.819 346.385 515.34 349.06C512.861 351.734 503.363 362.315 503.363 362.315L506.381 360.573L494.829 372.03L496.201 371.238L494.711 373.092C495.889 372.599 496.933 371.872 497.777 371.011L497.912 371.245C497.912 371.245 512.212 358.636 515.806 357.681L514.047 359.069C514.23 358.963 517.301 357.314 517.301 357.314C517.861 357.862 518.943 358.045 520.228 357.738C522.407 357.288 522.714 357.609 522.714 357.609C522.714 357.609 521.907 358.323 522.069 358.603C523.645 357.32 525.473 356.264 527.281 355.594C527.281 355.594 527.028 355.367 525.64 355.919C524.198 356.379 522.859 356.593 521.686 356.462C520.658 356.371 520.007 355.877 520.114 355.007C520.222 354.136 521.588 352.913 524.304 350.226C527.487 347.082 527.971 345.808 528.078 344.938C528.186 344.068 528.454 342.421 528.497 341.65C528.566 340.926 528.964 340.137 529.572 339.289C530.416 338.428 531.379 337.562 532.277 336.794C532.487 336.735 529.991 337.058 529.216 337.194Z" fill="url(#paint19_linear_4167_29114)"/>
<path d="M493.461 112.881L485.875 114.308C473.598 115.67 461.797 98.593 459.523 76.1623C457.242 53.7316 464.785 35.08 476.117 33.1189L483.571 31.8997" fill="#130722"/>
<path d="M493.461 112.881L485.875 114.308C473.598 115.67 461.797 98.593 459.523 76.1623C457.242 53.7316 464.785 35.08 476.117 33.1189L483.571 31.8997" stroke="url(#paint20_linear_4167_29114)" stroke-miterlimit="10"/>
<path d="M492.835 112.909C505.036 111.623 512.986 92.4884 510.592 70.1715C508.199 47.8545 496.367 30.8058 484.166 32.092C471.965 33.3782 464.015 52.5124 466.408 74.8293C468.802 97.1462 480.633 114.195 492.835 112.909Z" fill="#130722"/>
<path d="M492.835 112.909C505.036 111.623 512.986 92.4884 510.592 70.1715C508.199 47.8545 496.367 30.8058 484.166 32.092C471.965 33.3782 464.015 52.5124 466.408 74.8293C468.802 97.1462 480.633 114.195 492.835 112.909Z" fill="url(#paint21_linear_4167_29114)"/>
<path d="M492.835 112.909C505.036 111.623 512.986 92.4884 510.592 70.1715C508.199 47.8545 496.367 30.8058 484.166 32.092C471.965 33.3782 464.015 52.5124 466.408 74.8293C468.802 97.1462 480.633 114.195 492.835 112.909Z" stroke="url(#paint22_linear_4167_29114)" stroke-miterlimit="10"/>
<path d="M492.597 98.9218C500.224 98.1177 505.096 85.2484 503.48 70.1773C501.863 55.1062 494.37 43.5404 486.743 44.3445C479.116 45.1485 474.244 58.0178 475.86 73.0889C477.477 88.1601 484.97 99.7258 492.597 98.9218Z" fill="#130722"/>
<path d="M492.597 98.9218C500.224 98.1177 505.096 85.2484 503.48 70.1773C501.863 55.1062 494.37 43.5404 486.743 44.3445C479.116 45.1485 474.244 58.0178 475.86 73.0889C477.477 88.1601 484.97 99.7258 492.597 98.9218Z" fill="url(#paint23_linear_4167_29114)"/>
<path d="M492.597 98.9218C500.224 98.1177 505.096 85.2484 503.48 70.1773C501.863 55.1062 494.37 43.5404 486.743 44.3445C479.116 45.1485 474.244 58.0178 475.86 73.0889C477.477 88.1601 484.97 99.7258 492.597 98.9218Z" stroke="url(#paint24_linear_4167_29114)" stroke-miterlimit="10"/>
<path d="M117.922 602.367L157.403 625.838L211.362 593.106L172.125 569.204L117.922 602.367Z" fill="url(#paint25_linear_4167_29114)" stroke="url(#paint26_linear_4167_29114)" stroke-width="0.93" stroke-linecap="round" stroke-linejoin="round"/>
<path d="M180.966 658.31L211.362 593.106L157.403 625.838L180.966 658.31Z" fill="#170C33"/>
<path d="M180.966 658.31L211.362 593.106L157.403 625.838L180.966 658.31Z" fill="url(#paint27_linear_4167_29114)"/>
<path d="M180.966 658.31L211.362 593.106L157.403 625.838L180.966 658.31Z" stroke="url(#paint28_linear_4167_29114)" stroke-width="0.93" stroke-linecap="round" stroke-linejoin="round"/>
<path d="M117.922 602.367L180.966 658.31L157.404 625.839L117.922 602.367Z" fill="#170C33"/>
<path d="M117.922 602.367L180.966 658.31L157.404 625.839L117.922 602.367Z" fill="url(#paint29_linear_4167_29114)"/>
<path d="M117.922 602.367L180.966 658.31L157.404 625.839L117.922 602.367Z" stroke="url(#paint30_linear_4167_29114)" stroke-width="0.93" stroke-linecap="round" stroke-linejoin="round"/>
<path d="M206.514 577.278L139.238 507.456L152.282 610.888L206.514 577.278Z" fill="#170C33"/>
<path d="M206.514 577.278L139.238 507.456L152.282 610.888L206.514 577.278Z" fill="url(#paint31_linear_4167_29114)"/>
<path d="M206.514 577.278L139.238 507.456L152.282 610.888L206.514 577.278Z" stroke="url(#paint32_linear_4167_29114)" stroke-width="0.93" stroke-linecap="round" stroke-linejoin="round"/>
<path d="M114.288 586.718L152.282 610.888L139.238 507.456L114.288 586.718Z" fill="#170C33"/>
<path d="M114.288 586.718L152.282 610.888L139.238 507.456L114.288 586.718Z" fill="url(#paint33_linear_4167_29114)"/>
<path d="M114.288 586.718L152.282 610.888L139.238 507.456L114.288 586.718Z" stroke="url(#paint34_linear_4167_29114)" stroke-width="0.93" stroke-linecap="round" stroke-linejoin="round"/>
<g clip-path="url(#clip1_4167_29114)">
<path fill-rule="evenodd" clip-rule="evenodd" d="M379.426 256.049L166.005 323.64L165.98 323.559L165.837 323.815L165.407 322.996L76.0704 152.744L75.9555 152.525L76.0597 152.301L79.3353 145.256L79.7615 144.339L79.9412 144.681L94.0813 140.78L94.3473 141.744L80.4167 145.587L169.687 315.713L365.264 254.455L365.563 255.409L169.778 316.733L166.628 322.394L379.124 255.096L379.426 256.049ZM77.0707 152.498L165.863 321.712L168.87 316.308L79.8157 146.594L77.0707 152.498Z" fill="#180C27"/>
<path fill-rule="evenodd" clip-rule="evenodd" d="M379.426 256.049L166.005 323.64L165.98 323.559L165.837 323.815L165.407 322.996L76.0704 152.744L75.9555 152.525L76.0597 152.301L79.3353 145.256L79.7615 144.339L79.9412 144.681L94.0813 140.78L94.3473 141.744L80.4167 145.587L169.687 315.713L365.264 254.455L365.563 255.409L169.778 316.733L166.628 322.394L379.124 255.096L379.426 256.049ZM77.0707 152.498L165.863 321.712L168.87 316.308L79.8157 146.594L77.0707 152.498Z" fill="url(#paint35_linear_4167_29114)"/>
<path d="M342.177 253.162L179.427 279.477C172.26 280.631 165.185 277.096 161.82 270.682L93.0441 139.615C90.2578 134.304 93.771 127.857 99.7498 127.307L105.531 127.07" fill="url(#paint36_linear_4167_29114)" fill-opacity="0.4"/>
<path d="M342.177 253.162L179.427 279.477C172.26 280.631 165.185 277.096 161.82 270.682L93.0441 139.615C90.2578 134.304 93.771 127.857 99.7498 127.307L105.531 127.07" stroke="url(#paint37_linear_4167_29114)" stroke-miterlimit="10"/>
<path d="M147.132 240.914L164.285 237.297L151.629 213.177L134.163 216.198L147.132 240.914Z" fill="url(#paint38_linear_4167_29114)"/>
<path d="M314.725 252.254L190.375 261.386C182.36 261.977 174.759 257.766 171.019 250.674L102.705 121.248C99.9026 115.908 103.438 109.43 109.455 108.917L125.059 107.577" fill="#130723"/>
<path d="M314.725 252.254L190.375 261.386C182.36 261.977 174.759 257.766 171.019 250.674L102.705 121.248C99.9026 115.908 103.438 109.43 109.455 108.917L125.059 107.577" fill="url(#paint39_linear_4167_29114)"/>
<path d="M314.725 252.254L190.375 261.386C182.36 261.977 174.759 257.766 171.019 250.674L102.705 121.248C99.9026 115.908 103.438 109.43 109.455 108.917L125.059 107.577" stroke="url(#paint40_linear_4167_29114)" stroke-miterlimit="10"/>
<path d="M256.617 217.648C248.905 222.627 241.623 227.266 241.194 237.592C240.82 246.501 246.061 259.901 251.251 267.831C256.448 275.776 266.665 285.843 274.528 289.174C283.949 293.152 290.406 288.756 298.218 283.857C298.322 283.802 298.404 283.741 298.501 283.671" fill="#130723"/>
<path d="M256.617 217.648C248.905 222.627 241.623 227.266 241.194 237.592C240.82 246.501 246.061 259.901 251.251 267.831C256.448 275.776 266.665 285.843 274.528 289.174C283.949 293.152 290.406 288.756 298.218 283.857C298.322 283.802 298.404 283.741 298.501 283.671" fill="url(#paint41_linear_4167_29114)"/>
<path d="M256.617 217.648C248.905 222.627 241.623 227.266 241.194 237.592C240.82 246.501 246.061 259.901 251.251 267.831C256.448 275.776 266.665 285.843 274.528 289.174C283.949 293.152 290.406 288.756 298.218 283.857C298.322 283.802 298.404 283.741 298.501 283.671" stroke="url(#paint42_linear_4167_29114)" stroke-width="0.86" stroke-miterlimit="10"/>
<path fill-rule="evenodd" clip-rule="evenodd" d="M256.955 217.927C267.55 211.035 285.32 222.427 296.432 239.538C307.559 256.641 308.774 276.491 298.179 283.383C296.852 284.243 295.413 284.84 293.89 285.191C283.228 287.648 268.428 278.093 258.704 263.121C258.01 262.051 257.354 260.966 256.737 259.869C247.484 243.417 247.022 224.387 256.955 217.927Z" fill="#130723"/>
<path fill-rule="evenodd" clip-rule="evenodd" d="M256.955 217.927C267.55 211.035 285.32 222.427 296.432 239.538C307.559 256.641 308.774 276.491 298.179 283.383C296.852 284.243 295.413 284.84 293.89 285.191C283.228 287.648 268.428 278.093 258.704 263.121C258.01 262.051 257.354 260.966 256.737 259.869C247.484 243.417 247.022 224.387 256.955 217.927Z" fill="url(#paint43_linear_4167_29114)"/>
<path d="M296.432 239.538L296.072 239.773L296.072 239.772L296.432 239.538ZM256.955 217.927L257.189 218.287L257.189 218.287L256.955 217.927ZM298.179 283.383L298.413 283.743L298.413 283.744L298.179 283.383ZM293.89 285.191L293.793 284.772L293.793 284.772L293.89 285.191ZM258.704 263.121L258.344 263.355L258.344 263.355L258.704 263.121ZM256.737 259.869L256.362 260.08L256.362 260.08L256.737 259.869ZM296.072 239.772C290.545 231.262 283.371 224.189 276.285 220.104C269.181 216.009 262.283 214.974 257.189 218.287L256.72 217.566C262.222 213.988 269.506 215.204 276.714 219.359C283.94 223.525 291.207 230.703 296.793 239.304L296.072 239.772ZM297.944 283.022C303.062 279.694 305.389 273.194 305.022 265.31C304.656 257.436 301.601 248.271 296.072 239.773L296.793 239.304C302.391 247.908 305.507 257.219 305.881 265.27C306.255 273.31 303.891 280.181 298.413 283.743L297.944 283.022ZM293.793 284.772C295.27 284.431 296.661 283.854 297.945 283.022L298.413 283.744C297.042 284.633 295.556 285.248 293.986 285.61L293.793 284.772ZM259.065 262.886C263.897 270.327 269.986 276.412 276.175 280.328C282.375 284.25 288.62 285.964 293.793 284.772L293.986 285.61C288.498 286.874 282.012 285.039 275.715 281.055C269.409 277.065 263.235 270.886 258.344 263.355L259.065 262.886ZM257.112 259.658C257.724 260.747 258.376 261.825 259.065 262.886L258.344 263.355C257.644 262.278 256.984 261.184 256.362 260.08L257.112 259.658ZM257.189 218.287C252.397 221.404 250.051 227.598 250.081 235.149C250.111 242.687 252.516 251.486 257.112 259.658L256.362 260.08C251.705 251.799 249.252 242.858 249.221 235.153C249.19 227.461 251.579 220.91 256.72 217.566L257.189 218.287Z" fill="url(#paint44_linear_4167_29114)"/>
<path d="M288.874 243.904C282.245 233.704 271.382 224.11 264.817 228.373C258.253 232.636 260.558 247.158 267.186 257.357C273.815 267.557 284.708 275.538 291.25 271.268C297.814 267.005 295.479 254.096 288.859 243.912L288.874 243.904Z" fill="#130723"/>
<path d="M288.874 243.904C282.245 233.704 271.382 224.11 264.817 228.373C258.253 232.636 260.558 247.158 267.186 257.357C273.815 267.557 284.708 275.538 291.25 271.268C297.814 267.005 295.479 254.096 288.859 243.912L288.874 243.904Z" fill="url(#paint45_linear_4167_29114)"/>
<path d="M288.874 243.904C282.245 233.704 271.382 224.11 264.817 228.373C258.253 232.636 260.558 247.158 267.186 257.357C273.815 267.557 284.708 275.538 291.25 271.268C297.814 267.005 295.479 254.096 288.859 243.912L288.874 243.904Z" stroke="url(#paint46_linear_4167_29114)" stroke-width="0.86" stroke-miterlimit="10"/>
<path d="M198.057 245.713L113.933 85.3948L119.054 74.2423L281.122 82.2422C292.448 82.8052 302.619 89.3005 307.878 99.3241L386.484 249.126L379.283 255.587L198.057 245.713Z" fill="url(#paint47_linear_4167_29114)" stroke="url(#paint48_linear_4167_29114)" stroke-miterlimit="10"/>
<path d="M386.328 248.828L205.191 237.271L119.51 73.9845" stroke="url(#paint49_linear_4167_29114)" stroke-miterlimit="10"/>
</g>
<defs>
<radialGradient id="paint0_radial_4167_29114" cx="0" cy="0" r="1" gradientUnits="userSpaceOnUse" gradientTransform="translate(229.5 398) rotate(14.2803) scale(90.344 50.7707)">
<stop stop-color="#713DFF" stop-opacity="0.08"/>
<stop offset="1" stop-color="#713DFF" stop-opacity="0"/>
</radialGradient>
<linearGradient id="paint1_linear_4167_29114" x1="71" y1="370.429" x2="175.713" y2="551.062" gradientUnits="userSpaceOnUse">
<stop stop-color="#685879"/>
<stop offset="0.687247" stop-color="#713DFF" stop-opacity="0.08"/>
<stop offset="1" stop-color="#F9EE98" stop-opacity="0.1"/>
</linearGradient>
<linearGradient id="paint2_linear_4167_29114" x1="7.51733" y1="451.784" x2="12.2599" y2="452.326" gradientUnits="userSpaceOnUse">
<stop stop-color="#130722"/>
<stop offset="0.228235" stop-color="#0A0A18"/>
<stop offset="0.523392" stop-color="#130722"/>
</linearGradient>
<linearGradient id="paint3_linear_4167_29114" x1="6.25562" y1="442.864" x2="12.1037" y2="443.55" gradientUnits="userSpaceOnUse">
<stop stop-color="#130722"/>
<stop offset="0.228235" stop-color="#0A0A18"/>
<stop offset="0.523392" stop-color="#130722"/>
</linearGradient>
<linearGradient id="paint4_linear_4167_29114" x1="4.41577" y1="433.178" x2="9.84142" y2="433.759" gradientUnits="userSpaceOnUse">
<stop stop-color="#130722"/>
<stop offset="0.228235" stop-color="#0A0A18"/>
<stop offset="0.523392" stop-color="#130722"/>
</linearGradient>
<linearGradient id="paint5_linear_4167_29114" x1="-6.29108e-07" y1="358.062" x2="105.069" y2="383.045" gradientUnits="userSpaceOnUse">
<stop stop-color="#130722"/>
<stop offset="0.228235" stop-color="#0A0A18"/>
<stop offset="0.523392" stop-color="#130722"/>
</linearGradient>
<linearGradient id="paint6_linear_4167_29114" x1="-3.64808e-07" y1="354.515" x2="111.407" y2="384.132" gradientUnits="userSpaceOnUse">
<stop stop-color="#685879"/>
<stop offset="0.34375" stop-color="#713DFF"/>
<stop offset="0.90625" stop-color="#72606F"/>
</linearGradient>
<linearGradient id="paint7_linear_4167_29114" x1="0.124756" y1="365.359" x2="104.252" y2="392.648" gradientUnits="userSpaceOnUse">
<stop stop-color="#685879"/>
<stop offset="0.687247" stop-color="#713DFF" stop-opacity="0.08"/>
<stop offset="1" stop-color="#F9EE98" stop-opacity="0.1"/>
</linearGradient>
<linearGradient id="paint8_linear_4167_29114" x1="0.124756" y1="418.063" x2="8.64035" y2="419.089" gradientUnits="userSpaceOnUse">
<stop stop-color="#130722"/>
<stop offset="0.228235" stop-color="#0A0A18"/>
<stop offset="0.523392" stop-color="#130722"/>
</linearGradient>
<linearGradient id="paint9_linear_4167_29114" x1="0.124756" y1="417.518" x2="9.24225" y2="418.747" gradientUnits="userSpaceOnUse">
<stop stop-color="#685879"/>
<stop offset="0.34375" stop-color="#713DFF"/>
<stop offset="0.90625" stop-color="#72606F"/>
</linearGradient>
<linearGradient id="paint10_linear_4167_29114" x1="5.80444" y1="391.252" x2="20.7513" y2="393.384" gradientUnits="userSpaceOnUse">
<stop stop-color="#130722"/>
<stop offset="0.228235" stop-color="#0A0A18"/>
<stop offset="0.523392" stop-color="#130722"/>
</linearGradient>
<linearGradient id="paint11_linear_4167_29114" x1="5.80444" y1="390.44" x2="21.7854" y2="392.989" gradientUnits="userSpaceOnUse">
<stop stop-color="#685879"/>
<stop offset="0.34375" stop-color="#713DFF"/>
<stop offset="0.90625" stop-color="#72606F"/>
</linearGradient>
<linearGradient id="paint12_linear_4167_29114" x1="67.8171" y1="350.887" x2="94.6938" y2="360.261" gradientUnits="userSpaceOnUse">
<stop stop-color="#685879"/>
<stop offset="0.34375" stop-color="#713DFF"/>
<stop offset="0.90625" stop-color="#72606F"/>
</linearGradient>
<linearGradient id="paint13_linear_4167_29114" x1="474.998" y1="381.612" x2="575.939" y2="383.445" gradientUnits="userSpaceOnUse">
<stop stop-color="#685879"/>
<stop offset="0.34375" stop-color="#713DFF"/>
<stop offset="0.90625" stop-color="#72606F"/>
</linearGradient>
<linearGradient id="paint14_linear_4167_29114" x1="455.154" y1="340.192" x2="578.49" y2="314.719" gradientUnits="userSpaceOnUse">
<stop stop-color="#685879"/>
<stop offset="0.446909" stop-color="#713DFF" stop-opacity="0.12"/>
<stop offset="1" stop-color="#6663F6" stop-opacity="0"/>
</linearGradient>
<linearGradient id="paint15_linear_4167_29114" x1="462.751" y1="362.539" x2="569.821" y2="351.249" gradientUnits="userSpaceOnUse">
<stop stop-color="#685879"/>
<stop offset="0.34375" stop-color="#713DFF"/>
<stop offset="0.90625" stop-color="#72606F"/>
</linearGradient>
<linearGradient id="paint16_linear_4167_29114" x1="549.781" y1="386.381" x2="483.838" y2="373.651" gradientUnits="userSpaceOnUse">
<stop stop-color="#685879"/>
<stop offset="0.626558" stop-color="#713DFF" stop-opacity="0.12"/>
<stop offset="1" stop-color="#6663F6" stop-opacity="0"/>
</linearGradient>
<linearGradient id="paint17_linear_4167_29114" x1="470.58" y1="362.96" x2="561.243" y2="358.009" gradientUnits="userSpaceOnUse">
<stop stop-color="#685879"/>
<stop offset="0.34375" stop-color="#713DFF"/>
<stop offset="0.90625" stop-color="#72606F"/>
</linearGradient>
<linearGradient id="paint18_linear_4167_29114" x1="475.665" y1="380.827" x2="562.958" y2="394.602" gradientUnits="userSpaceOnUse">
<stop stop-color="#685879"/>
<stop offset="0.34375" stop-color="#713DFF"/>
<stop offset="0.90625" stop-color="#72606F"/>
</linearGradient>
<linearGradient id="paint19_linear_4167_29114" x1="487.676" y1="360.907" x2="531.87" y2="373.793" gradientUnits="userSpaceOnUse">
<stop stop-color="#685879"/>
<stop offset="0.34375" stop-color="#713DFF"/>
<stop offset="0.90625" stop-color="#72606F"/>
</linearGradient>
<linearGradient id="paint20_linear_4167_29114" x1="477.028" y1="28.9049" x2="513.245" y2="108.38" gradientUnits="userSpaceOnUse">
<stop stop-color="#685879"/>
<stop offset="0.687247" stop-color="#713DFF" stop-opacity="0.08"/>
<stop offset="1" stop-color="#F9EE98" stop-opacity="0.1"/>
</linearGradient>
<linearGradient id="paint21_linear_4167_29114" x1="453.531" y1="24.7866" x2="522.746" y2="36.3346" gradientUnits="userSpaceOnUse">
<stop stop-color="#685879" stop-opacity="0.42"/>
<stop offset="0.831172" stop-color="#713DFF" stop-opacity="0"/>
</linearGradient>
<linearGradient id="paint22_linear_4167_29114" x1="462.425" y1="37.6921" x2="519.743" y2="41.7003" gradientUnits="userSpaceOnUse">
<stop stop-color="#685879"/>
<stop offset="0.687247" stop-color="#713DFF" stop-opacity="0.08"/>
<stop offset="1" stop-color="#F9EE98" stop-opacity="0.1"/>
</linearGradient>
<linearGradient id="paint23_linear_4167_29114" x1="462.387" y1="76.0765" x2="507.681" y2="76.7056" gradientUnits="userSpaceOnUse">
<stop stop-color="#685879" stop-opacity="0.5"/>
<stop offset="0.870794" stop-color="#713DFF" stop-opacity="0.08"/>
</linearGradient>
<linearGradient id="paint24_linear_4167_29114" x1="473.17" y1="48.0094" x2="509.108" y2="50.0571" gradientUnits="userSpaceOnUse">
<stop stop-color="#685879"/>
<stop offset="0.687247" stop-color="#713DFF" stop-opacity="0.08"/>
<stop offset="1" stop-color="#F9EE98" stop-opacity="0.1"/>
</linearGradient>
<linearGradient id="paint25_linear_4167_29114" x1="113.801" y1="587.509" x2="214.441" y2="615.067" gradientUnits="userSpaceOnUse">
<stop stop-color="#685879" stop-opacity="0.4"/>
<stop offset="0.522233" stop-color="#713DFF" stop-opacity="0.08"/>
<stop offset="1" stop-color="#713DFF" stop-opacity="0"/>
</linearGradient>
<linearGradient id="paint26_linear_4167_29114" x1="113.801" y1="587.509" x2="214.441" y2="615.067" gradientUnits="userSpaceOnUse">
<stop stop-color="#685879"/>
<stop offset="0.687247" stop-color="#713DFF" stop-opacity="0.08"/>
<stop offset="1" stop-color="#F9EE98" stop-opacity="0.1"/>
</linearGradient>
<linearGradient id="paint27_linear_4167_29114" x1="193.852" y1="676.156" x2="170.852" y2="619.156" gradientUnits="userSpaceOnUse">
<stop stop-color="#685879" stop-opacity="0.7"/>
<stop offset="0.756156" stop-color="#713DFF" stop-opacity="0.08"/>
</linearGradient>
<linearGradient id="paint28_linear_4167_29114" x1="153.42" y1="611.476" x2="228.195" y2="617.262" gradientUnits="userSpaceOnUse">
<stop stop-color="#685879"/>
<stop offset="0.687247" stop-color="#713DFF" stop-opacity="0.08"/>
<stop offset="1" stop-color="#F9EE98" stop-opacity="0.1"/>
</linearGradient>
<linearGradient id="paint29_linear_4167_29114" x1="175.709" y1="641.062" x2="116.359" y2="650.034" gradientUnits="userSpaceOnUse">
<stop stop-color="#685879" stop-opacity="0.15"/>
<stop offset="0.699675" stop-color="#713DFF" stop-opacity="0"/>
</linearGradient>
<linearGradient id="paint30_linear_4167_29114" x1="118.688" y1="605.127" x2="177.42" y2="601.463" gradientUnits="userSpaceOnUse">
<stop stop-color="#685879"/>
<stop offset="0.687247" stop-color="#713DFF" stop-opacity="0.08"/>
<stop offset="1" stop-color="#F9EE98" stop-opacity="0.1"/>
</linearGradient>
<linearGradient id="paint31_linear_4167_29114" x1="203.685" y1="569.359" x2="124.352" y2="582.156" gradientUnits="userSpaceOnUse">
<stop stop-color="#685879" stop-opacity="0.7"/>
<stop offset="0.699675" stop-color="#713DFF" stop-opacity="0.08"/>
</linearGradient>
<linearGradient id="paint32_linear_4167_29114" x1="125.827" y1="515.509" x2="204.538" y2="509.27" gradientUnits="userSpaceOnUse">
<stop stop-color="#685879"/>
<stop offset="0.687247" stop-color="#713DFF" stop-opacity="0.08"/>
<stop offset="1" stop-color="#F9EE98" stop-opacity="0.1"/>
</linearGradient>
<linearGradient id="paint33_linear_4167_29114" x1="159.352" y1="581.656" x2="95.3519" y2="538.656" gradientUnits="userSpaceOnUse">
<stop stop-color="#685879"/>
<stop offset="0.687247" stop-color="#713DFF" stop-opacity="0.08"/>
<stop offset="1" stop-color="#F9EE98" stop-opacity="0.1"/>
</linearGradient>
<linearGradient id="paint34_linear_4167_29114" x1="96.7722" y1="523.568" x2="155.085" y2="516.04" gradientUnits="userSpaceOnUse">
<stop stop-color="#685879"/>
<stop offset="0.687247" stop-color="#713DFF" stop-opacity="0.08"/>
<stop offset="1" stop-color="#F9EE98" stop-opacity="0.1"/>
</linearGradient>
<linearGradient id="paint35_linear_4167_29114" x1="179.59" y1="350.024" x2="377.442" y2="155.4" gradientUnits="userSpaceOnUse">
<stop stop-color="#685879"/>
<stop offset="0.687247" stop-color="#713DFF" stop-opacity="0.08"/>
<stop offset="1" stop-color="#F9EE98" stop-opacity="0.1"/>
</linearGradient>
<linearGradient id="paint36_linear_4167_29114" x1="189.323" y1="323.097" x2="349.984" y2="181.497" gradientUnits="userSpaceOnUse">
<stop stop-color="#685879"/>
<stop offset="0.687247" stop-color="#713DFF" stop-opacity="0.08"/>
<stop offset="1" stop-color="#F9EE98" stop-opacity="0.1"/>
</linearGradient>
<linearGradient id="paint37_linear_4167_29114" x1="189.323" y1="323.097" x2="349.984" y2="181.497" gradientUnits="userSpaceOnUse">
<stop stop-color="#685879"/>
<stop offset="0.687247" stop-color="#713DFF" stop-opacity="0.08"/>
<stop offset="1" stop-color="#F9EE98" stop-opacity="0.1"/>
</linearGradient>
<linearGradient id="paint38_linear_4167_29114" x1="148.25" y1="243.043" x2="164.689" y2="230.985" gradientUnits="userSpaceOnUse">
<stop stop-color="#130722"/>
<stop offset="0.228235" stop-color="#0A0A18"/>
<stop offset="0.523392" stop-color="#130722"/>
</linearGradient>
<linearGradient id="paint39_linear_4167_29114" x1="99.8744" y1="225.255" x2="221.364" y2="143.766" gradientUnits="userSpaceOnUse">
<stop stop-color="#685879"/>
<stop offset="0.538985" stop-color="#713DFF" stop-opacity="0.08"/>
</linearGradient>
<linearGradient id="paint40_linear_4167_29114" x1="198.187" y1="303.212" x2="326.902" y2="201.88" gradientUnits="userSpaceOnUse">
<stop stop-color="#685879"/>
<stop offset="0.687247" stop-color="#713DFF" stop-opacity="0.08"/>
<stop offset="1" stop-color="#F9EE98" stop-opacity="0.1"/>
</linearGradient>
<linearGradient id="paint41_linear_4167_29114" x1="289.067" y1="290.656" x2="251.979" y2="243.766" gradientUnits="userSpaceOnUse">
<stop stop-color="#685879" stop-opacity="0.5"/>
<stop offset="0.687247" stop-color="#713DFF" stop-opacity="0.08"/>
</linearGradient>
<linearGradient id="paint42_linear_4167_29114" x1="283.377" y1="292.147" x2="298.462" y2="260.567" gradientUnits="userSpaceOnUse">
<stop stop-color="#685879"/>
<stop offset="0.626558" stop-color="#713DFF" stop-opacity="0.12"/>
<stop offset="1" stop-color="#6663F6" stop-opacity="0"/>
</linearGradient>
<linearGradient id="paint43_linear_4167_29114" x1="289.409" y1="289.591" x2="275.24" y2="237.139" gradientUnits="userSpaceOnUse">
<stop stop-color="#685879" stop-opacity="0.5"/>
<stop offset="0.687247" stop-color="#713DFF" stop-opacity="0.08"/>
<stop offset="1" stop-color="#F9EE98" stop-opacity="0"/>
</linearGradient>
<linearGradient id="paint44_linear_4167_29114" x1="295.278" y1="284.968" x2="307.643" y2="246.587" gradientUnits="userSpaceOnUse">
<stop stop-color="#685879"/>
<stop offset="0.626558" stop-color="#713DFF" stop-opacity="0.12"/>
<stop offset="1" stop-color="#6663F6" stop-opacity="0"/>
</linearGradient>
<linearGradient id="paint45_linear_4167_29114" x1="290.997" y1="273.663" x2="285.13" y2="248.767" gradientUnits="userSpaceOnUse">
<stop stop-color="#685879" stop-opacity="0.55"/>
<stop offset="1" stop-color="#713DFF" stop-opacity="0.08"/>
</linearGradient>
<linearGradient id="paint46_linear_4167_29114" x1="289.415" y1="272.267" x2="298.392" y2="249.42" gradientUnits="userSpaceOnUse">
<stop stop-color="#685879"/>
<stop offset="0.626558" stop-color="#713DFF" stop-opacity="0.12"/>
<stop offset="1" stop-color="#6663F6" stop-opacity="0"/>
</linearGradient>
<linearGradient id="paint47_linear_4167_29114" x1="317.319" y1="55.9876" x2="156.334" y2="125.202" gradientUnits="userSpaceOnUse">
<stop stop-color="#130722"/>
<stop offset="0.254381" stop-color="#0A0A18"/>
<stop offset="0.658623" stop-color="#130722"/>
</linearGradient>
<linearGradient id="paint48_linear_4167_29114" x1="235.952" y1="317.93" x2="402.683" y2="185.122" gradientUnits="userSpaceOnUse">
<stop stop-color="#685879"/>
<stop offset="0.687247" stop-color="#713DFF" stop-opacity="0.2"/>
<stop offset="1" stop-color="#685879" stop-opacity="0.5"/>
</linearGradient>
<linearGradient id="paint49_linear_4167_29114" x1="243.81" y1="310.868" x2="401.712" y2="187.601" gradientUnits="userSpaceOnUse">
<stop stop-color="#685879"/>
<stop offset="0.687247" stop-color="#713DFF" stop-opacity="0.08"/>
<stop offset="1" stop-color="#F9EE98" stop-opacity="0.1"/>
</linearGradient>
<clipPath id="clip0_4167_29114">
<rect width="97.1106" height="67.33" fill="white" transform="translate(459.426 361.088) rotate(-35.2303)"/>
</clipPath>
<clipPath id="clip1_4167_29114">
<rect width="231.273" height="305.432" fill="white" transform="matrix(0.885495 -0.464648 -0.464648 -0.885495 194.188 378.584)"/>
</clipPath>
</defs>
</svg>
