<svg width="171" height="49" viewBox="0 0 171 49" fill="none" xmlns="http://www.w3.org/2000/svg">
<path d="M41.3952 15H15.4863V36.0914L28.4408 48.7039V23.373L41.3952 35.9855V15Z" fill="#666F84"/>
<path d="M41.395 36.0914L28.4406 48.7039V23.3729L41.395 36.0914Z" fill="#94A0BC"/>
<path d="M150.909 16.8026C145.683 16.8026 145.683 20.5113 145.683 24.4329C145.683 28.3544 145.683 32.0631 150.909 32.0631C156.134 32.0631 156.135 28.3544 156.135 24.4329C156.135 20.5113 156.134 16.8026 150.909 16.8026ZM54.567 17.1193L50.4294 31.852H53.4784L54.3501 28.5668H58.7046L59.5742 31.852H62.9484L58.813 17.1193H54.567ZM65.5615 17.1193V31.852H71.113C72.4193 31.852 75.7949 31.6408 75.7949 27.9313C75.7949 25.9175 75.251 24.5397 72.9649 24.2217C74.7067 23.9038 75.578 22.6303 75.578 20.9345C75.578 17.7548 73.6185 17.1193 71.2236 17.1193H65.5615ZM79.4966 17.1193V31.852H82.4349V21.0421H82.5434L86.6809 31.852H90.8185V17.1193H87.878V27.2937L83.851 17.1193H79.4966ZM103.01 17.1193L98.8725 31.852H101.921L102.793 28.5668H107.148L108.017 31.852H111.391L107.148 17.1193H103.01ZM113.896 17.1193V31.852H116.945V20.5122H117.054L119.775 31.852H122.822L125.762 20.5122V31.852H128.809V17.1193H123.91L121.408 27.1881L119.012 17.1193H113.896ZM132.947 17.2249V31.852H136.104V25.7039H136.974C139.369 25.7039 139.262 27.1894 139.262 28.9911C139.262 29.945 139.151 30.8981 139.587 31.852H142.636C142.309 31.216 142.308 28.4608 142.308 27.5069C142.308 24.8572 140.24 24.644 139.587 24.644C141.655 24.326 142.417 22.9499 142.417 21.0421C142.417 18.4984 141.003 17.2249 138.826 17.2249H132.947ZM150.909 19.1335C152.651 19.1335 152.869 20.7229 152.869 24.5384C152.869 28.354 152.759 29.9434 150.909 29.9434C149.167 29.9434 148.948 28.354 148.948 24.5384C148.948 20.7229 149.167 19.1335 150.909 19.1335ZM68.7189 19.3446H70.6793C71.7679 19.3446 72.529 20.1934 72.529 21.2532C72.529 22.6311 71.5493 23.1618 70.8961 23.1618H68.7189V19.3446ZM136.104 19.3446H137.518C138.498 19.3446 139.151 19.8754 139.151 21.2532C139.151 22.2071 138.824 23.373 137.518 23.373H136.104V19.3446ZM56.4168 19.9822L58.0497 26.3414H55.0029L56.4168 19.9822ZM104.86 19.9822L106.493 26.3414H103.446L104.86 19.9822ZM95.8427 21.3774L93.8419 23.3274L95.8448 25.2754L97.8456 23.3254L95.8427 21.3774ZM68.7189 25.3871H70.5687C72.2016 25.3871 72.6375 26.235 72.6375 27.5069C72.6375 29.5206 71.1134 29.6266 70.4603 29.6266H68.7189V25.3871Z" fill="#666F84"/>
</svg>
