<svg width="170" height="49" viewBox="0 0 170 49" fill="none" xmlns="http://www.w3.org/2000/svg">
<path d="M45.5077 41.4713H37.4819L31.583 29.1706C28.3664 30.9204 26.5223 34.9752 23.2533 37.6575C21.5873 39.0196 19.6385 40.235 17.2182 41.0627C16.118 41.4294 14.253 41.9114 13.551 41.9847C13.2576 42.0162 13.0481 42.0057 13.0062 41.8904C12.9748 41.8066 13.0586 41.7437 13.3624 41.597C13.7187 41.4294 15.196 40.8112 16.118 40.1721C17.2706 39.3653 17.9307 38.4957 17.983 37.8251C17.6687 36.704 15.4056 34.2313 17.7211 29.6735C18.5488 28.039 19.2718 26.8655 19.7852 25.6816C20.3719 24.3195 20.791 22.4126 20.9377 20.9876C20.9482 20.9038 20.9587 20.9038 21.0111 20.9562C22.1322 22.0982 26.4909 26.5826 25.8622 31.0461C27.3081 30.4908 29.8227 28.7934 30.9858 27.8923C32.2116 26.9389 33.0079 25.9435 34.3072 25.9226C35.4702 25.9016 35.5645 26.4569 36.497 26.5826C36.7275 26.6141 37.0628 26.5722 37.2409 26.4779C37.3142 26.4464 37.2933 26.3626 37.1885 26.3417C35.9312 26.0483 35.6273 25.0215 33.9928 25.0215C32.526 25.0215 31.363 26.3626 30.5247 26.9179L26.407 18.3263C24.6573 14.7429 25.1812 12.134 28.9636 7L45.5077 41.4713Z" fill="#666F84"/>
<path d="M156.044 32.6143L151.636 27.3681C153.955 26.8419 155.369 25.5098 155.369 23.1909C155.369 20.5761 153.149 19.2604 150.337 19.2604H141.539V32.6143H143.874V27.5655H149.104L153.133 32.6143H156.044ZM143.874 21.3326H150.403C152.014 21.3326 152.968 22.0891 152.968 23.3554C152.968 24.6546 151.965 25.4933 150.403 25.4933H143.874V21.3326Z" fill="#666F84"/>
<path d="M62.139 19.2604L55.2483 32.6143H57.896L59.3597 29.6376H67.2042L68.6679 32.6143H71.365L64.4743 19.2604H62.139ZM60.3793 27.5655L63.2737 21.6944L66.1682 27.5655H60.3793Z" fill="#666F84"/>
<path d="M83.7156 21.0202C85.9193 21.0202 87.7283 21.8425 88.6493 23.3061L90.5405 22.0398C89.2249 20.1979 86.8896 18.9152 83.7321 18.9152C78.6175 18.9152 75.6737 22.2536 75.6737 25.9539C75.6737 29.6377 78.6175 32.9762 83.7321 32.9762C86.9061 32.9762 89.2249 31.6934 90.5405 29.8515L88.6493 28.5687C87.7283 30.0159 85.9193 30.8547 83.7156 30.8547C80.2785 30.8547 78.0583 28.9305 78.0583 25.9374C78.0583 22.9443 80.2785 21.0202 83.7156 21.0202Z" fill="#666F84"/>
<path d="M104.914 21.0202C107.101 21.0202 108.927 21.8425 109.848 23.3061L111.739 22.0398C110.423 20.1979 108.088 18.9152 104.931 18.9152C99.816 18.9152 96.8723 22.2536 96.8723 25.9539C96.8723 29.6377 99.816 32.9762 104.931 32.9762C108.088 32.9762 110.423 31.6934 111.739 29.8515L109.848 28.5852C108.927 30.0324 107.118 30.8711 104.914 30.8711C101.477 30.8711 99.2569 28.947 99.2569 25.9539C99.2569 22.9608 101.477 21.0202 104.914 21.0202Z" fill="#666F84"/>
<path d="M126.112 18.9152C120.998 18.9152 118.054 22.2536 118.054 25.9539C118.054 29.6377 120.998 32.9762 126.112 32.9762C131.227 32.9762 134.171 29.6377 134.171 25.9539C134.171 22.2536 131.243 18.9152 126.112 18.9152ZM126.112 30.8876C122.675 30.8876 120.455 28.947 120.455 25.9374C120.455 22.9279 122.675 20.9873 126.112 20.9873C129.55 20.9873 131.77 22.9279 131.77 25.9374C131.786 28.947 129.566 30.8876 126.112 30.8876Z" fill="#666F84"/>
</svg>
