<svg width="113" height="24" viewBox="0 0 113 24" fill="none" xmlns="http://www.w3.org/2000/svg">
<g clip-path="url(#clip0_4327_10749)">
<path d="M35.3048 12.77V12.4887C35.3048 11.7819 35.0631 11.2409 34.5798 10.8658C34.111 10.4764 33.4958 10.2816 32.7341 10.2816C32.1482 10.2816 31.6868 10.3826 31.3499 10.5845C31.0277 10.7721 30.7201 11.0606 30.4271 11.4501C30.3392 11.5655 30.244 11.6448 30.1415 11.6881C30.039 11.7314 29.8998 11.753 29.724 11.753H29.0649C28.9038 11.753 28.7573 11.6953 28.6254 11.5799C28.5083 11.4645 28.457 11.3275 28.4716 11.1688C28.5156 10.736 28.728 10.3105 29.1088 9.89213C29.5043 9.45936 30.0243 9.10594 30.6688 8.83186C31.3133 8.55778 32.0017 8.42074 32.7341 8.42074C34.0964 8.42074 35.195 8.7958 36.0299 9.54592C36.8794 10.296 37.3042 11.3491 37.3042 12.7051V19.3047C37.3042 19.4634 37.2456 19.6004 37.1285 19.7158C37.0113 19.8312 36.8721 19.8889 36.711 19.8889H35.898C35.7369 19.8889 35.5978 19.8312 35.4806 19.7158C35.3634 19.6004 35.3048 19.4634 35.3048 19.3047V18.4175C35.0705 18.9368 34.5724 19.348 33.8107 19.6509C33.0491 19.9538 32.2874 20.1053 31.5257 20.1053C30.7787 20.1053 30.1122 19.9755 29.5263 19.7158C28.9404 19.4417 28.4863 19.0739 28.164 18.6123C27.8564 18.1507 27.7026 17.6314 27.7026 17.0543C27.7026 15.9724 28.1128 15.1285 28.933 14.5227C29.7533 13.9024 30.8446 13.4841 32.2068 13.2677L35.3048 12.77ZM35.3048 14.501L32.7122 14.9122C31.7601 15.0564 31.0203 15.2944 30.493 15.6262C29.9657 15.9436 29.7021 16.3475 29.7021 16.838C29.7021 17.1986 29.8705 17.5232 30.2074 17.8117C30.5443 18.1002 31.057 18.2444 31.7454 18.2444C32.8001 18.2444 33.6569 17.9487 34.3161 17.3573C34.9752 16.7658 35.3048 15.9941 35.3048 15.042V14.501Z" fill="#666F84"/>
<path d="M42.5093 19.3047C42.5093 19.4634 42.4507 19.6004 42.3335 19.7158C42.2163 19.8312 42.0772 19.8889 41.916 19.8889H41.1031C40.942 19.8889 40.8028 19.8312 40.6856 19.7158C40.5684 19.6004 40.5099 19.4634 40.5099 19.3047V5.11011C40.5099 4.95143 40.5684 4.81439 40.6856 4.69898C40.8028 4.58358 40.942 4.52588 41.1031 4.52588H41.916C42.0772 4.52588 42.2163 4.58358 42.3335 4.69898C42.4507 4.81439 42.5093 4.95143 42.5093 5.11011V19.3047Z" fill="#666F84"/>
<path d="M50.4237 18.2444C51.8885 18.2444 52.8772 17.6818 53.3899 16.5567C53.4924 16.3403 53.5949 16.1888 53.6975 16.1023C53.8 16.0157 53.9391 15.9724 54.1149 15.9724H54.7741C54.9352 15.9724 55.0743 16.0301 55.1915 16.1455C55.3087 16.2465 55.3673 16.3691 55.3673 16.5134C55.3673 17.0038 55.1696 17.5304 54.7741 18.093C54.3786 18.6556 53.8073 19.1316 53.0603 19.5211C52.3132 19.9106 51.4344 20.1053 50.4237 20.1053C49.3837 20.1053 48.4829 19.8889 47.7212 19.4562C46.9595 19.0234 46.3736 18.432 45.9634 17.6818C45.5533 16.9173 45.3263 16.0662 45.2823 15.1285C45.2677 14.9554 45.2604 14.6237 45.2604 14.1332C45.2604 13.787 45.2677 13.5418 45.2823 13.3975C45.4142 11.9261 45.9195 10.7288 46.7984 9.80557C47.6772 8.88235 48.8857 8.42074 50.4237 8.42074C51.4344 8.42074 52.3059 8.61548 53.0383 9.00496C53.7853 9.38002 54.3493 9.84885 54.7301 10.4114C55.1256 10.9596 55.338 11.4789 55.3673 11.9694C55.382 12.1281 55.3234 12.2651 55.1915 12.3805C55.0743 12.4959 54.9352 12.5536 54.7741 12.5536H54.1149C53.9391 12.5536 53.8 12.5103 53.6975 12.4238C53.5949 12.3372 53.4924 12.1858 53.3899 11.9694C52.8772 10.8442 51.8885 10.2816 50.4237 10.2816C49.6181 10.2816 48.915 10.5485 48.3144 11.0822C47.7139 11.616 47.3696 12.4238 47.2817 13.5057C47.2671 13.6644 47.2598 13.924 47.2598 14.2847C47.2598 14.6164 47.2671 14.8617 47.2817 15.0204C47.3843 16.1023 47.7285 16.9101 48.3144 17.4438C48.915 17.9776 49.6181 18.2444 50.4237 18.2444Z" fill="#666F84"/>
<path d="M68.1479 19.3047C68.1479 19.4634 68.0893 19.6004 67.9721 19.7158C67.855 19.8312 67.7158 19.8889 67.5547 19.8889H66.7417C66.5806 19.8889 66.4414 19.8312 66.3243 19.7158C66.2071 19.6004 66.1485 19.4634 66.1485 19.3047V13.5922C66.1485 12.5103 65.8775 11.6881 65.3355 11.1255C64.7936 10.5629 64.0392 10.2816 63.0725 10.2816C62.1204 10.2816 61.366 10.5629 60.8094 11.1255C60.2674 11.6881 59.9964 12.5103 59.9964 13.5922V19.3047C59.9964 19.4634 59.9379 19.6004 59.8207 19.7158C59.7035 19.8312 59.5643 19.8889 59.4032 19.8889H58.5903C58.4291 19.8889 58.29 19.8312 58.1728 19.7158C58.0556 19.6004 57.997 19.4634 57.997 19.3047V5.11011C57.997 4.95143 58.0556 4.81439 58.1728 4.69898C58.29 4.58358 58.4291 4.52588 58.5903 4.52588H59.4032C59.5643 4.52588 59.7035 4.58358 59.8207 4.69898C59.9379 4.81439 59.9964 4.95143 59.9964 5.11011V9.89213C60.3187 9.47379 60.7581 9.12758 61.3147 8.8535C61.886 8.56499 62.5818 8.42074 63.402 8.42074C64.3248 8.42074 65.1451 8.61548 65.8629 9.00496C66.5806 9.39445 67.1372 9.95704 67.5327 10.6927C67.9428 11.414 68.1479 12.2723 68.1479 13.2677V19.3047Z" fill="#666F84"/>
<path d="M75.8472 8.42074C77.4145 8.42074 78.6523 8.9112 79.5604 9.89213C80.4686 10.8731 80.9227 12.2074 80.9227 13.8952V14.4794C80.9227 14.6381 80.8641 14.7751 80.7469 14.8905C80.6297 15.0059 80.4906 15.0636 80.3294 15.0636H72.7712V15.1935C72.8005 16.1455 73.0935 16.8957 73.6501 17.4438C74.2213 17.9776 74.9537 18.2444 75.8472 18.2444C76.5796 18.2444 77.1436 18.1507 77.5391 17.9631C77.9492 17.7756 78.3154 17.5087 78.6376 17.1625C78.7548 17.0471 78.8574 16.9678 78.9452 16.9245C79.0478 16.8812 79.1796 16.8596 79.3407 16.8596H79.9999C80.1757 16.8596 80.3221 16.9173 80.4393 17.0327C80.5565 17.1481 80.6078 17.2851 80.5931 17.4438C80.5345 17.8333 80.3148 18.2372 79.934 18.6556C79.5678 19.0595 79.0331 19.4057 78.33 19.6942C77.6416 19.9683 76.814 20.1053 75.8472 20.1053C74.9098 20.1053 74.0749 19.8961 73.3425 19.4778C72.6101 19.045 72.0242 18.4536 71.5847 17.7035C71.16 16.9534 70.9036 16.1095 70.8157 15.1718C70.7864 14.7391 70.7718 14.4073 70.7718 14.1765C70.7718 13.9457 70.7864 13.6139 70.8157 13.1811C70.9036 12.2867 71.16 11.4789 71.5847 10.7576C72.0242 10.0364 72.6028 9.46658 73.3205 9.04824C74.0529 8.6299 74.8951 8.42074 75.8472 8.42074ZM78.9452 13.246V13.1811C78.9452 12.3012 78.6596 11.6015 78.0883 11.0822C77.5317 10.5485 76.7847 10.2816 75.8472 10.2816C74.9977 10.2816 74.2726 10.5485 73.672 11.0822C73.0861 11.616 72.7859 12.3156 72.7712 13.1811V13.246H78.9452Z" fill="#666F84"/>
<path d="M85.5728 9.89213C85.9243 9.44494 86.3198 9.09152 86.7592 8.83186C87.1987 8.55778 87.7846 8.42074 88.517 8.42074C90.2308 8.42074 91.4319 9.04824 92.1203 10.3032C92.5451 9.69738 93.0285 9.23577 93.5704 8.91841C94.1124 8.58663 94.8228 8.42074 95.7017 8.42074C97.1372 8.42074 98.1991 8.84628 98.8876 9.69738C99.5907 10.5485 99.9422 11.753 99.9422 13.3109V19.3047C99.9422 19.4634 99.8836 19.6004 99.7664 19.7158C99.6492 19.8312 99.5101 19.8889 99.349 19.8889H98.536C98.3749 19.8889 98.2357 19.8312 98.1186 19.7158C98.0014 19.6004 97.9428 19.4634 97.9428 19.3047V13.5273C97.9428 11.3635 97.0786 10.2816 95.3501 10.2816C94.5592 10.2816 93.9293 10.5413 93.4606 11.0606C92.9918 11.5799 92.7575 12.3517 92.7575 13.3759V19.3047C92.7575 19.4634 92.6989 19.6004 92.5817 19.7158C92.4645 19.8312 92.3254 19.8889 92.1642 19.8889H91.3513C91.1902 19.8889 91.051 19.8312 90.9338 19.7158C90.8167 19.6004 90.7581 19.4634 90.7581 19.3047V13.5273C90.7581 11.3635 89.8939 10.2816 88.1654 10.2816C87.3744 10.2816 86.7446 10.5413 86.2759 11.0606C85.8071 11.5799 85.5728 12.3517 85.5728 13.3759V19.3047C85.5728 19.4634 85.5142 19.6004 85.397 19.7158C85.2798 19.8312 85.1407 19.8889 84.9795 19.8889H84.1666C84.0055 19.8889 83.8663 19.8312 83.7491 19.7158C83.6319 19.6004 83.5733 19.4634 83.5733 19.3047V9.22134C83.5733 9.06267 83.6319 8.92562 83.7491 8.81022C83.8663 8.69482 84.0055 8.63712 84.1666 8.63712H84.9795C85.1407 8.63712 85.2798 8.69482 85.397 8.81022C85.5142 8.92562 85.5728 9.06267 85.5728 9.22134V9.89213Z" fill="#666F84"/>
<path d="M106.096 23.4809C105.964 23.8271 105.752 24.0002 105.459 24.0002H104.558C104.411 24.0002 104.287 23.9497 104.184 23.8487C104.082 23.7477 104.03 23.6251 104.03 23.4809C104.03 23.4231 104.038 23.3727 104.052 23.3294L106.162 18.807L101.811 9.3079C101.797 9.26462 101.789 9.21413 101.789 9.15643C101.789 9.01218 101.841 8.88956 101.943 8.78858C102.046 8.68761 102.17 8.63712 102.317 8.63712H103.218C103.51 8.63712 103.723 8.81022 103.855 9.15643L107.238 16.5134L110.666 9.15643C110.798 8.81022 111.01 8.63712 111.303 8.63712H112.204C112.35 8.63712 112.475 8.68761 112.577 8.78858C112.68 8.88956 112.731 9.01218 112.731 9.15643C112.731 9.21413 112.724 9.26462 112.709 9.3079L106.096 23.4809Z" fill="#666F84"/>
<path d="M19.3956 12.7305L12.018 0.205007C11.9823 0.143158 11.9305 0.0916381 11.868 0.055646C11.8055 0.0196539 11.7344 0.000462381 11.6619 8.25124e-06C11.5894 -0.000445879 11.5181 0.0178532 11.4551 0.0530592C11.3921 0.0882652 11.3397 0.139133 11.3032 0.200529L9.09366 3.9537C9.0213 4.07656 8.9832 4.21592 8.9832 4.35778C8.9832 4.49965 9.0213 4.63901 9.09366 4.76187L13.9044 12.9331C13.9768 13.0561 14.081 13.1582 14.2065 13.2291C14.332 13.3001 14.4743 13.3373 14.6192 13.3372H19.0383C19.1106 13.337 19.1816 13.3182 19.2442 13.2826C19.3068 13.2471 19.3588 13.196 19.395 13.1346C19.4312 13.0732 19.4502 13.0036 19.4504 12.9326C19.4505 12.8617 19.4316 12.792 19.3956 12.7305Z" fill="#666F84"/>
<path d="M0.0568893 19.2768L7.43454 6.7513C7.47074 6.68994 7.52278 6.63899 7.58541 6.60358C7.64804 6.56816 7.71906 6.54952 7.79137 6.54952C7.86368 6.54952 7.93473 6.56816 7.99736 6.60358C8.05999 6.63899 8.11201 6.68994 8.14821 6.7513L10.3589 10.5011C10.4312 10.6242 10.4693 10.7637 10.4693 10.9058C10.4693 11.0478 10.4312 11.1873 10.3589 11.3104L5.54816 19.4816C5.476 19.6046 5.37203 19.7067 5.24672 19.7777C5.1214 19.8486 4.9792 19.8859 4.83449 19.8857H0.414296C0.341481 19.8861 0.269872 19.8675 0.206746 19.8319C0.143621 19.7964 0.0912382 19.745 0.0549239 19.6832C0.0186096 19.6213 -0.000341872 19.5511 4.66861e-06 19.4797C0.000351209 19.4083 0.0199759 19.3383 0.0568893 19.2768Z" fill="#666F84"/>
<path d="M8.14715 19.883H22.9024C22.9748 19.883 23.0459 19.8642 23.1086 19.8287C23.1712 19.7931 23.2232 19.742 23.2593 19.6805C23.2954 19.6191 23.3144 19.5493 23.3143 19.4784C23.3142 19.4074 23.295 19.3377 23.2587 19.2763L21.0515 15.5243C20.979 15.4013 20.8748 15.2992 20.7494 15.2283C20.6239 15.1573 20.4815 15.1201 20.3367 15.1202H10.7152C10.5704 15.1201 10.428 15.1573 10.3026 15.2283C10.1771 15.2992 10.0728 15.4013 10.0004 15.5243L7.7909 19.2763C7.75461 19.3377 7.73545 19.4074 7.73534 19.4784C7.73524 19.5493 7.75418 19.6191 7.79029 19.6805C7.8264 19.742 7.87841 19.7931 7.94105 19.8287C8.0037 19.8642 8.07477 19.883 8.14715 19.883Z" fill="#666F84"/>
</g>
<defs>
<clipPath id="clip0_4327_10749">
<rect width="113" height="24" fill="white"/>
</clipPath>
</defs>
</svg>
