<svg width="170" height="49" viewBox="0 0 170 49" fill="none" xmlns="http://www.w3.org/2000/svg">
<path fill-rule="evenodd" clip-rule="evenodd" d="M37.7 17.5C37.7 17.6 36.9 17.6 36 17.6C34.7 17.6 34.3 17.6 34.4 17.4C34.4 17.3 34.8 16 35.3 14.5C35.6 12.9 36 11.7 36 11.7C36 11.7 36.4 13 36.8 14.5C37.3 16.1 37.7 17.4 37.7 17.5ZM30.8 13.9C29.4 18.5 28 23.3 27.7 24.5L27 26.6H29.3C30.6 26.6 31.6 26.6 31.7 26.6C31.7 26.6 32 25.6 32.4 24.4L33 22.2H36H39L39.7 24.5L40.4 26.8H42.7C44 26.8 45 26.8 45 26.7C45 26.6 41.5 14.8 39.4 8.10001C39 6.60001 38.6 5.40001 38.6 5.40001C38.6 5.30001 33.5 5.30001 33.4 5.40001C33.4 5.40001 32.2 9.30001 30.8 13.9Z" fill="#6C717D"/>
<path fill-rule="evenodd" clip-rule="evenodd" d="M49.7999 11C48.9999 11.5 47.8 12.8 47.4 13.6C46.7 15 46.7 15.7 46.7 21.4V26.7H48.7999H50.9V21.4C50.9 16.3 51 16.1 51.2 15.6C51.6 15 52.3 14.6 53 14.7C53.8 14.8 54.2 15.1 54.5 15.8C54.7 16.3 54.7999 16.7 54.7999 21.5V26.7H57H59.0999V21.4C59.0999 16.3 59.2 16.1 59.4 15.6C60.1 14.4 62 14.4 62.7 15.6C62.9 16 62.9 16.5 63 21.3V26.6H65.0999H67.2V21.3C67.2 18.1 67.0999 15.7 67.0999 15.3C66.5999 13 64.9 11 62.7 10.4C60.9 9.90003 59.1 10.3 57.6 11.4L57 11.9L56.5 11.5C56.3 11.3 55.6 10.9 55.2 10.7C54.1 10.2 52.3 10.1 51.1 10.5C50.6 10.6 50.0999 10.8 49.7999 11Z" fill="#6C717D"/>
<path fill-rule="evenodd" clip-rule="evenodd" d="M78.8 20.4C78.5 21.5 78.0001 22.2 77.2001 22.6C76.0001 23.2 74.4 23 73.6 22C72.9 21.2 72.6 20.4 72.6 18.6L72.5 16.9L73.2001 16.2C74.3001 15.1 75.9001 14.8 77.2001 15.6C78.7001 16.5 79.3 18.4 78.8 20.4ZM68.3 13.1V21.1L68.6 22.1C69.5 24.6 71.6001 26.5 74.2001 27C75.4001 27.2 76.0001 27.2 77.2001 27C81.7001 26.1 84.5001 21.2 83.2001 16.5C82.9001 15.4 82.1 14.1 81.1 13.1C79.7 11.7 78.0001 11 76.2001 11C74.8001 11 73.0001 11.5 72.7001 12C72.6001 12.1 72.6 10.6 72.6 8.59998V5.09998H70.5H68.4001V13.1H68.3Z" fill="#6C717D"/>
<path fill-rule="evenodd" clip-rule="evenodd" d="M89.3 11.7C89.2 11.9 89.2 11.9 89.3 11.7C89.2 11.5 89 11.5 87.1 11.5H85V19V26.6H87.1H89.2V22.3C89.2 17.8 89.3 17.1 89.9 16.3C90.3 15.8 91.1 15.4 92.1 15.3L93 15.2L93.1 14.2C93.1 13.7 93.2 12.8 93.2 12.2C93.2 11.2 93.2 11.2 92.8 11.1C92.3 10.9 90.5 10.9 89.9 11.1C89.5 11.4 89.3 11.5 89.3 11.7Z" fill="#6C717D"/>
<path fill-rule="evenodd" clip-rule="evenodd" d="M103.5 22.2C101.8 23.1 99.9 22.4 98.9 20.5C98.5 19.8 98.4 18 98.6 17.2C99.3 15 101.4 13.9 103.3 14.8C106.2 16.1 106.3 20.7 103.5 22.2ZM94.2 20.3C95 24 98.2 26.6 102 26.7C105.5 26.7 108.7 24.2 109.7 20.6C110 19.6 110 17.6 109.7 16.6C108.8 12.6 104.8 9.90001 100.8 10.5C96.3 11.2 93.3 15.7 94.2 20.3Z" fill="#6C717D"/>
<path fill-rule="evenodd" clip-rule="evenodd" d="M112.8 12.4C111.8 13.3 111.4 14.6 111.6 16C111.8 17.3 112.3 18.1 113.9 19.7C115.5 21.3 115.7 21.7 115.1 22.3C114.8 22.5 114.6 22.6 113.1 22.5H111.4V24.5V26.5L112.3 26.7C115 27.1 117.2 26.6 118.6 25.1C119.5 24.1 119.8 23.4 119.8 22C119.8 20.3 119.4 19.5 117.4 17.6C115.8 16 115.7 15.8 116.5 15.5C116.9 15.3 118.6 15.4 119.1 15.6C119.3 15.7 119.3 15.5 119.3 13.6C119.3 11.6 119.3 11.5 119 11.4C118.4 11.2 115.6 11.2 114.9 11.4C114 11.5 113.5 11.8 112.8 12.4Z" fill="#6C717D"/>
<path fill-rule="evenodd" clip-rule="evenodd" d="M121.5 26.7H125.8V11.4H121.5V26.7ZM123.7 10.1C122.3 10.1 121.1 9 121.1 7.6C121.1 6.2 122.3 5 123.7 5C125.1 5 126.3 6.1 126.3 7.5C126.3 8.9 125.1 10.1 123.7 10.1Z" fill="#9096A6"/>
<path fill-rule="evenodd" clip-rule="evenodd" d="M137.8 18.1V21L137.3 21.5C136.7 22 135.8 22.4 134.9 22.4C133.9 22.4 132.9 21.8 132.3 20.7C131.9 19.9 131.9 18 132.3 17.2C133.1 15.8 134.2 15.3 136.4 15.3H137.8V18.1ZM127.7 17.1C126.9 20.7 128.5 24.4 131.5 25.9C132.7 26.5 133.7 26.7 135.1 26.7C136 26.6 136.4 26.6 137 26.2L137.8 25.8V26.2V26.6H139.9H142V18.9V11.2H138.5C136.5 11.2 134.6 11.3 134.3 11.3C130.7 11.8 128.4 13.9 127.7 17.1Z" fill="#6C717D"/>
<path fill-rule="evenodd" clip-rule="evenodd" d="M27 39.5H92.7V37.7H27V39.5Z" fill="#6C717D"/>
<path fill-rule="evenodd" clip-rule="evenodd" d="M106.1 42.8V44.7H98.3V32.4H100.5V42.8H106.1Z" fill="#6C717D"/>
<path fill-rule="evenodd" clip-rule="evenodd" d="M113.6 34.8C113.3 35.4 113 36.2 112.7 37.1C112.3 38 111.9 39 111.5 40H115.6C115.2 38.9 114.9 38 114.5 37C114.1 36.2 113.8 35.4 113.6 34.8ZM117.2 44.7C117 44.2 116.9 43.7 116.7 43.3C116.5 42.8 116.3 42.3 116.2 41.8H111C110.8 42.3 110.7 42.8 110.5 43.3C110.3 43.8 110.2 44.3 110 44.7H107.7C108.2 43.4 108.6 42.2 109 41.1C109.4 40 109.8 38.9 110.2 37.9C110.6 36.9 111 36 111.4 35.1C111.8 34.2 112.2 33.3 112.6 32.4H114.7C115.1 33.3 115.5 34.2 115.9 35.1C116.3 36 116.7 36.9 117.1 37.9C117.5 38.9 117.9 40 118.3 41.1C118.7 42.2 119.2 43.4 119.6 44.7H117.2Z" fill="#6C717D"/>
<path fill-rule="evenodd" clip-rule="evenodd" d="M124.1 39.2V43C124.3 43 124.6 43 124.9 43.1C125.2 43.1 125.4 43.1 125.7 43.1C126.2 43.1 126.6 43.1 127 43C127.4 42.9 127.7 42.8 128 42.7C128.3 42.6 128.5 42.4 128.7 42.1C128.9 41.9 129 41.5 129 41.1C129 40.4 128.7 39.9 128.2 39.6C127.7 39.3 127 39.2 126.1 39.2H124.1ZM124.1 37.4H125.7C126.6 37.4 127.2 37.3 127.7 37C128.2 36.8 128.4 36.3 128.4 35.7C128.4 35.1 128.1 34.7 127.6 34.4C127.1 34.2 126.4 34 125.6 34C125.3 34 124.9 34 124.7 34C124.4 34 124.2 34 124 34.1V37.4H124.1ZM125.6 44.9C124.9 44.9 124.3 44.9 123.6 44.8C122.9 44.8 122.4 44.7 121.9 44.5V32.5C122.2 32.5 122.4 32.4 122.7 32.4C123 32.4 123.3 32.3 123.6 32.3C123.9 32.3 124.2 32.3 124.5 32.2C124.8 32.2 125.1 32.2 125.4 32.2C126.1 32.2 126.8 32.3 127.5 32.4C128.2 32.5 128.7 32.7 129.2 33C129.7 33.3 130 33.6 130.3 34C130.6 34.4 130.7 35 130.7 35.6C130.7 36.2 130.6 36.7 130.3 37.1C130 37.5 129.6 37.8 129.1 38.1C129.8 38.3 130.4 38.7 130.8 39.2C131.2 39.7 131.3 40.3 131.3 41C131.3 42.3 130.8 43.2 129.9 43.9C129 44.6 127.5 44.9 125.6 44.9Z" fill="#6C717D"/>
<path fill-rule="evenodd" clip-rule="evenodd" d="M137.3 43.1C138.1 43.1 138.7 43 139.1 42.7C139.5 42.4 139.7 42 139.7 41.5C139.7 41.2 139.6 40.9 139.5 40.7C139.4 40.5 139.2 40.3 139 40.1C138.8 39.9 138.5 39.8 138.2 39.6C137.9 39.5 137.5 39.3 137.1 39.2C136.7 39 136.3 38.9 135.9 38.7C135.5 38.5 135.2 38.3 134.8 38C134.5 37.7 134.3 37.4 134.1 37C133.9 36.6 133.8 36.2 133.8 35.6C133.8 34.5 134.2 33.6 135 33C135.8 32.4 136.8 32 138.2 32C139 32 139.7 32.1 140.3 32.3C140.9 32.5 141.4 32.7 141.7 32.9L141 34.7C140.6 34.5 140.2 34.3 139.7 34.2C139.2 34.1 138.7 34 138.2 34C137.6 34 137.1 34.1 136.8 34.4C136.5 34.6 136.3 35 136.3 35.4C136.3 35.7 136.4 35.9 136.5 36.1C136.6 36.3 136.8 36.5 137 36.6C137.2 36.8 137.5 36.9 137.7 37C138 37.1 138.3 37.3 138.6 37.4C139.2 37.6 139.7 37.8 140.2 38C140.7 38.2 141 38.5 141.4 38.8C141.7 39.1 142 39.5 142.1 39.9C142.3 40.3 142.3 40.8 142.3 41.4C142.3 42.5 141.9 43.4 141.1 44C140.3 44.6 139.2 44.9 137.6 44.9C137.1 44.9 136.6 44.9 136.2 44.8C135.8 44.7 135.4 44.7 135.1 44.6C134.8 44.5 134.5 44.4 134.3 44.3C134.1 44.2 133.9 44.1 133.7 44L134.4 42.2C134.7 42.4 135.2 42.6 135.7 42.7C135.9 43 136.6 43.1 137.3 43.1Z" fill="#6C717D"/>
</svg>
