<svg width="171" height="49" viewBox="0 0 171 49" fill="none" xmlns="http://www.w3.org/2000/svg">
<path d="M64.2784 9C62.7731 8.99804 61.5389 10.3223 61.5603 11.8601C61.5818 13.3568 62.7751 14.4558 64.37 14.446C65.9065 14.4362 67.1368 13.251 67.1251 11.772C67.1076 9.9697 65.8753 9.00196 64.2784 9Z" fill="#666F84"/>
<path d="M22.9283 33.1443C21.7662 32.3469 20.3311 32.0296 18.6796 33.9572C18.1785 35.9378 18.6562 37.2797 20.0601 37.8321C21.4464 38.3767 22.8717 37.9007 23.5912 36.6528C24.2444 35.5225 23.9695 33.8593 22.9283 33.1462V33.1443Z" fill="#666F84"/>
<path d="M62.249 17.4001C61.9994 18.5206 62.0677 37.4053 62.3329 38.2163C63.6373 38.3456 64.9749 38.3241 66.4548 38.2105V17.3589C65.0061 17.2434 63.6139 17.1611 62.249 17.4001Z" fill="#666F84"/>
<path d="M85.2506 35.3351C85.1901 34.9845 85.0926 34.6122 85.0946 34.2146C85.116 31.1213 85.1355 28.0281 85.1316 24.9348C85.1316 24.0905 85.0985 23.2403 84.999 22.4018C84.7377 20.1764 83.4411 18.7268 81.425 17.9294C79.9919 17.3633 78.4769 17.1576 76.9326 17.2771C74.6533 17.4534 72.6918 18.3585 70.9896 19.8845C70.8765 20.817 70.7965 21.7103 70.9525 22.5723C71.3737 22.8211 71.7363 22.8916 72.1283 22.7427C72.1945 22.6604 72.2725 22.5938 72.3115 22.5096C73.033 20.9365 74.236 20.0432 75.9558 19.7827C77.9797 19.4771 80.8147 20.4585 81.1072 23.4381C81.2905 25.2972 80.6412 25.6851 79.4869 25.93C77.7749 26.2904 76.0747 26.7136 74.3628 27.076C73.3625 27.2895 72.4402 27.6794 71.5784 28.2063C70.6386 28.7823 69.9718 29.6031 69.5935 30.659C68.6244 33.3604 69.884 37.3588 73.4561 38.0934C75.4917 38.5126 77.461 38.3559 79.249 37.1707C79.8924 36.7456 80.5164 36.2911 81.2495 35.7818C81.8052 37.0277 82.6553 37.8877 84.0085 38.0248C85.2759 38.1541 86.4321 37.8152 87.4227 37.0962C87.5377 36.6183 87.5689 36.2402 87.3427 35.8464C86.6798 35.7132 85.894 36.103 85.2506 35.3351ZM81.0311 31.9225C81.0038 33.429 79.8145 35.0491 78.3345 35.3625C77.1003 35.6231 75.8076 35.7328 74.6981 34.8512C74.5226 34.7102 74.3413 34.5633 74.2068 34.385C73.3761 33.2821 73.3157 30.4239 75.0666 29.4092C75.5736 29.1153 76.0727 28.841 76.6421 28.6647C77.6658 28.3493 78.6641 27.9575 79.7326 27.8067C80.0523 27.7616 80.3682 27.6715 80.7504 27.7695C81.0877 28.0359 81.0292 28.3807 81.0331 28.698C81.0409 29.7735 81.0487 30.849 81.0292 31.9225H81.0311Z" fill="#666F84"/>
<path d="M43.9496 35.8444C42.9357 35.8444 42.5964 35.5388 42.534 34.5417C42.5165 34.2498 42.5223 33.9559 42.5223 33.6621C42.5223 30.4043 42.5126 27.1465 42.5262 23.8887C42.5301 22.9973 42.4014 22.1354 42.1324 21.293C41.6215 19.6945 40.5062 18.5798 39.0185 17.994C36.5559 17.0263 33.9997 16.9088 31.5058 17.9176C30.3749 18.376 29.2772 18.9618 28.431 19.906C28.3881 20.8248 28.0293 21.7044 28.3452 22.6153C28.7449 22.823 29.1154 22.819 29.5794 22.6329C29.7179 22.4292 29.866 22.2529 29.9713 22.0531C30.9267 20.2214 32.5704 19.6318 34.4598 19.7571C37.2227 19.9413 38.6909 21.8474 38.5291 24.3608C38.4881 25.0033 38.2308 25.4382 37.5581 25.6537C36.7548 25.9103 35.9573 26.1533 35.1228 26.308C33.5921 26.594 32.0654 26.9271 30.5875 27.4246C28.3764 28.1691 26.9179 29.5952 26.7132 32.0518C26.5006 34.5985 27.7992 37.1922 30.3652 37.9464C32.705 38.634 34.9219 38.3597 36.9575 36.9708C37.5152 36.5908 38.028 36.1441 38.6305 35.672C39.0789 37.0335 39.9837 37.8504 41.3622 38.0248C42.6608 38.1893 43.8443 37.8759 44.8114 37.0609C44.8699 36.5457 44.8563 36.1657 44.5111 35.8464C44.3337 35.8464 44.1426 35.8464 43.9496 35.8464V35.8444ZM38.4375 32.3633C38.2191 34.2557 36.1932 35.5603 34.8283 35.4898C34.6665 35.482 34.5047 35.4957 34.3428 35.4957C32.6367 35.4957 31.4922 34.7767 31.1588 33.4975C30.6635 31.5934 31.2348 30.0771 32.7849 29.223C34.2824 28.3983 35.9144 27.9928 37.5873 27.7322C37.7453 27.7067 37.911 27.7126 38.0709 27.7263C38.1625 27.7342 38.2522 27.7831 38.4706 27.8595C38.4706 29.3895 38.6071 30.896 38.4375 32.3652V32.3633Z" fill="#666F84"/>
<path d="M130.606 25.6358C130.689 24.0902 130.173 22.6738 129.514 21.3241C128.704 19.6687 127.328 18.558 125.634 17.9507C123.22 17.0848 120.749 17.0652 118.263 17.7744C115.227 18.6402 113.283 20.66 112.297 23.5651C111.355 26.343 111.265 29.2129 112.234 32.0143C113.279 35.037 115.307 37.0705 118.47 37.9069C120.071 38.3301 121.685 38.3751 123.3 38.2576C125.337 38.1107 127.24 37.4916 128.888 36.2203C129.172 36.0008 129.479 35.7912 129.566 35.419C129.755 34.6276 129.876 33.8303 129.728 33.0193C129.028 32.651 128.734 33.2328 128.422 33.5756C126.53 35.6561 124.146 36.3104 121.461 35.9734C120.184 35.8147 119.041 35.2564 118.154 34.2613C117.409 33.4248 116.822 32.4942 116.495 31.4207C116.142 30.2669 116.033 29.0895 116.23 27.8828C116.45 27.8691 116.579 27.8534 116.705 27.8534C120.763 27.8534 124.82 27.8593 128.878 27.8593C129.457 27.8593 130.042 27.8808 130.604 27.6771C130.951 26.9758 130.57 26.3038 130.608 25.6338L130.606 25.6358ZM126.24 25.5339C125.374 25.7847 117.117 25.771 116.311 25.5183C116.148 25.3224 116.173 25.0853 116.212 24.8659C116.485 23.3046 117.027 21.8452 118.105 20.6619C118.877 19.8156 119.905 19.418 121.044 19.3239C123.37 19.1319 125.066 20.133 125.867 22.5034C126.142 23.3144 126.224 24.1509 126.359 24.9835C126.39 25.1735 126.392 25.3753 126.242 25.5339H126.24Z" fill="#666F84"/>
<path d="M52.4975 20.3722C52.2908 19.3614 52.6144 18.3349 52.2459 17.3338C50.7153 17.2515 49.2452 17.183 47.8003 17.3671C47.5761 18.5308 47.6443 37.4938 47.8705 38.2284H52.2303C52.5072 37.772 52.4234 37.3391 52.4253 36.9238C52.4312 32.9215 52.437 28.9193 52.4253 24.9171C52.4234 24.1766 52.554 23.5066 53.0122 22.9032C54.2698 21.2479 56.5667 20.6386 58.1246 21.4301C58.4269 21.5829 58.731 21.6906 59.0859 21.2773C58.9826 20.0549 59.2965 18.7541 59.2828 17.3436C56.3834 17.0282 54.262 18.1958 52.5033 20.3702L52.4975 20.3722Z" fill="#666F84"/>
<path d="M105.862 18.1856C104.967 17.6919 103.978 17.4764 102.978 17.3687C100.055 17.0592 97.4347 17.6821 95.3757 19.9506C95.2802 20.0564 95.21 20.2464 94.9935 20.125C94.7946 19.2454 95.132 18.3109 94.7284 17.3608C93.2933 17.2178 91.8621 17.1924 90.5128 17.3648C90.1833 17.7703 90.2145 18.1366 90.2145 18.4912C90.2106 24.711 90.2067 30.9308 90.2087 37.1526C90.2087 37.5032 90.1541 37.8774 90.544 38.228C91.9011 38.2731 93.3381 38.3887 94.703 38.1634C94.9896 37.6991 94.9194 37.2995 94.9194 36.9155C94.9272 34.8645 94.9233 32.8114 94.9233 30.7604C94.9233 28.7739 94.9662 26.7856 94.9136 24.8011C94.8453 22.1623 97.4756 20.0897 99.4352 20.2425C99.9188 20.2797 100.41 20.2268 100.896 20.2601C102.2 20.3483 103.177 20.9771 103.75 22.1565C104.267 23.2202 104.571 24.3466 104.571 25.5436C104.573 27.1715 104.604 28.7994 104.585 30.4273C104.563 32.1512 104.602 33.8752 104.409 35.5971C104.316 36.4199 104.394 37.2642 104.394 38.2202C105.809 38.3397 107.217 38.2476 108.619 38.2868C108.837 37.7657 108.779 37.4014 108.781 37.0468C108.789 32.9113 108.79 28.7739 108.79 24.6385C108.79 24.0528 108.818 23.4611 108.753 22.8813C108.529 20.8655 107.704 19.2003 105.862 18.1836V18.1856Z" fill="#666F84"/>
<path d="M138.177 28.0161C138.553 27.783 138.986 27.8672 139.399 27.8672C143.293 27.8594 147.187 27.8653 151.08 27.8594C151.56 27.8594 152.057 27.9299 152.617 27.6028C152.671 25.1344 152.305 22.7993 150.973 20.6777C150.139 19.3476 148.922 18.4778 147.506 17.9645C145.559 17.2573 143.531 17.0712 141.468 17.463C138.988 17.9332 136.855 18.9793 135.398 21.1361C134.511 22.4467 133.967 23.8964 133.696 25.4616C133.175 28.4804 133.46 31.3738 135.063 34.0322C136.18 35.8834 137.818 37.1529 139.873 37.7798C142.517 38.5849 145.192 38.4909 147.84 37.7543C149.01 37.4291 150.055 36.8375 150.979 36.0421C151.229 35.8286 151.48 35.6014 151.523 35.2585C151.619 34.4926 151.706 33.7246 151.628 32.9724C151.127 32.6825 150.815 32.945 150.583 33.2623C149.509 34.7394 148.008 35.5289 146.282 35.8913C144.416 36.2811 142.579 36.1557 140.969 35.0117C138.627 33.3466 137.888 30.9527 138.058 28.1905C138.061 28.1356 138.126 28.0847 138.173 28.02L138.177 28.0161ZM139.512 21.2263C140.758 19.4514 142.591 19.0243 144.597 19.4201C146.229 19.7413 147.214 20.8893 147.719 22.4447C148.039 23.4301 148.318 24.4272 148.163 25.4616C147.438 25.7515 139.333 25.824 138.1 25.5498C138.116 23.9199 138.625 22.4859 139.512 21.2243V21.2263Z" fill="#666F84"/>
</svg>
