<svg width="170" height="49" viewBox="0 0 170 49" fill="none" xmlns="http://www.w3.org/2000/svg">
<path d="M68.9376 3.08463C68.9376 2.09289 68.1311 1.28931 67.1359 1.28931H54.0427C53.0475 1.28931 52.2403 2.09361 52.2411 3.08535L52.2447 9.63397C52.2447 9.82284 52.2742 10.0045 52.3283 10.1747C52.445 10.6465 52.7527 11.0702 53.2147 11.3216L61.5103 15.7517C62.0061 16.0598 62.3405 16.6013 62.3586 17.2217V18.0382H58.8093V16.8864C58.8093 15.8946 58.0028 15.091 57.0076 15.091H53.8431C52.8479 15.091 52.0414 15.8946 52.0414 16.8864V21.6612C52.0414 22.6529 52.8486 23.4573 53.8438 23.4565L66.9499 23.4494C67.9452 23.4494 68.7516 22.6443 68.7509 21.6526L68.7459 15.1672C68.7459 14.6745 68.5462 14.2278 68.2234 13.9033C68.0965 13.7697 67.9474 13.6526 67.7766 13.56L59.6618 9.22823C59.1545 8.91082 58.8172 8.34852 58.8172 7.70723V6.72555H62.3672V7.87096C62.3672 8.8627 63.1736 9.66629 64.1689 9.66629H67.1366C68.1318 9.66629 68.9383 8.8627 68.9383 7.87096V3.08463H68.9376Z" fill="#666F84"/>
<path d="M87.0767 3.08463C87.0767 2.09289 86.2702 1.28931 85.275 1.28931H72.1818C71.1866 1.28931 70.3794 2.09361 70.3802 3.08535L70.3838 9.63397C70.3838 9.82284 70.4133 10.0045 70.4674 10.1747C70.5841 10.6465 70.8918 11.0702 71.3538 11.3216L79.6494 15.7517C80.1452 16.0598 80.4796 16.6013 80.4977 17.2217V18.0382H76.9484V16.8864C76.9484 15.8946 76.1419 15.091 75.1467 15.091H71.9822C70.987 15.091 70.1805 15.8946 70.1805 16.8864V21.6612C70.1805 22.6529 70.9877 23.4573 71.9829 23.4565L85.089 23.4494C86.0843 23.4494 86.8907 22.6443 86.89 21.6526L86.885 15.1672C86.885 14.6745 86.6853 14.2278 86.3625 13.9033C86.2356 13.7697 86.0865 13.6526 85.9157 13.56L77.8009 9.22823C77.2936 8.91082 76.9563 8.34852 76.9563 7.70723V6.72555H80.5063V7.87096C80.5063 8.8627 81.3127 9.66629 82.308 9.66629H85.2757C86.2709 9.66629 87.0774 8.8627 87.0774 7.87096V3.08463H87.0767Z" fill="#666F84"/>
<path d="M136.841 26.9394C136.841 25.9477 136.035 25.1441 135.039 25.1441H121.946C120.951 25.1441 120.144 25.9484 120.145 26.9401L120.148 33.4888C120.148 33.6776 120.178 33.8593 120.232 34.0295C120.349 34.5013 120.656 34.925 121.118 35.1764L129.414 39.6065C129.91 39.9146 130.244 40.4561 130.262 41.0765V41.893H126.713V40.7412C126.713 39.7494 125.906 38.9458 124.911 38.9458H121.747C120.751 38.9458 119.945 39.7494 119.945 40.7412V45.516C119.945 46.5077 120.752 47.312 121.747 47.3113L134.853 47.3041C135.849 47.3041 136.655 46.4991 136.654 45.5074L136.649 39.022C136.649 38.5293 136.45 38.0826 136.127 37.7581C136 37.6245 135.851 37.5074 135.68 37.4148L127.565 33.083C127.058 32.7656 126.721 32.2033 126.721 31.562V30.5803H130.271V31.7258C130.271 32.7175 131.077 33.5211 132.072 33.5211H135.04C136.035 33.5211 136.842 32.7175 136.842 31.7258V26.9394H136.841Z" fill="#666F84"/>
<path d="M103.331 1.29425H90.2414C90.2054 1.29425 90.1694 1.29569 90.134 1.29784C89.1756 1.33877 88.4109 2.12584 88.4109 3.09101V18.8353C88.4073 18.8812 88.4052 18.9272 88.4052 18.9739V21.6769C88.4052 22.5451 89.0235 23.2697 89.8458 23.4363C89.964 23.4608 90.0872 23.4737 90.2126 23.4737H93.8959C93.9125 23.4737 93.9291 23.473 93.9449 23.4722H103.296C104.291 23.4722 105.097 22.6687 105.097 21.6769V18.9739C105.097 17.9821 104.291 17.1786 103.296 17.1786H95.6969V15.0838H101.905C102.9 15.0838 103.706 14.2802 103.706 13.2885V11.463C103.706 10.4712 102.9 9.66764 101.905 9.66764H95.6969V7.58794H103.33C104.325 7.58794 105.132 6.78435 105.132 5.79261V3.08957C105.132 2.09784 104.325 1.29425 103.33 1.29425H103.331Z" fill="#666F84"/>
<path d="M118.227 7.58464H121.129C122.124 7.58464 122.93 6.78106 122.93 5.78932V3.08628C122.93 2.09454 122.124 1.29095 121.129 1.29095H108.039C107.044 1.29095 106.237 2.09454 106.237 3.08628V5.78932C106.237 6.78106 107.044 7.58464 108.039 7.58464H110.94V21.6743C110.94 22.6661 111.747 23.4697 112.742 23.4697H116.425C117.421 23.4697 118.227 22.6661 118.227 21.6743V7.58464Z" fill="#666F84"/>
<path d="M68.4704 25.1348C67.4751 25.1348 66.6687 25.9384 66.6687 26.9302V45.5146C66.6687 46.5064 67.4751 47.31 68.4704 47.31H81.5541C82.5494 47.31 83.3558 46.5064 83.3558 45.5146V26.9302C83.3558 25.9384 82.5494 25.1348 81.5541 25.1348H68.4704ZM76.454 41.8127H73.5713V30.6436H76.454V41.8127Z" fill="#666F84"/>
<path d="M35.8017 25.1348C34.8064 25.1348 34 25.9384 34 26.9302V45.5146C34 46.5064 34.8064 47.31 35.8017 47.31H48.8854C49.8807 47.31 50.6871 46.5064 50.6871 45.5146V39.2949C50.6871 39.2949 50.6871 39.2913 50.6871 39.2892C50.6864 39.2849 50.6857 39.2798 50.685 39.2755C50.6561 37.771 49.4029 36.7527 47.3821 36.235C49.4029 35.7179 50.6626 34.7233 50.685 33.1944C50.685 33.1901 50.6857 33.1851 50.6871 33.1807C50.6871 33.1786 50.6871 33.1772 50.6878 33.175V26.9302C50.6871 25.9384 49.8807 25.1348 48.8854 25.1348H35.8017ZM40.8312 41.952V38.7937H43.8566V41.952H40.8312ZM43.8566 33.6583H40.8312V30.5H43.8566V33.6583Z" fill="#666F84"/>
<path d="M48.0692 1.2923H36.6307C35.7486 1.2923 35.0214 1.98027 34.9753 2.85782L34.0031 21.4322C33.9541 22.4225 34.6409 23.4674 35.7594 23.4674H38.8612C39.855 23.5163 40.7003 22.7536 40.75 21.7633L40.8113 20.1676H43.8886L43.9505 21.7655C43.9995 22.7558 44.8456 23.5184 45.8394 23.4696H48.9412C50.0589 23.4696 50.7465 22.4247 50.6967 21.4344L49.7245 2.85782C49.6784 1.98027 48.9513 1.2923 48.0692 1.2923ZM43.6183 14.7436H41.0816L41.4556 7.59245H43.2443L43.6183 14.7436Z" fill="#666F84"/>
<path d="M113.578 25.127C112.492 25.127 111.675 25.7755 111.524 26.7557L110.658 31.8875L110.589 32.2975C110.423 32.867 109.982 33.3194 109.419 33.5033H109.396V26.9316C109.396 25.9399 108.589 25.1363 107.594 25.1363H103.911C102.916 25.1363 102.109 25.9399 102.109 26.9316V45.519C102.109 46.5107 102.916 47.3143 103.911 47.3143H107.594C108.589 47.3143 109.396 46.5107 109.396 45.519V38.9158H109.397C109.986 39.1118 110.439 39.603 110.581 40.2127L110.618 40.4325L111.505 45.6827C111.656 46.663 112.472 47.3114 113.558 47.3114H117.199C118.26 47.2619 118.858 46.2192 118.707 45.2389L117.666 38.4835H117.674L117.672 38.4677C117.667 38.4476 117.66 38.4289 117.655 38.4088C117.356 37.3445 116.616 36.6321 115.431 36.2731C116.624 35.9119 117.367 35.1916 117.661 34.1151C117.663 34.1058 117.667 34.0971 117.669 34.0878H117.666L118.727 27.1981C118.878 26.2178 118.28 25.1751 117.219 25.1255H113.579L113.578 25.127Z" fill="#666F84"/>
<path d="M59.3504 41.0222V26.9411C59.3504 25.9493 58.5439 25.1458 57.5487 25.1458H53.8653C52.8701 25.1458 52.0637 25.9493 52.0637 26.9411V45.5284C52.0637 46.5202 52.8701 47.3115 53.8653 47.3115H63.4913C64.4866 47.3115 65.293 46.513 65.293 45.5212V42.8182C65.293 41.8265 64.4866 41.0229 63.4913 41.0229H59.3504V41.0222Z" fill="#666F84"/>
<path d="M95.7803 33.7287H98.9311C99.9263 33.7287 100.733 32.9251 100.733 31.9334V26.9424C100.733 25.9506 99.9263 25.147 98.9311 25.147L86.5334 25.1513C85.5381 25.1513 84.7317 25.9549 84.7317 26.9467V45.5211C84.7317 46.5128 85.5381 47.3164 86.5334 47.3164H98.9311C99.9263 47.3164 100.733 46.5128 100.733 45.5211V40.5301C100.733 39.5384 99.9263 38.7348 98.9311 38.7348H95.7803C94.785 38.7348 93.9786 39.5384 93.9786 40.5301V41.8249H91.6307V30.6558H93.9786V31.9341C93.9786 32.9258 94.785 33.7294 95.7803 33.7294V33.7287Z" fill="#666F84"/>
</svg>
