<svg width="171" height="49" viewBox="0 0 171 49" fill="none" xmlns="http://www.w3.org/2000/svg">
<path d="M154.032 35.1498C153.729 35.1498 153.444 35.1253 153.178 35.0761C152.916 35.0307 152.699 34.9721 152.527 34.9003L153.066 33.0968C153.347 33.1838 153.6 33.2311 153.824 33.2386C154.053 33.2462 154.249 33.1932 154.414 33.0798C154.582 32.9664 154.719 32.7736 154.824 32.5013L154.964 32.1327L151.87 23.1721H154.386L156.171 29.5693H156.261L158.064 23.1721H160.596L157.244 32.8246C157.083 33.2934 156.864 33.7018 156.587 34.0496C156.314 34.4012 155.967 34.6716 155.548 34.8606C155.129 35.0534 154.623 35.1498 154.032 35.1498Z" fill="#94A0BC"/>
<path d="M151.155 23.1719V24.9868H145.961V23.1719H151.155ZM147.14 21.0849H149.532V29.2062C149.532 29.4293 149.566 29.6032 149.633 29.728C149.7 29.849 149.794 29.934 149.914 29.9832C150.037 30.0323 150.18 30.0569 150.341 30.0569C150.453 30.0569 150.565 30.0474 150.677 30.0285C150.79 30.0059 150.876 29.9888 150.936 29.9775L151.312 31.7753C151.192 31.8131 151.024 31.8566 150.807 31.9057C150.589 31.9587 150.326 31.9908 150.015 32.0022C149.438 32.0248 148.933 31.9473 148.499 31.7696C148.068 31.5919 147.733 31.3159 147.494 30.9416C147.254 30.5673 147.136 30.0947 147.14 29.5238V21.0849Z" fill="#94A0BC"/>
<path d="M142.417 31.883V23.1719H144.809V31.883H142.417ZM143.619 22.049C143.263 22.049 142.958 21.9299 142.703 21.6917C142.453 21.4497 142.327 21.1605 142.327 20.824C142.327 20.4913 142.453 20.2058 142.703 19.9676C142.958 19.7257 143.263 19.6047 143.619 19.6047C143.974 19.6047 144.277 19.7257 144.528 19.9676C144.783 20.2058 144.91 20.4913 144.91 20.824C144.91 21.1605 144.783 21.4497 144.528 21.6917C144.277 21.9299 143.974 22.049 143.619 22.049Z" fill="#94A0BC"/>
<path d="M140.66 20.2684V31.8833H138.268V20.2684H140.66Z" fill="#94A0BC"/>
<path d="M131.714 32.0473C131.163 32.0473 130.673 31.9509 130.242 31.7581C129.812 31.5615 129.471 31.2722 129.22 30.8904C128.973 30.5047 128.85 30.0245 128.85 29.4498C128.85 28.9659 128.938 28.5594 129.114 28.2305C129.29 27.9016 129.529 27.6369 129.833 27.4365C130.136 27.2361 130.48 27.0849 130.866 26.9828C131.255 26.8807 131.663 26.8089 132.09 26.7673C132.591 26.7144 132.996 26.6652 133.303 26.6199C133.61 26.5707 133.832 26.4989 133.971 26.4044C134.109 26.3098 134.179 26.1699 134.179 25.9847V25.9507C134.179 25.5915 134.066 25.3136 133.842 25.117C133.621 24.9204 133.306 24.8221 132.898 24.8221C132.468 24.8221 132.125 24.9185 131.871 25.1113C131.616 25.3003 131.448 25.5385 131.365 25.8259L129.153 25.6444C129.265 25.1151 129.486 24.6576 129.816 24.2719C130.145 23.8825 130.57 23.5838 131.09 23.3759C131.614 23.1642 132.221 23.0583 132.91 23.0583C133.389 23.0583 133.847 23.115 134.285 23.2284C134.727 23.3419 135.118 23.5177 135.459 23.7559C135.803 23.9941 136.075 24.3003 136.273 24.6746C136.471 25.0451 136.571 25.4894 136.571 26.0074V31.8828H134.302V30.6748H134.235C134.096 30.9471 133.911 31.1872 133.679 31.3951C133.447 31.5993 133.168 31.76 132.842 31.8772C132.517 31.9906 132.14 32.0473 131.714 32.0473ZM132.399 30.3799C132.751 30.3799 133.061 30.31 133.331 30.1701C133.6 30.0264 133.812 29.8336 133.965 29.5916C134.119 29.3497 134.195 29.0755 134.195 28.7693V27.8449C134.121 27.894 134.018 27.9394 133.887 27.981C133.759 28.0188 133.615 28.0547 133.454 28.0887C133.293 28.119 133.132 28.1473 132.971 28.1738C132.81 28.1965 132.664 28.2173 132.533 28.2362C132.253 28.2778 132.007 28.3439 131.798 28.4347C131.588 28.5254 131.425 28.6483 131.309 28.8033C131.193 28.9545 131.135 29.1436 131.135 29.3704C131.135 29.6994 131.253 29.9508 131.489 30.1247C131.729 30.2949 132.032 30.3799 132.399 30.3799Z" fill="#94A0BC"/>
<path d="M123.891 32.053C123.004 32.053 122.24 31.8715 121.6 31.5085C120.964 31.1418 120.473 30.6238 120.129 29.9546C119.785 29.2816 119.612 28.4857 119.612 27.567C119.612 26.6709 119.785 25.8845 120.129 25.2077C120.473 24.5309 120.958 24.0035 121.583 23.6254C122.212 23.2473 122.95 23.0583 123.796 23.0583C124.365 23.0583 124.894 23.1509 125.385 23.3362C125.879 23.5177 126.309 23.7918 126.676 24.1585C127.047 24.5253 127.335 24.9865 127.541 25.5423C127.747 26.0943 127.85 26.7409 127.85 27.4819V28.1454H120.567V26.6482H125.598C125.598 26.3004 125.523 25.9922 125.373 25.7238C125.224 25.4554 125.016 25.2455 124.75 25.0943C124.488 24.9393 124.183 24.8618 123.835 24.8618C123.472 24.8618 123.15 24.9468 122.869 25.117C122.592 25.2833 122.375 25.5083 122.218 25.7919C122.061 26.0716 121.98 26.3836 121.976 26.7276V28.1511C121.976 28.5821 122.055 28.9546 122.212 29.2684C122.373 29.5822 122.6 29.8242 122.892 29.9943C123.184 30.1644 123.53 30.2495 123.93 30.2495C124.196 30.2495 124.439 30.2117 124.66 30.1361C124.881 30.0605 125.07 29.947 125.227 29.7958C125.385 29.6446 125.504 29.4593 125.587 29.24L127.799 29.3875C127.687 29.9243 127.457 30.3932 127.109 30.7939C126.764 31.1909 126.319 31.501 125.772 31.724C125.229 31.9433 124.602 32.053 123.891 32.053Z" fill="#94A0BC"/>
<path d="M109.926 31.8833V20.2684H114.463C115.331 20.2684 116.072 20.4253 116.686 20.7392C117.304 21.0492 117.774 21.4897 118.096 22.0606C118.422 22.6277 118.584 23.295 118.584 24.0625C118.584 24.8338 118.42 25.4974 118.09 26.0532C117.761 26.6052 117.283 27.0286 116.658 27.3235C116.037 27.6184 115.285 27.7659 114.401 27.7659H111.363V25.7923H114.008C114.472 25.7923 114.858 25.728 115.165 25.5995C115.472 25.4709 115.7 25.2781 115.85 25.021C116.003 24.7639 116.08 24.4444 116.08 24.0625C116.08 23.6769 116.003 23.3517 115.85 23.0871C115.7 22.8224 115.47 22.622 115.159 22.4859C114.852 22.346 114.465 22.2761 113.997 22.2761H112.357V31.8833H109.926ZM116.136 26.5976L118.994 31.8833H116.31L113.514 26.5976H116.136Z" fill="#94A0BC"/>
<path d="M104.98 23.1719V24.9868H99.7856V23.1719H104.98ZM100.965 21.0849H103.357V29.2062C103.357 29.4293 103.391 29.6032 103.458 29.728C103.525 29.849 103.619 29.934 103.739 29.9832C103.862 30.0323 104.004 30.0569 104.165 30.0569C104.278 30.0569 104.39 30.0474 104.502 30.0285C104.615 30.0059 104.701 29.9888 104.761 29.9775L105.137 31.7753C105.017 31.8131 104.849 31.8566 104.632 31.9057C104.414 31.9587 104.15 31.9908 103.84 32.0022C103.263 32.0248 102.758 31.9473 102.324 31.7696C101.893 31.5919 101.558 31.3159 101.319 30.9416C101.079 30.5673 100.961 30.0947 100.965 29.5238V21.0849Z" fill="#94A0BC"/>
<path d="M95.0307 32.053C94.1435 32.053 93.3798 31.8715 92.7397 31.5085C92.1033 31.1418 91.6129 30.6238 91.2685 29.9546C90.9242 29.2816 90.752 28.4857 90.752 27.567C90.752 26.6709 90.9242 25.8845 91.2685 25.2077C91.6129 24.5309 92.0977 24.0035 92.7229 23.6254C93.3518 23.2473 94.0892 23.0583 94.9352 23.0583C95.5042 23.0583 96.0339 23.1509 96.5243 23.3362C97.0185 23.5177 97.449 23.7918 97.8158 24.1585C98.1864 24.5253 98.4747 24.9865 98.6805 25.5423C98.8864 26.0943 98.9894 26.7409 98.9894 27.4819V28.1454H91.7065V26.6482H96.7377C96.7377 26.3004 96.6628 25.9922 96.5131 25.7238C96.3634 25.4554 96.1556 25.2455 95.8898 25.0943C95.6278 24.9393 95.3227 24.8618 94.9745 24.8618C94.6114 24.8618 94.2895 24.9468 94.0087 25.117C93.7317 25.2833 93.5146 25.5083 93.3574 25.7919C93.2002 26.0716 93.1197 26.3836 93.1159 26.7276V28.1511C93.1159 28.5821 93.1945 28.9546 93.3518 29.2684C93.5127 29.5822 93.7392 29.8242 94.0312 29.9943C94.3232 30.1644 94.6695 30.2495 95.07 30.2495C95.3358 30.2495 95.5791 30.2117 95.8 30.1361C96.0208 30.0605 96.2099 29.947 96.3671 29.7958C96.5243 29.6446 96.6441 29.4593 96.7265 29.24L98.9388 29.3875C98.8265 29.9243 98.5963 30.3932 98.2482 30.7939C97.9038 31.1909 97.4583 31.501 96.9118 31.724C96.369 31.9433 95.742 32.053 95.0307 32.053Z" fill="#94A0BC"/>
<path d="M89.5546 25.6557L87.3647 25.7919C87.3272 25.6028 87.2467 25.4327 87.1232 25.2814C86.9997 25.1264 86.8368 25.0035 86.6347 24.9128C86.4363 24.8183 86.1986 24.771 85.9216 24.771C85.551 24.771 85.2384 24.8504 84.9838 25.0092C84.7293 25.1642 84.602 25.3722 84.602 25.6331C84.602 25.841 84.6844 26.0168 84.8491 26.1605C85.0138 26.3042 85.2964 26.4195 85.697 26.5064L87.258 26.824C88.0965 26.998 88.7217 27.2777 89.1334 27.6634C89.5452 28.049 89.7511 28.5557 89.7511 29.1833C89.7511 29.7542 89.5845 30.2552 89.2514 30.6862C88.9219 31.1172 88.469 31.4537 87.8925 31.6957C87.3197 31.9339 86.659 32.053 85.9103 32.053C84.7686 32.053 83.8589 31.8129 83.1814 31.3327C82.5076 30.8488 82.1126 30.1909 81.9966 29.3591L84.3493 29.2343C84.4205 29.586 84.5927 29.8544 84.8659 30.0397C85.1392 30.2211 85.4892 30.3119 85.916 30.3119C86.3352 30.3119 86.6721 30.2306 86.9267 30.068C87.185 29.9017 87.316 29.688 87.3197 29.4272C87.316 29.2079 87.2243 29.0283 87.0446 28.8884C86.8649 28.7447 86.5879 28.6351 86.2136 28.5595L84.7199 28.2589C83.8777 28.0887 83.2506 27.7938 82.8389 27.3741C82.4308 26.9545 82.2268 26.4195 82.2268 25.7692C82.2268 25.2096 82.3765 24.7275 82.676 24.323C82.9792 23.9184 83.4041 23.6065 83.9507 23.3872C84.5009 23.1679 85.1448 23.0583 85.8823 23.0583C86.9716 23.0583 87.8289 23.2908 88.454 23.7559C89.0829 24.2209 89.4498 24.8542 89.5546 25.6557Z" fill="#94A0BC"/>
<path d="M80.8348 25.6557L78.6449 25.7919C78.6075 25.6028 78.527 25.4327 78.4035 25.2814C78.28 25.1264 78.1171 25.0035 77.915 24.9128C77.7166 24.8183 77.4789 24.771 77.2018 24.771C76.8312 24.771 76.5187 24.8504 76.2641 25.0092C76.0096 25.1642 75.8823 25.3722 75.8823 25.6331C75.8823 25.841 75.9646 26.0168 76.1294 26.1605C76.2941 26.3042 76.5767 26.4195 76.9772 26.5064L78.5383 26.824C79.3768 26.998 80.0019 27.2777 80.4137 27.6634C80.8255 28.049 81.0314 28.5557 81.0314 29.1833C81.0314 29.7542 80.8648 30.2552 80.5316 30.6862C80.2022 31.1172 79.7493 31.4537 79.1728 31.6957C78.6 31.9339 77.9393 32.053 77.1906 32.053C76.0489 32.053 75.1392 31.8129 74.4617 31.3327C73.7878 30.8488 73.3929 30.1909 73.2769 29.3591L75.6296 29.2343C75.7007 29.586 75.8729 29.8544 76.1462 30.0397C76.4195 30.2211 76.7695 30.3119 77.1962 30.3119C77.6155 30.3119 77.9524 30.2306 78.207 30.068C78.4653 29.9017 78.5963 29.688 78.6 29.4272C78.5963 29.2079 78.5046 29.0283 78.3249 28.8884C78.1452 28.7447 77.8682 28.6351 77.4938 28.5595L76.0002 28.2589C75.1579 28.0887 74.5309 27.7938 74.1191 27.3741C73.7111 26.9545 73.5071 26.4195 73.5071 25.7692C73.5071 25.2096 73.6568 24.7275 73.9563 24.323C74.2595 23.9184 74.6844 23.6065 75.2309 23.3872C75.7812 23.1679 76.4251 23.0583 77.1625 23.0583C78.2519 23.0583 79.1091 23.2908 79.7343 23.7559C80.3632 24.2209 80.73 24.8542 80.8348 25.6557Z" fill="#94A0BC"/>
<path d="M64.216 31.8833H61.6106L65.5805 20.2684H68.7138L72.6781 31.8833H70.0726L67.1921 22.9226H67.1022L64.216 31.8833ZM64.0532 27.3179H70.2074V29.2348H64.0532V27.3179Z" fill="#94A0BC"/>
<path d="M48.5243 5.7113C48.448 5.75841 48.3594 5.72925 48.2618 5.75056C48.3863 5.8257 48.5175 5.82121 48.6386 5.83691C50.3826 6.05224 51.9112 6.76553 53.2615 7.86573C54.5221 8.89303 55.4485 10.1772 56.044 11.689C56.4601 12.7465 56.6698 13.8456 56.6821 14.9885C56.6933 16.0382 56.5509 17.0599 56.2234 18.0535C55.7445 19.5093 54.955 20.7788 53.8537 21.8443C52.5819 23.0746 51.0802 23.8899 49.3508 24.2847C48.688 24.4361 48.0173 24.5045 47.3399 24.5056C45.3392 24.509 43.3384 24.5056 41.3376 24.509C41.184 24.509 41.0897 24.4607 41.0112 24.3262C40.5436 23.5153 40.068 22.7089 39.5936 21.9015C39.5454 21.8196 39.5566 21.7815 39.6565 21.7815C39.7215 21.7815 39.7865 21.7815 39.8527 21.7815C42.301 21.7815 44.7492 21.7848 47.1975 21.7792C48.8787 21.7758 50.3613 21.214 51.6353 20.1295C52.6615 19.2558 53.3692 18.1623 53.7281 16.858C53.8548 16.396 53.9277 15.9227 53.9513 15.4404C54.0073 14.2898 53.7763 13.1974 53.2705 12.169C52.8544 11.3222 52.2791 10.5966 51.5479 9.99436C50.5385 9.16332 49.3856 8.66985 48.0925 8.49826C47.885 8.47135 47.6753 8.45677 47.4655 8.45677C35.7233 8.45789 23.9811 8.45901 12.2377 8.45901C12.2187 8.45901 12.2007 8.46013 12.1816 8.45901C12.1413 8.45677 12.0897 8.4691 12.0695 8.422C12.0493 8.37377 12.0975 8.34686 12.1267 8.32106C12.619 7.86461 13.0777 7.37451 13.5566 6.90459C13.8897 6.57823 14.2194 6.24963 14.548 5.91878C14.6041 5.86271 14.6882 5.81785 14.668 5.71355H48.5265L48.5243 5.7113Z" fill="#666F84"/>
<path d="M5.48745 43.1429C5.56147 43.1272 5.58726 43.0644 5.61867 43.0083C6.24335 41.9115 6.86467 40.8124 7.49384 39.7178C8.20151 38.4864 8.91816 37.2594 9.62807 36.0291C10.3784 34.7304 11.1253 33.4295 11.8745 32.1308C12.9242 30.3106 13.9751 28.4915 15.0248 26.6713C15.8323 25.2716 16.6398 23.8708 17.4473 22.4701C18.322 20.9527 19.1957 19.4341 20.0705 17.9167C20.9453 16.3993 21.8212 14.8819 22.6971 13.3656C23.0649 12.7286 23.4328 12.0905 23.8006 11.4534C23.8197 11.4209 23.8354 11.3873 23.8589 11.3581C23.9049 11.302 23.9442 11.2987 23.9857 11.3705C24.4758 12.2228 24.9659 13.074 25.4582 13.9241C25.4986 13.9948 25.5121 14.0587 25.4694 14.1327C24.9636 15.0075 24.4567 15.8823 23.9531 16.7582C23.167 18.122 22.383 19.488 21.5969 20.8517C21.0686 21.768 20.537 22.682 20.0088 23.5983C19.2327 24.9464 18.46 26.2967 17.6828 27.6447C17.076 28.6978 16.4637 29.7487 15.8558 30.8018C15.23 31.8874 14.6076 32.9753 13.9829 34.0609C13.1967 35.4247 12.4083 36.7873 11.6221 38.1522C11.1107 39.0404 10.6049 39.9309 10.0924 40.8191C9.6505 41.5851 9.20078 42.3478 8.75778 43.1149C8.69161 43.2304 8.60862 43.2629 8.47628 43.2685C7.81459 43.2999 7.1529 43.2775 6.49008 43.2865C6.18279 43.2909 5.87549 43.245 5.5682 43.2674C5.54128 43.2696 5.51324 43.2775 5.48633 43.282C5.48633 43.2349 5.48633 43.1889 5.48633 43.1418L5.48745 43.1429Z" fill="#666F84"/>
<path d="M28.5847 11.1023C29.0557 11.1023 29.5268 11.1045 29.9978 11.1011C30.1077 11.1011 30.1795 11.1337 30.2367 11.2324C31.1384 12.7991 32.0412 14.3647 32.9451 15.9292C33.7448 17.3132 34.5467 18.6938 35.3452 20.0777C36.2536 21.6512 37.1587 23.2258 38.066 24.7993C38.9071 26.2561 39.7505 27.7107 40.5916 29.1665C41.6873 31.0618 42.7819 32.9583 43.8777 34.8536C44.7962 36.4428 45.7158 38.0309 46.6343 39.619C47.3061 40.7808 47.9757 41.9427 48.6452 43.1046C48.7192 43.2325 48.6968 43.2627 48.5476 43.2672C47.6011 43.2953 46.6545 43.2728 45.7091 43.2841C45.5767 43.2852 45.4994 43.2459 45.4309 43.127C44.5483 41.5872 43.659 40.0519 42.773 38.5143C42.1404 37.4163 41.5101 36.3172 40.8765 35.2204C40.0051 33.7119 39.1337 32.2035 38.26 30.6962C37.4637 29.3212 36.6652 27.9485 35.8712 26.5735C35.1388 25.3073 34.411 24.0389 33.6797 22.7727C33.0999 21.7678 32.5167 20.7652 31.9358 19.7615C31.4109 18.8542 30.886 17.9468 30.3634 17.0384C29.5963 15.7061 28.8303 14.3737 28.0621 13.0425C27.7178 12.4458 27.3667 11.8525 27.018 11.257C26.9495 11.1404 26.9709 11.1034 27.1144 11.1023C27.6045 11.1 28.0935 11.1023 28.5836 11.1023H28.5847Z" fill="#666F84"/>
<path d="M20.9495 43.2609C20.3506 43.3069 19.7685 43.2811 19.1853 43.2845C18.8455 43.2867 18.5057 43.2845 18.1659 43.2822C18.112 43.2822 18.0447 43.299 18.01 43.2441C17.9718 43.1846 18.0313 43.1409 18.0582 43.096C18.4877 42.3547 18.9195 41.6145 19.3491 40.8721C19.9446 39.8448 20.5401 38.8164 21.1356 37.789C21.582 37.0197 22.0272 36.2492 22.4736 35.4799C23.0254 34.5288 23.5783 33.5789 24.1289 32.6278C24.8871 31.3168 25.643 30.0057 26.4011 28.6947C27.2972 27.1459 28.1967 25.6005 29.0894 24.0505C29.4292 23.4617 29.7881 22.883 30.0999 22.2785C30.1234 22.2337 30.1481 22.1798 30.2042 22.1742C30.2692 22.1686 30.2804 22.2337 30.3051 22.2752C30.7795 23.0984 31.2517 23.9227 31.7305 24.7436C31.7956 24.8546 31.7967 24.9388 31.7305 25.0498C30.5675 27.0517 29.4068 29.0547 28.2471 31.0588C27.6034 32.1714 26.9619 33.2862 26.3193 34.3987C25.5219 35.7782 24.7245 37.1565 23.9259 38.536C23.2912 39.6328 22.6564 40.7285 22.0205 41.8254C21.7816 42.2358 21.5371 42.6441 21.3027 43.0568C21.2175 43.2071 21.1289 43.3271 20.9483 43.2609H20.9495Z" fill="#666F84"/>
<path d="M59.835 43.2844C59.3639 43.2844 58.8929 43.2821 58.4219 43.2855C58.3063 43.2855 58.2323 43.2474 58.1751 43.1431C57.4843 41.9072 56.7519 40.6948 56.0398 39.4712C55.0943 37.8439 54.1444 36.22 53.1956 34.5949C52.1066 32.7287 51.0165 30.8614 49.9264 28.9952C49.5742 28.3918 49.2221 27.7884 48.8677 27.1862C48.8161 27.0976 48.8183 27.0527 48.9305 27.0382C49.7997 26.9327 50.6419 26.7196 51.4617 26.4146C51.5705 26.3742 51.6333 26.4 51.6905 26.4987C52.2771 27.5103 52.867 28.5197 53.4569 29.529C54.7175 31.6891 55.9814 33.848 57.2398 36.0091C57.9104 37.1598 58.5733 38.315 59.2428 39.4679C59.8899 40.5838 60.5404 41.6986 61.1886 42.8133C61.2492 42.9176 61.3097 43.0231 61.3669 43.1296C61.4354 43.2563 61.4185 43.2833 61.275 43.2833C60.795 43.2833 60.315 43.2833 59.8338 43.2833L59.835 43.2844Z" fill="#666F84"/>
<path d="M35.8898 43.2751C35.1193 43.293 34.3499 43.2863 33.5817 43.2829C33.3675 43.2829 33.1533 43.2538 32.9391 43.2683C32.8471 43.2751 32.7854 43.2347 32.7372 43.1506C31.6112 41.2081 30.483 39.2668 29.3547 37.3255C29.1327 36.943 28.9117 36.5595 28.6874 36.1781C28.637 36.0918 28.6213 36.0155 28.6773 35.9191C29.1394 35.1262 29.597 34.331 30.0557 33.5359C30.0792 33.4955 30.1017 33.454 30.1286 33.417C30.2037 33.3116 30.2385 33.3138 30.3058 33.4293C31.1592 34.894 32.0149 36.3587 32.8662 37.8256C33.7432 39.3363 34.6146 40.8504 35.4916 42.361C35.6442 42.6235 35.8023 42.8814 35.9402 43.1506C35.9716 43.2134 36.0064 43.2773 35.8898 43.2762V43.2751Z" fill="#666F84"/>
</svg>
