<svg width="116" height="26" viewBox="0 0 116 26" fill="none" xmlns="http://www.w3.org/2000/svg">
<g clip-path="url(#clip0_4327_10748)">
<path d="M19.0363 1.86969C17.81 1.86969 16.8026 2.87113 16.8026 4.1162C16.8026 5.36128 17.8107 6.30818 19.0363 6.30818C20.2619 6.30818 21.27 5.30674 21.27 4.1162C21.27 2.92566 20.289 1.86969 19.0363 1.86969Z" fill="#666F84"/>
<path d="M20.8615 7.68427H17.2382V20.9983H20.8615V7.68427Z" fill="#666F84"/>
<path d="M59.2719 7.33228C57.8281 7.33228 56.2211 7.95481 55.4033 9.33516V7.68427H51.8891V20.9983H55.5124V13.3402C55.5124 11.7977 56.4385 10.5802 58.0185 10.5802C59.7617 10.5802 60.4974 11.7439 60.4974 13.2319V20.9983H64.1208V12.6093C64.1208 9.68715 62.595 7.33228 59.2719 7.33228Z" fill="#666F84"/>
<path d="M72.5309 7.27844C68.5261 7.27844 65.5024 10.2282 65.5024 14.3409C65.5024 18.4536 68.5261 21.4041 72.5309 21.4041C76.5356 21.4041 79.5593 18.4274 79.5593 14.3409C79.5593 10.2544 76.5356 7.27844 72.5309 7.27844ZM72.5309 18.13C70.7598 18.13 69.1257 16.8311 69.1257 14.3416C69.1257 11.8522 70.7598 10.5533 72.5309 10.5533C74.3019 10.5533 75.936 11.8253 75.936 14.3416C75.936 16.858 74.3019 18.13 72.5309 18.13Z" fill="#666F84"/>
<path d="M96.3432 7.30536C94.5721 7.30536 93.1562 7.90098 92.0931 9.52425C91.4123 8.09008 89.9407 7.30536 88.1162 7.30536C86.6454 7.30536 84.9292 8.00863 84.1935 9.30753V7.68426H80.7334V20.9983H84.3567V13.2049C84.3567 11.7439 85.2829 10.5802 86.8628 10.5802C88.4427 10.5802 89.2327 11.6624 89.2327 13.0973V20.999H92.8289V13.2056C92.8289 11.7715 93.7551 10.5809 95.3079 10.5809C96.9699 10.5809 97.6778 11.6631 97.6778 13.098V20.9997H101.192V12.3678C101.192 8.79548 98.8222 7.30748 96.3432 7.30748V7.30536Z" fill="#666F84"/>
<path d="M112.12 7.68427L108.824 15.4777L105.256 7.68427H101.197L106.89 19.3198L103.73 26.2477H107.571L115.989 7.68427H112.12Z" fill="#666F84"/>
<path d="M29.2638 18.1293C27.4927 18.1293 25.8586 16.8304 25.8586 14.3409C25.8586 11.8515 27.4935 10.5526 29.2638 10.5526C30.3624 10.5526 31.3321 11.0434 31.9103 12.0172L35.3276 10.9039C34.2282 8.68287 32.0265 7.27844 29.2638 7.27844C25.259 7.27844 22.2353 10.2282 22.2353 14.3409C22.2353 18.4536 25.259 21.4041 29.2638 21.4041C32.5919 21.4041 35.1044 19.3467 35.858 16.3063H32.095C31.556 17.5181 30.4908 18.1293 29.2638 18.1293Z" fill="#666F84"/>
<path d="M43.4875 7.27844C39.4827 7.27844 36.459 10.2282 36.459 14.3409C36.459 18.4536 39.4827 21.4041 43.4875 21.4041C47.4922 21.4041 50.5159 18.4274 50.5159 14.3409C50.5159 10.2544 47.4922 7.27844 43.4875 7.27844ZM43.4875 18.13C41.7164 18.13 40.0823 16.8311 40.0823 14.3416C40.0823 11.8522 41.7172 10.5533 43.4875 10.5533C45.2578 10.5533 46.8926 11.8253 46.8926 14.3416C46.8926 16.858 45.2578 18.13 43.4875 18.13Z" fill="#666F84"/>
<path d="M12.4588 9.33798C13.2017 8.35991 13.3565 7.4208 13.3565 6.29754C13.3565 5.17428 12.3269 1.81018 8.57532 1.81018H-0.0323486V20.9856H9.26548C13.8969 20.9856 15.8518 17.7992 15.8518 14.4365C15.8518 12.8947 15.2059 10.894 12.4588 9.33798ZM3.60308 4.75289H7.98712C8.99597 4.75289 9.81304 5.56523 9.81304 6.56667C9.81304 7.56882 8.99526 8.38045 7.98712 8.38045H3.60308V4.75289ZM8.83627 18.0429H3.60308V11.3239H8.83627C10.7042 11.3239 12.2178 12.8282 12.2178 14.683C12.2178 16.7397 10.8718 18.0429 8.83627 18.0429Z" fill="#666F84"/>
</g>
<defs>
<clipPath id="clip0_4327_10748">
<rect width="116" height="26" fill="white"/>
</clipPath>
</defs>
</svg>
