<svg width="170" height="49" viewBox="0 0 170 49" fill="none" xmlns="http://www.w3.org/2000/svg">
<g clip-path="url(#clip0_4327_10383)">
<path d="M58.1569 19.1673H59.7097V27.4216L52.4634 18.2412H48.8834V19.2075H50.393L50.8675 19.892V30.2804H49.3147V31.2468H53.8005V30.2804H52.2477V21.5429L59.9685 31.4884H61.0468V19.2478H62.5996V18.2814H58.1569V19.1673ZM41.3783 30.0791H39.6098V25.0057H41.3783C43.233 25.0057 44.4407 26.0123 44.4407 27.6632C44.4407 29.4349 42.8016 30.0791 41.3783 30.0791ZM39.6098 19.3686H41.3351C42.2409 19.3686 43.7506 19.6504 43.7506 21.5832C43.7506 23.1938 42.4997 23.9185 41.2489 23.9185H39.6529V19.3686H39.6098ZM43.578 24.3615C44.9151 23.9991 46.1229 23.073 46.1229 21.5026C46.1229 19.4894 44.5269 18.2412 42.0684 18.2412H35.6416V19.2075H37.1944V30.2804H35.6416V31.2871H42.4134C45.0445 31.2871 46.7698 29.8778 46.7698 27.8645C46.813 25.7305 45.2602 24.6836 43.578 24.3615ZM72.0888 19.1673H73.8572L70.8379 23.7978L67.6461 19.1673H69.242V18.2009H63.6347V19.1673H64.8856L69.1126 25.2473V30.2402H67.5598V31.2468H72.9946V30.2402H71.4418V25.1668L75.3669 19.2075H76.4883V18.2412H72.0888V19.1673ZM138.039 30.0791H133.424V19.1673H134.976V18.2009H129.542V19.1673H131.094V30.2402H129.542V31.2468H139.203V28.4282H137.996L138.039 30.0791ZM126.134 30.0791H121.562V19.1673H123.115V18.2009H117.68V19.1673H119.233V30.2402H117.68V31.2468H127.342V28.4282H126.134V30.0791ZM93.0944 27.5827L88.3929 18.2412H84.511V19.2075H86.0638V30.2804H84.511V31.2871H88.9537V30.2804H87.4009V21.2611L92.5768 31.6495L97.5371 21.5429V30.3207H95.9843V31.3273H101.419V30.3207H99.8663V19.2478H101.419V18.2814H97.7527L93.0944 27.5827ZM147.571 30.1999C144.983 30.1999 143.172 27.9451 143.172 24.6836C143.172 21.4624 144.983 19.2075 147.571 19.2075C150.073 19.2075 151.884 21.4624 151.884 24.6836C151.927 27.9451 150.159 30.1999 147.571 30.1999ZM147.571 17.9996C143.732 17.9996 140.627 21.0195 140.627 24.7641C140.627 28.5088 143.732 31.5287 147.571 31.5287C151.367 31.5287 154.472 28.5088 154.472 24.7641C154.472 20.9792 151.41 17.9996 147.571 17.9996ZM165.557 18.2009V19.1673H167.11V27.4216L159.907 18.2412H156.284V19.2075H157.794L158.311 19.892V30.2804H156.758V31.2871H161.201V30.2804H159.648V21.5429L167.369 31.4884H168.447V19.2478H170V18.2814L165.557 18.2009ZM113.065 30.0791H108.234V25.1265H111.9V26.6163H113.108V22.5495H111.857V23.9991H108.191V19.2881H112.806V20.9389H114.014V17.5969H112.806V18.1204H104.309V19.0867H105.862V30.1596H104.309V31.1663H114.229V28.3477H113.022L113.065 30.0791Z" fill="#666F84"/>
<path d="M27.4463 23.8966L14.2584 18.6663C11.4325 20.2354 9.12031 22.066 7.23633 23.8966C9.12031 25.7273 11.4325 27.5579 14.2584 29.127L27.4463 23.8966Z" fill="#94A0BC"/>
<path d="M0 13C0 13 1.37017 17.6202 5.99449 22.6326C8.00692 21.0635 10.4475 19.5816 13.3591 18.3611L0 13Z" fill="#B4BCD0"/>
<path d="M0 34.8368C0 34.8368 1.37017 30.2166 5.99449 25.2042C8.00692 26.7733 10.4475 28.2552 13.3591 29.4756L0 34.8368Z" fill="#B4BCD0"/>
</g>
<defs>
<clipPath id="clip0_4327_10383">
<rect width="170" height="22.3232" fill="white" transform="translate(0 13)"/>
</clipPath>
</defs>
</svg>
