<svg width="170" height="49" viewBox="0 0 170 49" fill="none" xmlns="http://www.w3.org/2000/svg">
<g clip-path="url(#clip0_4327_10398)">
<path d="M48.1021 27.5877C48.1021 22.4105 51.7559 19.143 57.1897 19.143C62.6236 19.143 66.2774 22.4105 66.2774 27.5877C66.2774 32.7649 62.6236 36 57.1897 36C51.7559 36 48.1021 32.7 48.1021 27.5877ZM61.5431 27.5877C61.5431 24.7404 60.3989 23.415 57.1897 23.415C53.9804 23.415 52.8362 24.7422 52.8362 27.5877C52.8362 30.4333 53.9485 31.6973 57.1897 31.6973C60.4309 31.6973 61.5431 30.4351 61.5431 27.5877Z" fill="#6C717D"/>
<path d="M67.6108 27.5877C67.6108 22.4105 71.2647 19.143 76.6986 19.143C82.1323 19.143 85.7862 22.4105 85.7862 27.5877C85.7862 32.7649 82.1323 36 76.6986 36C71.2647 36 67.6108 32.7 67.6108 27.5877ZM81.052 27.5877C81.052 24.7404 79.9078 23.415 76.6986 23.415C73.4893 23.415 72.3451 24.7422 72.3451 27.5877C72.3451 30.4333 73.4573 31.6973 76.6986 31.6973C79.9397 31.6973 81.052 30.4351 81.052 27.5877Z" fill="#6C717D"/>
<path d="M88.7967 35.6769C88.2047 35.6761 87.7261 35.1839 87.7261 34.5769V19.872C87.7261 19.6486 87.9039 19.4676 88.1233 19.4676H91.746C91.9654 19.4676 92.1432 19.6486 92.1432 19.872V24.246C92.1432 24.3228 92.2044 24.3851 92.2798 24.3851C92.3478 24.3851 92.4053 24.3341 92.4158 24.2658C92.8261 21.5942 94.4264 19.1448 98.3724 19.1448C101.998 19.1448 103.872 21.3681 104.264 24.304C104.275 24.3869 104.345 24.45 104.427 24.45C104.508 24.45 104.576 24.3893 104.588 24.308C105.005 21.6127 106.64 19.1448 110.669 19.1448C114.769 19.1448 116.771 21.8948 116.771 25.5824V35.2728C116.771 35.4961 116.593 35.6771 116.374 35.6771H112.402C112.183 35.6771 112.005 35.4961 112.005 35.2728V27.2017C112.005 24.5167 111.084 23.5141 108.351 23.5141C105.459 23.5141 104.633 24.679 104.633 27.4939V35.2745C104.633 35.4979 104.455 35.679 104.236 35.679H100.264C100.045 35.679 99.8672 35.4979 99.8672 35.2745V27.2036C99.8672 24.5185 98.9462 23.5159 96.2133 23.5159C93.3211 23.5159 92.4957 24.6808 92.4957 27.4958V35.2763C92.4957 35.4997 92.3179 35.6808 92.0985 35.6808C91.8552 35.6808 90.011 35.6785 88.7967 35.6769Z" fill="#6C717D"/>
<path d="M120.256 35.6751C119.663 35.675 119.183 35.1825 119.183 34.5751V14.4044C119.183 14.1811 119.361 14 119.58 14H136.803C137.023 14 137.201 14.1811 137.201 14.4044V17.9631C137.201 18.1865 137.023 18.3675 136.803 18.3675H124.348C124.129 18.3675 123.951 18.5486 123.951 18.772V22.8482C123.951 23.0715 124.129 23.2526 124.348 23.2526H136.327C136.547 23.2526 136.724 23.4337 136.724 23.657V27.1832C136.724 27.4066 136.547 27.5876 136.327 27.5876H124.348C124.129 27.5876 123.951 27.7687 123.951 27.9921V35.2709C123.951 35.4942 123.773 35.6753 123.554 35.6753L120.256 35.6751Z" fill="#6C717D"/>
<path d="M139.631 18.418C139.412 18.418 139.234 18.2369 139.234 18.0136V14.4044C139.234 14.1811 139.412 14 139.631 14H143.603C143.822 14 144 14.1811 144 14.4044V18.0136C144 18.2369 143.822 18.418 143.603 18.418H139.631ZM139.631 35.6771C139.412 35.6771 139.234 35.4961 139.234 35.2727V20.8061C139.234 20.5827 139.412 20.4016 139.631 20.4016H143.603C143.822 20.4016 144 20.5827 144 20.8061V35.2727C144 35.4961 143.822 35.6771 143.603 35.6771H139.631Z" fill="#6C717D"/>
<path d="M44.8739 26.0682C43.9231 25.1635 42.5197 24.628 40.6623 24.4625C40.5828 24.4554 40.521 24.3874 40.521 24.3054C40.521 24.2231 40.5842 24.1549 40.6641 24.1481C43.8736 23.8741 45.4776 22.2497 45.4776 19.2738C45.4776 17.5697 44.9061 16.265 43.7616 15.359C42.6183 14.453 40.9555 14 38.7733 14H26.7274C26.3255 14 26 14.3314 26 14.7406V22.2325C26 22.4386 26.1643 22.6059 26.3667 22.6059H30.048C30.2869 22.6059 30.4414 22.6596 30.576 22.7941C30.7106 22.9287 30.7658 23.1027 30.7658 23.2848V26.1207C30.7658 26.3379 30.6694 26.4632 30.6033 26.5206C30.5372 26.5781 30.4524 26.6071 30.2354 26.6213H28.7351C28.635 26.6213 28.5162 26.5805 28.455 26.5287C28.4005 26.4824 28.3641 26.3601 28.3641 26.2509V24.9857C28.3641 24.7815 28.201 24.6154 28.0004 24.6154H26.3637C26.1631 24.6154 26 24.7815 26 24.9857V26.2509C26 26.4552 26.1631 26.6213 26.3637 26.6213H28.0004C28.1028 26.6293 28.1865 26.6873 28.2428 26.7447C28.2998 26.8027 28.3641 26.8977 28.3641 26.9915V28.2568C28.3641 28.461 28.5271 28.627 28.7278 28.627H30.3645C30.5651 28.627 30.7282 28.461 30.7282 28.2568V27.1545C30.7282 27.0168 30.7445 26.865 30.8361 26.7706C30.9276 26.6762 31.0488 26.6188 31.1295 26.6188H38.8048C39.7796 26.6188 40.4785 26.8021 40.9022 27.1686C41.3259 27.5137 41.5375 28.1068 41.5375 28.948C41.5375 29.7892 41.3259 30.4255 40.9022 30.7922C40.4785 31.1371 39.7796 31.3099 38.8048 31.3099H31.1301C30.9294 31.3099 30.7664 31.4759 30.7664 31.6808V35.3037C30.7664 35.5098 30.9306 35.6777 31.1331 35.6777H39.3771C41.7072 35.6777 43.4549 35.1494 44.6199 34.0922C45.785 33.0356 46.3676 31.5574 46.3676 29.6596C46.3676 28.1716 45.8698 26.9743 44.8739 26.0682ZM40.1075 22.1208C39.7263 22.4442 39.1013 22.6059 38.2326 22.6059H31.3525C31.1167 22.6059 30.9464 22.5757 30.8724 22.5183C30.7985 22.4609 30.7664 22.3813 30.7664 22.2683V18.3671H38.1696C39.0595 18.3671 39.7056 18.5399 40.1082 18.8849C40.5107 19.2083 40.7119 19.7478 40.7119 20.5026C40.7119 21.2574 40.51 21.7758 40.1075 22.1208Z" fill="#6C717D"/>
</g>
<defs>
<clipPath id="clip0_4327_10398">
<rect width="118" height="22" fill="white" transform="translate(26 14)"/>
</clipPath>
</defs>
</svg>
