<svg width="170" height="49" viewBox="0 0 170 49" fill="none" xmlns="http://www.w3.org/2000/svg">
<path d="M38.7382 23.357C38.8525 23.4367 38.9523 23.4568 39.0441 23.493C40.3279 23.9921 41.0427 24.9499 41.2922 26.2764C41.4017 26.86 41.3928 27.4475 41.2761 28.0303C41.0547 29.1379 40.4333 29.9629 39.4763 30.5489C38.8557 30.9288 38.1756 31.1437 37.4648 31.2725C36.9626 31.3634 36.4555 31.3932 35.9443 31.3924C33.7324 31.3892 31.5205 31.3908 29.3086 31.3908C29.0865 31.3908 28.9751 31.2805 28.9746 31.06C28.9746 26.3657 28.9746 21.6715 28.9746 16.9772C28.9746 16.7567 29.0849 16.6464 29.3054 16.6464C31.531 16.6464 33.7558 16.6464 35.9814 16.6464C36.6873 16.6464 37.3859 16.7116 38.0725 16.8847C38.599 17.0175 39.0843 17.2396 39.5125 17.5737C40.0333 17.9802 40.3529 18.5235 40.5187 19.1537C40.6861 19.7896 40.707 20.4343 40.5863 21.0823C40.4478 21.826 40.0591 22.4168 39.4739 22.8869C39.255 23.0632 39.0167 23.2121 38.7358 23.3554L38.7382 23.357ZM34.3257 28.8183C34.3257 28.8183 34.3257 28.8135 34.3257 28.8111C34.9157 28.8111 35.5049 28.8167 36.0949 28.8087C36.4112 28.8046 36.7187 28.737 37.0149 28.6195C37.588 28.3925 37.9188 27.9707 38.0315 27.3743C38.1031 26.9952 38.0806 26.6161 37.9993 26.2394C37.889 25.7266 37.5896 25.366 37.1227 25.1326C36.7501 24.9459 36.354 24.8549 35.9403 24.8533C34.8078 24.8477 33.6753 24.8501 32.5428 24.8501C32.2828 24.8501 32.2788 24.8549 32.278 25.1246C32.278 26.2611 32.278 27.3976 32.278 28.5342C32.278 28.5809 32.2796 28.6275 32.2804 28.6742C32.2828 28.762 32.3255 28.8119 32.4148 28.8151C32.4752 28.8175 32.5355 28.8183 32.5959 28.8183C33.1722 28.8183 33.7485 28.8183 34.3249 28.8183H34.3257ZM34.1244 22.5907C34.634 22.5907 35.1427 22.5939 35.6522 22.5883C36.0112 22.5843 36.3565 22.5078 36.6792 22.3452C37.0889 22.1383 37.3368 21.8115 37.4286 21.3616C37.4745 21.1362 37.4729 20.9092 37.4632 20.6831C37.4367 20.0568 37.0865 19.5964 36.4941 19.3912C36.0699 19.2447 35.628 19.2109 35.1869 19.2052C34.2894 19.1932 33.3912 19.2004 32.4937 19.202C32.2933 19.202 32.2796 19.2165 32.2796 19.4234C32.2788 20.3989 32.2788 21.3753 32.2796 22.3508C32.2796 22.5802 32.2909 22.5907 32.517 22.5915C33.0531 22.5931 33.5892 22.5915 34.1252 22.5915L34.1244 22.5907Z" fill="#666F84"/>
<path d="M62.6045 24.0227C62.6045 21.682 62.6045 19.3413 62.6045 17.0014C62.6045 16.607 62.6174 16.6481 62.9546 16.6481C64.979 16.6481 67.0033 16.6465 69.0277 16.6481C70.0105 16.6481 70.9611 16.8187 71.8706 17.1962C73.1239 17.717 74.0745 18.5766 74.7289 19.7599C75.2143 20.6372 75.4919 21.5814 75.6143 22.5746C75.6924 23.2137 75.7165 23.8545 75.6827 24.496C75.6183 25.7283 75.3978 26.9308 74.8247 28.0368C73.8853 29.8511 72.3987 30.9369 70.3759 31.2798C69.9187 31.357 69.4583 31.39 68.9955 31.39C66.9647 31.39 64.9339 31.39 62.9023 31.39C62.6061 31.39 62.6053 31.3892 62.6053 31.0826C62.6053 28.729 62.6053 26.3746 62.6053 24.0211L62.6045 24.0227ZM65.9062 24.0227C65.9062 25.4337 65.9062 26.8439 65.9062 28.2549C65.9062 28.3217 65.9038 28.3885 65.9087 28.4553C65.9183 28.5809 65.9417 28.6042 66.0664 28.6147C66.1131 28.6187 66.1598 28.6171 66.2073 28.6171C67.0581 28.6171 67.9097 28.6171 68.7605 28.6171C68.9617 28.6171 69.1613 28.605 69.3617 28.5777C70.6198 28.4054 71.4843 27.7285 71.989 26.571C72.3319 25.7854 72.4083 24.958 72.4035 24.1185C72.4019 23.786 72.3866 23.4512 72.3399 23.1188C72.2554 22.528 72.1427 21.9452 71.8924 21.3979C71.593 20.7443 71.1374 20.2372 70.491 19.9056C69.8704 19.5876 69.2104 19.4363 68.5166 19.429C67.7463 19.421 66.9752 19.4242 66.2049 19.4242C65.9087 19.4242 65.9079 19.425 65.9079 19.7301C65.9079 21.1612 65.9079 22.5915 65.9079 24.0227H65.9062Z" fill="#666F84"/>
<path d="M52.869 24.4312C53.2908 24.5705 53.6369 24.7556 53.9291 25.0325C54.3283 25.4108 54.5891 25.8744 54.7364 26.3984C54.9143 27.0319 54.994 27.6798 55.0205 28.3383C55.0487 29.0257 55.0688 29.7139 55.2113 30.3916C55.2708 30.6757 55.3594 30.9462 55.5043 31.1981C55.596 31.3583 55.5783 31.3897 55.3876 31.3913C54.9247 31.3945 54.4627 31.3921 53.9999 31.3921C53.5242 31.3921 53.0485 31.3929 52.572 31.3921C52.3418 31.3921 52.3265 31.38 52.2556 31.1675C52.089 30.6685 52.0222 30.1517 51.9876 29.6309C51.9441 28.9701 51.8846 28.3117 51.7767 27.6581C51.7067 27.2339 51.5851 26.825 51.3461 26.458C51.1239 26.1167 50.814 25.8986 50.4269 25.7851C50.1492 25.7038 49.8659 25.6563 49.5753 25.6555C48.516 25.6539 47.4576 25.6539 46.3983 25.6531C46.3717 25.6531 46.3444 25.6547 46.3178 25.6539C46.2204 25.6523 46.1657 25.6925 46.1689 25.7963C46.1705 25.8567 46.1689 25.9171 46.1689 25.9766C46.1689 27.675 46.1689 29.3734 46.1689 31.0725C46.1689 31.2856 46.0616 31.3924 45.8469 31.3929C44.9752 31.3929 44.1043 31.3929 43.2326 31.3929C43.1859 31.3929 43.1384 31.3937 43.0917 31.3929C42.909 31.3857 42.8905 31.3663 42.8865 31.1772C42.8848 31.0903 42.8865 31.0033 42.8865 30.9164C42.8865 26.2825 42.8865 21.6478 42.8865 17.0139C42.8865 16.6372 42.8583 16.6493 43.243 16.6493C45.7769 16.6493 48.31 16.6517 50.8438 16.6477C51.6165 16.6469 52.3506 16.8039 53.0332 17.162C54.2389 17.7955 54.9368 18.8033 55.134 20.141C55.2676 21.0474 55.1404 21.9255 54.738 22.7586C54.4265 23.4041 53.9419 23.875 53.3149 24.2091C53.1797 24.2807 53.0412 24.3459 52.8698 24.432L52.869 24.4312ZM48.2367 23.2826C48.7527 23.2826 49.2686 23.2826 49.7854 23.2818C50.0067 23.2818 50.2265 23.2681 50.4454 23.2271C51.2318 23.0782 51.6793 22.6443 51.8331 21.8627C51.9015 21.5134 51.9047 21.1617 51.8685 20.8059C51.7904 20.0372 51.3598 19.5212 50.6128 19.3176C50.2595 19.221 49.8972 19.2081 49.5366 19.2049C48.5112 19.1953 47.4857 19.2017 46.4603 19.2017C46.4136 19.2017 46.3661 19.2025 46.3194 19.2049C46.2244 19.2089 46.1689 19.2532 46.1705 19.3538C46.1705 19.3941 46.1697 19.4343 46.1697 19.4746C46.1697 20.6578 46.1697 21.8418 46.1697 23.025C46.1697 23.0717 46.1697 23.1184 46.1721 23.1651C46.1753 23.2375 46.2172 23.2746 46.2872 23.2786C46.3476 23.2826 46.408 23.2834 46.4683 23.2834C47.0583 23.2834 47.6483 23.2834 48.2375 23.2834L48.2367 23.2826Z" fill="#666F84"/>
<path d="M87.9209 29.8135C87.8323 29.8441 87.8034 29.9093 87.7615 29.9584C87.3373 30.4598 86.8479 30.8816 86.2571 31.1754C85.5689 31.5167 84.8364 31.6946 84.0694 31.7147C83.027 31.742 82.0088 31.6004 81.0357 31.214C79.5876 30.6385 78.4841 29.6638 77.7041 28.3204C77.1584 27.381 76.8453 26.3652 76.7149 25.2907C76.5394 23.8491 76.6521 22.4348 77.127 21.0568C77.49 20.0048 78.0374 19.0639 78.8294 18.2734C79.7913 17.3132 80.9479 16.7183 82.2776 16.4511C82.9039 16.3256 83.5389 16.262 84.1764 16.2998C85.709 16.3908 87.1127 16.8407 88.2879 17.8629C89.2297 18.6815 89.8205 19.7086 90.0515 20.9369C90.0764 21.0681 90.099 21.2001 90.1175 21.3321C90.1416 21.5036 90.1191 21.5285 89.9396 21.5285C89.4035 21.5285 88.8675 21.5285 88.3306 21.5285C88.0086 21.5285 87.6875 21.5301 87.3655 21.5285C86.9558 21.5261 87.0186 21.5679 86.9027 21.1904C86.8181 20.9144 86.7047 20.6512 86.5509 20.4057C86.1621 19.7867 85.6051 19.3899 84.9065 19.1991C84.1515 18.993 83.39 19.0107 82.6455 19.2442C81.7311 19.5307 81.0703 20.132 80.6139 20.9651C80.2654 21.6026 80.0746 22.2875 79.9957 23.0063C79.953 23.3919 79.9088 23.7782 79.9233 24.1662C79.953 24.984 80.0335 25.7937 80.3571 26.56C80.6179 27.1774 80.9632 27.7336 81.4848 28.1723C81.9702 28.5803 82.5239 28.8283 83.1485 28.92C83.778 29.0126 84.4042 28.9949 85.0256 28.8548C86.0986 28.6125 86.7956 27.9549 87.1546 26.9279C87.2584 26.63 87.3252 26.3234 87.3599 26.0095C87.3735 25.8823 87.3623 25.8678 87.2399 25.8589C87.1868 25.8549 87.1329 25.8573 87.0789 25.8573C86.2072 25.8573 85.3363 25.8573 84.4646 25.8573C84.4107 25.8573 84.3575 25.8589 84.3036 25.8557C84.1563 25.8469 84.1265 25.8227 84.1257 25.6746C84.1233 24.9727 84.1225 24.27 84.1257 23.5682C84.1257 23.4289 84.1547 23.408 84.2923 23.3983C84.339 23.3951 84.3865 23.3967 84.4332 23.3967C86.2966 23.3967 88.1599 23.3967 90.0233 23.3967C90.3662 23.3967 90.367 23.3983 90.367 23.742C90.367 26.1696 90.367 28.5973 90.367 31.0249C90.367 31.2706 90.2473 31.3935 90.008 31.3935C89.5049 31.3935 89.0027 31.3943 88.4996 31.3935C88.2646 31.3935 88.2525 31.3847 88.2066 31.1585C88.131 30.785 88.0585 30.4107 87.9861 30.0364C87.9724 29.9648 87.9603 29.8932 87.9209 29.8151V29.8135Z" fill="#666F84"/>
<path d="M92.2962 24.0043C92.2962 21.6636 92.2962 19.3229 92.2962 16.9822C92.2962 16.7595 92.4054 16.6482 92.6238 16.6482C96.0962 16.6482 99.5686 16.6482 103.041 16.6482C103.381 16.6482 103.369 16.6361 103.369 16.9798C103.369 17.6817 103.369 18.3844 103.369 19.0863C103.369 19.1466 103.367 19.207 103.367 19.2666C103.367 19.3648 103.315 19.4147 103.22 19.4195C103.14 19.4235 103.059 19.4243 102.979 19.4243C100.633 19.4243 98.2863 19.4243 95.94 19.4243C95.7125 19.4243 95.5987 19.5376 95.5987 19.764C95.5987 20.5802 95.5987 21.3956 95.5987 22.2117C95.5987 22.2584 95.5971 22.3059 95.6003 22.3518C95.6092 22.4814 95.6277 22.4991 95.7565 22.5079C95.7895 22.5104 95.8233 22.5079 95.8571 22.5079C98.0424 22.5079 100.228 22.5079 102.413 22.5071C102.621 22.5071 102.725 22.6094 102.725 22.8138C102.725 23.4763 102.725 24.1379 102.725 24.8003C102.725 25.0813 102.723 25.0829 102.426 25.0829C100.428 25.0829 98.4304 25.0829 96.4326 25.0829C96.2314 25.0829 96.0302 25.0813 95.8289 25.0829C95.6148 25.0853 95.5995 25.0998 95.5987 25.3115C95.5971 25.9803 95.5987 26.6492 95.5987 27.3181C95.5987 27.6594 95.5987 28.0007 95.5987 28.3411C95.5987 28.6148 95.5995 28.6156 95.8829 28.6156C97.0427 28.6156 98.2026 28.6156 99.3617 28.6156C100.622 28.6156 101.882 28.6156 103.142 28.6156C103.203 28.6156 103.263 28.614 103.323 28.6164C103.507 28.6237 103.528 28.6422 103.528 28.8313C103.53 29.6137 103.53 30.3961 103.528 31.1785C103.528 31.366 103.507 31.3829 103.319 31.3885C103.265 31.3902 103.212 31.3885 103.158 31.3885C99.6587 31.3885 96.1589 31.3885 92.66 31.3885C92.4169 31.3885 92.2951 31.2667 92.2946 31.0231C92.2946 28.6824 92.2946 26.3417 92.2946 24.0011L92.2962 24.0043Z" fill="#666F84"/>
<path d="M114.476 21.0809C114.027 21.0809 113.578 21.0817 113.129 21.0809C112.913 21.0801 112.906 21.0704 112.881 20.8603C112.849 20.6068 112.791 20.3605 112.689 20.1255C112.419 19.5033 111.92 19.162 111.282 19.005C110.645 18.8481 109.996 18.8159 109.346 18.9205C108.84 19.0018 108.402 19.2159 108.085 19.6353C108.045 19.6884 108.005 19.7431 107.97 19.7995C107.766 20.1295 107.761 20.8418 107.963 21.1726C108.12 21.431 108.373 21.5703 108.638 21.6894C108.993 21.8496 109.364 21.9671 109.74 22.0677C110.614 22.3011 111.491 22.5233 112.369 22.7414C113.018 22.9032 113.667 23.0747 114.269 23.3829C115.105 23.8111 115.755 24.4269 116.199 25.2544C116.434 25.6922 116.533 26.1679 116.564 26.6605C116.603 27.2811 116.545 27.888 116.343 28.4796C115.998 29.485 115.353 30.2448 114.441 30.7809C113.625 31.2598 112.733 31.5117 111.801 31.6389C111.188 31.7218 110.571 31.746 109.956 31.709C108.789 31.6389 107.657 31.4144 106.614 30.8509C105.583 30.2939 104.85 29.4713 104.428 28.379C104.267 27.9653 104.18 27.5323 104.155 27.0888C104.146 26.9358 104.11 26.7837 104.125 26.6291C104.137 26.4939 104.16 26.469 104.296 26.4569C104.342 26.4529 104.39 26.4545 104.436 26.4545C105.288 26.4545 106.139 26.4545 106.99 26.4545C107.044 26.4545 107.097 26.4561 107.151 26.4585C107.254 26.4625 107.306 26.5084 107.316 26.6179C107.335 26.8103 107.344 27.0042 107.39 27.1942C107.568 27.9098 107.969 28.4474 108.636 28.7807C109.1 29.0125 109.595 29.1244 110.105 29.163C110.614 29.2008 111.125 29.1896 111.627 29.0882C112.036 29.0053 112.429 28.8708 112.769 28.6149C113.329 28.1923 113.466 27.7126 113.343 26.9978C113.282 26.6477 113.03 26.4142 112.758 26.2098C112.471 25.9949 112.147 25.8516 111.811 25.7309C111.413 25.5868 111.007 25.4741 110.596 25.3743C109.659 25.1457 108.723 24.9115 107.806 24.6104C107.177 24.4044 106.586 24.1218 106.059 23.7194C105.135 23.0127 104.639 22.0894 104.634 20.9119C104.631 20.3516 104.673 19.8003 104.885 19.2771C105.243 18.3901 105.859 17.7196 106.667 17.2173C107.414 16.7529 108.236 16.5025 109.101 16.377C110.412 16.187 111.695 16.3351 112.95 16.736C113.634 16.9549 114.258 17.2978 114.774 17.8025C115.48 18.4939 115.914 19.331 116.038 20.3178C116.059 20.4901 116.082 20.6623 116.08 20.837C116.078 21.0632 116.067 21.0801 115.846 21.0817C115.612 21.0841 115.377 21.0817 115.143 21.0817C114.921 21.0817 114.7 21.0817 114.479 21.0817L114.476 21.0809Z" fill="#666F84"/>
<path d="M117.833 24.0223C117.833 21.6744 117.833 19.3273 117.833 16.9793C117.833 16.7588 117.944 16.6482 118.164 16.6477C120.289 16.6477 122.415 16.6477 124.54 16.6477C125.277 16.6477 125.996 16.7419 126.692 16.9954C127.706 17.3649 128.506 17.9919 129.034 18.9409C129.29 19.4013 129.44 19.9012 129.533 20.4171C129.735 21.5295 129.601 22.6041 129.131 23.6295C128.775 24.4063 128.2 24.993 127.463 25.4269C126.749 25.8487 125.969 26.0459 125.149 26.0958C123.931 26.169 122.71 26.1119 121.49 26.1272C121.136 26.132 121.135 26.128 121.135 26.4765C121.135 28.0018 121.135 29.5263 121.135 31.0516C121.135 31.2775 121.026 31.3905 120.806 31.3905C119.921 31.3905 119.036 31.3905 118.151 31.3905C118.098 31.3905 118.044 31.3929 117.99 31.3881C117.868 31.3768 117.845 31.3518 117.836 31.2247C117.831 31.1579 117.834 31.0911 117.834 31.0242C117.834 28.69 117.834 26.3558 117.834 24.0215L117.833 24.0223ZM121.135 21.3758C121.135 22.0036 121.135 22.6322 121.135 23.2601C121.135 23.3204 121.135 23.3808 121.141 23.4404C121.147 23.5104 121.188 23.5482 121.258 23.553C121.299 23.5555 121.339 23.5563 121.379 23.5563C122.196 23.5563 123.014 23.5563 123.831 23.5547C124.2 23.5539 124.566 23.5096 124.926 23.4291C125.182 23.3719 125.43 23.2866 125.646 23.1321C126.076 22.823 126.316 22.3988 126.399 21.8788C126.455 21.5384 126.452 21.1995 126.394 20.8614C126.304 20.3358 126.052 19.9124 125.591 19.6211C125.285 19.4271 124.947 19.3313 124.593 19.2765C124.201 19.2162 123.806 19.2105 123.412 19.2033C122.756 19.192 122.099 19.2001 121.442 19.2001C121.395 19.2001 121.348 19.1985 121.301 19.2009C121.163 19.2089 121.145 19.2274 121.137 19.3699C121.134 19.423 121.135 19.477 121.135 19.5301C121.135 20.1451 121.135 20.76 121.135 21.3742V21.3758Z" fill="#666F84"/>
<path d="M152.936 16.6476C154.854 16.6476 156.77 16.6476 158.688 16.6476C158.895 16.6476 158.999 16.7506 159 16.9567C159 17.6722 159 18.3878 159 19.1034C159 19.1637 158.998 19.2233 158.997 19.2837C158.994 19.3626 158.951 19.4084 158.874 19.4157C158.8 19.4221 158.726 19.4237 158.653 19.4237C157.392 19.4237 156.133 19.4237 154.872 19.4237C154.582 19.4237 154.58 19.4237 154.58 19.7095C154.58 23.4813 154.58 27.2531 154.58 31.0249C154.58 31.4073 154.61 31.3912 154.204 31.3912C153.353 31.3912 152.502 31.3912 151.65 31.3912C151.61 31.3912 151.57 31.3912 151.529 31.3912C151.321 31.3863 151.302 31.3694 151.301 31.1577C151.299 30.7963 151.301 30.4357 151.301 30.0743C151.301 26.6374 151.301 23.1996 151.301 19.7626C151.301 19.4221 151.33 19.4237 150.96 19.4237C149.706 19.4245 148.452 19.4237 147.199 19.4237C146.887 19.4237 146.883 19.4189 146.883 19.1122C146.883 18.3902 146.883 17.6674 146.883 16.9454C146.883 16.9052 146.881 16.8649 146.884 16.8247C146.895 16.6749 146.915 16.6548 147.066 16.6476C147.133 16.6444 147.201 16.646 147.267 16.646C149.157 16.646 151.048 16.646 152.938 16.646L152.936 16.6476Z" fill="#666F84"/>
<path d="M130.98 24.0102C130.98 21.6631 130.98 19.316 130.98 16.9681C130.98 16.755 131.086 16.6482 131.3 16.6477C132.185 16.6477 133.07 16.6477 133.955 16.6477C133.975 16.6477 133.995 16.6477 134.015 16.6477C134.252 16.6509 134.261 16.6574 134.261 16.8996C134.261 18.2374 134.261 19.5744 134.261 20.9121C134.261 23.38 134.261 25.8479 134.261 28.3149C134.261 28.3552 134.26 28.3954 134.261 28.4357C134.267 28.591 134.283 28.6087 134.434 28.616C134.501 28.6192 134.569 28.6176 134.635 28.6176C136.794 28.6176 138.952 28.6176 141.111 28.6176C141.335 28.6176 141.448 28.7281 141.448 28.9492C141.448 29.6648 141.448 30.3803 141.448 31.0959C141.448 31.38 141.436 31.3913 141.155 31.3913C137.864 31.3913 134.573 31.3913 131.281 31.3913C130.979 31.3913 130.979 31.3905 130.979 31.0919C130.979 28.7311 130.979 26.3702 130.979 24.0094L130.98 24.0102Z" fill="#666F84"/>
<path d="M13.0767 31.7165C12.5004 31.7165 11.9241 31.7165 11.3478 31.7165C11.3075 31.7165 11.2673 31.7181 11.2271 31.7157C11.1747 31.7125 11.1095 31.7326 11.0773 31.6819C11.0371 31.6175 11.0991 31.57 11.1329 31.5249C11.6963 30.7683 12.2614 30.0125 12.8264 29.2567C14.6254 26.85 16.4244 24.4433 18.2234 22.0374C18.3414 21.8791 18.4605 21.8804 18.5807 22.0414C19.7543 23.6118 20.9287 25.1822 22.1022 26.7526C23.2798 28.3286 24.4582 29.9046 25.6358 31.4806C25.6519 31.5024 25.6688 31.5225 25.6833 31.545C25.7074 31.5837 25.7517 31.6199 25.7316 31.6698C25.7058 31.7342 25.6406 31.71 25.5907 31.7165C25.5642 31.7197 25.5368 31.7173 25.5102 31.7173C24.3238 31.7173 23.1373 31.7133 21.9509 31.7213C21.7682 31.7221 21.6571 31.6569 21.5509 31.5144C20.5415 30.1549 19.5257 28.8011 18.5115 27.4448C18.4914 27.4182 18.4713 27.3917 18.4487 27.3667C18.4157 27.3305 18.3787 27.3305 18.3465 27.3667C18.3159 27.4021 18.2869 27.4392 18.2588 27.477C17.2695 28.8011 16.2803 30.1252 15.2911 31.4492C15.2629 31.4871 15.2299 31.5217 15.2073 31.5619C15.1357 31.6883 15.0262 31.7205 14.8862 31.7189C14.2833 31.7141 13.6796 31.7165 13.0767 31.7165Z" fill="#666F84"/>
<path d="M60.44 24.0238C60.44 26.3636 60.44 28.7035 60.44 31.0442C60.44 31.276 60.3268 31.3919 60.1004 31.3919C59.2158 31.3919 58.3312 31.3919 57.4466 31.3919C57.1496 31.3919 57.1399 31.3831 57.1399 31.0901C57.1399 26.3701 57.1399 21.6493 57.1399 16.9293C57.1399 16.9091 57.1399 16.889 57.1399 16.8689C57.1463 16.6677 57.1616 16.6492 57.3588 16.6484C57.7943 16.6459 58.2297 16.6484 58.666 16.6484C59.182 16.6484 59.6979 16.6475 60.2139 16.6484C60.4175 16.6484 60.4336 16.6669 60.44 16.8633C60.4416 16.9236 60.44 16.984 60.44 17.0436C60.44 19.3706 60.44 21.6968 60.44 24.0238Z" fill="#666F84"/>
<path d="M145.877 24.0251C145.877 26.3448 145.877 28.6646 145.877 30.9843C145.877 31.0648 145.88 31.1453 145.873 31.225C145.861 31.3562 145.833 31.3804 145.696 31.3908C145.663 31.3932 145.63 31.3924 145.596 31.3924C144.691 31.3924 143.786 31.3924 142.883 31.3924C142.588 31.3924 142.578 31.382 142.578 31.0882C142.578 26.3682 142.578 21.649 142.578 16.929C142.578 16.9088 142.578 16.8887 142.578 16.8686C142.584 16.6682 142.6 16.6497 142.799 16.6488C143.248 16.6472 143.697 16.6488 144.145 16.6488C144.648 16.6488 145.151 16.648 145.653 16.6488C145.854 16.6488 145.872 16.6682 145.877 16.8662C145.88 16.9934 145.877 17.1205 145.877 17.2469C145.877 19.5063 145.877 21.7657 145.877 24.0259V24.0251Z" fill="#666F84"/>
<path d="M18.3939 20.244C16.0613 20.244 13.7287 20.244 11.3952 20.244C11.0362 20.244 11.0008 20.2102 11 19.8584C11 19.0221 11 18.1866 11 17.3503C11 17.3165 11 17.2835 11.0008 17.2497C11.0113 17.0396 11.0732 16.9784 11.2833 16.9696C11.3437 16.9672 11.4041 16.9688 11.4644 16.9688C16.0903 16.9688 20.7153 16.9688 25.3411 16.9688C25.3951 16.9688 25.4482 16.968 25.5021 16.9688C25.7194 16.976 25.7919 17.0388 25.7975 17.2594C25.8056 17.5805 25.8007 17.9017 25.8007 18.222C25.8007 18.7573 25.8015 19.2918 25.8007 19.827C25.8007 20.2078 25.7653 20.2424 25.3926 20.2424C23.06 20.2424 20.7274 20.2424 18.3939 20.2424V20.244Z" fill="#666F84"/>
</svg>
