<svg width="171" height="49" viewBox="0 0 171 49" fill="none" xmlns="http://www.w3.org/2000/svg">
<path d="M21.6271 30.9757L21.6285 30.9749C21.7876 30.8647 21.9366 30.7638 22.0801 30.6669C22.5989 30.3162 23.0413 30.0171 23.6031 29.5147C23.8555 29.2889 24.0762 29.0999 24.2791 28.9262C24.6676 28.5935 24.9907 28.317 25.3444 27.9467C25.7645 27.5073 26.1065 27.1272 26.3938 26.808C26.4738 26.7191 26.5495 26.635 26.6215 26.5557L26.623 26.5539L26.6246 26.5521L26.9105 26.2027V31.3546C26.8863 31.3762 26.8592 31.3988 26.828 31.4248C26.822 31.4298 26.8161 31.4349 26.8097 31.4401C26.7591 31.4825 26.7009 31.5319 26.636 31.5936C26.4887 31.7103 26.1896 31.901 25.7091 32.167C25.2269 32.4336 24.7458 32.6757 24.2394 32.8935C23.7113 33.1099 23.0546 33.3031 22.2683 33.4729C21.4577 33.642 20.6487 33.7387 19.8407 33.7387C16.7233 33.7387 14.0419 32.8914 11.8166 31.1757L11.816 31.1753C9.59133 29.4841 8.48633 27.4618 8.48633 25.0814C8.48633 23.1832 9.28991 21.3517 10.9104 19.5855C12.5273 17.8231 14.5983 16.7364 17.1533 16.3254L17.1546 16.3252C19.7934 15.8688 22.8912 16.3427 26.402 17.7345L26.5468 23.6192C26.2641 23.2683 25.948 22.7901 25.6127 22.2095L25.6116 22.2074C25.4154 21.8874 25.223 21.556 25.0354 21.2328C25.0166 21.2002 24.9977 21.1676 24.9789 21.1352C24.7737 20.7819 24.5743 20.4407 24.3834 20.1405C24.3639 20.1098 24.3451 20.0803 24.3271 20.0519C23.9846 19.5132 23.8996 19.3797 23.3936 18.8449C22.8481 18.2682 22.1374 17.8003 21.4703 17.4325C20.7945 17.06 20.0397 16.836 19.2318 16.8109C17.065 16.7371 15.5221 17.4042 14.6064 18.8292C13.7004 20.2393 13.2658 21.9786 13.2658 25.0814C13.2658 27.0119 13.4193 28.2309 13.7531 29.483C14.0613 30.7346 14.4759 31.4574 15.031 31.9379C15.5788 32.4362 16.184 32.7394 16.897 32.815C17.6099 32.8909 18.3727 32.7001 19.0921 32.3677C19.8445 32.0201 20.856 31.4912 21.6271 30.9757Z" fill="#666F84"/>
<path d="M39.4517 16.2098L39.467 16.0254L39.4648 16.0253L39.4517 16.2098ZM28.7911 24.3504L28.9828 24.3763L28.9831 24.3745L28.7911 24.3504ZM30.653 30.7362L30.8021 30.6181L30.8013 30.6172L30.653 30.7362ZM36.9524 33.7825L36.9677 33.598H36.9657L36.9524 33.7825ZM47.5877 25.6908L47.7797 25.7164V25.7149L47.5877 25.6908ZM31.202 30.1584L31.3511 30.0404L31.3503 30.0396L31.202 30.1584ZM30.5243 27.6077L30.7132 27.6478L30.7136 27.6463L30.714 27.6448L30.5243 27.6077ZM32.1688 24.6138L32.0221 24.4932L32.0205 24.4948L32.1688 24.6138ZM35.6987 21.6911L35.8056 21.8455L35.8071 21.8444L35.8089 21.8433L35.6987 21.6911ZM38.1833 20.1404L38.0867 19.9802L38.0843 19.9815L38.0818 19.9828L38.1833 20.1404ZM42.2263 18.532L42.2111 18.3475L42.2062 18.3479L42.2013 18.3485L42.2263 18.532ZM43.7099 18.7267L43.7806 18.5545L43.7773 18.5532L43.7736 18.552L43.7099 18.7267ZM45.8757 19.164C44.2598 17.2707 42.1187 16.2243 39.467 16.0254L39.4368 16.3943C41.9882 16.5857 44.0297 17.5866 45.5761 19.3979L45.8757 19.164ZM39.4648 16.0253C36.7892 15.8517 34.3951 16.5729 32.2916 18.1861L32.5339 18.4747C34.5622 16.9192 36.8606 16.2272 39.4389 16.3944L39.4648 16.0253ZM32.2916 18.1861C30.189 19.7985 28.9378 21.8636 28.5993 24.3263L28.9831 24.3745C29.308 22.0115 30.5049 20.0306 32.5339 18.4747L32.2916 18.1861ZM28.5994 24.3245C28.2353 26.7869 28.861 28.985 30.5047 30.8552L30.8013 30.6172C29.2313 28.8311 28.6333 26.7395 28.9828 24.3763L28.5994 24.3245ZM30.504 30.8542C32.1454 32.7461 34.2861 33.793 36.9392 33.9671L36.9657 33.598C34.4162 33.4308 32.3744 32.4303 30.8021 30.6181L30.504 30.8542ZM36.9371 33.9669C39.5627 34.1658 41.9577 33.4687 44.062 31.8553L43.8196 31.5667C41.7922 33.1215 39.4944 33.7895 36.9677 33.598L36.9371 33.9669ZM44.062 31.8553C46.1644 30.2429 47.4154 28.2029 47.7797 25.7164L47.3962 25.6651C47.046 28.0534 45.8489 30.0103 43.8196 31.5667L44.062 31.8553ZM47.7797 25.7149C48.1181 23.2535 47.4922 21.0571 45.8757 19.164L45.5761 19.3979C47.1225 21.209 47.7209 23.3024 47.3959 25.6667L47.7797 25.7149ZM45.1441 23.5385C44.7576 24.2551 44.2168 24.9895 43.4862 25.784L43.777 26.0282C44.5226 25.2172 45.0838 24.4581 45.4883 23.708L45.1441 23.5385ZM43.4862 25.784C42.8552 26.4704 42.0266 27.2023 40.8744 28.0884L41.1173 28.3768C42.2787 27.4834 43.1258 26.7366 43.777 26.0282L43.4862 25.784ZM40.8747 28.0884C39.5075 29.1384 38.2019 29.9437 36.9948 30.4849L37.1593 30.8198C38.401 30.2631 39.7328 29.44 41.1173 28.3768L40.8747 28.0884ZM36.9948 30.4849C35.9525 30.9523 34.9602 31.1853 34.0437 31.1853V31.5553C35.0287 31.5553 36.0774 31.3051 37.1593 30.8198L36.9948 30.4849ZM34.0437 31.1853C33.9322 31.1853 33.8203 31.1819 33.7106 31.175L33.6852 31.5442C33.8037 31.5516 33.9241 31.5553 34.0437 31.5553V31.1853ZM33.7106 31.175C32.7418 31.1144 31.9518 30.7332 31.3511 30.0404L31.053 30.2764C31.7236 31.0499 32.6133 31.4771 33.6852 31.5442L33.7106 31.175ZM31.3503 30.0396C30.7113 29.3106 30.5071 28.5349 30.7132 27.6478L30.3353 27.5676C30.1019 28.5718 30.3406 29.464 31.0536 30.2772L31.3503 30.0396ZM30.714 27.6448C30.9171 26.6952 31.4516 25.7163 32.3169 24.7329L32.0205 24.4948C31.1258 25.5117 30.5541 26.5452 30.3346 27.5707L30.714 27.6448ZM32.3156 24.7345C33.2616 23.6838 34.4356 22.7109 35.8056 21.8455L35.5921 21.5368C34.1961 22.4187 32.9941 23.4136 32.0221 24.4932L32.3156 24.7345ZM35.8089 21.8433C36.6332 21.2985 37.442 20.7935 38.2845 20.298L38.0818 19.9828C37.2331 20.482 36.4185 20.9904 35.5886 21.539L35.8089 21.8433ZM38.28 20.3007C38.9457 19.9339 39.6587 19.5858 40.3943 19.2682L40.2351 18.931C39.4883 19.2533 38.7637 19.607 38.0867 19.9802L38.28 20.3007ZM40.3943 19.2682C41.0945 18.9659 41.7188 18.782 42.2516 18.7154L42.2013 18.3485C41.6194 18.4212 40.9576 18.619 40.2351 18.931L40.3943 19.2682ZM42.2415 18.7164C42.3174 18.7107 42.4138 18.7069 42.504 18.7069V18.3369C42.4043 18.3369 42.2976 18.341 42.2111 18.3475L42.2415 18.7164ZM42.504 18.7069C42.8768 18.7069 43.2496 18.7698 43.6465 18.9015L43.7736 18.552C43.3404 18.4082 42.9244 18.3369 42.504 18.3369V18.7069ZM43.6392 18.899C44.0873 19.0668 44.493 19.3595 44.8722 19.8025L45.1719 19.5684C44.7585 19.0859 44.3013 18.7496 43.7806 18.5545L43.6392 18.899ZM44.8719 19.8022C45.3411 20.3522 45.5834 20.9202 45.6242 21.543L46.0105 21.5199C45.9644 20.8112 45.6861 20.1711 45.1719 19.5684L44.8719 19.8022ZM45.6242 21.543C45.6669 22.2025 45.513 22.8537 45.1441 23.5385L45.4883 23.708C45.8846 22.9725 46.0583 22.2552 46.0105 21.5199L45.6242 21.543Z" fill="#666F84"/>
<path d="M81.2278 24.9645H81.3244H86.9531C88.4108 24.9645 89.61 24.5329 90.534 23.698C91.4597 22.8607 91.9063 21.9094 91.9063 20.8161C91.9063 19.578 91.3848 18.557 90.3118 17.7698C89.2369 16.9817 87.7554 16.5704 85.8563 16.5704H74.7825V33.4462H78.9501V17.2446V17.1529L79.0461 17.1521L82.1575 17.1279H82.1581C82.7404 17.1279 83.6521 17.128 84.2532 17.2778C84.8452 17.4255 85.3287 17.5883 85.8753 17.9119C86.4169 18.2323 86.7547 18.469 87.0979 19.049C87.4402 19.628 87.5344 20.1484 87.5344 20.8892C87.5344 21.2614 87.4954 21.5347 87.4122 21.7881C87.3293 22.0403 87.204 22.2683 87.0382 22.5489C86.6965 23.1265 86.2898 23.4568 85.7676 23.7314C85.2464 24.03 84.787 24.1635 84.3002 24.286C83.8048 24.4105 83.2092 24.4559 82.7702 24.4559H80.8547L80.8523 24.8869V24.8891C80.8273 25.7006 81.0269 26.4651 81.4284 27.208L81.4293 27.2102C81.8076 27.9576 82.2606 28.5572 82.7349 28.9869C83.2177 29.424 83.828 29.9344 84.5422 30.5193L84.5434 30.5204C85.2321 31.1054 85.7466 31.5722 86.0572 31.9186L87.4311 33.4462H92.5175C92.2578 32.4583 91.7646 31.5591 91.0372 30.748C90.2615 29.9109 89.2598 29.3599 88.0036 29.0958L81.2278 24.9645ZM81.2278 24.9645V25.057C81.2278 25.3132 81.2888 25.6291 81.4013 25.9334C81.5131 26.2364 81.679 26.5353 81.8942 26.7547C82.088 26.9766 82.2371 27.114 82.4145 27.2338C82.5758 27.343 82.7599 27.4364 83.0159 27.5667C83.0373 27.5776 83.0592 27.5888 83.0818 27.6003C83.7201 27.9254 84.3154 28.1652 84.9083 28.3378C85.4979 28.5337 86.0621 28.6807 86.5989 28.8029L86.601 28.8033L88.0033 29.0958L81.2278 24.9645Z" fill="#666F84"/>
<path d="M110.28 33.4462H109.569L117.63 18.8119L117.654 18.7684L117.63 18.725C117.581 18.639 117.536 18.5578 117.494 18.4811C117.382 18.2788 117.287 18.1082 117.193 17.9642L117.192 17.9618L117.19 17.9594C117.059 17.7842 116.803 17.5392 116.482 17.2329L116.465 17.2167C116.209 16.9724 115.91 16.757 115.568 16.5704H121.158L130.164 33.4462H125.307L122.5 27.9935L122.473 27.9418H122.413H113.346H113.288L113.26 27.9915L110.28 33.4462ZM118.038 19.3491L117.953 19.1862L117.866 19.3481L113.654 27.1519L113.581 27.2867H113.74H122.037H122.194L122.124 27.1529L118.038 19.3491Z" fill="#666F84"/>
<path d="M145.155 16.5704L145.872 22.4622C144.949 21.3953 143.744 20.1826 142.3 18.8248L142.299 18.8242C140.734 17.3776 139.742 17.1521 139.324 17.1521H138.712H138.615V17.2446V33.4462H134.754V17.2446V17.1521H134.657H134.096C133.679 17.1521 132.687 17.3776 131.121 18.8242C129.677 20.1592 128.472 21.3703 127.549 22.4566L128.265 16.5704H145.155Z" fill="#666F84"/>
<path d="M98.362 32.9182V33.0238L98.4717 33.0099L102.629 32.4849L102.616 32.3931L102.659 32.4762L109.993 29.0304L107.254 33.4462H94.1691V16.5704H109.584V20.8664C108.98 20.5949 108.31 20.2349 107.575 19.7703C107.333 19.6176 107.085 19.4547 106.83 19.2788C106.071 18.7555 105.594 18.5089 105.091 18.2481C104.864 18.1308 104.632 18.0106 104.366 17.861L104.364 17.8602L104.363 17.8594C103.45 17.3861 102.139 17.2252 101.392 17.2252H98.4589H98.362V17.3177V27.0932V27.2782L98.5169 27.1672C98.6187 27.0943 98.7193 27.0246 98.8192 26.9553C99.4185 26.54 100.001 26.1361 100.732 25.1091L100.749 25.0855V25.0824C100.809 24.9866 100.866 24.896 100.924 24.8052L100.934 24.7883C101.561 23.8034 102.064 23.1374 102.405 22.761H107.583L104.112 24.66L103.533 24.9768L98.4108 27.7797L98.362 27.8063V27.86V32.9182Z" fill="#666F84"/>
<path d="M49.943 29.3583C49.4665 28.903 48.8971 28.5264 48.3624 28.3597C48.8971 28.1929 49.4665 27.8163 49.943 27.361C50.4197 26.9057 50.8136 26.3614 50.9882 25.8503C51.1626 26.3614 51.5567 26.9057 52.0332 27.361C52.5096 27.8163 53.0791 28.1929 53.614 28.3597C53.0791 28.5264 52.5096 28.903 52.0332 29.3583C51.5567 29.8137 51.1626 30.3579 50.9882 30.869C50.8136 30.3579 50.4197 29.8137 49.943 29.3583Z" fill="#666F84"/>
<path d="M49.943 22.5341C49.4665 22.0787 48.8971 21.7021 48.3624 21.5354C48.8971 21.3686 49.4665 20.992 49.943 20.5367C50.4197 20.0814 50.8136 19.5372 50.9882 19.0261C51.1626 19.5372 51.5567 20.0814 52.0332 20.5367C52.5096 20.992 53.0791 21.3686 53.614 21.5354C53.0791 21.7021 52.5096 22.0787 52.0332 22.5341C51.5567 22.9894 51.1626 23.5336 50.9882 24.0447C50.8136 23.5336 50.4197 22.9894 49.943 22.5341Z" fill="#666F84"/>
<path d="M67.5642 30.9757L67.5654 30.9749C67.7245 30.8647 67.8736 30.7638 68.0171 30.6669C68.536 30.3162 68.9783 30.0171 69.5401 29.5147C69.7925 29.2889 70.0132 29.0999 70.2162 28.9262C70.6045 28.5935 70.9277 28.317 71.2813 27.9467C71.7016 27.5073 72.0436 27.1271 72.3308 26.8079C72.4107 26.7191 72.4866 26.635 72.5585 26.5557L72.56 26.5539L72.5615 26.5521L72.8475 26.2027V31.3546C72.8234 31.3762 72.7963 31.3988 72.7652 31.4248C72.7591 31.4298 72.753 31.4349 72.7466 31.4401C72.6963 31.4825 72.6378 31.5319 72.5731 31.5936C72.4256 31.7103 72.1266 31.9011 71.6461 32.167C71.1639 32.4336 70.6829 32.6757 70.1766 32.8935C69.648 33.1099 68.9917 33.3031 68.2052 33.4729C67.3947 33.642 66.5856 33.7387 65.7775 33.7387C62.6603 33.7387 59.9791 32.8914 57.7535 31.1757L57.7532 31.1753C55.5282 29.4841 54.4232 27.4618 54.4232 25.0814C54.4232 23.1832 55.2271 21.3517 56.8475 19.5855C58.4644 17.8231 60.5354 16.7364 63.0902 16.3254L63.0914 16.3252C65.7303 15.8688 68.8283 16.3427 72.339 17.7345L72.4838 23.6192C72.2012 23.2683 71.8851 22.7901 71.5498 22.2095L71.5486 22.2074C71.3526 21.8875 71.1599 21.5561 70.9728 21.2328C70.9536 21.2002 70.9347 21.1677 70.9158 21.1352C70.7106 20.7819 70.5113 20.4407 70.3204 20.1405C70.3009 20.1098 70.282 20.0803 70.264 20.0519C69.9217 19.5132 69.8367 19.3797 69.3306 18.8449C68.785 18.2682 68.0744 17.8003 67.4072 17.4325C66.7314 17.06 65.9766 16.836 65.1688 16.8109C63.0021 16.7371 61.459 17.4042 60.5433 18.8292C59.6373 20.2393 59.203 21.9786 59.203 25.0814C59.203 27.0119 59.3563 28.2309 59.6901 29.483C59.9983 30.7346 60.4128 31.4574 60.9679 31.9379C61.5157 32.4362 62.1211 32.7394 62.8341 32.815C63.5471 32.8909 64.3098 32.7001 65.0292 32.3677C65.7815 32.0201 66.7929 31.4912 67.5642 30.9757Z" fill="#666F84"/>
<path d="M151.381 32.9182V33.0238L151.491 33.0099L155.648 32.4849L155.635 32.3931L155.678 32.4762L163.012 29.0304L160.273 33.4462H147.188V16.5704H162.603V20.8664C161.998 20.5949 161.328 20.2349 160.593 19.7703C160.352 19.6176 160.104 19.4547 159.849 19.2788C159.089 18.7555 158.613 18.5089 158.109 18.2481C157.883 18.1308 157.651 18.0106 157.385 17.861L157.383 17.8602L157.382 17.8594C156.469 17.3861 155.158 17.2252 154.411 17.2252H151.478H151.381V17.3177V27.0932V27.2782L151.536 27.1672C151.638 27.0943 151.738 27.0246 151.838 26.9553C152.438 26.54 153.02 26.1361 153.751 25.1091L153.768 25.0855V25.0824C153.828 24.9862 153.886 24.8951 153.944 24.8038L153.954 24.7883C154.58 23.8034 155.082 23.1374 155.424 22.761H160.602L157.131 24.66L156.552 24.9768L151.43 27.7797L151.381 27.8063V27.86V32.9182Z" fill="#666F84"/>
<path d="M45.7253 19.2811C44.1445 17.4287 42.053 16.4051 39.4513 16.21C36.8246 16.0395 34.4783 16.7462 32.4123 18.3305C30.3465 19.9146 29.1225 21.9377 28.7907 24.3505C28.4339 26.7634 29.0456 28.9082 30.6526 30.7363C32.2594 32.5884 34.3507 33.612 36.952 33.7826C39.5281 33.9778 41.8744 33.2953 43.9402 31.7111C46.0061 30.1268 47.2303 28.1283 47.5872 25.6909C47.9189 23.2781 47.3071 21.1332 45.7253 19.2811ZM45.3156 23.6234C44.9203 24.3567 44.3694 25.1035 43.6311 25.9063C42.9901 26.6036 42.1524 27.3429 40.9956 28.2327C39.6196 29.2894 38.3009 30.1035 37.0766 30.6525C36.0146 31.1289 34.994 31.3705 34.0433 31.3705C33.9277 31.3705 33.8116 31.3669 33.6976 31.3597C32.6771 31.2959 31.8374 30.8917 31.2016 30.1585C30.5254 29.3874 30.3039 28.5535 30.5239 27.6079C30.7352 26.6203 31.2882 25.6141 32.1684 24.614C33.1274 23.5488 34.3155 22.5649 35.6983 21.6913C36.5253 21.1446 37.337 20.6379 38.1829 20.1405C38.8541 19.7706 39.5729 19.4197 40.3143 19.0997C41.0254 18.7926 41.6686 18.6017 42.2259 18.5321C42.3069 18.5259 42.4088 18.522 42.5036 18.522C42.9002 18.522 43.2946 18.5891 43.7095 18.7269C44.1939 18.9084 44.6252 19.2226 45.0215 19.6854C45.5132 20.2618 45.7735 20.8659 45.8171 21.5316C45.8622 22.229 45.6985 22.9133 45.3156 23.6234Z" fill="#666F84"/>
</svg>
