<svg width="95" height="30" viewBox="0 0 95 30" fill="none" xmlns="http://www.w3.org/2000/svg">
<g clip-path="url(#clip0_2777_5184)">
<path d="M83.6479 19.9891C83.6479 18.8032 84.6091 17.842 85.795 17.842C86.9809 17.842 87.9421 18.8032 87.9421 19.9891C87.9421 21.175 86.9809 22.1362 85.795 22.1362C84.6091 22.1362 83.6479 21.175 83.6479 19.9891Z" fill="#94A0BC"/>
<path d="M19.2978 14.1669C19.2978 16.6399 18.6346 18.5509 17.3025 19.8886C15.9704 21.2263 14.0988 21.9008 11.6875 21.9008H7V7.0625H12.0135C14.3405 7.0625 16.1334 7.66952 17.398 8.88918C18.6627 10.1088 19.2978 11.8625 19.2978 14.1669ZM15.2341 14.3074C15.2341 12.9472 14.97 11.9411 14.4472 11.2835C13.9245 10.6259 13.1264 10.2999 12.0529 10.2999H10.9119V18.6071H11.7831C12.9747 18.6071 13.8458 18.253 14.3967 17.5448C14.9531 16.8367 15.2285 15.7575 15.2285 14.3018" fill="#94A0BC"/>
<path d="M36.0029 7H32.2764V21.8945H36.0029V7Z" fill="#94A0BC"/>
<path d="M48.2384 16.3416C48.2384 18.1514 47.7663 19.5622 46.8108 20.5739C45.8609 21.5856 44.5288 22.0914 42.8202 22.0914C41.1115 22.0914 39.875 21.5743 38.9082 20.5402C37.9359 19.506 37.4525 18.1064 37.4525 16.3416C37.4525 14.5767 37.9303 13.1379 38.8801 12.1374C39.83 11.1369 41.1621 10.6367 42.882 10.6367C43.9443 10.6367 44.8829 10.8672 45.6923 11.328C46.5072 11.7889 47.1367 12.4522 47.5752 13.3177C48.0192 14.1777 48.2384 15.1894 48.2384 16.3416ZM41.2408 16.3416C41.2408 17.2915 41.3644 18.0165 41.6117 18.5111C41.859 19.0114 42.275 19.2587 42.8595 19.2587C43.444 19.2587 43.8487 19.0114 44.0848 18.5111C44.3208 18.0109 44.4445 17.2915 44.4445 16.3416C44.4445 15.3917 44.3265 14.6835 44.0848 14.2058C43.8431 13.7224 43.4272 13.4807 42.8426 13.4807C42.2581 13.4807 41.859 13.7224 41.6117 14.2002C41.3644 14.6779 41.2408 15.3917 41.2408 16.3416Z" fill="#94A0BC"/>
<path d="M53.4488 10.833H49.7224V21.8943H53.4488V10.833Z" fill="#94A0BC"/>
<path d="M53.4488 7H49.7224V9.49553H53.4488V7Z" fill="#94A0BC"/>
<path d="M61.0029 19.0736C61.5088 19.0736 62.1046 18.9443 62.8071 18.6914V21.4736C62.3013 21.6928 61.8292 21.8502 61.3739 21.9457C60.9186 22.0413 60.3847 22.0862 59.7777 22.0862C58.5243 22.0862 57.625 21.7715 57.0685 21.142C56.5177 20.5125 56.2423 19.5514 56.2423 18.2474V13.6891H54.9384V10.8282H56.2423V8.00672L60.0025 7.35474V10.8339H62.38V13.6947H60.0025V18.0001C60.0025 18.7139 60.3397 19.0736 61.0142 19.0736" fill="#94A0BC"/>
<path d="M69.6355 19.0736C70.1414 19.0736 70.7372 18.9443 71.4397 18.6914V21.4736C70.9395 21.6928 70.4617 21.8502 70.0065 21.9457C69.5512 22.0413 69.0173 22.0862 68.4102 22.0862C67.1569 22.0862 66.2576 21.7715 65.7011 21.142C65.1503 20.5125 64.8693 19.5514 64.8693 18.2474V13.6891H63.5597V10.8282H64.8693V7.96738L68.6238 7.35474V10.8339H71.0013V13.6947H68.6238V18.0001C68.6238 18.7139 68.9611 19.0736 69.6355 19.0736Z" fill="#94A0BC"/>
<path d="M81.4054 11.9407C80.5173 11.0751 79.2639 10.6367 77.634 10.6367C75.9253 10.6367 74.6101 11.1369 73.6827 12.1374C72.7609 13.1379 72.3 14.5711 72.3 16.4371C72.3 18.3032 72.8003 19.6409 73.7951 20.6245C74.79 21.6024 76.1895 22.0914 77.9881 22.0914C78.8536 22.0914 79.5955 22.0352 80.2194 21.9172C80.8377 21.7992 81.4391 21.5912 82.018 21.2877L81.4447 18.7922C81.0232 18.9664 80.6185 19.0957 80.2419 19.1856C79.6911 19.3149 79.0897 19.3767 78.4377 19.3767C77.7183 19.3767 77.1506 19.2025 76.7347 18.8484C76.3188 18.4943 76.0995 18.0109 76.0714 17.3926H82.7374V15.6952C82.7374 14.0596 82.2934 12.8063 81.4054 11.9407ZM76.1445 14.9927C76.1951 14.3856 76.3693 13.9416 76.6616 13.6606C76.9595 13.3796 77.3248 13.2334 77.7632 13.2334C78.241 13.2334 78.6176 13.3908 78.9042 13.7112C79.1909 14.0315 79.337 14.4587 79.3482 14.9927H76.1445Z" fill="#94A0BC"/>
<path d="M29.505 11.9407C28.6169 11.0751 27.3579 10.6367 25.7336 10.6367C24.0249 10.6367 22.7097 11.1369 21.7879 12.1374C20.8662 13.1379 20.4053 14.5711 20.4053 16.4371C20.4053 18.3032 20.9055 19.6409 21.9003 20.6245C22.8952 21.6024 24.2891 22.0914 26.0933 22.0914C26.9588 22.0914 27.7008 22.0352 28.3246 21.9172C28.9429 21.7992 29.5443 21.5912 30.1232 21.2877L29.5499 18.7922C29.1284 18.9664 28.7237 19.0957 28.3471 19.1856C27.7963 19.3149 27.1949 19.3767 26.5373 19.3767C25.8179 19.3767 25.2502 19.2025 24.8343 18.8484C24.4184 18.4943 24.1992 18.0109 24.171 17.3926H30.837V15.6952C30.837 14.0596 30.393 12.8063 29.505 11.9407ZM24.2441 14.9927C24.2947 14.3856 24.4689 13.9416 24.7668 13.6606C25.0647 13.3796 25.4301 13.2334 25.8685 13.2334C26.3462 13.2334 26.7228 13.3908 27.0094 13.7112C27.2905 14.0315 27.4422 14.4587 27.4535 14.9927H24.2497H24.2441Z" fill="#94A0BC"/>
</g>
<defs>
<clipPath id="clip0_2777_5184">
<rect width="80.9361" height="15.1306" fill="white" transform="translate(7 7)"/>
</clipPath>
</defs>
</svg>
