<svg width="170" height="49" viewBox="0 0 170 49" fill="none" xmlns="http://www.w3.org/2000/svg">
<mask id="mask0_4327_10372" style="mask-type:luminance" maskUnits="userSpaceOnUse" x="44" y="5" width="83" height="38">
<path d="M126.931 5.28906H44V42.2891H126.931V5.28906Z" fill="white"/>
</mask>
<g mask="url(#mask0_4327_10372)">
<path d="M110.551 21.5179C111.452 20.9113 112.529 20.6076 113.783 20.6076C115.07 20.6076 116.147 20.9272 117.016 21.5658C117.916 22.1725 118.543 23.0196 118.897 24.1054C119.019 24.4677 119.086 24.855 119.127 25.2549H108.217C108.3 24.8856 108.399 24.5309 108.525 24.2011C108.975 23.0196 109.65 22.1246 110.551 21.5179ZM125.941 22.716C125.362 21.1511 124.493 19.7936 123.384 18.5956C122.291 17.4141 120.928 16.5306 119.331 15.8646C117.723 15.1941 115.874 14.8586 113.783 14.8586C111.275 14.8586 109.024 15.4499 107.03 16.6314C105.035 17.8128 103.419 19.4121 102.253 21.4701C101.095 23.514 100.516 25.8457 100.516 28.465C100.516 30.988 101.079 33.2878 102.205 35.3636C103.331 37.4394 104.908 39.1236 106.981 40.3458C109.04 41.5592 111.468 42.1665 114.266 42.1665C116.066 42.1665 117.733 41.94 119.235 41.4003C120.747 40.8575 122.036 40.0907 123.142 39.1485C124.268 38.1903 125.088 37.0726 125.603 35.7948L119.814 33.0639C119.299 33.9582 118.568 34.6472 117.643 35.1722C116.742 35.6832 115.649 35.9384 114.363 35.9384C112.948 35.9384 111.727 35.6577 110.744 35.0281C109.747 34.3895 109.007 33.5111 108.525 32.3934C108.277 31.818 108.112 31.1935 108.026 30.5249H123.368H126.471C126.6 30.1734 126.68 29.7581 126.713 29.279C126.777 28.768 126.809 28.2571 126.809 27.7461C126.809 25.9254 126.509 24.2528 125.941 22.716ZM91.4646 15.3982V30.6805C91.4646 31.6705 91.2433 32.5426 90.8369 33.3157C90.451 34.0506 89.8806 34.6107 89.1489 35.0401C88.4415 35.4554 87.6045 35.6633 86.64 35.6633C85.7073 35.6633 84.8716 35.4554 84.1316 35.0401C83.3922 34.6248 82.8124 34.0506 82.3945 33.3157C82.0086 32.549 81.8159 31.6705 81.8159 30.6805V15.3982H74.5792V31.2559C74.5792 33.428 74.9652 35.3278 75.7371 36.9564C76.509 38.5857 77.6349 39.8628 79.1143 40.7891C80.6262 41.6835 82.443 42.1307 84.5654 42.1307C86.3988 42.1307 87.9968 41.7747 89.3416 41.029C90.4599 40.4089 91.3128 39.5152 91.9265 38.3733H91.9469V41.5559H98.7007V15.3982H91.4646ZM61.8015 34.7888C60.8044 35.3955 59.6472 35.6992 58.3286 35.6992C57.01 35.6992 55.8113 35.4095 54.7581 34.7888C53.7291 34.1822 52.9253 33.335 52.3461 32.2492C51.7668 31.1635 51.4778 29.9182 51.4778 28.5129C51.4778 27.1075 51.7802 25.8846 52.3461 24.8237C52.9247 23.7379 53.7342 22.901 54.7581 22.2847C55.8196 21.6462 57.01 21.3266 58.3286 21.3266C59.6472 21.3266 60.8044 21.6302 61.8015 22.2369C62.7986 22.8436 63.5456 23.7029 64.1178 24.7759C64.6964 25.8616 64.986 27.1075 64.986 28.5129C64.986 29.9182 64.6715 31.1501 64.1178 32.2492C63.5711 33.335 62.7986 34.1822 61.8015 34.7888ZM64.986 5.32471V17.6412C64.2939 16.9682 63.4556 16.4228 62.5255 15.9609C61.0462 15.226 59.3416 14.8586 57.4119 14.8586C54.9035 14.8586 52.6357 15.4653 50.6096 16.6792C48.5835 17.8932 46.9887 19.5455 45.7849 21.6136C44.5952 23.6576 44 25.958 44 28.5129C44 31.0359 44.5544 33.349 45.7364 35.4115C46.9262 37.4873 48.5351 39.1325 50.5611 40.3458C52.5872 41.5592 54.8869 42.1665 57.4597 42.1665C59.2606 42.1665 60.9447 41.8743 62.477 41.2083C63.6649 40.6922 64.6613 39.9924 65.4683 39.1166V41.5917H72.2221V5.32471H64.986Z" fill="#666F84"/>
</g>
</svg>
