<svg width="170" height="49" viewBox="0 0 170 49" fill="none" xmlns="http://www.w3.org/2000/svg">
<path d="M31.2873 30.6395C31.2286 30.5527 31.1986 30.4499 31.2016 30.3455C31.2142 30.1562 31.2522 30.0423 31.316 30.0042C31.3799 29.9665 31.5007 29.9477 31.6794 29.9477C32.0491 29.9477 32.3234 29.8815 32.5017 29.7488C32.6799 29.616 32.7915 29.4519 32.8363 29.2559C32.8806 29.0599 32.9094 28.8045 32.922 28.4883V20.9655C32.9094 20.6498 32.8806 20.3939 32.8363 20.1979C32.7915 20.0024 32.6799 19.8378 32.5017 19.705C32.3229 19.5722 32.0487 19.5061 31.6794 19.5061H31.5645C31.4369 19.5061 31.3477 19.4839 31.297 19.44C31.2459 19.396 31.2142 19.2855 31.2016 19.1083C31.2016 18.9944 31.2298 18.8969 31.2873 18.8143C31.313 18.7751 31.3485 18.7432 31.3903 18.7216C31.4321 18.7 31.4789 18.6896 31.526 18.6912C32.3672 18.7289 33.1256 18.7477 33.8013 18.7477H36.7838C38.0074 18.7477 39.1195 18.991 40.12 19.4771C41.1205 19.9638 41.9106 20.6613 42.4907 21.5713C43.0704 22.4809 43.3607 23.555 43.3607 24.7928C43.3607 26.0813 43.0324 27.1709 42.3763 28.0611C41.7197 28.9518 40.8658 29.6151 39.8146 30.0505C38.7629 30.4864 37.6377 30.7042 36.4399 30.7042H33.8013C33.1256 30.7042 32.3672 30.723 31.526 30.7606C31.479 30.7629 31.4322 30.7529 31.3903 30.7317C31.3484 30.7104 31.3129 30.6786 31.2873 30.6395ZM40.006 28.6307C40.7006 27.7149 41.0479 26.4361 41.0479 24.7938C41.0479 23.7578 40.8594 22.8323 40.4839 22.0174C40.1078 21.2025 39.5628 20.5677 38.8491 20.1129C38.1355 19.6582 37.288 19.4308 36.3064 19.4308L34.8149 19.4496V28.7157C34.8149 29.2086 34.9645 29.5465 35.264 29.7295C35.5636 29.9124 36.0512 30.0042 36.7268 30.0042C38.2183 30.0046 39.3114 29.547 40.006 28.6307ZM49.8519 30.5733C49.1573 30.232 48.6312 29.784 48.2746 29.2279C47.9236 28.6921 47.7376 28.0665 47.7393 27.4277V20.966C47.7267 20.6502 47.6979 20.3944 47.6536 20.1984C47.6083 20.0029 47.4972 19.8382 47.3185 19.7055C47.1397 19.5727 46.8659 19.5066 46.4967 19.5066H46.3817C46.2541 19.5066 46.1645 19.4844 46.1143 19.4404C46.0632 19.3965 46.031 19.286 46.0189 19.1088C46.0189 18.9949 46.0476 18.8973 46.1046 18.8148C46.1621 18.7327 46.2483 18.6917 46.3628 18.6917C47.1782 18.7293 47.9303 18.7482 48.619 18.7482C49.3964 18.7482 50.1929 18.7293 51.0088 18.6917C51.1237 18.6917 51.2095 18.7327 51.2664 18.8148C51.3239 18.8973 51.3527 18.9949 51.3527 19.1088C51.3395 19.286 51.3049 19.3965 51.2475 19.4404C51.1905 19.4849 51.0979 19.5066 50.9703 19.5066C50.5621 19.5066 50.263 19.5703 50.0716 19.6963C49.8806 19.8228 49.7623 19.9806 49.7179 20.1699C49.6731 20.3596 49.6444 20.6246 49.6322 20.966V26.8778C49.6322 27.7497 49.8392 28.4825 50.2533 29.0758C50.6673 29.6701 51.474 29.9665 52.6722 29.9665C53.8447 29.9665 54.6767 29.6981 55.1672 29.1613C55.6577 28.6244 55.9037 27.952 55.9037 27.1429V22.1593C55.9037 21.3005 55.872 20.6942 55.8082 20.3403C55.7444 19.9869 55.6168 19.7595 55.4258 19.6582C55.2344 19.5573 54.9032 19.5066 54.4317 19.5066H54.3167C54.2018 19.5066 54.116 19.4844 54.059 19.4404C54.0015 19.3965 53.966 19.286 53.9538 19.1088C53.9538 18.9949 53.9826 18.8973 54.0395 18.8148C54.097 18.7327 54.1832 18.6917 54.2977 18.6917C55.1263 18.7293 55.8399 18.7482 56.439 18.7482C57.0508 18.7482 57.7649 18.7293 58.5803 18.6917C58.6953 18.6917 58.781 18.7327 58.8385 18.8148C58.8955 18.8973 58.9242 18.9949 58.9242 19.1088C58.9116 19.286 58.8765 19.3965 58.819 19.4404C58.762 19.4849 58.6695 19.5066 58.5419 19.5066C58.0319 19.5066 57.6777 19.551 57.4805 19.6393C57.2827 19.7282 57.1487 19.9396 57.0791 20.2742C57.0085 20.6087 56.9739 21.1996 56.9739 22.0459V27.3326C56.9739 28.1793 56.7376 28.8837 56.2666 29.4451C55.7973 30.0057 55.1873 30.4338 54.4979 30.6863C53.7901 30.9513 53.0795 31.0841 52.3663 31.0841C51.3848 31.0846 50.547 30.9142 49.8519 30.5733ZM60.9228 30.6395C60.8643 30.5526 60.8344 30.4499 60.8371 30.3455C60.8498 30.1688 60.8814 30.0582 60.9326 30.0138C60.9832 29.9699 61.0724 29.9477 61.2 29.9477C61.7222 29.9477 62.1143 29.8656 62.3759 29.7015C62.637 29.5373 62.9521 29.1898 63.3223 28.6592L66.0944 24.7556L63.6467 20.9471C63.3408 20.4798 63.0413 20.1385 62.748 19.9242C62.4548 19.7093 62.0982 19.5578 61.6774 19.4694C61.6013 19.4516 61.5248 19.4358 61.4479 19.4221C61.3456 19.4033 61.2789 19.3656 61.2473 19.3082C61.2156 19.2517 61.1995 19.16 61.1995 19.0335C61.1995 18.8568 61.2472 18.7491 61.3432 18.7115C61.4564 18.6704 61.5764 18.6511 61.6969 18.6545H61.9643C62.8562 18.6545 63.5669 18.7998 64.0958 19.0904C64.6248 19.3811 65.1441 19.8928 65.6541 20.6251L67.2221 23.1644L69.115 20.4359C69.2679 20.1834 69.3444 20 69.3444 19.886C69.3444 19.7344 69.2548 19.6335 69.077 19.5829C68.8982 19.5322 68.6303 19.5071 68.2738 19.5071H68.1588C68.0312 19.5071 67.942 19.4849 67.8914 19.4409C67.8402 19.397 67.8086 19.2864 67.7959 19.1093C67.7959 18.9953 67.8246 18.8978 67.8821 18.8153C67.9078 18.7761 67.9433 18.7442 67.9851 18.7226C68.0269 18.701 68.0737 18.6905 68.1208 18.6922C68.8151 18.7266 69.51 18.7455 70.2051 18.7486C70.8491 18.7438 71.4929 18.725 72.136 18.6922C72.251 18.6922 72.3367 18.7332 72.3937 18.8153C72.4512 18.8978 72.4799 18.9953 72.4799 19.1093C72.4672 19.2864 72.4346 19.397 72.3844 19.4409C72.3333 19.4853 72.2442 19.5071 72.117 19.5071C71.5944 19.5071 71.2022 19.5896 70.9411 19.7533C70.6796 19.9174 70.3644 20.265 69.9947 20.7955L67.7574 23.9412L71.0844 28.6404C71.3644 29.0575 71.6319 29.3795 71.8871 29.6069C72.1419 29.8342 72.4541 29.9482 72.8238 29.9482H72.9388C73.0659 29.9482 73.1555 29.9704 73.2062 30.0143C73.2573 30.0587 73.289 30.1693 73.3017 30.346C73.3017 30.4599 73.2729 30.5574 73.2159 30.64C73.1901 30.679 73.1546 30.7109 73.1128 30.7325C73.071 30.754 73.0244 30.7646 72.9773 30.7631C72.2129 30.7267 71.4477 30.7078 70.6825 30.7066C69.9562 30.7066 69.1783 30.7254 68.3502 30.7631C68.2353 30.7631 68.1495 30.722 68.0921 30.64C68.0335 30.5531 68.0036 30.4504 68.0063 30.346C68.019 30.1567 68.0604 30.0428 68.131 30.0046C68.2007 29.967 68.3191 29.9482 68.4847 29.9482C68.7394 29.9482 68.9338 29.9038 69.0677 29.8154C69.2017 29.7271 69.2684 29.6069 69.2684 29.4553C69.2684 29.3162 69.2114 29.1709 69.0965 29.0193L66.6488 25.5522L64.2015 29.0193C64.0486 29.2216 63.9721 29.4051 63.9721 29.5692C63.9721 29.7208 64.0613 29.8222 64.2395 29.8724C64.4183 29.9231 64.6857 29.9482 65.0428 29.9482H65.1573C65.2849 29.9482 65.374 29.9704 65.4252 30.0143C65.4758 30.0587 65.5075 30.1693 65.5206 30.346C65.5206 30.4599 65.4924 30.5574 65.4349 30.64C65.4092 30.6791 65.3737 30.711 65.3319 30.7326C65.2901 30.7541 65.2433 30.7646 65.1962 30.7631C64.502 30.7286 63.807 30.7097 63.1119 30.7066C62.653 30.7066 62.0091 30.7254 61.181 30.7631C61.0665 30.7626 60.9803 30.7215 60.9228 30.6395ZM81.2279 30.6395C81.1691 30.5527 81.1391 30.4499 81.1421 30.3455C81.1548 30.1562 81.1928 30.0423 81.2566 30.0042C81.3204 29.9665 81.4412 29.9477 81.62 29.9477C81.9897 29.9477 82.2639 29.8815 82.4422 29.7488C82.6205 29.616 82.732 29.4519 82.7769 29.2559C82.8212 29.0599 82.8499 28.8045 82.8626 28.4883V20.9848C82.8499 20.6565 82.8212 20.3973 82.7769 20.208C82.732 20.0183 82.6205 19.8546 82.4422 19.7151C82.2634 19.5761 81.9892 19.5066 81.62 19.5066H81.505C81.3774 19.5066 81.2883 19.4844 81.2376 19.4404C81.1864 19.3965 81.1548 19.286 81.1421 19.1088C81.1421 18.9949 81.1704 18.8973 81.2279 18.8148C81.2848 18.7327 81.3711 18.6917 81.4855 18.6917C82.3141 18.7293 83.0725 18.7482 83.7608 18.7482H87.0497C88.0308 18.7607 88.8496 18.9157 89.5067 19.2121C90.1628 19.5095 90.6441 19.8884 90.9505 20.349C91.2564 20.8105 91.4093 21.3063 91.4093 21.8369C91.4093 22.5315 91.1322 23.1698 90.5779 23.7505C90.0235 24.3318 89.268 24.7489 88.3123 25.0013L88.6372 25.5131C89.1 26.2627 89.5845 26.9989 90.0903 27.7207C90.5178 28.3266 90.9906 28.8998 91.5048 29.4355C91.8614 29.7261 92.2438 29.8965 92.6519 29.9472C92.6773 29.9472 92.7348 29.9501 92.8239 29.9564C92.8657 29.9585 92.9067 29.9688 92.9445 29.9867C92.9823 30.0046 93.0161 30.0297 93.0441 30.0606C93.1011 30.1239 93.1298 30.2185 93.1298 30.345C93.1298 30.4589 93.1011 30.5564 93.0441 30.639C92.9866 30.7211 92.9004 30.7621 92.7859 30.7621L92.2886 30.7433C91.881 30.7223 91.473 30.7098 91.065 30.7056C90.555 30.6047 90.1185 30.4246 89.7556 30.1654C89.3922 29.9066 89.0318 29.5369 88.6752 29.057C88.3055 28.5771 87.7897 27.7936 87.1267 26.7074L86.7823 26.158C86.5914 25.8674 86.4063 25.6685 86.228 25.5609C86.0492 25.4537 85.7433 25.3996 85.3103 25.3996H84.7555V28.4883C84.7681 28.8045 84.7969 29.0599 84.8412 29.2559C84.886 29.4519 84.9971 29.616 85.1763 29.7488C85.3546 29.8815 85.6284 29.9477 85.9981 29.9477H86.113C86.228 29.9477 86.3137 29.9699 86.3712 30.0138C86.4282 30.0582 86.4633 30.1688 86.4764 30.3455C86.4764 30.4594 86.4477 30.5569 86.3907 30.6395C86.3332 30.7215 86.247 30.7626 86.1325 30.7626C85.3166 30.7249 84.5202 30.7061 83.7428 30.7061C83.0672 30.7061 82.3151 30.7249 81.4865 30.7626C81.3711 30.7626 81.2848 30.7215 81.2279 30.6395ZM86.4379 24.661C88.3372 24.661 89.2865 23.7766 89.2865 22.0078C89.2865 21.2875 89.0381 20.6816 88.5408 20.1887C88.0434 19.6958 87.228 19.4496 86.0936 19.4496C85.7238 19.4496 85.4438 19.494 85.2523 19.5824C85.0614 19.6707 84.9303 19.8223 84.8607 20.0371C84.7901 20.2524 84.7555 20.5807 84.7555 21.0224V24.661H86.4379ZM95.4903 30.6395C95.4316 30.5527 95.4016 30.4499 95.4046 30.3455C95.4173 30.1562 95.4552 30.0423 95.5191 30.0042C95.5829 29.9665 95.7037 29.9477 95.8824 29.9477C96.2522 29.9477 96.5264 29.8815 96.7047 29.7488C96.883 29.616 96.9945 29.4519 97.0393 29.2559C97.0836 29.0599 97.1124 28.8045 97.125 28.4883V20.9655C97.1124 20.6498 97.0836 20.3939 97.0393 20.1979C96.9945 20.0024 96.883 19.8378 96.7047 19.705C96.5259 19.5722 96.2517 19.5061 95.8824 19.5061H95.7675C95.6399 19.5061 95.5507 19.4839 95.5001 19.44C95.4489 19.396 95.4173 19.2855 95.4046 19.1083C95.4046 18.9944 95.4328 18.8969 95.4903 18.8143C95.516 18.7751 95.5515 18.7432 95.5933 18.7216C95.6351 18.7 95.6819 18.6896 95.729 18.6912C96.5702 18.7289 97.3287 18.7477 98.0043 18.7477H104.008C104.339 18.7477 104.505 18.8993 104.505 19.2024L104.562 21.8552C104.562 21.9691 104.505 22.0609 104.39 22.1299C104.288 22.1958 104.168 22.2319 104.046 22.2342C103.893 22.2342 103.759 22.2057 103.644 22.1492C103.53 22.0922 103.466 22.0068 103.454 21.8933C103.351 21.2744 103.24 20.8038 103.118 20.4818C102.998 20.1598 102.819 19.9198 102.583 19.762C102.347 19.6041 102.012 19.5186 101.58 19.5061H99.0175V24.3192H102.478C102.522 24.3253 102.564 24.3412 102.6 24.3658C102.636 24.3904 102.667 24.4231 102.688 24.4611C102.739 24.5437 102.765 24.6412 102.765 24.7551C102.765 24.8565 102.739 24.9449 102.688 25.0202C102.666 25.0557 102.636 25.085 102.599 25.105C102.562 25.125 102.52 25.135 102.478 25.1341H99.0175V28.7157C99.0433 28.9807 99.0749 29.1926 99.1129 29.3505C99.1509 29.5084 99.2659 29.6503 99.4573 29.7768C99.6483 29.9028 99.9478 29.9598 100.356 29.9472H102.115C102.561 29.9346 102.899 29.8622 103.128 29.7295C103.358 29.5967 103.539 29.3915 103.673 29.1135C103.807 28.8359 103.969 28.3811 104.161 27.7492C104.25 27.5218 104.467 27.434 104.811 27.4842C104.938 27.5098 105.05 27.56 105.145 27.6358C105.19 27.6678 105.225 27.711 105.247 27.7611C105.269 27.8111 105.277 27.866 105.27 27.9201L104.888 30.3078C104.85 30.472 104.792 30.5796 104.716 30.6298C104.639 30.6805 104.512 30.7056 104.333 30.7056H98.0233C97.335 30.7056 96.5702 30.7244 95.729 30.7621C95.6819 30.7638 95.6352 30.7534 95.5934 30.732C95.5515 30.7105 95.516 30.6786 95.4903 30.6395ZM109.371 30.3933C108.664 29.9322 108.31 29.2535 108.31 28.356C108.31 27.9018 108.466 27.5257 108.779 27.2288C109.09 26.9319 109.496 26.7837 109.992 26.7837C110.285 26.7962 110.509 26.8686 110.662 27.0014C110.815 27.1342 110.891 27.2568 110.891 27.3707C110.891 27.3833 110.827 27.4277 110.7 27.5035C110.561 27.5906 110.443 27.7071 110.356 27.8448C110.254 27.9964 110.202 28.2049 110.202 28.47C110.202 29.0642 110.384 29.5214 110.747 29.8439C111.111 30.1659 111.675 30.3271 112.44 30.3271C112.962 30.3271 113.421 30.2262 113.816 30.024C114.211 29.8222 114.514 29.5533 114.725 29.2187C114.935 28.8842 115.04 28.5332 115.04 28.1668C115.04 27.712 114.91 27.3205 114.648 26.9918C114.382 26.6591 114.054 26.3795 113.683 26.1677C113.3 25.9466 112.778 25.6912 112.115 25.4001C111.35 25.0593 110.732 24.7498 110.26 24.4718C109.785 24.1905 109.374 23.8127 109.056 23.3633C108.724 22.9023 108.558 22.3307 108.558 21.6481C108.558 20.5493 108.938 19.7282 109.696 19.1851C110.454 18.642 111.452 18.3702 112.689 18.3702C113.657 18.3702 114.502 18.5724 115.222 18.9765C115.942 19.3811 116.302 19.9749 116.302 20.7574C116.302 21.2122 116.146 21.5882 115.834 21.8851C115.522 22.182 115.117 22.3302 114.62 22.3302C114.327 22.3177 114.104 22.2453 113.951 22.1125C113.798 21.9798 113.722 21.8566 113.722 21.7427C113.722 21.7302 113.808 21.6862 113.98 21.61C114.152 21.5342 114.305 21.4207 114.439 21.2686C114.573 21.1171 114.639 20.9085 114.639 20.6435C114.639 20.1762 114.458 19.8098 114.094 19.5442C113.731 19.2792 113.269 19.1464 112.708 19.1464C111.931 19.1464 111.341 19.3265 110.94 19.6866C110.538 20.0468 110.338 20.4919 110.338 21.0224C110.338 21.4651 110.459 21.8344 110.701 22.1313C110.943 22.4282 111.331 22.7218 111.867 23.0124C112.331 23.2547 112.803 23.4822 113.282 23.6945C114.098 24.0609 114.745 24.3955 115.222 24.6986C115.705 25.0065 116.116 25.4135 116.427 25.892C116.752 26.3849 116.914 26.9975 116.914 27.7304C116.914 28.3623 116.714 28.9334 116.312 29.4451C115.91 29.9569 115.369 30.358 114.687 30.6486C114.005 30.9388 113.256 31.0841 112.44 31.0841C111.102 31.0846 110.079 30.8543 109.371 30.3933ZM119.869 30.6395C119.81 30.5527 119.78 30.4499 119.783 30.3455C119.795 30.1562 119.833 30.0423 119.897 30.0042C119.961 29.9665 120.082 29.9477 120.261 29.9477C120.63 29.9477 120.905 29.8815 121.083 29.7488C121.261 29.616 121.373 29.4519 121.418 29.2559C121.462 29.0599 121.491 28.8045 121.503 28.4883V20.9655C121.491 20.6498 121.462 20.3939 121.418 20.1979C121.373 20.0024 121.261 19.8378 121.083 19.705C120.904 19.5722 120.63 19.5061 120.261 19.5061H120.146C120.018 19.5061 119.929 19.4839 119.878 19.44C119.827 19.396 119.795 19.2855 119.783 19.1083C119.783 18.9944 119.811 18.8969 119.869 18.8143C119.894 18.7751 119.93 18.7432 119.972 18.7216C120.013 18.7 120.06 18.6896 120.107 18.6912C120.948 18.7289 121.707 18.7477 122.382 18.7477H128.386C128.717 18.7477 128.883 18.8993 128.883 19.2024L128.94 21.8552C128.94 21.9691 128.883 22.0609 128.768 22.1299C128.666 22.1958 128.546 22.2319 128.424 22.2342C128.271 22.2342 128.137 22.2057 128.023 22.1492C127.908 22.0922 127.844 22.0068 127.832 21.8933C127.729 21.2744 127.618 20.8038 127.497 20.4818C127.376 20.1598 127.197 19.9198 126.961 19.762C126.725 19.6041 126.39 19.5186 125.958 19.5061H123.396V24.3192H126.857C126.9 24.3253 126.942 24.3412 126.978 24.3658C127.015 24.3904 127.045 24.4231 127.066 24.4611C127.118 24.5437 127.143 24.6412 127.143 24.7551C127.143 24.8565 127.117 24.9449 127.066 25.0202C127.045 25.0557 127.014 25.085 126.977 25.105C126.94 25.125 126.899 25.135 126.857 25.1341H123.396V28.7157C123.421 28.9807 123.453 29.1926 123.491 29.3505C123.529 29.5084 123.644 29.6503 123.836 29.7768C124.026 29.9028 124.326 29.9598 124.734 29.9472H126.493C126.939 29.9346 127.277 29.8622 127.506 29.7295C127.736 29.5967 127.917 29.3915 128.051 29.1135C128.185 28.8359 128.348 28.3811 128.539 27.7492C128.628 27.5218 128.845 27.434 129.189 27.4842C129.316 27.5098 129.428 27.56 129.523 27.6358C129.568 27.6678 129.603 27.711 129.625 27.7611C129.647 27.8111 129.655 27.866 129.648 27.9201L129.266 30.3078C129.228 30.472 129.17 30.5796 129.094 30.6298C129.017 30.6805 128.89 30.7056 128.711 30.7056H122.401C121.713 30.7056 120.948 30.7244 120.107 30.7621C120.06 30.7638 120.013 30.7534 119.972 30.732C119.93 30.7105 119.894 30.6786 119.869 30.6395ZM132.659 30.6395C132.601 30.5527 132.571 30.4499 132.574 30.3455C132.586 30.1562 132.624 30.0423 132.688 30.0042C132.752 29.9665 132.873 29.9477 133.052 29.9477C133.421 29.9477 133.695 29.8815 133.874 29.7488C134.052 29.616 134.164 29.4519 134.208 29.2559C134.253 29.0599 134.281 28.8045 134.294 28.4883V20.9848C134.281 20.6565 134.253 20.3973 134.208 20.208C134.164 20.0183 134.052 19.8546 133.874 19.7151C133.695 19.5761 133.421 19.5066 133.052 19.5066H132.937C132.809 19.5066 132.72 19.4844 132.669 19.4404C132.618 19.3965 132.586 19.286 132.574 19.1088C132.574 18.9949 132.602 18.8973 132.659 18.8148C132.716 18.7327 132.803 18.6917 132.917 18.6917C133.746 18.7293 134.504 18.7482 135.192 18.7482H138.481C139.462 18.7607 140.281 18.9157 140.938 19.2121C141.594 19.5095 142.076 19.8884 142.382 20.349C142.688 20.8105 142.841 21.3063 142.841 21.8369C142.841 22.5315 142.564 23.1698 142.009 23.7505C141.455 24.3318 140.7 24.7489 139.744 25.0013L140.069 25.5131C140.532 26.2627 141.016 26.9989 141.522 27.7207C141.949 28.3266 142.422 28.8998 142.936 29.4355C143.293 29.7261 143.675 29.8965 144.084 29.9472C144.109 29.9472 144.166 29.9501 144.255 29.9564C144.297 29.9585 144.338 29.9688 144.376 29.9867C144.414 30.0046 144.448 30.0297 144.476 30.0606C144.533 30.1239 144.561 30.2185 144.561 30.345C144.561 30.4589 144.533 30.5564 144.476 30.639C144.418 30.7211 144.332 30.7621 144.217 30.7621L143.72 30.7433C143.313 30.7223 142.905 30.7098 142.497 30.7056C141.987 30.6047 141.55 30.4246 141.187 30.1654C140.824 29.9066 140.463 29.5369 140.107 29.057C139.737 28.5771 139.221 27.7936 138.558 26.7074L138.214 26.158C138.023 25.8674 137.838 25.6685 137.66 25.5609C137.481 25.4537 137.175 25.3996 136.742 25.3996H136.187V28.4883C136.2 28.8045 136.228 29.0599 136.273 29.2559C136.318 29.4519 136.429 29.616 136.608 29.7488C136.786 29.8815 137.06 29.9477 137.43 29.9477H137.545C137.66 29.9477 137.745 29.9699 137.803 30.0138C137.86 30.0582 137.895 30.1688 137.908 30.3455C137.908 30.4594 137.879 30.5569 137.822 30.6395C137.765 30.7215 137.679 30.7626 137.564 30.7626C136.748 30.7249 135.952 30.7061 135.174 30.7061C134.499 30.7061 133.747 30.7249 132.918 30.7626C132.803 30.7626 132.716 30.7215 132.659 30.6395ZM137.87 24.661C139.769 24.661 140.718 23.7766 140.718 22.0078C140.718 21.2875 140.47 20.6816 139.972 20.1887C139.475 19.6958 138.66 19.4496 137.525 19.4496C137.155 19.4496 136.875 19.494 136.684 19.5824C136.493 19.6707 136.362 19.8223 136.292 20.0371C136.222 20.2524 136.187 20.5807 136.187 21.0224V24.661H137.87ZM149.341 25.9495C148.743 24.3107 148.138 22.6747 147.525 21.0413C147.308 20.4986 147.098 20.1197 146.894 19.9044C146.691 19.69 146.39 19.5442 145.995 19.4689C145.919 19.4511 145.843 19.4353 145.766 19.4216C145.664 19.4028 145.597 19.3651 145.565 19.3077C145.534 19.2512 145.518 19.1595 145.518 19.033C145.518 18.8814 145.559 18.7805 145.642 18.7298C145.725 18.6791 145.856 18.654 146.034 18.654C146.99 18.654 147.717 18.7993 148.214 19.09C148.711 19.3806 149.106 19.8986 149.399 20.6435L152.171 28.034H152.228L154.867 20.4354C154.944 20.2206 154.982 20.0564 154.982 19.9425C154.982 19.7653 154.908 19.6485 154.762 19.5915C154.615 19.5351 154.37 19.5066 154.026 19.5066H153.911C153.783 19.5066 153.694 19.4844 153.643 19.4404C153.592 19.3965 153.56 19.286 153.548 19.1088C153.548 18.9949 153.577 18.8973 153.634 18.8148C153.66 18.7756 153.695 18.7437 153.737 18.7222C153.779 18.7006 153.826 18.6901 153.873 18.6917C154.701 18.7293 155.396 18.7482 155.957 18.7482C156.199 18.7482 156.664 18.7356 157.352 18.7105L157.754 18.6917C157.869 18.6917 157.955 18.7327 158.012 18.8148C158.069 18.8973 158.098 18.9949 158.098 19.1088C158.085 19.286 158.053 19.3965 158.002 19.4404C157.951 19.4849 157.862 19.5066 157.734 19.5066C157.186 19.5066 156.769 19.5954 156.482 19.7716C156.195 19.9488 155.949 20.2896 155.746 20.7951C155.363 21.8311 154.748 23.5082 153.901 25.8259C153.282 27.5142 152.667 29.2039 152.055 30.8949H151.157C150.775 29.8593 150.169 28.2112 149.341 25.9495ZM159.905 30.6395C159.846 30.5527 159.816 30.4499 159.819 30.3455C159.832 30.1562 159.87 30.0423 159.933 30.0042C159.997 29.9665 160.118 29.9477 160.297 29.9477C160.667 29.9477 160.941 29.8815 161.119 29.7488C161.297 29.616 161.409 29.4519 161.454 29.2559C161.498 29.0599 161.527 28.8045 161.539 28.4883V20.9655C161.527 20.6498 161.498 20.3939 161.454 20.1979C161.409 20.0024 161.297 19.8378 161.119 19.705C160.94 19.5722 160.666 19.5061 160.297 19.5061H160.182C160.054 19.5061 159.965 19.4839 159.914 19.44C159.863 19.396 159.832 19.2855 159.819 19.1083C159.819 18.9944 159.847 18.8969 159.905 18.8143C159.93 18.7751 159.966 18.7432 160.008 18.7216C160.05 18.7 160.096 18.6896 160.143 18.6912C160.985 18.7289 161.743 18.7477 162.419 18.7477H168.422C168.753 18.7477 168.92 18.8993 168.92 19.2024L168.977 21.8552C168.977 21.9691 168.92 22.0609 168.805 22.1299C168.702 22.1958 168.583 22.2319 168.46 22.2342C168.307 22.2342 168.173 22.2057 168.059 22.1492C167.944 22.0922 167.88 22.0068 167.868 21.8933C167.766 21.2744 167.654 20.8038 167.533 20.4818C167.412 20.1598 167.233 19.9198 166.997 19.762C166.761 19.6041 166.427 19.5186 165.994 19.5061H163.432V24.3192H166.893C166.936 24.3253 166.978 24.3412 167.014 24.3658C167.051 24.3904 167.081 24.4231 167.103 24.4611C167.154 24.5437 167.179 24.6412 167.179 24.7551C167.179 24.8565 167.153 24.9449 167.103 25.0202C167.081 25.0557 167.05 25.085 167.013 25.105C166.976 25.125 166.935 25.135 166.893 25.1341H163.432V28.7157C163.458 28.9807 163.489 29.1926 163.527 29.3505C163.565 29.5084 163.68 29.6503 163.872 29.7768C164.063 29.9028 164.362 29.9598 164.77 29.9472H166.529C166.976 29.9346 167.313 29.8622 167.543 29.7295C167.772 29.5967 167.954 29.3915 168.088 29.1135C168.222 28.8359 168.384 28.3811 168.575 27.7492C168.664 27.5218 168.881 27.434 169.225 27.4842C169.352 27.5098 169.464 27.56 169.56 27.6358C169.604 27.6678 169.639 27.711 169.661 27.7611C169.683 27.8111 169.691 27.866 169.684 27.9201L169.302 30.3078C169.264 30.472 169.207 30.5796 169.13 30.6298C169.054 30.6805 168.926 30.7056 168.748 30.7056H162.438C161.749 30.7056 160.985 30.7244 160.143 30.7621C160.096 30.7639 160.05 30.7536 160.008 30.7321C159.966 30.7106 159.93 30.6787 159.905 30.6395ZM18.7015 31.3453C18.7013 31.4104 18.6752 31.4728 18.6287 31.5189C18.5822 31.5649 18.5192 31.5909 18.4535 31.591H0.247937C0.18222 31.5909 0.119231 31.5649 0.0727613 31.5189C0.0262919 31.4728 0.000128732 31.4104 0 31.3453V18.5353C0.000128732 18.4701 0.0262919 18.4077 0.0727613 18.3617C0.119231 18.3156 0.18222 18.2897 0.247937 18.2895H4.70983C4.77555 18.2897 4.83853 18.3156 4.885 18.3617C4.93147 18.4077 4.95764 18.4701 4.95776 18.5353L4.95825 23.4396C4.95825 23.5748 5.0698 23.6858 5.20619 23.6863L6.57934 23.6911C6.61188 23.6912 6.64411 23.6849 6.67419 23.6726C6.70426 23.6603 6.7316 23.6423 6.75463 23.6195C6.77766 23.5967 6.79593 23.5696 6.8084 23.5399C6.82086 23.5101 6.82728 23.4781 6.82728 23.4459V19.6244C6.82741 19.5592 6.85357 19.4968 6.90004 19.4508C6.94651 19.4047 7.0095 19.3788 7.07521 19.3786H11.5376C11.6033 19.3788 11.6663 19.4047 11.7128 19.4508C11.7592 19.4968 11.7854 19.5592 11.7855 19.6244V23.4449C11.7855 23.5801 11.8971 23.6911 12.0335 23.6911L13.4061 23.6931C13.4718 23.6929 13.5348 23.667 13.5813 23.621C13.6278 23.5749 13.6539 23.5125 13.6541 23.4473L13.6546 18.5348C13.6547 18.4697 13.6808 18.4072 13.7273 18.3612C13.7738 18.3151 13.8368 18.2892 13.9025 18.2891H18.4526C18.5183 18.2892 18.5813 18.3151 18.6277 18.3612C18.6742 18.4072 18.7004 18.4697 18.7005 18.5348V31.3453H18.7015Z" fill="#666F84"/>
</svg>
