<svg width="170" height="49" viewBox="0 0 170 49" fill="none" xmlns="http://www.w3.org/2000/svg">
<path d="M20 4H60.947V44.9994H20V4Z" fill="#94A0BC"/>
<path d="M47.967 17.1836V13.3117H35.8V21.6192H35.4699H33.1743V24.2628H33.902H35.8V26.3529H35.3931H33.1743V28.9991H33.8235H35.8V37.1323H40.4926V28.9991H44.6588L45.8369 26.3529H40.4926V25.4655V24.2628H46.7915L47.967 21.6192H40.4926V17.1836H47.967Z" fill="#DCDDEB"/>
<path d="M82.2909 20.391H86.3207V33.3494H82.2909V20.391ZM98.0722 33.3229V31.4984H98.0227C97.5637 32.1951 96.9332 32.7616 96.1919 33.1434C95.4507 33.5252 94.6237 33.7094 93.7908 33.6782C90.1688 33.6782 87.7111 30.4094 87.7111 26.7844C87.7111 23.1593 89.9947 19.9409 93.7379 19.9409C94.5517 19.9082 95.3601 20.0871 96.0842 20.4603C96.8084 20.8335 97.4237 21.3882 97.87 22.0703H97.9221V13.2537H101.566V33.3263L98.0722 33.3229ZM98.0466 26.8356C98.0466 24.8796 96.9829 23.0363 94.7035 23.0363C92.6033 23.0363 91.5123 24.9155 91.5123 26.8877C91.5123 28.9377 92.652 30.74 94.8033 30.74C96.8805 30.74 98.0449 29.0171 98.0449 26.8356M116.141 26.8356V27.8495H106.624C106.63 28.6544 106.952 29.4247 107.52 29.9939C108.089 30.5632 108.858 30.8857 109.662 30.892C110.199 30.9104 110.73 30.7744 111.192 30.5001C111.655 30.2258 112.029 29.8248 112.271 29.3443L115.818 29.6193C114.932 32.286 112.548 33.6782 109.485 33.6782C105.556 33.6782 102.824 30.9928 102.824 26.8356C102.824 22.6281 105.553 19.9409 109.485 19.9409C113.417 19.9409 116.147 22.6281 116.147 26.8356M112.503 25.5177C112.463 24.7644 112.135 24.0554 111.588 23.5366C111.042 23.0178 110.317 22.7286 109.564 22.7286C108.81 22.7286 108.086 23.0178 107.539 23.5366C106.992 24.0554 106.665 24.7644 106.624 25.5177H112.503ZM117.468 13.5937V33.3246H121.119V13.252H117.468V13.5937ZM124.724 12.7933C124.16 12.8084 123.623 13.0409 123.226 13.4424C122.828 13.8438 122.601 14.3833 122.591 14.9484C122.596 15.3684 122.725 15.7776 122.961 16.1245C123.198 16.4715 123.532 16.7406 123.92 16.8982C124.309 17.0558 124.736 17.0948 125.147 17.0102C125.558 16.9257 125.935 16.7214 126.23 16.423C126.525 16.1246 126.726 15.7455 126.806 15.3333C126.887 14.9211 126.844 14.4942 126.683 14.1063C126.522 13.7184 126.25 13.3868 125.902 13.1532C125.553 12.9196 125.143 12.7944 124.724 12.7933ZM84.3032 12.7933C83.7402 12.8102 83.2053 13.0434 82.8094 13.4447C82.4136 13.846 82.1873 14.3844 82.1774 14.9484C82.1818 15.3684 82.3102 15.7777 82.5464 16.1248C82.7827 16.4719 83.1162 16.7413 83.505 16.899C83.8938 17.0567 84.3205 17.0957 84.7314 17.0111C85.1423 16.9264 85.519 16.722 85.814 16.4234C86.1091 16.1249 86.3094 15.7456 86.3896 15.3333C86.4699 14.921 86.4265 14.4942 86.265 14.1065C86.1035 13.7189 85.831 13.3878 85.4819 13.1548C85.1328 12.9219 84.7227 12.7976 84.3032 12.7976M122.897 33.3229H126.549V20.2954H122.897V33.3229ZM135.194 30.4581C134.954 30.5144 134.708 30.5405 134.461 30.5358C133.523 30.5358 133.273 30.2565 133.273 29.674V23.0808H135.194V20.2945H133.273V16.2193H129.623V20.2945H127.954V23.0808H129.623V30.0788C129.623 32.8916 131.067 33.475 133.449 33.475C134.033 33.4614 134.616 33.4106 135.194 33.3229V30.4581ZM139.715 37.0291H143.527L149.833 20.2945H145.824L143.063 28.9121H143.014L140.25 20.2945H136.254L141.139 33.3229L139.715 37.0291ZM68.1969 24.0169V26.2855H70.112V33.3972H74.1375V26.2855H77.9395L78.9478 24.0169H74.1392V22.693H79.5424L80.5515 20.4235H74.1392V16.6165H80.549V13.3101H70.1137V20.4278H68.1969V22.6972H70.112V24.0212L68.1969 24.0169Z" fill="#666F84"/>
<path d="M71.2257 44.9137H70.1167V40.3286H71.2257V44.9137ZM75.2648 42.3034L76.9317 44.9137H78.0406V40.3286H76.9317V42.9047L75.2648 40.3286H74.1559V44.9137H75.2648V42.3034ZM82.7127 41.2314H83.762V40.3286H80.5443V41.228H81.6012V44.9137H82.7102L82.7127 41.2314ZM87.2731 41.2314H88.7822V40.3286H86.1625V44.9137H88.7822V44.0109H87.2731V43.0627H88.7822V42.1625H87.2731V41.2314ZM92.684 43.1405L93.6855 44.9137H95.0154L94.007 43.231C94.2872 43.1282 94.5257 42.9359 94.6857 42.6837C94.8457 42.4316 94.9184 42.1338 94.8925 41.8362C94.9044 41.6177 94.8659 41.3994 94.7801 41.1981C94.6944 40.9968 94.5635 40.818 94.3977 40.6754C93.9997 40.4165 93.5274 40.2964 93.0542 40.3337H91.5708V44.9137H92.6797L92.684 43.1405ZM92.684 42.5161V41.2408H93.1105C93.197 41.2339 93.284 41.2456 93.3657 41.275C93.4473 41.3045 93.5218 41.351 93.5841 41.4116C93.6463 41.4721 93.6949 41.5453 93.7267 41.6262C93.7584 41.7071 93.7726 41.7938 93.7682 41.8806C93.7682 42.2786 93.5012 42.5118 93.0423 42.5118L92.684 42.5161ZM98.8694 42.3034L100.537 44.9137H101.646V40.3286H100.537V42.9047L98.8694 40.3286H97.7604V44.9137H98.8694V42.3034ZM107.105 44.2543L107.304 44.9137H108.525L107.024 40.3312H105.609L104.1 44.9137H105.287L105.486 44.2543H107.105ZM106.831 43.3532H105.76L106.295 41.6448L106.831 43.3532ZM112.551 41.2314H113.601V40.3286H110.383V41.228H111.44V44.9137H112.549L112.551 41.2314ZM117.66 40.332H116.551V44.9137H117.66V40.332ZM125.071 42.6331C125.073 42.3079 125.012 41.9854 124.892 41.6833C124.78 41.3997 124.612 41.1417 124.397 40.9248C124.183 40.7079 123.927 40.5365 123.645 40.4208C123.347 40.3 123.028 40.2385 122.707 40.2398C122.543 40.2393 122.379 40.2533 122.218 40.2816C122.064 40.3081 121.912 40.3493 121.766 40.4046C121.623 40.4575 121.486 40.5245 121.356 40.6045C121.229 40.6838 121.109 40.7756 120.999 40.8787C120.877 40.9942 120.766 41.1215 120.668 41.2588C120.574 41.3925 120.493 41.5356 120.428 41.6858C120.363 41.8345 120.314 41.9897 120.282 42.1488C120.248 42.3098 120.231 42.4738 120.231 42.6382C120.231 42.9511 120.294 43.2609 120.416 43.5488C120.539 43.8366 120.718 44.0967 120.944 44.3132C121.168 44.5291 121.432 44.6998 121.721 44.8163C122.026 44.9382 122.351 45.0005 122.68 45C123 45.0004 123.317 44.9371 123.612 44.8138C124.184 44.5759 124.641 44.1239 124.886 43.5539C125.01 43.262 125.074 42.9479 125.073 42.6305M121.362 42.6237C121.361 42.4394 121.395 42.2566 121.461 42.0847C121.523 41.9257 121.615 41.7805 121.734 41.6577C121.851 41.5365 121.991 41.4403 122.146 41.3749C122.311 41.307 122.488 41.2724 122.666 41.2733C122.842 41.2722 123.016 41.3077 123.178 41.3775C123.332 41.4448 123.47 41.543 123.585 41.6662C123.701 41.7924 123.793 41.94 123.853 42.101C123.919 42.2752 123.952 42.4598 123.951 42.6459C123.951 42.8232 123.917 42.9988 123.849 43.1627C123.785 43.3196 123.691 43.4626 123.573 43.5838C123.454 43.7063 123.313 43.8038 123.156 43.8704C122.999 43.9371 122.831 43.9714 122.661 43.9716C122.489 43.9725 122.319 43.9383 122.16 43.8712C122.002 43.8041 121.859 43.7054 121.74 43.5812C121.622 43.4581 121.528 43.3131 121.465 43.1541C121.398 42.986 121.364 42.8065 121.364 42.6254M128.622 42.3025L130.29 44.9128H131.399V40.3286H130.29V42.9047L128.622 40.3286H127.513V44.9137H128.622V42.3025ZM136.907 44.2534L137.106 44.9128H138.326L136.824 40.3303H135.41L133.899 44.9137H135.085L135.283 44.2543L136.907 44.2534ZM136.631 43.3523H135.561L136.097 41.644L136.631 43.3523ZM141.927 44.0134V40.3286H140.818V44.9137H143.418V44.0109L141.927 44.0134Z" fill="#666F84"/>
</svg>
