<svg width="170" height="49" viewBox="0 0 170 49" fill="none" xmlns="http://www.w3.org/2000/svg">
<path d="M125.164 20.3549C125.164 19.3572 124.364 18.5658 123.351 18.5658H102.407C98.5716 18.5658 95.4966 21.4778 95.4966 25.264C95.4966 29.0503 98.6144 31.92 102.407 31.92H119.221C120.864 31.92 122.171 33.4183 122.171 34.9978C122.171 36.6195 120.823 38.0755 119.221 38.0755H98.2769C97.2662 38.0755 96.4645 38.8653 96.4645 39.8647C96.4645 40.864 97.2645 41.6538 98.2769 41.6538H119.221C123.056 41.6538 126.132 38.7418 126.132 34.9978C126.132 31.2115 123.014 28.3418 119.221 28.3418H102.407C100.764 28.3418 99.4572 26.8435 99.4572 25.264C99.4572 23.6423 100.805 22.1863 102.407 22.1863H123.351C124.362 22.1863 125.164 21.3543 125.164 20.3565V20.3549Z" fill="#6C717D"/>
<path d="M88.247 10.6211C88.247 9.16512 87.0667 8 85.5918 8C84.1168 8 82.9365 9.16512 82.9365 10.6211C82.9365 12.0771 84.1168 13.2422 85.5918 13.2422C87.0667 13.2 88.247 12.0365 88.247 10.6211Z" fill="#6C717D"/>
<path d="M79.8185 10.6211C79.8185 9.16512 78.6383 8 77.1633 8C75.6884 8 74.5081 9.16512 74.5081 10.6211C74.5081 12.0771 75.6884 13.2422 77.1633 13.2422C78.6383 13.2 79.8185 12.0365 79.8185 10.6211Z" fill="#6C717D"/>
<path d="M71.3903 10.6211C71.3903 9.16512 70.21 8 68.7351 8C67.2601 8 66.0798 9.16512 66.0798 10.6211C66.0798 12.0771 67.2601 13.2422 68.7351 13.2422C70.21 13.2 71.3903 12.0365 71.3903 10.6211Z" fill="#6C717D"/>
<path d="M63.0048 10.6211C63.0048 9.16512 61.8245 8 60.3496 8C58.8746 8 57.6943 9.16512 57.6943 10.6211C57.6943 12.0771 58.8746 13.2422 60.3496 13.2422C61.8245 13.2 63.0048 12.0365 63.0048 10.6211Z" fill="#6C717D"/>
<path d="M54.5766 10.6211C54.5766 9.16512 53.3963 8 51.9214 8C50.4464 8 49.2661 9.16512 49.2661 10.6211C49.2661 12.0771 50.4464 13.2422 51.9214 13.2422C53.3963 13.2 54.5766 12.0365 54.5766 10.6211Z" fill="#6C717D"/>
<path d="M73.8777 18.5658C73.8349 18.5658 73.7509 18.5658 73.7098 18.5658H55.8836C48.8035 18.5658 44 23.1418 44 30.1309V39.9069C44 40.9892 44.8856 41.8618 45.9803 41.8618C47.075 41.8618 47.9606 40.9875 47.9606 39.9069V30.1309C47.9606 25.3047 50.9106 22.144 55.8836 22.144H73.7098C73.7526 22.144 73.8365 22.144 73.8777 22.144C74.8884 22.144 75.6901 21.3543 75.6901 20.3549C75.6901 19.3978 74.8901 18.5658 73.8777 18.5658Z" fill="#6C717D"/>
<path d="M49.9822 30.1309C49.9822 31.1287 50.7822 31.92 51.7946 31.92H69.9583C70.969 31.92 71.7707 31.1303 71.7707 30.1309C71.7707 29.1315 70.9706 28.3418 69.9583 28.3418H51.7946C50.7839 28.3418 49.9822 29.1738 49.9822 30.1309Z" fill="#6C717D"/>
<path d="M83.6113 20.3549V39.9069C83.6113 40.9891 84.497 41.8618 85.5917 41.8618C86.6863 41.8618 87.572 40.9875 87.572 39.9069V20.3549C87.572 19.2726 86.6863 18.4 85.5917 18.4C84.4953 18.4423 83.6113 19.3149 83.6113 20.3549Z" fill="#6C717D"/>
</svg>
