<svg width="170" height="49" viewBox="0 0 170 49" fill="none" xmlns="http://www.w3.org/2000/svg">
<path d="M137.386 33.8856C137.504 33.3064 137.47 32.7096 137.47 32.1305C137.47 26.6019 137.47 21.0734 137.47 15.5625C137.47 15.1061 137.605 14.9482 138.008 15.0184C138.092 15.0184 138.176 15.0184 138.26 15.0184C139.049 14.8429 139.503 15.2641 139.956 15.8784C141.199 17.5633 142.509 19.213 143.803 20.8804C145.13 22.6179 146.474 24.3554 147.8 26.093C148.439 26.9179 149.094 27.7603 149.732 28.5852C149.749 28.6203 149.799 28.6203 149.833 28.6378C149.917 28.4974 149.866 28.3395 149.866 28.1991C149.866 23.9693 149.866 19.7396 149.866 15.5098C149.866 15.1237 149.95 15.0008 150.337 15.0184C151.059 15.0535 151.764 15.0184 152.487 15.0184C152.487 21.1963 152.487 27.3566 152.487 33.5345C152.487 33.8329 152.436 33.9207 152.134 33.9031C151.596 33.868 151.059 33.9031 150.538 33.9031C150.538 33.71 150.421 33.5872 150.32 33.4468C149.85 32.8325 149.379 32.2182 148.892 31.6039C147.75 30.1121 146.591 28.6203 145.449 27.1285C144.223 25.5313 142.997 23.9342 141.754 22.3371C141.199 21.6175 140.645 20.8979 140.074 20.1608C140.04 20.1608 140.007 20.1608 139.973 20.1783V33.8856H137.353H137.386Z" fill="#666F84"/>
<path d="M62.6976 33.8851C62.6976 27.7774 62.6976 21.6521 62.6976 15.5444C62.6976 15.1232 62.7816 14.9652 63.2015 15.0003C63.7558 15.0354 64.3269 15.0179 64.8812 15.0003C65.1835 15.0003 65.3179 15.0881 65.3011 15.4216C65.3011 17.6856 65.3011 19.9497 65.3011 22.2137C65.3011 22.3366 65.2675 22.4419 65.2507 22.5648C65.2171 22.7403 65.3011 22.8456 65.4691 22.8631C65.5699 22.8631 65.6706 22.8631 65.7714 22.8631C68.7276 22.8631 71.6839 22.8631 74.6401 22.8631C75.06 22.8631 75.2112 22.7754 75.1944 22.3015C75.1776 20.0901 75.1944 17.8962 75.1944 15.6848C75.1944 15.0003 75.1944 15.0003 75.883 15.0003C76.3533 15.0003 76.8404 15.0179 77.3107 15.0003C77.6635 14.9828 77.7307 15.1232 77.7307 15.4567C77.7307 18.9668 77.7307 22.477 77.7307 25.9872C77.7307 28.6198 77.7307 31.2524 77.7307 33.8851H75.1944C75.1944 31.2524 75.1944 28.6198 75.1944 26.0047C75.1944 25.5835 75.1104 25.408 74.6569 25.4256C71.6839 25.4431 68.7276 25.4431 65.7546 25.4256C65.3179 25.4256 65.2171 25.5835 65.2171 26.0047C65.2171 28.6374 65.2171 31.27 65.2171 33.8851H62.6976V33.8851Z" fill="#666F84"/>
<path d="M124.241 33.8851C124.207 33.2708 123.888 32.7443 123.686 32.2002C122.678 29.5676 121.637 26.935 120.612 24.3023C119.453 21.3538 118.294 18.4228 117.136 15.4918C117.085 15.3865 117.052 15.2812 117.018 15.1583C116.968 15.0004 117.035 14.9477 117.186 14.9653C117.891 15.053 118.614 15.053 119.319 14.9653C119.588 14.9302 119.672 15.1408 119.756 15.3514C120.377 16.931 120.982 18.493 121.603 20.0726C122.594 22.5999 123.585 25.1448 124.576 27.6897C124.778 28.1986 124.946 28.7252 125.232 29.3043C125.567 28.4619 125.853 27.7072 126.155 26.9701C127.146 24.4603 128.121 21.9505 129.112 19.4583C129.649 18.0893 130.187 16.7204 130.707 15.3514C130.791 15.1057 130.909 15.053 131.144 15.0355C131.849 15.0179 132.555 15.1057 133.244 14.9828C133.445 14.9477 133.529 15.0355 133.445 15.2636C132.824 16.8081 132.219 18.3526 131.614 19.8971C130.842 21.8628 130.069 23.8285 129.313 25.7942C128.624 27.5492 127.919 29.3219 127.247 31.077C126.894 32.0072 126.458 32.9198 126.189 33.9027H124.241V33.8851Z" fill="#666F84"/>
<path d="M82.1232 33.8858C82.308 33.096 82.6775 32.394 82.9631 31.6393C83.9373 29.112 84.9283 26.5847 85.9193 24.0749C87.0111 21.2843 88.1196 18.4937 89.2282 15.7031C89.2786 15.5627 89.3458 15.4399 89.3794 15.2995C89.4298 15.0889 89.5642 15.0187 89.7489 15.0362C90.1688 15.0362 90.5888 15.0362 91.0087 15.0362C91.2438 15.0362 91.3446 15.124 91.4286 15.3521C92.2516 17.4933 93.0915 19.6521 93.9313 21.7933C94.9559 24.4259 96.0141 27.041 97.0387 29.6736C97.5594 31.0075 98.0801 32.3238 98.6008 33.6577C98.6344 33.7454 98.6344 33.8332 98.6512 33.9209H95.9469C95.9469 33.7805 95.8965 33.6577 95.8629 33.5348C94.8887 31.0777 93.9313 28.603 92.9571 26.1284C92.1508 24.0574 91.3446 21.9688 90.5384 19.8978C90.5048 19.81 90.5048 19.6696 90.3872 19.6696C90.2696 19.6696 90.2528 19.81 90.2192 19.8978C89.6145 21.4072 89.0267 22.9341 88.4388 24.461C87.4982 26.8655 86.5576 29.27 85.6505 31.6744C85.365 32.4116 85.0123 33.1487 84.8275 33.9209H82.1232V33.8858Z" fill="#666F84"/>
<path d="M105.329 33.8845C105.329 31.1115 105.329 28.3385 105.329 25.5479C105.329 25.0389 105.01 24.7054 104.792 24.3369C103.599 22.301 102.39 20.2826 101.164 18.2467C100.576 17.2814 99.988 16.3161 99.4001 15.3508C99.3497 15.2631 99.2153 15.1753 99.2657 15.0525C99.3329 14.9121 99.484 14.9472 99.6016 14.9472C100.29 14.9472 100.979 14.9472 101.668 14.9472C101.92 14.9472 102.088 15.0349 102.222 15.2631C103.062 16.6145 103.885 17.9835 104.725 19.3349C105.279 20.23 105.833 21.1426 106.371 22.0377C106.522 22.301 106.623 22.3361 106.807 22.0377C108.151 19.8263 109.512 17.6149 110.855 15.4035C111.057 15.0525 111.292 14.9296 111.678 14.9472C112.317 14.9823 112.938 14.9472 113.576 14.9472C113.694 14.9472 113.845 14.8945 113.929 15.0349C114.03 15.1929 113.862 15.2631 113.795 15.3684C112.501 17.5447 111.191 19.721 109.898 21.8973C109.31 22.8802 108.705 23.863 108.118 24.8283C108 25.0038 107.899 25.1793 107.899 25.425C107.899 28.2507 107.899 31.0589 107.899 33.8845H105.279H105.329Z" fill="#666F84"/>
<path d="M28.9928 12.3897C28.9928 15.3909 28.9928 18.3746 28.9928 21.3757C28.9928 21.7443 29.06 21.8847 29.4463 21.8847C31.1596 21.8672 32.8729 21.8672 34.5861 21.8847C34.9724 21.8847 35.0564 21.7443 35.0564 21.3757C35.0564 15.3909 35.0564 9.42361 35.0564 3.43877C35.0564 3.08775 34.9556 3 34.6365 3C32.9065 3 31.1764 3.01755 29.4463 3C29.06 3 28.976 3.10531 28.976 3.49142C28.976 6.45752 28.976 9.42361 28.976 12.3897H28.9928ZM28.9928 37.5225C28.9928 40.5237 28.9928 43.5249 28.9928 46.5086C28.9928 46.8596 29.0768 47 29.4463 47C31.1764 47 32.9065 47 34.6365 47C34.9724 47 35.0732 46.8771 35.0732 46.5437C35.0732 40.5588 35.0732 34.5915 35.0732 28.6067C35.0732 28.2381 34.9556 28.1328 34.6029 28.1328C32.8897 28.1328 31.1764 28.1504 29.4631 28.1328C29.0936 28.1328 28.9928 28.2381 28.9928 28.6243C28.9928 31.5903 28.9928 34.5564 28.9928 37.5225ZM47.0493 25.0263C47.0493 22.0427 47.0493 19.059 47.0493 16.0754C47.0493 15.7068 46.9653 15.6015 46.6125 15.6015C44.8825 15.6191 43.1524 15.6015 41.4224 15.6015C41.1032 15.6015 40.9857 15.7068 40.9857 16.0578C40.9857 22.0427 40.9857 28.01 40.9857 33.9948C40.9857 34.3283 41.1032 34.416 41.4056 34.416C43.1356 34.416 44.8657 34.416 46.5957 34.416C46.9653 34.416 47.0661 34.3283 47.0661 33.9246C47.0661 30.9585 47.0661 27.9924 47.0661 25.0263H47.0493ZM22.9964 25.0263C22.9964 22.0427 22.9964 19.059 22.9964 16.0754C22.9964 15.7244 22.9124 15.6015 22.5597 15.6015C20.8464 15.6191 19.1332 15.6191 17.4199 15.6015C17.0672 15.6015 17 15.7244 17 16.0578C17 22.0251 17 27.9924 17 33.9597C17 34.2932 17.084 34.416 17.4199 34.416C19.1332 34.3985 20.8464 34.3985 22.5597 34.416C22.9292 34.416 22.9964 34.2932 22.9964 33.9422C22.9964 30.9761 22.9964 28.01 22.9964 25.0439V25.0263Z" fill="#666F84"/>
</svg>
