<svg width="170" height="49" viewBox="0 0 170 49" fill="none" xmlns="http://www.w3.org/2000/svg">
<path d="M51.6494 20.6777C49.1699 17.8196 44.843 17.5127 41.9851 19.992L34.7289 26.2868C35.0069 27.0121 35.414 27.7021 35.9524 28.3228C38.4318 31.1808 42.7586 31.4878 45.6167 29.0084L52.8728 22.7135C52.5947 21.9883 52.1877 21.2984 51.6494 20.6777Z" fill="#666F84"/>
<path fill-rule="evenodd" clip-rule="evenodd" d="M50.9652 30.3417C53.2025 28.4008 53.8765 25.3277 52.8743 22.7133L45.6182 29.0081C42.7601 31.4876 38.4333 31.1806 35.9539 28.3225C35.4154 27.7019 35.0084 27.0118 34.7304 26.2866L33.3616 27.474C30.5036 29.9534 30.1966 34.2802 32.676 37.1382C35.1554 39.9963 39.4822 40.3032 42.3403 37.8238L50.9652 30.3417Z" fill="#94A0BC"/>
<path d="M41.986 19.9917C44.844 17.5123 49.1709 17.8193 51.6503 20.6773C52.1887 21.298 52.5957 21.988 52.8737 22.7132L54.2425 21.5259C57.1006 19.0465 57.4076 14.7197 54.9281 11.8616C52.4487 9.00359 48.122 8.69662 45.2639 11.176L36.639 18.6582C34.4016 20.5991 33.7276 23.6722 34.7298 26.2865L41.986 19.9917Z" fill="#94A0BC"/>
<path fill-rule="evenodd" clip-rule="evenodd" d="M71.7222 32.3391L71.7125 32.3488L71.7031 32.3589C71.498 32.5759 71.155 32.7498 70.5175 32.7498C69.8916 32.7498 69.5223 32.5816 69.2843 32.349C69.0755 32.122 68.9021 31.7279 68.9021 31.019V29.2114C68.9021 28.9353 68.6783 28.7114 68.4021 28.7114H62.479C62.203 28.7114 61.9791 28.9353 61.9791 29.2114V31.0575C61.9791 33.5516 62.6914 35.613 64.236 37.097L64.2429 37.1037L64.25 37.1102C65.8144 38.5542 67.9627 39.2113 70.556 39.2113C73.1255 39.2113 75.252 38.5532 76.7918 37.1038L76.7954 37.1005L76.7991 37.097C78.3436 35.613 79.0558 33.5516 79.0558 31.0575V10.2885C79.0558 10.0123 78.8321 9.78846 78.5559 9.78846H72.6329C72.3567 9.78846 72.1328 10.0123 72.1328 10.2885V31.019C72.1328 31.7243 71.9493 32.112 71.7222 32.3391ZM87.767 38.3534L87.7733 38.3567L87.7797 38.3598C89.3193 39.1297 91.0738 39.4998 93.0174 39.4998C94.961 39.4998 96.7153 39.1297 98.255 38.3598L98.2613 38.3567L98.2676 38.3534C99.8035 37.5571 101.005 36.4342 101.845 34.9884C102.711 33.544 103.133 31.9105 103.133 30.1152V18.8846C103.133 17.0893 102.711 15.4557 101.845 14.0114C101.005 12.5645 99.8007 11.4527 98.2613 10.6816C96.7202 9.88396 94.9634 9.5 93.0174 9.5C91.0712 9.5 89.3144 9.88396 87.7733 10.6816C86.2393 11.4499 85.0258 12.5435 84.1588 13.9594L84.1552 13.9656L84.1514 13.9718C83.3096 15.3942 82.902 17.0162 82.902 18.8076V30.1921C82.902 31.9836 83.3096 33.6056 84.1514 35.0281L84.1552 35.0342L84.1588 35.0403C85.025 36.4551 86.2365 37.5598 87.767 38.3534ZM113.402 38.9229C113.678 38.9229 113.902 38.6991 113.902 38.4229V10.5769C113.902 10.3008 113.678 10.0769 113.402 10.0769H107.479C107.203 10.0769 106.979 10.3008 106.979 10.5769V38.4229C106.979 38.6991 107.203 38.9229 107.479 38.9229H113.402ZM139.209 38.9422C139.485 38.9422 139.709 38.7183 139.709 38.4421V10.5577C139.709 10.2815 139.485 10.0577 139.209 10.0577H133.286C133.01 10.0577 132.786 10.2815 132.786 10.5577V23.6644C132.786 24.2033 132.051 24.3609 131.83 23.8694L125.772 10.3912C125.691 10.2116 125.512 10.0961 125.316 10.0961H118.248C117.972 10.0961 117.748 10.32 117.748 10.5961V38.4421C117.748 38.7183 117.972 38.9422 118.248 38.9422H124.171C124.447 38.9422 124.671 38.7183 124.671 38.4421V25.8187C124.671 25.2834 125.399 25.1225 125.624 25.6079L131.692 38.6529C131.774 38.8293 131.951 38.9422 132.146 38.9422H139.209ZM93.0174 33.0383C94.1039 33.0383 94.8507 32.7298 95.3759 32.2046C95.8906 31.6897 96.2096 30.9124 96.2096 29.7306V19.2692C96.2096 18.0874 95.8906 17.31 95.3759 16.7952C94.8507 16.2701 94.1039 15.9615 93.0174 15.9615C91.9308 15.9615 91.1839 16.2701 90.6588 16.7952C90.144 17.31 89.825 18.0874 89.825 19.2692V29.7306C89.825 30.9124 90.144 31.6897 90.6588 32.2046C91.1839 32.7298 91.9308 33.0383 93.0174 33.0383Z" fill="#666F84"/>
</svg>
