<svg width="170" height="49" viewBox="0 0 170 49" fill="none" xmlns="http://www.w3.org/2000/svg">
<path d="M20 37V13H22.4797V37H20Z" fill="#666F84"/>
<path d="M43.0941 37L38.714 29.4244C36.9697 26.4076 36.9697 22.6889 38.714 19.6721L42.5716 13H39.7073L36.5672 18.4309C34.379 22.2156 34.379 26.8809 36.5672 30.6656L40.2296 37H43.0941Z" fill="#666F84"/>
<path d="M35.8857 37L33.8559 31.9629C31.9389 27.2057 31.9389 21.8909 33.8559 17.1338L35.5216 13H32.8481L31.5559 16.2069C29.3993 21.5588 29.3993 27.5378 31.5559 32.8897L33.2122 37H35.8857Z" fill="#666F84"/>
<path d="M28.8506 37L27.8491 30.0741C27.3192 26.4093 27.3192 22.6873 27.8491 19.0225L28.7199 13H26.2144L25.3949 18.6676C24.8309 22.5677 24.8309 26.5287 25.3949 30.4289L26.345 37H28.8506Z" fill="#666F84"/>
<path d="M53.5586 33.2377V29.213L54.7119 28.1067L58.5013 33.2377H61.7729L56.5478 26.2709L61.6317 21.0692H58.3601L53.5586 26.1061V16.4326H50.8284V33.2377H53.5586Z" fill="#666F84"/>
<path d="M67.9586 33.5669C71.5361 33.5669 74.2194 30.9779 74.2194 27.1649C74.2194 23.352 71.5361 20.7394 67.9586 20.7394C64.3575 20.7394 61.6743 23.352 61.6743 27.1649C61.6743 30.9779 64.3575 33.5669 67.9586 33.5669ZM64.334 27.1649C64.334 24.8348 65.7696 22.9519 67.9586 22.9519C70.1239 22.9519 71.5597 24.8348 71.5597 27.1649C71.5597 29.4716 70.1239 31.3545 67.9586 31.3545C65.7696 31.3545 64.334 29.4716 64.334 27.1649Z" fill="#666F84"/>
<path d="M82.5925 24.7172H85.2051C84.9227 22.081 82.922 20.7394 80.3095 20.7394C77.8146 20.7394 75.6257 22.1516 75.6257 24.3641C75.6257 26.247 77.0615 27.3532 79.015 27.8711C79.5799 28.0358 80.1683 28.177 80.7567 28.3182C81.7688 28.5771 82.7102 28.9066 82.7102 29.8952C82.7102 31.025 81.5805 31.4721 80.4272 31.4721C79.015 31.4721 78.1912 30.8602 77.9558 29.5186H75.2727C75.5316 32.4372 77.9558 33.5669 80.4037 33.5669C82.9927 33.5669 85.3934 32.1782 85.3934 29.754C85.3934 27.824 83.84 26.859 81.8629 26.3412C81.3216 26.1764 80.7802 26.0588 80.2389 25.9175C78.9915 25.6115 78.2618 25.1173 78.2618 24.2699C78.2618 23.4226 79.1797 22.8107 80.2625 22.8107C81.3686 22.8107 82.4513 23.352 82.5925 24.7172Z" fill="#666F84"/>
<path d="M87.2126 33.2377H89.9429V27.589C89.9429 24.5527 91.1904 23.0934 92.885 23.0934C94.5796 23.0934 95.2151 24.3173 95.2151 26.2003V33.2377H97.9221V25.6354C97.9221 22.8346 96.6979 20.7398 93.544 20.7398C91.6611 20.7398 90.5313 21.8225 89.8958 23.2111V16.4326H87.2126V33.2377Z" fill="#666F84"/>
<path d="M100.327 24.7874H102.916C103.199 23.587 104.164 22.8338 105.482 22.8338C106.965 22.8338 107.882 23.4458 107.882 24.4108C107.882 25.4464 107.176 25.7523 105.623 25.9878C103.858 26.2702 99.739 26.5526 99.739 29.9183C99.739 31.8483 101.269 33.543 104.023 33.543C106.447 33.543 107.482 32.225 107.882 31.2364H107.906V31.8013C107.906 32.2956 107.929 32.7663 107.976 33.237H110.753C110.613 32.5309 110.565 31.3541 110.565 30.4361V25.7523C110.565 23.1398 109.459 20.7155 105.435 20.7155C102.257 20.7155 100.633 22.8574 100.327 24.7874ZM102.446 29.8242C102.446 28.8121 103.293 28.2943 104.964 27.9884C107.035 27.5882 107.671 26.9998 107.929 26.3173V27.5882C107.929 30.4832 106.329 31.4953 104.705 31.4953C103.269 31.4953 102.446 30.7892 102.446 29.8242Z" fill="#666F84"/>
<path d="M113.008 33.2374H115.739V27.5886C115.739 24.5524 116.986 23.0931 118.681 23.0931C120.375 23.0931 121.011 24.317 121.011 26.2V33.2374H123.717V25.635C123.717 22.8342 122.493 20.7394 119.339 20.7394C117.457 20.7394 116.327 21.8221 115.691 23.2108V21.0689H113.008V33.2374Z" fill="#666F84"/>
<path d="M137.444 29.2833H134.831C134.384 30.6955 133.278 31.378 131.795 31.378C129.559 31.378 128.123 29.5422 128.123 27.1649C128.123 24.7878 129.559 22.9048 131.795 22.9048C133.395 22.9048 134.314 23.7521 134.76 24.929H137.349C136.878 22.4341 134.855 20.7394 131.842 20.7394C128.17 20.7394 125.44 23.2579 125.44 27.1649C125.44 31.025 128.17 33.5669 131.842 33.5669C134.76 33.5669 136.855 32.037 137.444 29.2833Z" fill="#666F84"/>
<path d="M150.441 29.6363H147.734C147.311 30.8367 146.134 31.378 144.745 31.378C142.815 31.378 141.45 30.0599 141.239 27.9181H150.606C150.63 27.7063 150.63 27.518 150.63 27.4003C150.606 23.9404 148.911 20.7394 144.745 20.7394C141.215 20.7394 138.626 23.4226 138.626 27.1179C138.626 30.9544 141.097 33.5669 144.745 33.5669C147.64 33.5669 149.735 32.1076 150.441 29.6363ZM141.262 25.9881C141.52 24.1052 142.815 22.8578 144.745 22.8578C146.769 22.8578 147.781 24.2464 147.946 25.9881H141.262Z" fill="#666F84"/>
</svg>
