<svg width="170" height="49" viewBox="0 0 170 49" fill="none" xmlns="http://www.w3.org/2000/svg">
<path d="M35.9269 20.0067C35.9766 20.0603 36.0308 20.114 36.085 20.1721C39.0975 23.1545 42.1146 26.1414 45.1362 29.1194C45.2762 29.2535 45.3214 29.3877 45.3214 29.5755C45.3124 31.0912 45.3214 32.6115 45.3214 34.1273C45.3214 34.2078 45.3124 34.2928 45.3124 34.3777C45.2988 34.3777 45.2898 34.3777 45.2762 34.3777C45.2085 34.3151 45.1362 34.2615 45.0775 34.1944C40.3441 29.5128 35.6153 24.8268 30.8819 20.1453C30.8142 20.0782 30.769 20.0067 30.6967 19.9127C30.6019 20.0067 30.5342 20.0648 30.4709 20.1229C26.7402 23.8118 23.0096 27.5007 19.2834 31.1941C18.2807 32.1867 17.2735 33.1794 16.2709 34.172C16.2167 34.2256 16.1625 34.2749 16.0992 34.3241H16.0134C16.0134 34.1407 16.0044 33.9619 16.0044 33.7786V29.495C16.0044 29.3474 16.045 29.2401 16.1489 29.1372C16.8625 28.4307 17.5716 27.7154 18.2807 27.0133C19.0666 26.2353 19.866 25.4618 20.6564 24.6793C21.0855 24.2545 21.5056 23.8252 21.9346 23.4004C22.3456 22.9935 22.7657 22.5911 23.1812 22.1842C23.4974 21.8713 23.809 21.5493 24.1207 21.2363C24.5226 20.8383 24.9291 20.4449 25.3356 20.0514C25.3627 20.0245 25.3853 19.9932 25.4079 19.9664C25.4169 19.953 25.4169 19.944 25.4259 19.9307H25.3853C25.2859 19.9307 25.1866 19.9307 25.0872 19.9307H16.3206C16.2302 19.9307 16.1354 19.9217 16.0496 19.9217C16.036 19.9038 16.027 19.8904 16.0134 19.8725C16.0134 19.2778 16.0044 18.6786 16.0044 18.0839V16.5458C16.0044 16.4742 16.0134 16.3983 16.0134 16.3133H45.2988V19.9307H36.1889C36.1076 19.9307 36.0217 19.9307 35.936 19.9307C35.9179 19.9396 35.8999 19.9396 35.8863 19.9485C35.8999 19.9709 35.9134 19.9888 35.9224 20.0112V20.0022L35.9269 20.0067Z" fill="#666F84"/>
<path d="M30.6748 23.6282C35.521 28.4215 40.3809 33.2283 45.2542 38.053H40.3493C40.1911 38.053 40.0827 38.0038 39.9699 37.8965C36.9392 34.8916 33.9041 31.8914 30.8735 28.8866C30.8102 28.8195 30.7651 28.7435 30.7019 28.6586C30.598 28.7525 30.5392 28.8061 30.4805 28.8643C27.4454 31.869 24.4103 34.8693 21.3842 37.8696C21.2578 37.9948 21.1313 38.053 20.9506 38.053C19.4105 38.044 17.8658 38.053 16.3257 38.053H16.1089C20.9687 33.2417 25.8331 28.4305 30.6884 23.6282H30.6793H30.6748Z" fill="#666F84"/>
<path d="M16.0496 10.125C16.1309 10.125 16.2212 10.116 16.3025 10.116H45.2988V13.7334H16.027C16.027 13.7334 16.0044 13.6842 16.0044 13.6574C16.0044 12.4948 16.0044 11.3323 16.0134 10.1697C16.027 10.1563 16.036 10.1429 16.0496 10.125Z" fill="#666F84"/>
<path d="M30.6337 37.369C29.7982 36.5374 28.931 35.6877 28.0684 34.8292C28.1722 34.7309 28.2987 34.6191 28.4161 34.5028C29.1207 33.8008 29.8208 33.0988 30.5254 32.3968C30.6111 32.3119 30.6563 32.3074 30.7557 32.3879C30.7647 32.3968 30.7783 32.4102 30.7873 32.4192C31.5868 33.2106 32.3862 33.9976 33.1811 34.789C33.1991 34.8069 33.2082 34.8248 33.2037 34.8203C32.3455 35.6699 31.4874 36.515 30.6337 37.3645V37.369Z" fill="#666F84"/>
<path d="M45.2715 25.6274C45.2308 25.5915 45.1902 25.5647 45.1495 25.529C44.1784 24.5676 43.2075 23.6063 42.2364 22.6449C42.2003 22.6092 42.1686 22.5689 42.1099 22.5063H45.2941C45.3031 22.5421 45.3167 22.5734 45.3167 22.6092V25.5558C45.3167 25.5782 45.3076 25.6005 45.3076 25.6229H45.276L45.2715 25.6274Z" fill="#666F84"/>
<path d="M16.009 25.578C16.009 24.6212 16.009 23.6598 16 22.7029C16 22.6537 16 22.5956 16.009 22.5464C16.0226 22.533 16.0316 22.5196 16.0452 22.5017C16.411 22.5017 16.7768 22.4928 17.1427 22.4928H19.1842C19.148 22.542 19.1345 22.5822 19.1029 22.609C18.1183 23.5883 17.1291 24.563 16.14 25.5422C16.1219 25.5602 16.1039 25.5691 16.0858 25.5825H16.0045L16.009 25.578Z" fill="#666F84"/>
<path d="M16.009 34.3286H16.095C16.0724 34.351 16.0452 34.3689 16.0181 34.3913C16.0181 34.3689 16.0181 34.351 16.009 34.3286Z" fill="#666F84"/>
<path d="M16.0089 25.578H16.0904C16.0904 25.578 16.0496 25.6138 16.027 25.6273C16.018 25.6093 16.0134 25.5914 16.0044 25.578H16.0089Z" fill="#666F84"/>
<path d="M35.9266 20.0072C35.9266 20.0072 35.8994 19.9668 35.8904 19.9444C35.9085 19.9354 35.9266 19.9354 35.9401 19.9265C35.9401 19.9489 35.9311 19.9758 35.9311 20.0027L35.9266 20.0072Z" fill="#666F84"/>
<path d="M45.2715 25.6271C45.2715 25.6271 45.2953 25.6271 45.3048 25.6271C45.3048 25.6365 45.2953 25.6506 45.2953 25.66C45.2857 25.6506 45.281 25.6365 45.2715 25.6271Z" fill="#666F84"/>
<path d="M45.2715 34.378C45.2715 34.378 45.2949 34.3687 45.309 34.378C45.309 34.3872 45.2996 34.4012 45.2996 34.4151C45.2902 34.4059 45.2809 34.3919 45.2762 34.3826L45.2715 34.378Z" fill="#666F84"/>
<path d="M16.0505 22.4966C16.0505 22.4966 16.027 22.5245 16.0129 22.5431C16.027 22.5292 16.0364 22.5152 16.0505 22.4966Z" fill="#666F84"/>
<path d="M25.385 19.9304H25.4273C25.4273 19.9304 25.4179 19.9535 25.4085 19.9675C25.3991 19.9535 25.3897 19.9443 25.385 19.9304Z" fill="#666F84"/>
<path d="M16.009 19.8677C16.009 19.8677 16.0325 19.9002 16.0466 19.9188C16.0325 19.9002 16.0231 19.8863 16.009 19.8677Z" fill="#666F84"/>
<path d="M16.0505 10.125C16.0505 10.125 16.027 10.1529 16.0129 10.1668C16.027 10.1529 16.0364 10.1389 16.0505 10.1204V10.125Z" fill="#666F84"/>
<path d="M66.8652 35.4262C66.7133 35.5234 66.5703 35.4881 66.4363 35.4881C65.2655 35.4881 64.0859 35.4792 62.9151 35.4969C62.6202 35.4969 62.4415 35.3996 62.2985 35.1607C61.5478 33.9752 60.7971 32.7984 60.0464 31.6129C59.403 30.5954 58.7506 29.578 58.1071 28.5517C58.0803 28.5163 58.0535 28.4809 58.0178 28.4278C57.6334 28.7286 57.3117 29.0383 57.0347 29.3834C56.6593 29.8434 56.2214 30.2504 55.8371 30.7104C55.6674 30.9051 55.5869 31.0909 55.5959 31.3474C55.6048 32.5507 55.5959 33.7628 55.5959 34.9661C55.5959 35.0722 55.5959 35.1784 55.5959 35.2758C55.5959 35.3996 55.5244 35.4616 55.3993 35.4704C55.3546 35.4704 55.3099 35.4704 55.2652 35.4704C54.2285 35.4704 53.1829 35.4704 52.1463 35.4704C51.8245 35.4704 51.8245 35.4527 51.8066 35.1431C51.8066 35.0722 51.8066 34.9926 51.8066 34.9219C51.8066 28.0827 51.8066 21.2348 51.8066 14.3957C51.8066 13.8029 51.753 13.8295 52.3607 13.8295C53.2812 13.8295 54.2017 13.8295 55.1133 13.8295C55.5959 13.8295 55.5959 13.8295 55.5959 14.3249C55.5959 18.1736 55.5959 22.0134 55.5959 25.862V26.3752C55.7924 26.3575 55.8729 26.2248 55.9623 26.1186C56.4628 25.5258 56.9989 24.9685 57.5263 24.3933C58.2769 23.5882 58.9829 22.7389 59.7515 21.9426C60.2519 21.4294 60.6988 20.8632 61.2261 20.3766C61.3512 20.2616 61.4763 20.1731 61.6551 20.182C63.1564 20.182 64.6668 20.182 66.1682 20.182C66.2218 20.3324 66.0967 20.3854 66.0341 20.4562C64.9974 21.5976 63.8625 22.6416 62.8079 23.7652C62.1376 24.473 61.4495 25.1631 60.7703 25.8443C60.6005 26.0125 60.6005 26.1275 60.7346 26.331C61.9232 28.0474 63.0938 29.7726 64.2736 31.489C65.0778 32.6746 65.8822 33.8513 66.6954 35.0369C66.7669 35.1519 66.8563 35.2492 66.8742 35.4085L66.8652 35.4262Z" fill="#94A0BC"/>
<path d="M150.613 33.5327C149.799 34.6475 148.727 35.2491 147.494 35.5676C146.153 35.9127 144.813 35.8684 143.508 35.4084C142.007 34.8687 140.872 33.9132 140.442 32.3295C140.255 31.6482 140.175 30.9581 140.246 30.2326C140.336 29.339 140.648 28.587 141.22 27.9411C141.542 27.5695 141.944 27.2687 142.409 27.074C143.463 26.6228 144.562 26.3663 145.724 26.3751C147.154 26.3839 148.584 26.3751 150.014 26.3751C150.121 26.3751 150.228 26.3751 150.327 26.3751C150.497 26.3751 150.586 26.2954 150.568 26.1362C150.461 25.2692 150.434 24.3844 149.683 23.7386C149.299 23.4023 148.843 23.2254 148.378 23.19C147.709 23.1369 147.029 23.0838 146.359 23.2431C145.367 23.4819 144.598 24.0482 144.009 24.8622C143.964 24.9241 143.928 24.986 143.874 25.048C143.713 25.2603 143.669 25.2603 143.437 25.1011C142.677 24.5525 141.908 24.004 141.149 23.4554C140.872 23.2519 140.836 23.1723 141.032 22.9246C141.944 21.7478 143.07 20.8366 144.5 20.3146C145.653 19.8899 146.842 19.7749 148.039 19.8634C149.353 19.9607 150.613 20.3146 151.676 21.1285C152.794 21.9867 153.517 23.1015 153.821 24.4817C153.964 25.1541 154 25.8266 154 26.5167C154 29.3302 154 32.1525 154 34.966C154 35.5322 154.027 35.5057 153.464 35.5057C152.776 35.5057 152.078 35.5057 151.391 35.5057C150.854 35.5057 150.89 35.5057 150.836 34.9925C150.783 34.5324 150.809 34.0547 150.613 33.5415V33.5327ZM148.262 29.0559C147.601 29.0559 146.94 29.0382 146.279 29.0559C145.581 29.0824 144.956 29.2947 144.482 29.8433C143.785 30.6572 144.089 31.8517 144.911 32.241C145.653 32.5949 146.403 32.648 147.226 32.5595C148.906 32.3648 150.219 31.0112 150.55 29.4274C150.613 29.1266 150.55 29.047 150.246 29.047C149.585 29.047 148.924 29.047 148.262 29.047V29.0559Z" fill="#94A0BC"/>
<path d="M90.8598 33.6655C90.7435 33.7717 90.6189 33.8779 90.5115 33.9928C89.6714 34.913 88.5989 35.4173 87.3924 35.6562C86.1949 35.8863 85.0063 35.8332 83.8446 35.435C82.6112 35.0103 81.6103 34.2848 81.0115 33.0993C80.7255 32.5419 80.5558 31.9402 80.5379 31.3032C80.52 30.7901 80.4932 30.2681 80.5915 29.7637C80.8954 28.242 81.8694 27.3219 83.2993 26.8176C84.1484 26.5168 85.0332 26.3663 85.9447 26.3663C87.3924 26.3663 88.8313 26.3663 90.2787 26.3663C90.3861 26.3663 90.4936 26.3663 90.592 26.3663C90.7614 26.3663 90.8509 26.2955 90.8419 26.1274C90.7793 25.1808 90.6547 24.2606 89.8233 23.6147C89.4747 23.3493 89.0637 23.2077 88.6614 23.1812C87.9912 23.137 87.312 23.075 86.6418 23.2343C85.6498 23.4732 84.8812 24.0394 84.2914 24.8445C84.2467 24.9065 84.1931 24.9596 84.1662 25.0303C84.0768 25.2161 83.9428 25.2161 83.7998 25.11C83.4692 24.88 83.1296 24.6588 82.7989 24.4199C82.3342 24.0925 81.8784 23.7563 81.4226 23.4201C81.1545 23.2255 81.1277 23.137 81.3243 22.8805C81.798 22.2877 82.3253 21.7391 82.9419 21.279C83.8713 20.5801 84.9169 20.1466 86.052 19.943C86.9546 19.7838 87.8661 19.775 88.7777 19.8988C89.9125 20.0492 90.9762 20.3766 91.8967 21.0667C92.7724 21.7214 93.4609 22.5354 93.8451 23.5794C94.1577 24.411 94.2919 25.2604 94.2919 26.154C94.274 29.056 94.2919 31.9668 94.2919 34.8688C94.2919 34.9395 94.2919 35.0192 94.2919 35.0899C94.2919 35.4704 94.2919 35.4793 93.9167 35.4793C93.1208 35.4793 92.3167 35.4793 91.5215 35.4793C91.1813 35.4793 91.1194 35.4262 91.1284 35.0899C91.1284 34.7007 90.9851 34.3291 91.0209 33.9397C91.0299 33.8424 90.9851 33.7363 90.8688 33.6566L90.8598 33.6655ZM88.4559 29.056C87.7946 29.056 87.1333 29.0294 86.4719 29.056C85.48 29.1091 84.2556 29.6753 84.4165 31.1263C84.4612 31.5244 84.6042 31.8517 84.9348 32.0641C85.7391 32.595 86.606 32.6746 87.5533 32.5507C89.2245 32.3295 90.4757 30.9936 90.8061 29.4452C90.8777 29.1179 90.824 29.0471 90.4846 29.0471C89.8054 29.0471 89.1262 29.0471 88.4559 29.0471V29.056Z" fill="#94A0BC"/>
<path d="M125.812 30.3031C125.812 31.8249 125.812 33.3467 125.812 34.8684C125.812 34.9746 125.812 35.0807 125.812 35.178C125.83 35.3992 125.74 35.5054 125.499 35.4966C125.106 35.4878 124.713 35.4966 124.328 35.4966C123.908 35.4966 123.488 35.4966 123.059 35.4966C122.693 35.4966 122.639 35.4435 122.648 35.0719C122.666 34.6649 122.505 34.2845 122.541 33.8775C122.541 33.789 122.505 33.7006 122.416 33.6652C122.327 33.6297 122.291 33.7182 122.246 33.7713C121.602 34.5322 120.807 35.0719 119.86 35.3904C119.253 35.5939 118.627 35.7443 117.974 35.762C117.063 35.7886 116.178 35.7178 115.32 35.4081C114.105 34.9657 113.131 34.2402 112.532 33.0812C112.318 32.6566 112.156 32.1965 112.112 31.7187C112.004 30.542 111.942 29.3564 112.702 28.3301C113.238 27.6046 113.944 27.0915 114.811 26.8084C115.668 26.5341 116.544 26.3571 117.456 26.3571C118.886 26.3571 120.316 26.3571 121.746 26.3571C121.835 26.3571 121.925 26.3571 122.014 26.3571C122.336 26.3483 122.345 26.3395 122.354 26.0298C122.363 25.6671 122.282 25.322 122.201 24.9769C121.925 23.7383 120.906 23.119 119.726 23.1366C119.217 23.1455 118.707 23.0835 118.198 23.2075C117.242 23.4375 116.473 23.9418 115.892 24.738C115.508 25.2689 115.49 25.2689 114.963 24.8885C114.319 24.4284 113.685 23.9595 113.041 23.4994C112.996 23.464 112.943 23.4286 112.898 23.3933C112.666 23.1897 112.648 23.1013 112.844 22.8712C113.345 22.2962 113.845 21.7299 114.471 21.2698C115.392 20.5886 116.429 20.1639 117.545 19.9604C118.43 19.8012 119.324 19.7923 120.226 19.9073C121.102 20.0224 121.934 20.2258 122.711 20.6417C123.989 21.3318 124.9 22.3404 125.401 23.7029C125.687 24.4815 125.821 25.2777 125.803 26.1006C125.785 27.4984 125.803 28.9052 125.803 30.3031H125.812ZM120.012 29.0556C119.592 29.0556 119.172 29.0556 118.743 29.0556C118.305 29.0556 117.876 29.0379 117.447 29.1441C116.429 29.4095 115.946 30.02 115.955 31.064C115.955 31.5152 116.16 31.8426 116.526 32.108C117.036 32.4796 117.626 32.5946 118.225 32.6123C119.538 32.6566 120.673 32.2053 121.523 31.179C121.943 30.6747 122.192 30.0908 122.363 29.4626C122.452 29.1352 122.363 29.0468 121.996 29.038C121.335 29.038 120.673 29.038 120.012 29.038V29.0556Z" fill="#94A0BC"/>
<path d="M130.424 27.7643C130.424 26.4814 130.424 25.1985 130.424 23.9156C130.424 23.8095 130.424 23.7033 130.424 23.606C130.433 23.3936 130.326 23.3228 130.121 23.3228C129.62 23.3228 129.129 23.3228 128.628 23.3228C127.779 23.3228 127.896 23.429 127.896 22.5797C127.896 21.8984 127.896 21.2083 127.896 20.5271C127.896 20.2174 127.913 20.1997 128.235 20.1997C128.834 20.1997 129.441 20.1997 130.04 20.1997C130.415 20.1997 130.424 20.1997 130.424 19.8281C130.424 18.846 130.433 17.864 130.424 16.873C130.424 16.5457 130.496 16.3245 130.782 16.1299C131.827 15.4044 132.837 14.6435 133.874 13.9003C134.106 13.7322 134.223 13.7941 134.232 14.0949C134.241 14.8116 134.232 15.5282 134.232 16.2449C134.232 17.4216 134.232 18.5983 134.232 19.7751C134.232 20.1908 134.232 20.1997 134.652 20.1997C135.644 20.1997 136.636 20.1997 137.636 20.1997C138.021 20.1997 138.021 20.1997 138.03 20.5713C138.03 21.3764 138.03 22.1816 138.03 22.9867C138.03 23.3228 138.021 23.3317 137.663 23.3317C136.654 23.3317 135.644 23.3317 134.634 23.3317C134.241 23.3317 134.232 23.3317 134.232 23.7387C134.232 26.1364 134.232 28.534 134.232 30.9405C134.232 31.9492 134.982 32.4889 135.786 32.4711C136.448 32.4623 137.065 32.3296 137.672 32.0995C137.976 31.9845 138.021 32.0111 138.021 32.3119C138.021 33.2232 138.021 34.1345 138.021 35.0369C138.021 35.2758 137.923 35.382 137.699 35.4439C137.047 35.6209 136.385 35.7447 135.715 35.7624C135.027 35.7801 134.339 35.7889 133.659 35.6031C131.926 35.1343 130.862 34.0725 130.505 32.3208C130.451 32.0553 130.433 31.7899 130.433 31.5245C130.433 30.2681 130.433 29.0206 130.433 27.7643H130.424Z" fill="#94A0BC"/>
<path d="M95.7397 20.2617C95.9091 20.1733 96.0523 20.1998 96.1866 20.1998C97.2585 20.1998 98.3222 20.1998 99.3949 20.1998C99.8059 20.1998 99.8059 20.1998 99.9402 20.5802C100.494 22.1374 101.048 23.6945 101.602 25.2428C102.21 26.9504 102.826 28.658 103.443 30.3656C103.461 30.4098 103.488 30.4452 103.533 30.5248C103.613 30.339 103.702 30.1798 103.765 30.0116C104.337 28.4014 104.909 26.7911 105.489 25.1809C106.052 23.6149 106.634 22.0489 107.188 20.4829C107.259 20.2794 107.366 20.1998 107.581 20.1998C108.769 20.1998 109.958 20.1998 111.147 20.1998C111.209 20.1998 111.263 20.1998 111.317 20.2706C111.317 20.6156 111.093 20.8987 110.968 21.2084C110.539 22.2966 110.066 23.376 109.618 24.4642C109.02 25.9064 108.439 27.3574 107.849 28.7995C107.179 30.4187 106.508 32.0466 105.829 33.6656C105.606 34.2053 105.374 34.7362 105.159 35.2759C105.096 35.444 105.007 35.506 104.828 35.506C103.971 35.506 103.113 35.506 102.255 35.506C102.049 35.506 101.933 35.444 101.852 35.2405C101.299 33.8603 100.726 32.4889 100.163 31.1087C99.7701 30.1444 99.3591 29.1888 98.966 28.2245C98.5639 27.2512 98.1879 26.2603 97.7859 25.2871C97.348 24.2165 96.8833 23.146 96.4454 22.0755C96.2134 21.4827 95.9001 20.9165 95.7487 20.2706L95.7397 20.2617Z" fill="#94A0BC"/>
<path d="M72.772 22.6061C73.0669 22.2167 73.1921 21.8451 73.4244 21.5355C74.0679 20.7038 74.899 20.1996 75.9088 19.9518C76.8562 19.7218 77.7856 19.8102 78.6793 20.1996C79.0099 20.3411 79.3138 20.5269 79.573 20.7923C79.716 20.9427 79.7249 21.0578 79.6266 21.2258C79.2691 21.8451 78.9206 22.4734 78.5721 23.0927C78.4559 23.2961 78.3397 23.5085 78.2235 23.7208C78.0715 23.9862 78.0269 24.004 77.7767 23.8624C76.6685 23.2519 75.2654 23.4554 74.3628 24.3136C73.6925 24.9418 73.3082 25.7115 73.0669 26.5609C72.8614 27.2952 72.7631 28.0384 72.772 28.7993C72.7899 30.843 72.772 32.8868 72.772 34.9218C72.772 35.0279 72.772 35.1341 72.772 35.2314C72.7809 35.4261 72.6827 35.4968 72.495 35.488C72.2269 35.488 71.9499 35.488 71.6817 35.488C70.931 35.488 70.1803 35.488 69.4207 35.488C69.0721 35.488 69.0721 35.4792 69.0632 35.1341C69.0632 35.0633 69.0632 34.9836 69.0632 34.9129C69.0632 30.206 69.0632 25.4903 69.0632 20.7835C69.0632 20.7658 69.0632 20.7569 69.0632 20.7393C69.0632 20.173 69.0364 20.1996 69.5995 20.1996C70.52 20.1996 71.4405 20.1996 72.352 20.1996C72.7541 20.1996 72.7631 20.1996 72.7631 20.5888C72.7631 21.2258 72.7631 21.8717 72.7631 22.6061H72.772Z" fill="#94A0BC"/>
</svg>
