<svg width="95" height="30" viewBox="0 0 95 30" fill="none" xmlns="http://www.w3.org/2000/svg">
<g clip-path="url(#clip0_2777_5189)">
<path d="M9 22.6129C9.75803 22.6129 10.5161 22.6139 11.2741 22.6092C11.3921 22.6092 11.4346 22.6441 11.4308 22.763C11.4233 23.0094 11.428 23.2567 11.428 23.5031C11.428 23.6136 11.4478 23.7212 11.4856 23.825C11.5516 24.0091 11.6819 24.1252 11.8735 24.1658C12.0595 24.2055 12.2455 24.2149 12.4333 24.1705C12.7156 24.1035 12.8751 23.9223 12.8865 23.6325C12.895 23.4219 12.8968 23.2105 12.8647 23C12.826 22.7479 12.692 22.5553 12.4938 22.4071C12.0982 22.1107 11.698 21.8209 11.2977 21.5311C10.8502 21.2064 10.4 20.8845 9.95061 20.5616C9.46728 20.2142 9.2275 19.7309 9.14726 19.1541C9.05286 18.4754 9.08874 17.8042 9.2681 17.1415C9.47011 16.3938 9.97044 15.9511 10.7039 15.7463C11.2316 15.599 11.7716 15.5792 12.3144 15.5801C12.7675 15.5811 13.2188 15.5999 13.6568 15.7245C14.0967 15.8492 14.4884 16.0549 14.7565 16.4439C14.9416 16.7129 15.0209 17.0169 15.0577 17.336C15.1105 17.7957 15.1077 18.2573 15.1068 18.7199C15.1068 18.8671 15.0983 18.8756 14.9557 18.8756C14.2883 18.8756 13.62 18.8756 12.9525 18.8756C12.81 18.8756 12.7987 18.8615 12.7949 18.7208C12.7873 18.4395 12.8109 18.1572 12.7741 17.8759C12.7175 17.4426 12.6004 17.3067 12.0803 17.3152C11.7282 17.3209 11.5724 17.5455 11.5488 17.9052C11.5375 18.0732 11.5582 18.2431 11.5441 18.4102C11.5148 18.7737 11.6914 19.0229 11.9717 19.2183C12.7628 19.7715 13.5548 20.3218 14.3449 20.876C14.7273 21.1441 15.0529 21.4594 15.2059 21.9181C15.2786 22.1353 15.3258 22.3599 15.3333 22.5856C15.3484 23.0897 15.3598 23.5938 15.2776 24.0969C15.154 24.8597 14.7301 25.377 14.0278 25.6819C13.534 25.8962 13.0148 25.9859 12.4805 25.9953C12.0208 26.0029 11.5611 25.9953 11.107 25.9245C10.7209 25.8641 10.348 25.7555 10.0025 25.5677C9.54658 25.3194 9.23128 24.9578 9.10762 24.4452C9.09157 24.3792 9.09534 24.3131 9.09157 24.247C9.08968 24.2092 9.10762 24.1507 9.06608 24.1413C9.00661 24.1281 9.0321 24.2074 9 24.2319V22.6101L9 22.6129Z" fill="#94A0BC"/>
<path d="M48.4114 4C48.3765 4.01322 48.3416 4.02549 48.3029 4.04059C48.3388 4.08118 48.3803 4.06608 48.4171 4.06986C48.8466 4.11989 49.2441 4.25488 49.5867 4.52487C49.9351 4.79863 50.1154 5.16679 50.1796 5.5982C50.257 6.11929 50.2523 6.64415 50.2513 7.16808C50.2513 7.25964 50.2164 7.29268 50.1258 7.29268C49.4385 7.2908 48.7503 7.28985 48.0631 7.29268C47.9612 7.29268 47.9385 7.24832 47.9376 7.15769C47.9347 6.85655 47.9593 6.55447 47.914 6.25428C47.8885 6.08719 47.8677 5.91916 47.7034 5.81532C47.4589 5.6605 47.0181 5.68977 46.8453 5.87668C46.7528 5.97674 46.7113 6.10135 46.7009 6.22974C46.6801 6.49878 46.6801 6.76971 46.7009 7.03969C46.7198 7.29363 46.8831 7.46072 47.0757 7.5976C47.661 8.0139 48.2519 8.42077 48.8391 8.83519C49.1336 9.04287 49.4347 9.24205 49.7189 9.46578C50.1673 9.81978 50.4042 10.2805 50.4609 10.8421C50.5204 11.4331 50.5156 12.0221 50.4061 12.6065C50.2815 13.272 49.903 13.7421 49.2894 14.0414C48.823 14.2689 48.3322 14.3557 47.8233 14.3925C47.1852 14.4388 46.5518 14.4124 45.9268 14.2698C45.4803 14.1679 45.0668 13.9951 44.7251 13.6798C44.4079 13.3862 44.2531 13.0124 44.1927 12.5942C44.1228 12.1118 44.1521 11.6247 44.1446 11.1404C44.1436 11.0621 44.1748 11.0262 44.2559 11.0262C44.9904 11.0272 45.7248 11.0272 46.4602 11.0262C46.548 11.0262 46.5772 11.064 46.5763 11.147C46.5735 11.4133 46.5688 11.6795 46.5763 11.9457C46.5848 12.1996 46.6603 12.4215 46.9086 12.5517C47.1361 12.6707 47.6874 12.649 47.8922 12.4101C47.9866 12.2997 48.0244 12.177 48.0301 12.0448C48.0386 11.8579 48.0357 11.67 48.0197 11.4822C47.9951 11.1933 47.8517 10.98 47.6289 10.8138C47.188 10.4862 46.7424 10.1653 46.2978 9.84244C45.8976 9.55263 45.4973 9.26188 45.0942 8.97679C44.6562 8.66621 44.4108 8.23574 44.3211 7.71843C44.1927 6.98399 44.2267 6.25334 44.4211 5.53212C44.6203 4.79485 45.1225 4.36816 45.839 4.1652C45.9703 4.12744 46.1034 4.0859 46.2431 4.09062C46.3054 4.09251 46.3384 4.06419 46.3384 4C47.0294 4 47.7214 4 48.4124 4L48.4114 4Z" fill="#94A0BC"/>
<path d="M86.5085 14.9809C86.5245 16.1732 86.3584 17.2484 86.0091 18.2934C85.9081 18.5964 85.8175 18.9098 85.6391 19.1798C85.2124 19.8274 84.4411 20.003 83.769 19.6141C83.6151 19.5253 83.4763 19.4168 83.3489 19.2931C83.2252 19.1732 83.1044 19.0496 82.9817 18.9287C81.8697 17.828 80.7614 16.7226 79.6427 15.6285C79.2028 15.198 78.762 14.7685 78.3287 14.3305C77.7189 13.714 76.9844 13.3412 76.1292 13.2251C75.1908 13.0976 74.3299 13.3289 73.5464 13.8538C73.2273 14.0671 72.9658 14.3446 72.6949 14.6109C72.0029 15.2886 71.3299 15.9863 70.6322 16.6584C69.9648 17.3003 69.338 17.9819 68.6659 18.6172C68.3638 18.9023 68.0844 19.2119 67.7426 19.4536C67.4651 19.649 67.1687 19.8019 66.8241 19.8161C66.2539 19.8397 65.8499 19.5631 65.6111 19.0656C65.3505 18.5237 65.1863 17.946 65.0503 17.3617C64.9163 16.7849 64.8417 16.2006 64.8106 15.6077C64.7171 13.8566 65.0428 12.1876 65.7753 10.596C66.2039 9.66522 66.7618 8.81656 67.4377 8.04436C68.4714 6.86342 69.7024 5.94868 71.1297 5.29826C72.1729 4.82342 73.2669 4.52512 74.4082 4.39107C75.0115 4.32027 75.6156 4.30139 76.2188 4.33349C77.4508 4.39862 78.644 4.65634 79.7881 5.12739C80.8124 5.54936 81.7526 6.10821 82.6069 6.81244C83.6784 7.69603 84.5487 8.74481 85.218 9.96069C85.8779 11.1596 86.28 12.4425 86.4509 13.7962C86.5047 14.2191 86.5302 14.6458 86.5104 14.9828L86.5085 14.9809Z" fill="#94A0BC"/>
<path d="M75.6484 25.6229C74.0238 25.6116 72.4718 25.2793 70.9964 24.5911C70.1807 24.2107 69.4246 23.7396 68.7241 23.1761C68.2267 22.7758 68.102 22.1773 68.3749 21.5543C68.5221 21.2163 68.7468 20.9397 69.0215 20.699C69.0508 20.6735 69.08 20.6471 69.1074 20.6187C69.6823 20.0457 70.2515 19.4671 70.8331 18.9007C72.0272 17.7386 73.1997 16.5548 74.3853 15.3833C75.0697 14.7074 76.1148 14.6772 76.8388 15.3125C77.2636 15.6854 77.6459 16.1017 78.0481 16.4982C78.9996 17.4365 79.9493 18.3777 80.8914 19.3245C81.3917 19.8277 81.9223 20.2997 82.4169 20.8075C82.6812 21.0794 82.9125 21.373 83.0286 21.7431C83.1948 22.2755 83.0286 22.8136 82.5934 23.1666C81.1453 24.3381 79.5009 25.0858 77.6742 25.4369C77.0059 25.5653 76.3309 25.6286 75.6484 25.621V25.6229Z" fill="#94A0BC"/>
<path d="M24.6504 9.22085C24.6504 7.59622 24.6504 5.97064 24.6504 4.34601C24.6504 4.16288 24.6504 4.16193 24.8326 4.16193C26.0975 4.16193 27.3616 4.15532 28.6265 4.1676C29.0693 4.17232 29.5111 4.22801 29.9293 4.39793C30.625 4.68019 30.9913 5.21072 31.1093 5.93288C31.1565 6.21892 31.1782 6.50873 31.1791 6.79759C31.1829 8.43072 31.1857 10.0629 31.1782 11.696C31.1763 12.0311 31.1621 12.3682 31.0876 12.6995C30.8865 13.5803 30.3871 14.0532 29.4912 14.1948C29.1967 14.2411 28.8994 14.2703 28.601 14.2703C27.3521 14.2703 26.1032 14.2703 24.8543 14.2703C24.6513 14.2703 24.6513 14.2703 24.6513 14.0721C24.6513 12.455 24.6513 10.8379 24.6513 9.22085H24.6504ZM27.0567 9.21046H27.0557C27.0557 9.24917 27.0557 9.28882 27.0557 9.32752C27.0557 10.3301 27.0557 11.3326 27.0567 12.3351C27.0567 12.4975 27.0642 12.505 27.219 12.505C27.455 12.505 27.691 12.5173 27.9261 12.5022C28.4132 12.472 28.6917 12.3597 28.6841 11.7423C28.6841 11.7262 28.6841 11.7111 28.6841 11.6951C28.6841 10.246 28.6841 8.79699 28.6832 7.34794C28.6832 7.12516 28.686 6.90143 28.6813 6.67865C28.6718 6.2529 28.4 5.98292 27.9752 5.9461C27.7278 5.92439 27.4805 5.931 27.2341 5.92816C27.0614 5.92722 27.0585 5.93194 27.0585 6.10752C27.0585 7.14121 27.0585 8.17489 27.0585 9.20952L27.0567 9.21046Z" fill="#94A0BC"/>
<path d="M20.9021 8.14958C20.9021 6.87706 20.9021 5.6036 20.9021 4.33109C20.9021 4.16872 20.9059 4.164 21.0645 4.164C21.7791 4.164 22.4947 4.164 23.2093 4.164C23.3669 4.164 23.3782 4.17533 23.3782 4.33014C23.3782 6.75434 23.3801 9.17854 23.3745 11.6027C23.3745 11.97 23.3339 12.3372 23.2517 12.6978C23.0865 13.4237 22.6485 13.9118 21.9528 14.1761C21.578 14.3186 21.1872 14.3781 20.7907 14.4083C20.1932 14.4536 19.5975 14.4319 19.0094 14.3139C18.3958 14.1912 17.8351 13.9628 17.4414 13.4417C17.2252 13.1556 17.1195 12.8252 17.0619 12.4778C17.0119 12.1767 16.9902 11.8718 16.9902 11.5659C16.9892 9.15683 16.9892 6.74868 16.9883 4.33958C16.9883 4.17061 16.9958 4.16211 17.1695 4.16211C17.8653 4.16211 18.56 4.16211 19.2558 4.16211C19.4342 4.16211 19.4417 4.16966 19.4417 4.34808C19.4417 6.79965 19.4408 9.25123 19.4417 11.7028C19.4417 11.8199 19.4351 11.9369 19.4568 12.054C19.5522 12.5609 19.8618 12.6921 20.297 12.6591C20.7095 12.6279 20.9012 12.39 20.9021 11.9539C20.904 10.857 20.9021 9.76099 20.9021 8.66406C20.9021 8.49131 20.9021 8.3195 20.9021 8.14675V8.14958Z" fill="#94A0BC"/>
<path d="M32.4057 19.7195C32.4057 20.9571 32.4066 22.1946 32.4047 23.4322C32.4047 23.5804 32.4283 23.7202 32.4821 23.8561C32.5558 24.0411 32.6936 24.1535 32.8843 24.2035C33.0382 24.2441 33.1968 24.2412 33.3525 24.2271C33.5762 24.2063 33.7131 24.0676 33.7943 23.8703C33.8538 23.7277 33.8698 23.5757 33.8698 23.4219C33.8679 21.009 33.8679 18.5971 33.867 16.1842C33.867 16.0747 33.8679 15.9652 33.867 15.8557C33.8651 15.7811 33.8981 15.7462 33.9727 15.7499C33.9888 15.7499 34.0039 15.7499 34.0199 15.7499C34.743 15.7499 35.4652 15.7518 36.1883 15.748C36.3025 15.748 36.3469 15.7764 36.3469 15.8991C36.3431 18.3072 36.3469 20.7163 36.3393 23.1245C36.3384 23.4832 36.3025 23.8429 36.2308 24.1969C36.0609 25.0446 35.5445 25.5723 34.727 25.8234C34.3145 25.9499 33.8934 26.0056 33.4611 25.9999C33.0013 25.9933 32.5407 26.0094 32.0875 25.9263C31.6882 25.8527 31.3031 25.7309 30.9529 25.5175C30.4082 25.1862 30.125 24.6878 30.0258 24.0732C29.9796 23.7872 29.955 23.4993 29.955 23.2085C29.955 20.7805 29.955 18.3526 29.9541 15.9236C29.9541 15.7499 29.9541 15.7499 30.1325 15.7499C30.8358 15.7499 31.5391 15.7499 32.2424 15.7499C32.4047 15.7499 32.4085 15.7537 32.4085 15.9142C32.4085 17.1829 32.4085 18.4517 32.4085 19.7214H32.4076L32.4057 19.7195Z" fill="#94A0BC"/>
<path d="M11.6345 8.57811C11.6808 8.54601 11.6902 8.50259 11.7063 8.46388C12.1084 7.47268 12.5106 6.48242 12.9127 5.49121C13.0722 5.09945 13.2346 4.70864 13.3913 4.31593C13.4347 4.20737 13.4933 4.15923 13.6169 4.16017C14.3353 4.16583 15.0546 4.163 15.774 4.16395C15.8051 4.16395 15.8372 4.16395 15.8684 4.16678C15.9278 4.17339 15.9505 4.19604 15.9231 4.26023C15.5059 5.22784 15.0896 6.19544 14.6733 7.16399C14.4335 7.72189 14.1947 8.2798 13.953 8.83676C13.9152 8.92361 13.9284 9.00291 13.9643 9.08598C14.2277 9.69297 14.4901 10.3009 14.7526 10.9089C15.1368 11.7972 15.521 12.6845 15.9061 13.5719C15.9902 13.7654 16.077 13.9589 16.1676 14.1496C16.2063 14.2308 16.2044 14.2723 16.0987 14.2714C15.3171 14.2695 14.5354 14.2686 13.7538 14.2714C13.6273 14.2714 13.598 14.1855 13.5622 14.0986C13.3771 13.654 13.1959 13.2075 13.0109 12.7629C12.5691 11.699 12.1273 10.636 11.6846 9.57309C11.6742 9.54854 11.6704 9.51928 11.6374 9.50889C11.6024 9.53438 11.6175 9.57309 11.6166 9.60518C11.6166 11.1014 11.6166 12.5977 11.6166 14.093C11.6166 14.2695 11.6166 14.2704 11.4401 14.2704C10.7528 14.2704 10.0656 14.2704 9.37741 14.2704C9.18672 14.2704 9.16406 14.2497 9.16406 14.0647C9.16406 10.822 9.16406 7.57935 9.16406 4.3367C9.16406 4.17244 9.1735 4.163 9.33682 4.163C10.0325 4.163 10.7273 4.163 11.4231 4.163C11.6109 4.163 11.6166 4.16867 11.6166 4.35275C11.6166 5.71589 11.6166 7.07808 11.6166 8.44123C11.6166 8.48276 11.6062 8.52713 11.6326 8.57716L11.6345 8.57811Z" fill="#94A0BC"/>
<path d="M53.8259 9.5051C53.7994 9.55042 53.8098 9.59006 53.8098 9.62782C53.8098 11.1193 53.8098 12.6118 53.8098 14.1033C53.8098 14.2685 53.8079 14.2704 53.6352 14.2704C52.9517 14.2704 52.2683 14.2704 51.5848 14.2704C51.4325 14.2704 51.3561 14.1955 51.3554 14.0458C51.3554 11.1675 51.3554 8.28923 51.3554 5.41096C51.3554 5.0428 51.3583 4.67464 51.3535 4.30648C51.3526 4.20075 51.3847 4.16016 51.4942 4.1611C52.2173 4.16393 52.9395 4.16204 53.6626 4.16299C53.7976 4.16299 53.8089 4.17809 53.8089 4.32724C53.8089 5.69039 53.8089 7.05258 53.8089 8.41572C53.8089 8.46576 53.8089 8.51579 53.8089 8.57715C53.8712 8.55827 53.8778 8.51201 53.8929 8.47614C54.1619 7.81628 54.43 7.15548 54.6981 6.49468C54.9936 5.76874 55.2891 5.04374 55.5827 4.3178C55.6233 4.21585 55.678 4.16016 55.7988 4.16016C56.5333 4.16393 57.2677 4.16204 58.0022 4.16299C58.1362 4.16299 58.1485 4.18753 58.0966 4.30742C57.7898 5.01542 57.4848 5.72437 57.179 6.43237C56.8297 7.24138 56.4823 8.05134 56.1311 8.85941C56.1009 8.93021 56.1141 8.98685 56.1415 9.05009C56.3662 9.56741 56.5899 10.0847 56.8146 10.602C57.2517 11.6121 57.6897 12.6222 58.1268 13.6313C58.2013 13.8041 58.2787 13.975 58.3562 14.1468C58.3949 14.2336 58.3684 14.2704 58.2731 14.2695C57.499 14.2685 56.7259 14.2685 55.9518 14.2695C55.8517 14.2695 55.8017 14.2119 55.7686 14.1317C55.6752 13.9079 55.5846 13.6823 55.4911 13.4576C54.9587 12.1729 54.4263 10.889 53.8938 9.60422C53.8797 9.5693 53.8712 9.5287 53.8249 9.50322L53.8259 9.5051Z" fill="#94A0BC"/>
<path d="M37.5439 20.8037C37.5439 19.1781 37.5439 17.5535 37.5439 15.9279C37.5439 15.7495 37.5439 15.7495 37.7176 15.7495C38.8249 15.7495 39.9332 15.7448 41.0405 15.7523C41.3888 15.7552 41.7419 15.7637 42.0836 15.8345C42.836 15.9902 43.308 16.4509 43.5044 17.1919C43.5685 17.4355 43.6006 17.6828 43.6044 17.9349C43.611 18.3295 43.6195 18.7241 43.5572 19.1158C43.4808 19.5954 43.2712 19.99 42.8539 20.259C42.7255 20.3421 42.6028 20.4346 42.465 20.5016C42.4414 20.5129 42.4055 20.5214 42.4065 20.5526C42.4074 20.5951 42.4508 20.5894 42.4782 20.5979C42.7038 20.6668 42.9295 20.7367 43.122 20.8792C43.459 21.1275 43.5827 21.4796 43.6035 21.8808C43.6554 22.8947 43.6139 23.9085 43.6271 24.9224C43.6308 25.1773 43.6818 25.4199 43.8253 25.6361C43.8451 25.6653 43.8659 25.6936 43.8848 25.7238C43.9065 25.7578 43.9622 25.7824 43.9339 25.8315C43.9122 25.8702 43.8631 25.8569 43.8253 25.8569C43.1692 25.8569 42.5131 25.8551 41.8571 25.8588C41.7306 25.8588 41.6617 25.7984 41.6135 25.6936C41.5059 25.4595 41.4483 25.2131 41.4323 24.9564C41.386 24.237 41.4209 23.5158 41.4115 22.7955C41.4087 22.5841 41.4068 22.3736 41.3851 22.1621C41.3482 21.81 41.117 21.5768 40.7479 21.5598C40.5015 21.5485 40.2551 21.5202 40.0068 21.5306C39.8586 21.5362 39.8548 21.5362 39.8548 21.6835C39.8548 23.0108 39.8548 24.339 39.8548 25.6663C39.8548 25.7934 39.7925 25.8566 39.6679 25.856C39.0241 25.856 38.3794 25.856 37.7355 25.856C37.5467 25.856 37.543 25.8522 37.543 25.6672C37.543 24.0463 37.543 22.4246 37.543 20.8037H37.5439ZM39.8567 18.6646C39.8567 19.0054 39.8596 19.3462 39.8548 19.6869C39.8539 19.7842 39.8879 19.821 39.9851 19.8172C40.2674 19.8068 40.5496 19.8304 40.8319 19.7955C41.1387 19.7577 41.3086 19.6228 41.3596 19.3188C41.4323 18.8883 41.4398 18.4531 41.3756 18.0208C41.3322 17.7244 41.1783 17.5856 40.88 17.5384C40.5874 17.4921 40.2919 17.5252 39.9983 17.5129C39.8898 17.5082 39.8529 17.5478 39.8548 17.6545C39.8596 17.9915 39.8567 18.3285 39.8567 18.6646Z" fill="#94A0BC"/>
<path d="M22.5067 20.8557C22.5067 19.9116 22.5011 18.9676 22.5096 18.0236C22.5133 17.5951 22.6134 17.1844 22.8258 16.8078C23.0807 16.3546 23.4724 16.0611 23.9492 15.8675C24.3608 15.7004 24.7893 15.6127 25.233 15.5938C25.9372 15.5636 26.6377 15.5664 27.3211 15.7826C28.2387 16.0743 28.756 16.6964 28.8957 17.6413C28.926 17.8433 28.9458 18.0444 28.9439 18.2493C28.9401 18.6212 28.9401 18.9931 28.9439 19.3651C28.9448 19.468 28.9156 19.5123 28.8042 19.5114C28.0848 19.5076 27.3665 19.5076 26.6471 19.5114C26.5414 19.5114 26.5121 19.4699 26.5131 19.3717C26.5169 18.9837 26.515 18.5967 26.5169 18.2087C26.5169 18.0982 26.5065 17.9897 26.4876 17.882C26.4376 17.5998 26.2903 17.4469 26.0052 17.3949C25.7909 17.3562 25.5766 17.3506 25.3623 17.4063C25.1745 17.4554 25.0546 17.5724 25.0008 17.7565C24.963 17.8849 24.9366 18.0151 24.9366 18.1492C24.9366 19.9041 24.9347 21.6581 24.9394 23.413C24.9394 23.6433 24.9649 23.8755 25.1292 24.0634C25.1934 24.137 25.2727 24.1842 25.368 24.205C25.6125 24.2578 25.857 24.2711 26.1024 24.2059C26.2705 24.1616 26.3875 24.0615 26.4423 23.8944C26.4857 23.7594 26.5169 23.6225 26.5169 23.48C26.5159 23.0372 26.515 22.5945 26.515 22.1527C26.515 22.0054 26.5206 21.9988 26.667 21.9988C27.4014 21.9988 28.1358 21.9988 28.8712 21.9988C28.9448 21.9988 29.0156 21.9932 29.0166 22.1008C29.0204 22.7824 29.0279 23.4639 28.8948 24.1361C28.7608 24.812 28.42 25.3397 27.7733 25.6389C27.3872 25.8173 26.9738 25.8929 26.5565 25.9467C25.9656 26.0231 25.3718 26.0052 24.7827 25.9429C24.3315 25.8957 23.8935 25.7767 23.4932 25.5549C22.9466 25.2509 22.6483 24.777 22.5568 24.1653C22.5275 23.968 22.5086 23.7698 22.5086 23.5697C22.5105 22.6653 22.5086 21.76 22.5086 20.8557H22.5067Z" fill="#94A0BC"/>
<path d="M32.3817 9.20403C32.3817 7.58695 32.3817 5.96988 32.3817 4.3528C32.3817 4.16211 32.3817 4.16211 32.5686 4.16211C34.1904 4.16211 35.8131 4.16211 37.4349 4.16305C37.6388 4.16305 37.6398 4.16494 37.6398 4.36507C37.6398 4.85029 37.6398 5.33645 37.6379 5.82167C37.6379 5.96799 37.6303 5.9746 37.485 5.9746C36.6637 5.9746 35.8433 5.9746 35.0221 5.9746C34.8597 5.9746 34.8578 5.97554 34.8578 6.13885C34.8578 6.79682 34.8578 7.45479 34.8578 8.11276C34.8578 8.26852 34.8654 8.27513 35.0277 8.27513C35.7858 8.27513 36.5438 8.27513 37.3018 8.27513C37.4727 8.27513 37.4746 8.27702 37.4746 8.44411C37.4746 8.92555 37.4746 9.40699 37.4746 9.88938C37.4746 10.0536 37.4651 10.0631 37.3018 10.0631C36.5438 10.0631 35.7858 10.0631 35.0277 10.0631C34.8587 10.0631 34.8578 10.0631 34.8578 10.233C34.8578 10.9221 34.8578 11.6112 34.8578 12.3004C34.8578 12.4533 34.8616 12.4571 35.0173 12.4571C35.8339 12.4571 36.6514 12.4571 37.468 12.4571C37.637 12.4571 37.6388 12.459 37.6388 12.6279C37.6388 13.1254 37.6369 13.6229 37.6407 14.1195C37.6407 14.2299 37.6067 14.2705 37.4925 14.2705C35.8433 14.2677 34.1932 14.2686 32.5441 14.2677C32.3845 14.2677 32.3807 14.2629 32.3807 14.1015C32.3807 12.4684 32.3807 10.8362 32.3807 9.20309L32.3817 9.20403Z" fill="#94A0BC"/>
<path d="M16.3769 20.7995C16.3769 19.1748 16.3769 17.5493 16.3769 15.9246C16.3769 15.8088 16.436 15.7506 16.5544 15.75C18.1884 15.75 19.8225 15.75 21.4556 15.75C21.5752 15.75 21.635 15.8114 21.635 15.9341C21.635 16.4155 21.635 16.897 21.635 17.3794C21.635 17.5351 21.6322 17.5389 21.4773 17.5389C20.6608 17.5389 19.8433 17.5389 19.0267 17.5389C18.854 17.5389 18.854 17.5389 18.854 17.706C18.854 18.3639 18.854 19.0219 18.854 19.6799C18.854 19.8309 18.8634 19.8394 19.0144 19.8394C19.7762 19.8394 20.5381 19.8394 21.2999 19.8394C21.4688 19.8394 21.4698 19.8394 21.4698 20.0103C21.4698 20.4993 21.4698 20.9892 21.4698 21.4782C21.4698 21.6491 21.4688 21.65 21.3008 21.65C20.5466 21.65 19.7923 21.65 19.038 21.65C18.8568 21.65 18.853 21.6538 18.853 21.8341C18.853 22.5194 18.853 23.2048 18.853 23.8901C18.853 24.0412 18.8577 24.0459 19.0144 24.0459C19.8584 24.045 20.7033 24.045 21.5472 24.0393C21.6444 24.0393 21.634 24.094 21.634 24.1526C21.634 24.6029 21.634 25.0532 21.634 25.5034C21.634 25.5818 21.6322 25.6601 21.634 25.7385C21.6359 25.8235 21.5963 25.8603 21.5123 25.8574C21.4339 25.8556 21.3556 25.8574 21.2763 25.8574C19.713 25.8574 18.1497 25.8574 16.5865 25.8574C16.3759 25.8574 16.375 25.8574 16.375 25.6517C16.375 24.0346 16.375 22.4175 16.375 20.8004L16.3769 20.7995Z" fill="#94A0BC"/>
<path d="M58.2028 19.9866C58.2387 19.844 58.2727 19.709 58.3076 19.5731C58.6097 18.3893 58.9127 17.2055 59.2148 16.0217C59.2846 15.7489 59.2827 15.7489 59.5707 15.7489C60.1871 15.7489 60.8035 15.7489 61.4209 15.7489C61.5531 15.7489 61.5616 15.7593 61.5172 15.8811C61.1113 16.9922 60.7629 18.1231 60.3778 19.2408C60.0379 20.2254 59.7085 21.2138 59.3847 22.204C59.3573 22.2871 59.3498 22.3711 59.3498 22.4589C59.3498 23.5275 59.3498 24.5971 59.3498 25.6657C59.3498 25.8516 59.346 25.8554 59.1581 25.8554C58.4822 25.8554 57.8073 25.8554 57.1314 25.8554C56.9492 25.8554 56.9435 25.8507 56.9435 25.6732C56.9435 24.6509 56.9359 23.6295 56.9492 22.6071C56.9529 22.3154 56.8718 22.052 56.7877 21.783C56.3488 20.3736 55.9089 18.9642 55.4699 17.5548C55.2953 16.9941 55.1225 16.4324 54.945 15.8726C54.9148 15.7772 54.9375 15.7461 55.0376 15.747C55.6936 15.7489 56.3497 15.7508 57.0049 15.7461C57.1106 15.7461 57.138 15.8008 57.1587 15.8839C57.322 16.5532 57.4872 17.2225 57.6506 17.8918C57.8176 18.5724 57.9838 19.2531 58.1499 19.9337C58.1547 19.9526 58.1603 19.9715 58.2028 19.9856V19.9866Z" fill="#94A0BC"/>
<path d="M50.1797 21.6972C50.1797 20.3699 50.1797 19.0426 50.1797 17.7153C50.1797 17.5388 50.1778 17.5379 50.005 17.5379C49.4556 17.5379 48.9053 17.5379 48.3559 17.5379C48.2086 17.5379 48.2011 17.5294 48.2001 17.3868C48.2001 16.8893 48.202 16.3919 48.1973 15.8953C48.1963 15.7811 48.2369 15.748 48.3474 15.748C50.4176 15.7509 52.4868 15.7509 54.557 15.748C54.6675 15.748 54.71 15.7801 54.709 15.8944C54.7043 16.3956 54.7043 16.8969 54.7071 17.3982C54.7071 17.5058 54.6703 17.5407 54.5627 17.5398C53.9935 17.536 53.4242 17.5379 52.8541 17.5379C52.6804 17.5379 52.6794 17.5379 52.6794 17.7153C52.6794 20.3623 52.6794 23.0093 52.6794 25.6563C52.6794 25.7904 52.613 25.8574 52.4802 25.8574C51.7769 25.8574 51.0746 25.8574 50.3713 25.8574C50.1825 25.8574 50.1787 25.8536 50.1787 25.6676C50.1787 24.3441 50.1787 23.0206 50.1787 21.6972H50.1797Z" fill="#94A0BC"/>
<path d="M38.8643 9.21826C38.8643 7.59363 38.8643 5.96805 38.8643 4.34342C38.8643 4.17256 38.8718 4.16406 39.0436 4.16406C39.7507 4.16406 40.4577 4.16406 41.1648 4.16406C41.3338 4.16406 41.3413 4.1735 41.3413 4.34626C41.3413 6.92999 41.3413 9.51467 41.3413 12.0984C41.3413 12.3388 41.46 12.459 41.6972 12.459C42.3646 12.459 43.033 12.459 43.7004 12.459C43.8609 12.459 43.8637 12.4619 43.8637 12.6252C43.8637 13.1227 43.8637 13.6201 43.8637 14.1167C43.8637 14.263 43.8562 14.2706 43.7108 14.2706C42.1513 14.2706 40.5927 14.2706 39.0332 14.2706C38.8728 14.2706 38.8643 14.2611 38.8643 14.0931C38.8643 12.4685 38.8643 10.8429 38.8643 9.21826Z" fill="#94A0BC"/>
<path d="M59.0643 9.20533C59.0643 7.58825 59.0643 5.97117 59.0643 4.3541C59.0643 4.16246 59.0643 4.16152 59.2503 4.16246C59.9536 4.16246 60.6559 4.16246 61.3592 4.16341C61.5348 4.16341 61.5414 4.17001 61.5414 4.33899C61.5414 7.59203 61.5414 10.846 61.5414 14.099C61.5414 14.268 61.5395 14.2709 61.3715 14.2709C60.6569 14.2709 59.9423 14.2709 59.2276 14.269C59.0681 14.269 59.0643 14.2642 59.0643 14.1019C59.0643 12.4697 59.0643 10.8366 59.0643 9.20439V9.20533Z" fill="#94A0BC"/>
<path d="M45.0391 20.791C45.0391 19.1701 45.0391 17.5483 45.0391 15.9275C45.0391 15.7509 45.0391 15.75 45.2137 15.75C45.9245 15.75 46.6354 15.75 47.3472 15.75C47.5114 15.75 47.5171 15.7547 47.5171 15.9105C47.5171 19.1692 47.5171 22.4269 47.5171 25.6856C47.5171 25.8489 47.5086 25.8565 47.3424 25.8565C46.6354 25.8565 45.9283 25.8565 45.2213 25.8565C45.0485 25.8565 45.041 25.8499 45.041 25.6781C45.041 24.0487 45.041 22.4194 45.041 20.791H45.0391Z" fill="#94A0BC"/>
</g>
<defs>
<clipPath id="clip0_2777_5189">
<rect width="77.515" height="22" fill="white" transform="translate(9 4)"/>
</clipPath>
</defs>
</svg>
