<svg width="171" height="49" viewBox="0 0 171 49" fill="none" xmlns="http://www.w3.org/2000/svg">
<path d="M14.2485 24.6178L20.3207 30.8179L45.13 5.84338H32.9856L14.2485 24.6178Z" fill="#666F84"/>
<path d="M14.1902 24.676L20.2623 18.5917L45.0715 43.5663H32.9271L14.1902 24.676Z" fill="#94A0BC"/>
<path d="M34.1982 20.329L29.9189 24.617L35.9911 30.8173L46.3426 20.2711H34.1982V20.329Z" fill="#666F84"/>
<path d="M144.193 37.7787L146.764 32.0764L140.736 18.0422H143.927L148.359 29.0037L152.85 18.0422H155.923L147.325 37.7787H144.193Z" fill="#666F84"/>
<path d="M126.132 32.4606V11.6309H129.116V20.2878C129.608 19.4605 130.268 18.84 131.096 18.4264C131.942 17.993 132.888 17.7764 133.932 17.7764C137.34 17.7764 139.043 19.7067 139.043 23.5673V32.4606H136.059V23.7446C136.059 22.5037 135.813 21.5976 135.321 21.0264C134.848 20.4552 134.099 20.1696 133.075 20.1696C131.874 20.1696 130.908 20.5537 130.18 21.3219C129.471 22.0704 129.116 23.0651 129.116 24.306V32.4606H126.132Z" fill="#666F84"/>
<path d="M121.782 32.7266C119.97 32.7266 118.621 32.2637 117.734 31.338C116.848 30.4122 116.405 29.0728 116.405 27.3198V20.347H113.598V18.0424H116.405V13.6992H119.389V18.0424H123.85V20.347H119.389V27.0834C119.389 28.1273 119.606 28.9152 120.039 29.447C120.492 29.9789 121.221 30.2448 122.225 30.2448C122.54 30.2448 122.846 30.2152 123.141 30.1561C123.437 30.0774 123.732 29.9887 124.028 29.8902L124.5 32.1357C124.205 32.313 123.791 32.4509 123.259 32.5494C122.747 32.6675 122.255 32.7266 121.782 32.7266Z" fill="#666F84"/>
<path d="M111.916 32.7265C110.34 32.7265 109.158 32.2833 108.37 31.397C107.602 30.5106 107.218 29.2106 107.218 27.4969V11.6309H110.202V27.3197C110.202 29.2697 111 30.2447 112.595 30.2447C112.832 30.2447 113.048 30.2348 113.245 30.2151C113.462 30.1954 113.679 30.156 113.895 30.097L113.836 32.4902C113.167 32.6477 112.526 32.7265 111.916 32.7265Z" fill="#666F84"/>
<path d="M96.2533 32.7265C95.2487 32.7265 94.3525 32.5295 93.5646 32.1355C92.7767 31.7416 92.1464 31.2098 91.6737 30.5401C91.2207 29.8704 90.9941 29.112 90.9941 28.265C90.9941 27.2014 91.2601 26.3643 91.7919 25.7537C92.3434 25.143 93.2396 24.6999 94.4805 24.4241C95.7412 24.1483 97.4351 24.0105 99.5624 24.0105H100.567V23.2423C100.567 22.1195 100.331 21.3119 99.8579 20.8195C99.3851 20.3271 98.6071 20.0809 97.5238 20.0809C96.6965 20.0809 95.8692 20.2089 95.0419 20.465C94.2146 20.7013 93.3677 21.0854 92.501 21.6173L91.5851 19.5195C92.3335 18.9877 93.2692 18.5642 94.3919 18.249C95.5146 17.9339 96.5881 17.7763 97.6124 17.7763C99.5821 17.7763 101.04 18.249 101.985 19.1945C102.931 20.1203 103.403 21.5779 103.403 23.5673V32.4605H100.597V30.0673C100.242 30.8946 99.6904 31.5446 98.9419 32.0174C98.1935 32.4901 97.2972 32.7265 96.2533 32.7265ZM96.8442 30.5992C97.9078 30.5992 98.7942 30.2249 99.5033 29.4764C100.212 28.7279 100.567 27.7825 100.567 26.64V25.8423H99.592C98.1541 25.8423 97.0215 25.9112 96.1942 26.0491C95.3866 26.187 94.8055 26.4234 94.451 26.7582C94.1161 27.0734 93.9487 27.5166 93.9487 28.0878C93.9487 28.8363 94.2048 29.4469 94.7169 29.9196C95.229 30.3726 95.9381 30.5992 96.8442 30.5992Z" fill="#666F84"/>
<path d="M82.8362 32.7265C80.4725 32.7265 78.6111 32.0666 77.252 30.7469C75.8929 29.4075 75.2134 27.5855 75.2134 25.2809C75.2134 23.8036 75.5088 22.5036 76.0998 21.3809C76.7104 20.2385 77.5475 19.3521 78.6111 18.7218C79.6748 18.0915 80.896 17.7763 82.2748 17.7763C84.2642 17.7763 85.8302 18.4165 86.9726 19.6968C88.115 20.9574 88.6862 22.7006 88.6862 24.9264V25.9309H78.1089C78.3255 28.9249 79.9112 30.4219 82.8657 30.4219C83.693 30.4219 84.5006 30.2939 85.2885 30.0378C86.0961 29.7817 86.8544 29.3582 87.5635 28.7673L88.4499 30.8355C87.7999 31.4264 86.9627 31.8893 85.9385 32.2242C84.9142 32.559 83.8801 32.7265 82.8362 32.7265ZM82.393 19.8741C81.1521 19.8741 80.1672 20.2581 79.4384 21.0263C78.7096 21.7945 78.2664 22.8188 78.1089 24.0991H86.1749C86.1158 22.7597 85.7612 21.7256 85.1112 20.9968C84.4612 20.2483 83.5551 19.8741 82.393 19.8741Z" fill="#666F84"/>
<path d="M59.3425 32.4605V18.0422H62.238V20.4354C62.7304 19.5687 63.4001 18.9089 64.2471 18.4559C65.1138 18.0028 66.079 17.7763 67.1426 17.7763C70.5502 17.7763 72.254 19.7066 72.254 23.5673V32.4605H69.2699V23.7445C69.2699 22.5036 69.0237 21.5976 68.5313 21.0263C68.0585 20.4551 67.31 20.1695 66.2858 20.1695C65.0843 20.1695 64.1191 20.5536 63.3903 21.3218C62.6812 22.0703 62.3267 23.065 62.3267 24.3059V32.4605H59.3425Z" fill="#666F84"/>
</svg>
