<svg width="171" height="49" viewBox="0 0 171 49" fill="none" xmlns="http://www.w3.org/2000/svg">
<path d="M37.4068 37.9032H40.3145V20.7967C40.3134 16.5788 37.215 13.1599 33.3941 13.1599H30.4863V30.2664C30.4863 34.484 33.5847 37.9032 37.4068 37.9032Z" fill="#94A0BC"/>
<path d="M45.9551 37.9032H43.0474V20.7967C43.0485 16.5788 46.1469 13.1599 49.969 13.1599H52.8768V30.2664C52.8768 34.484 49.7784 37.9032 45.9563 37.9032" fill="#94A0BC"/>
<path d="M80.2735 35.5079C78.1914 35.5079 76.8733 34.1891 76.8733 32.454V25.0273C76.8733 21.8691 75.485 20.4809 73.0906 20.4809C71.0777 20.4809 69.6904 22.0079 69.6904 24.68V35.5079H68.3022C66.3223 35.5079 65.0382 34.1891 65.0382 32.454V24.3676C65.0382 20.4117 67.6411 16.3511 73.4714 16.3511C77.8799 16.3511 81.5228 19.3011 81.5228 24.6106V35.5079H80.2735Z" fill="#666F84"/>
<path d="M88.2212 15.4488C87.5 15.44 86.8113 15.1472 86.3045 14.634C85.7977 14.1207 85.5137 13.4283 85.5142 12.707C85.5151 11.9894 85.8006 11.3014 86.3081 10.7939C86.8155 10.2864 87.5035 10.0009 88.2212 10C88.9425 9.99958 89.6349 10.2835 90.1481 10.7903C90.6614 11.2971 90.9542 11.9858 90.9629 12.707C90.9555 13.4319 90.6643 14.125 90.1517 14.6376C89.6391 15.1501 88.9461 15.4414 88.2212 15.4488ZM91.5182 35.6814C87.9088 35.6814 85.9309 33.6337 85.9309 29.8511V17.1838H87.2497C89.3318 17.1838 90.5812 18.2944 90.5812 20.6544V29.4011C90.5812 31.2749 91.3785 31.8652 93.427 31.8652H94.2947V32.8714C94.2947 34.8843 93.4974 35.6825 91.5182 35.6825" fill="#666F84"/>
<path d="M102.311 35.6813C98.4592 35.6813 96.3768 33.6337 96.3768 29.8511V10.5206H97.6956C100.021 10.5206 101.027 11.8743 101.027 13.6438V29.3999C101.027 31.2738 101.999 31.864 104.185 31.864H105.434V32.8702C105.434 34.8831 104.359 35.6813 102.311 35.6813" fill="#666F84"/>
<path d="M115.22 16.3509C120.843 16.3509 124.07 20.8623 124.07 25.8245C124.07 31.4466 120.843 35.9236 114.804 35.9236C109.182 35.9236 105.955 31.4466 105.955 26.4839C105.955 20.8616 109.182 16.3502 115.22 16.3502V16.3509ZM114.804 20.5148C112.131 20.5148 110.778 22.736 110.778 25.8245C110.778 29.538 112.132 31.7589 115.22 31.7589C117.928 31.7589 119.246 29.538 119.246 26.4828C119.246 22.7348 117.858 20.5136 114.804 20.5136" fill="#666F84"/>
<path d="M132.678 35.9243C129.242 35.9243 126.675 34.1543 126.675 32.2455V30.1285H126.848C127.855 31.0665 130.249 31.8985 132.47 31.8985C134.761 31.8985 135.871 31.2393 135.871 29.8511C135.871 28.7752 135.212 28.2546 131.984 27.8035C128.028 27.2482 126.119 25.6864 126.119 22.8406C126.119 19.3356 129.277 16.3509 134.066 16.3509C138.3 16.3509 140.035 18.5373 140.035 20.342V22.112H139.862C138.89 21.1402 136.739 20.3767 134.517 20.3767C131.672 20.3767 130.769 21.2444 130.769 22.4588C130.769 23.3968 131.325 23.7776 134.517 24.2982C138.404 24.9229 140.487 26.6235 140.487 29.6079C140.487 33.5643 137.71 35.9243 132.678 35.9243" fill="#666F84"/>
</svg>
