<svg width="95" height="30" viewBox="0 0 95 30" fill="none" xmlns="http://www.w3.org/2000/svg">
<path d="M17.6318 23.8123H14V9.89891C14 9.89891 14 7.24875 16.6633 6.40552C19.0845 5.62252 20.6583 7.18852 20.6583 7.18852L32.5826 20.0177C33.1879 20.3791 33.43 20.0177 33.43 19.6563V6.40552H37.1223V20.1984C37.1223 21.3428 36.1538 22.8486 34.7011 23.3906C33.2484 23.9327 31.7352 23.9327 29.9193 22.3667L18.7213 10.3205C18.4187 10.0194 17.6318 9.95914 17.6318 10.5615V23.8123Z" fill="#94A0BC"/>
<path d="M39.4224 6.40472H43.1147V18.8725C43.1147 20.1976 44.2647 20.1976 45.2937 20.1976H61.5157C62.1815 20.1976 62.9684 19.4146 62.9684 18.5714C62.9684 17.7281 62.1815 16.8849 61.4551 16.8849H50.923C49.1071 16.9451 45.3543 15.2587 45.3543 11.7653C45.3543 7.48887 48.9255 6.46494 50.5598 6.34448H80.4615V10.0186H73.0163V23.8115H69.3845V10.0186H51.1046C49.3492 9.89811 48.1386 12.8494 50.9835 13.271H62.242C63.9369 13.271 66.7212 14.7166 66.7818 18.3304C66.7818 22.0045 64.6027 23.7512 62.242 23.7512H45.4753C42.7515 23.7512 41.7225 23.0887 40.754 22.2455C39.8461 21.342 39.725 20.8601 39.4224 19.0532V6.40472C39.4829 6.40472 39.4224 6.40472 39.4224 6.40472Z" fill="#94A0BC"/>
</svg>
