<svg width="170" height="49" viewBox="0 0 170 49" fill="none" xmlns="http://www.w3.org/2000/svg">
<path fill-rule="evenodd" clip-rule="evenodd" d="M45.3251 24.1005C45.3251 19.4495 48.5586 16.1333 52.9272 16.1333C54.6792 16.1333 56.2856 16.571 57.509 17.5069C58.7441 18.4517 59.5396 19.8677 59.7154 21.7144L59.7742 22.3313H55.9347L55.8596 21.8557C55.7205 20.9751 55.4182 20.3863 54.9834 20.0116C54.5492 19.6375 53.9055 19.4104 52.9475 19.4104C51.8285 19.4104 50.9382 19.839 50.3163 20.6024C49.6846 21.3779 49.2918 22.5481 49.2918 24.0803V24.2425C49.2918 25.7936 49.6634 26.95 50.2808 27.7077C50.8854 28.4497 51.7758 28.8719 52.9678 28.8719C53.8798 28.8719 54.6025 28.642 55.1199 28.231C55.6306 27.8252 55.9963 27.1996 56.1217 26.295L56.1891 25.8089H59.9532L59.8761 26.4407C59.6477 28.3111 58.8606 29.7669 57.6264 30.7485C56.3998 31.7242 54.7849 32.1895 52.9678 32.1895C50.572 32.1895 48.6415 31.4212 47.3131 30.0031C45.9896 28.5903 45.3251 26.5981 45.3251 24.2628V24.1005ZM140.114 16.3362H135.719L130.986 21.9496V16.3565H127.161V31.9867H130.986V26.2191L135.735 31.9867H140.387L133.616 23.8442L140.114 16.3362ZM166 16.3562H154.082V19.6129H158.118V31.9864H161.964V19.6129H166V16.3562ZM141.952 16.3562H152.146V19.6129H145.777V22.4618H150.888V25.6171H145.777V28.7296H152.491V31.9864H141.952V16.3562ZM112.449 16.3562H117.881C119.537 16.3562 121.025 16.6917 122.114 17.4831C123.231 18.2949 123.86 19.5378 123.86 21.1794V21.2605C123.86 22.5239 123.461 23.5211 122.776 24.2662C122.273 24.8124 121.639 25.2004 120.946 25.4668L125.187 31.9864H120.921L117.128 26.1242H116.274V31.9864H112.449V16.3562ZM116.274 19.5724V23.0703H117.881C118.716 23.0703 119.254 22.8902 119.577 22.6222C119.881 22.3701 120.076 21.9706 120.076 21.3213V21.2402C120.076 20.5339 119.864 20.1696 119.572 19.9542C119.244 19.7117 118.702 19.5724 117.881 19.5724H116.274ZM105 16.3562H100.657L95.4325 31.9864H99.1632L100.299 28.3961H105.014L106.17 31.9864H110.159L105 16.3562ZM104.026 25.3016H101.287L102.663 20.9911L104.026 25.3016ZM77.3011 16.3562H81.8619L85.283 25.2363L88.6312 16.3562H93.1544V31.9864H89.3297V23.4335L85.956 31.9864H84.3195L80.8621 23.3827V31.9864H77.3011V16.3562ZM75.4628 16.3362H71.0673L66.3348 21.9496V16.3565H62.5101V31.9867H66.3348V26.219L71.0836 31.9867H75.7355L68.9646 23.8442L75.4628 16.3362ZM33.7002 16.3562H29.8552V25.9056C29.8552 27.8736 30.4024 29.4662 31.5102 30.5653C32.6171 31.6636 34.2035 32.1893 36.1186 32.1893C38.1347 32.1893 39.7687 31.6384 40.8969 30.5044C42.0246 29.3709 42.5645 27.7377 42.5645 25.7433V16.3562H38.7195V25.5202C38.7195 26.9803 38.4578 27.7932 38.0677 28.2456C37.6978 28.6744 37.1109 28.8919 36.1388 28.8919C35.1548 28.8919 34.6056 28.6439 34.2726 28.2249C33.9131 27.7727 33.7002 26.9969 33.7002 25.7028V16.3562ZM17.7811 16.3562H21.6058V28.7094H27.7925V31.9864H17.7811V16.3562ZM9.2291 16.3562H4.00024V31.9864H7.82497V26.4691H9.28996C10.9125 26.4691 12.3799 26.1154 13.4543 25.29C14.552 24.4468 15.1679 23.1659 15.1679 21.4836V21.4025C15.1679 19.737 14.5772 18.4414 13.4829 17.5778C12.4098 16.7308 10.9242 16.3562 9.2291 16.3562ZM7.82497 23.3949V19.5724H9.2291C10.0347 19.5724 10.5651 19.7316 10.8886 19.9956C11.1888 20.2407 11.404 20.654 11.404 21.4025V21.4836C11.404 22.1714 11.2029 22.6201 10.8892 22.9044C10.5665 23.197 10.0376 23.3949 9.2291 23.3949H7.82497Z" fill="#666F84"/>
</svg>
