<svg width="126" height="48" viewBox="0 0 126 48" fill="none" xmlns="http://www.w3.org/2000/svg">
<path d="M62.3794 22.9918C61.2313 22.5165 59.8289 22.1203 58.1725 21.8025H58.1373C56.528 21.51 55.3207 21.2415 54.516 20.997C53.7114 20.7539 53.0785 20.4244 52.6167 20.0094C52.1549 19.595 51.9247 19.0217 51.9247 18.2896C51.9247 17.2163 52.3154 16.3992 53.0961 15.8383C53.8775 15.2774 54.9067 14.9965 56.1844 14.9965C57.5811 14.9965 58.7103 15.3623 59.5748 16.0944C60.3506 16.7519 60.8258 17.5871 61.0003 18.5987C61.0348 18.8004 61.2003 18.9492 61.3988 18.9514L65.327 18.9818C65.5678 18.984 65.7606 18.7707 65.7367 18.5232C65.6051 17.1699 65.1721 15.9392 64.4386 14.8318C63.622 13.6004 62.4977 12.6425 61.0658 11.9589C59.6339 11.2761 58.007 10.9343 56.1844 10.9343C54.4569 10.9343 52.9011 11.2638 51.5164 11.9226C50.1323 12.5815 49.0553 13.4959 48.2858 14.6671C47.5164 15.8383 47.132 17.1554 47.132 18.619C47.132 20.2292 47.4748 21.5224 48.1612 22.4976C48.8476 23.4736 49.7466 24.2116 50.8588 24.7116C51.9711 25.2116 53.308 25.6078 54.8701 25.901L55.0475 25.9373C56.7033 26.2544 57.9409 26.5352 58.7575 26.779C59.5741 27.0236 60.2182 27.3646 60.692 27.8036C61.1651 28.2427 61.4016 28.8406 61.4016 29.5967C61.4016 30.6707 60.9757 31.5117 60.1239 32.1213C59.2721 32.7316 58.1711 33.0364 56.8222 33.0364C55.2122 33.0364 53.9113 32.6155 52.9173 31.7737C52.0127 31.0081 51.4805 30.0249 51.3207 28.8246C51.2932 28.6171 51.1257 28.4596 50.9229 28.4567L46.9996 28.3958C46.761 28.3921 46.5681 28.5997 46.5864 28.845C46.6976 30.3209 47.1454 31.6511 47.9296 32.8353C48.7934 34.1408 49.9824 35.1654 51.4974 35.9092C53.0116 36.6537 54.7511 37.0253 56.7159 37.0253C58.5378 37.0253 60.1711 36.6842 61.6149 36.0007C63.0581 35.3178 64.1887 34.3723 65.0053 33.1648C65.8219 31.9573 66.2302 30.5974 66.2302 29.0844C66.2302 27.4742 65.8747 26.1753 65.1651 25.1869C64.4555 24.1993 63.5269 23.4678 62.3794 22.9918Z" fill="#666F84"/>
<path d="M86.5026 32.8542H85.8894C85.5346 32.8542 85.2558 32.757 85.0552 32.561C84.8538 32.3666 84.7532 32.0487 84.7532 31.6097V24.6202C84.7532 22.4004 84.0668 20.7111 82.6947 19.5522C81.322 18.3941 79.7056 17.8034 77.1734 17.8034C74.7827 17.8034 72.9151 18.3389 71.448 19.3875C70.1104 20.3439 69.3044 21.6537 69.0284 23.3191C68.9855 23.5781 69.1756 23.8154 69.4297 23.8154H73.0376C73.2185 23.8154 73.3804 23.6928 73.4283 23.5128C73.593 22.8968 73.9563 22.3939 74.518 22.0042C75.1685 21.5528 75.9415 21.3272 76.9594 21.3272C78.8792 21.3272 80.2442 22.547 80.2442 24.364V24.9322C80.2442 25.1644 80.0619 25.3524 79.8366 25.3524H76.5687C73.9183 25.3524 71.9063 25.8894 70.5342 26.9626C69.1615 28.0366 68.4751 29.5612 68.4751 31.5364C68.4751 33.2446 69.1023 34.5864 70.3568 35.5616C71.298 36.2931 72.423 36.7154 73.581 36.9005C74.4659 37.042 75.3748 37.0935 76.2618 36.9469C77.191 36.7938 77.9457 36.399 78.7011 35.8359C79.3797 35.3309 79.9457 34.6836 80.4624 33.8941C80.7144 33.4478 81.3755 33.627 81.3755 34.143V34.7634C81.3748 35.8911 82.2611 36.8054 83.3551 36.8054H86.5026C86.7278 36.8054 86.9102 36.6175 86.9102 36.3853V33.2736C86.9102 33.0414 86.7278 32.8542 86.5026 32.8542ZM80.2449 29.0852C80.2449 29.9879 80.0612 30.7745 79.6944 31.445C78.9256 32.8513 77.5501 33.5857 76.002 33.5857C75.1023 33.5857 74.3808 33.3665 73.8366 32.9275C73.2917 32.4885 73.02 31.9029 73.02 31.1707C73.02 30.342 73.322 29.7012 73.9253 29.2499C74.5286 28.7992 75.386 28.5728 76.499 28.5728H79.8373C80.0626 28.5728 80.2449 28.7608 80.2449 28.993V29.0852Z" fill="#666F84"/>
<path d="M99.6551 11.2021H94.9603C92.4837 11.2021 90.4759 13.2716 90.4759 15.8245V17.8556C90.4759 18.0878 90.2936 18.2758 90.0683 18.2758H87.3876C87.1623 18.2758 86.98 18.4637 86.98 18.6959V21.8438C86.98 22.076 87.1623 22.264 87.3876 22.264H90.0683C90.2936 22.264 90.4759 22.4519 90.4759 22.6841V36.386C90.4759 36.6182 90.6583 36.8061 90.8835 36.8061H94.5414C94.7667 36.8061 94.949 36.6182 94.949 36.386V22.6841C94.949 22.4519 95.1313 22.264 95.3566 22.264H99.6192C99.8445 22.264 100.027 22.076 100.027 21.8438V18.6959C100.027 18.4637 99.8445 18.2758 99.6192 18.2758H95.3566C95.1313 18.2758 94.949 18.0878 94.949 17.8556V16.0306C94.949 15.5662 95.3144 15.1903 95.7642 15.1903H99.6544C99.8797 15.1903 100.062 15.0023 100.062 14.7701V11.6222C100.062 11.39 99.8804 11.2021 99.6551 11.2021Z" fill="#666F84"/>
<path d="M117.575 22.0593C116.783 20.6936 115.699 19.6443 114.327 18.9122C112.955 18.1807 111.368 17.8041 109.571 17.8041C107.773 17.8041 106.221 18.2112 104.849 19.0036C103.476 19.7967 102.411 20.9186 101.654 22.3699C100.897 23.822 100.518 25.5229 100.518 27.4749C100.518 29.4269 100.909 31.0553 101.689 32.5066C102.471 33.9579 103.589 35.074 105.044 35.8548C106.499 36.6356 108.209 37.026 110.174 37.026C111.688 37.026 113.043 36.7394 114.239 36.1661C115.433 35.5936 116.398 34.8062 117.131 33.8063C117.759 32.95 118.188 32.0124 118.417 30.9943C118.477 30.7302 118.284 30.4762 118.02 30.4762H114.346C114.17 30.4762 114.015 30.5938 113.959 30.7658C113.7 31.5546 113.243 32.1779 112.588 32.6351C111.854 33.1474 110.943 33.4035 109.854 33.4035C108.955 33.4035 108.168 33.2083 107.494 32.8179C106.819 32.4282 106.287 31.8789 105.896 31.1714C105.742 30.892 105.616 30.5967 105.516 30.2926C105.408 29.9661 105.33 29.6294 105.277 29.2883C105.259 29.1693 105.242 29.0489 105.228 28.9284C105.2 28.6802 105.391 28.4633 105.633 28.4633H118.305C118.511 28.4633 118.687 28.3065 118.71 28.0953C118.728 27.9408 118.74 27.7833 118.746 27.6215C118.758 27.3291 118.764 27.0606 118.764 26.8167C118.764 25.012 118.367 23.4257 117.575 22.0593ZM113.768 25.2791H105.831C105.571 25.2791 105.374 25.0302 105.432 24.7682C105.559 24.1942 105.778 23.6761 106.091 23.2117C106.493 22.6145 107.014 22.1566 107.653 21.8395C108.292 21.5223 108.99 21.3634 109.747 21.3634C110.978 21.3634 111.996 21.7052 112.8 22.3881C113.491 22.9744 113.946 23.7668 114.166 24.766C114.224 25.0287 114.029 25.2791 113.768 25.2791Z" fill="#666F84"/>
<path d="M37.4599 23.9976H33.9808C32.9417 23.9976 32.0998 24.8655 32.0998 25.9365V31.1417C32.0998 32.2127 31.2578 33.0806 30.2188 33.0806H16.3779C15.3388 33.0806 14.4968 33.9485 14.4968 35.0196V38.6058C14.4968 39.6768 15.3388 40.5447 16.3779 40.5447H31.0199C32.059 40.5447 32.8889 39.6768 32.8889 38.6058V35.7285C32.8889 34.6575 33.7309 33.8977 34.77 33.8977H37.4592C38.4982 33.8977 39.3402 33.0298 39.3402 31.9587V25.914C39.3402 24.843 38.4989 23.9976 37.4599 23.9976Z" fill="#666F84"/>
<path d="M14.4962 16.8731C14.4962 15.802 15.3382 14.9341 16.3773 14.9341H30.2097C31.2488 14.9341 32.0907 14.0662 32.0907 12.9952V9.40892C32.0907 8.33785 31.2488 7.46997 30.2097 7.46997H15.5754C14.5364 7.46997 13.6944 8.33785 13.6944 9.40892V12.1723C13.6944 13.2433 12.8525 14.1112 11.8134 14.1112H9.13615C8.09708 14.1112 7.25513 14.9791 7.25513 16.0502V22.1014C7.25513 23.1725 8.1006 23.9968 9.13968 23.9968H12.6187C13.6578 23.9968 14.4998 23.129 14.4998 22.0579L14.4962 16.8731Z" fill="#666F84"/>
<path d="M21.6605 20.2278H25.0023C26.0914 20.2278 26.9749 21.1392 26.9749 22.2611V25.7058C26.9749 26.8283 26.0907 27.739 25.0023 27.739H21.6605C20.5715 27.739 19.688 26.8276 19.688 25.7058V22.2611C19.688 21.1385 20.5722 20.2278 21.6605 20.2278Z" fill="#666F84"/>
</svg>
