<svg width="95" height="30" viewBox="0 0 95 30" fill="none" xmlns="http://www.w3.org/2000/svg">
<path d="M19.9823 16.0265C17.919 16.0023 17.3709 18.0415 18.064 19.315C18.6766 20.4273 20.4498 20.6772 21.4251 19.7825C22.1183 19.1538 22.2472 18.3559 22.0215 17.4854C21.7878 16.5746 21.006 16.0265 19.9823 16.0265ZM20.5868 19.4762C19.7567 19.9034 18.7894 19.4359 18.6121 18.5171C18.4993 17.9287 18.6041 17.3967 19.0877 17.0018C19.5149 16.6471 20.0065 16.6149 20.5143 16.8164C21.006 17.0179 21.2478 17.4128 21.3203 17.9206C21.3284 17.9931 21.3284 18.0657 21.3364 18.1302C21.3203 18.7105 21.1269 19.1941 20.5949 19.4762H20.5868ZM16.1941 19.5568C15.8314 19.6938 15.5009 19.6374 15.2108 19.3795C15.1543 19.3311 15.114 19.2586 15.0415 19.178L14.4854 19.8067C14.5257 19.8308 14.5982 19.8712 14.6546 19.9195C15.1946 20.3548 16.0893 20.4434 16.6938 20.1049C17.1532 19.847 17.3467 19.4359 17.3225 18.9201C17.3064 18.4445 17.0485 18.1382 16.6293 17.9528C16.5246 17.9045 16.4117 17.8722 16.3069 17.8319C16.0651 17.7352 15.8153 17.6466 15.5815 17.5257C15.4123 17.437 15.372 17.2597 15.4203 17.0743C15.4767 16.8728 15.646 16.7358 15.8878 16.7035C16.2263 16.6552 16.5246 16.7358 16.7422 16.9856C16.9034 16.8406 17.0485 16.6955 17.2016 16.5584C17.3144 16.4617 17.2822 16.3892 17.1694 16.3166C16.5407 15.9136 15.8878 15.8975 15.2349 16.2199C14.7916 16.4376 14.5982 16.8244 14.6143 17.3161C14.6304 17.7997 14.8964 18.106 15.3236 18.2833C15.4364 18.3317 15.5493 18.3639 15.6621 18.4123C15.8475 18.4848 16.041 18.5493 16.2183 18.6218C16.4198 18.7105 16.5407 18.8636 16.5326 19.0893C16.5246 19.315 16.3875 19.4601 16.186 19.5326L16.1941 19.5568ZM29.5739 19.5246C29.8237 19.2828 30.0897 19.0571 30.3234 18.8072C30.7506 18.3559 31.1214 17.8642 31.073 17.1871C31.0408 16.6874 30.8151 16.3005 30.3476 16.1151C29.6786 15.8492 29.0338 15.9781 28.4374 16.365C28.4051 16.3892 28.3648 16.4456 28.3729 16.4778C28.4374 16.6552 28.518 16.8325 28.5905 17.0179L28.7598 16.9131C28.9693 16.7841 29.195 16.6874 29.453 16.6713C29.8398 16.6471 30.1139 16.8083 30.2106 17.1227C30.267 17.3242 30.267 17.5337 30.1703 17.7272C30.0655 17.9287 29.9527 18.1463 29.7995 18.3075C29.3804 18.7508 28.9532 19.186 28.5019 19.589C28.3004 19.7664 28.2439 19.9518 28.2601 20.1936C28.2681 20.2903 28.3004 20.3225 28.3971 20.3225C29.2837 20.3225 30.1622 20.3225 31.0488 20.3225C31.1456 20.3225 31.1778 20.2822 31.1778 20.1936C31.1778 20.0646 31.1778 19.9276 31.1778 19.7986C31.1859 19.6696 31.1375 19.6293 31.0085 19.6293C30.5652 19.6293 30.1219 19.6293 29.6867 19.6293C29.6303 19.6293 29.5739 19.6293 29.4933 19.6213C29.5336 19.581 29.5497 19.5568 29.5739 19.5326V19.5246ZM24.0688 16.8406C24.5605 16.6149 25.036 16.6471 25.4551 17.034C25.4874 17.0582 25.568 17.0662 25.6002 17.0501C25.7614 16.9373 25.9226 16.8164 26.0919 16.6955C25.979 16.502 25.7131 16.2844 25.4551 16.1716C24.4396 15.7363 22.6502 16.1554 22.5213 17.977C22.3762 20.0727 24.3751 20.6772 25.5519 20.121C25.8098 20.0001 26.0274 19.8308 26.1967 19.5649C26.0274 19.444 25.8662 19.3392 25.7131 19.2183C25.6163 19.1457 25.5599 19.1538 25.4793 19.2425C24.9635 19.847 24.0769 19.6535 23.6819 19.2022C23.3918 18.8717 23.287 18.4848 23.3031 18.0657C23.3273 17.5176 23.561 17.0743 24.0688 16.8406ZM21.7797 9.61065C22.4407 9.34467 23.1177 9.48975 23.6013 9.99753C23.6336 10.0298 23.7061 10.062 23.7383 10.0459C23.8431 9.98141 23.9398 9.90081 24.0527 9.82021C23.9963 9.74767 23.956 9.69931 23.9157 9.64289C23.3192 8.96584 22.215 8.87718 21.5057 9.20764C20.8931 9.49781 20.4982 9.96529 20.4337 10.6585C20.3612 11.4242 20.6191 12.069 21.2961 12.4559C22.0457 12.883 22.8276 12.8508 23.5771 12.4236C23.7545 12.3269 23.8915 12.1657 24.0688 12.0126C23.9479 11.9239 23.8673 11.8594 23.7867 11.7949C23.7142 11.7224 23.6577 11.7385 23.5933 11.8111C23.1661 12.2624 22.6422 12.3753 22.0457 12.2624C21.4412 12.1496 20.9657 11.6418 20.9092 11.0453C20.8448 10.4005 21.1914 9.83633 21.7797 9.60259V9.61065ZM15.2994 12.6735C15.4606 12.6735 15.5815 12.6735 15.7024 12.6735C15.8072 12.6735 15.8636 12.6412 15.912 12.5445C16.0571 12.2463 16.2102 11.9561 16.3553 11.6579C16.4037 11.5612 16.4601 11.529 16.5649 11.529C16.9759 11.529 17.387 11.529 17.7981 11.529C17.9109 11.529 17.9673 11.5693 18.0157 11.666C18.1527 11.9561 18.2978 12.2382 18.4509 12.5203C18.4832 12.5768 18.5476 12.6493 18.596 12.6574C18.733 12.6735 18.87 12.6574 19.0474 12.6574L17.1774 8.91748L15.2994 12.6735ZM17.7013 11.0776H16.6455L17.1532 10.0701H17.2016L17.7013 11.0776ZM26.9221 12.6815C27.043 12.6896 27.0994 12.6412 27.1558 12.5365C27.3009 12.2463 27.454 11.9561 27.5911 11.666C27.6394 11.5693 27.6959 11.537 27.7926 11.537C28.2036 11.537 28.6147 11.537 29.0258 11.537C29.1305 11.537 29.187 11.5693 29.2353 11.666C29.3804 11.9723 29.5416 12.2705 29.6948 12.5606C29.7189 12.609 29.7754 12.6654 29.8237 12.6735C29.9607 12.6896 30.0978 12.6735 30.2751 12.6735L28.4132 8.91748L26.5352 12.6735C26.6883 12.6735 26.8012 12.6735 26.914 12.6735L26.9221 12.6815ZM28.4213 10.0298L28.9532 11.0776H27.8893L28.4213 10.0298ZM26.1564 9.12704C25.7292 9.10286 25.302 9.11092 24.8748 9.10286C24.7297 9.10286 24.6975 9.15122 24.6975 9.28824C24.6975 9.82827 24.6975 10.3602 24.6975 10.9003C24.6975 11.3919 24.6975 11.8917 24.6975 12.3833C24.6975 12.7057 24.6411 12.6815 25.0038 12.6896C25.1327 12.6896 25.1811 12.6493 25.1811 12.5203C25.1811 12.1012 25.1811 11.6821 25.1811 11.2549C25.1811 11.1259 25.2214 11.0776 25.3504 11.0776C25.6566 11.0776 25.9629 11.0695 26.2612 11.0292C26.64 10.9809 26.9382 10.8035 27.0672 10.4167C27.2848 9.75573 26.8737 9.18346 26.1564 9.1351V9.12704ZM26.1886 10.5859C25.8904 10.6182 25.5922 10.6182 25.2939 10.6182C25.2536 10.6182 25.1892 10.5456 25.1892 10.5053C25.173 10.3683 25.1892 10.2232 25.1892 10.0781C25.1892 9.94917 25.1892 9.81215 25.1892 9.68319C25.1892 9.59453 25.2133 9.54617 25.3181 9.54617C25.6083 9.55423 25.8984 9.54617 26.1806 9.57841C26.3015 9.58647 26.4143 9.64289 26.503 9.73155C26.5836 9.82021 26.6319 9.94111 26.6319 10.062C26.6319 10.3199 26.4627 10.5537 26.1967 10.5779L26.1886 10.5859ZM19.6438 12.6815C19.7728 12.6815 19.805 12.6412 19.805 12.5203C19.805 11.9803 19.805 11.4484 19.805 10.9083C19.805 10.3683 19.805 9.82827 19.805 9.28018C19.805 9.1351 19.7567 9.07868 19.6116 9.0948C19.5955 9.0948 19.5793 9.0948 19.5632 9.0948C19.402 9.0948 19.3214 9.17272 19.3214 9.32855C19.3214 10.3361 19.3214 11.3436 19.3214 12.3591C19.3214 12.7218 19.265 12.6654 19.6438 12.6735V12.6815Z" fill="#94A0BC"/>
<path fill-rule="evenodd" clip-rule="evenodd" d="M30.9086 14.5135H14.4854V14.2703H30.9086V14.5135Z" fill="#94A0BC"/>
<path d="M37.6452 11.7479C37.2637 10.013 36.5726 8.3611 35.6051 6.87143C34.3236 4.89187 32.6705 3.29533 30.6443 2.0937C28.2891 0.696602 25.7351 0.00202026 22.9959 3.57428e-05C21.2945 -0.00369802 19.605 0.285122 18.0014 0.853875C16.1435 1.50561 14.4346 2.52208 12.9751 3.84355C10.9152 5.70404 9.465 7.96242 8.65134 10.6207C8.16914 12.1911 7.95201 13.831 8.00886 15.4728C8.04061 16.4323 8.15819 17.3809 8.36805 18.3176C8.42263 18.5632 8.49109 18.8063 8.5541 19.0544C8.60372 19.045 8.62951 19.042 8.65382 19.035C9.77706 18.7126 10.8993 18.3886 12.023 18.0676C12.1352 18.0358 12.1243 17.9763 12.1014 17.8895C11.6999 16.4098 11.603 14.8641 11.8167 13.3459C12.0274 11.7999 12.5616 10.3156 13.3844 8.9899C14.1774 7.70231 15.2225 6.58835 16.457 5.71495C18.242 4.44684 20.2315 3.75921 22.413 3.63915C23.7742 3.56406 25.1376 3.74014 26.4351 4.15859C28.1063 4.68861 29.6298 5.60354 30.8829 6.82975C31.9959 7.90869 32.8721 9.20749 33.4558 10.6435C33.9925 11.9537 34.2767 13.3536 34.2933 14.7693C34.311 15.8445 34.1716 16.9166 33.8795 17.9515C33.8468 18.0681 33.878 18.1103 33.9877 18.1425C35.0822 18.468 36.1756 18.7964 37.2686 19.1273C37.3812 19.1611 37.4239 19.1343 37.4556 19.0182C37.6864 18.1873 37.8442 17.3378 37.9275 16.4795C38.0817 14.8869 37.991 13.3097 37.6452 11.7479ZM36.452 15.0333C36.4569 15.0605 36.4073 15.1206 36.3785 15.1231C36.3473 15.126 36.2912 15.0868 36.2803 15.0541C36.192 14.7902 36.1702 14.7713 35.8928 14.7693C35.7817 14.7693 35.6696 14.7782 35.5604 14.7639C35.5207 14.7589 35.4885 14.6979 35.4533 14.6626C35.4905 14.6364 35.5267 14.5877 35.5649 14.5862C35.7919 14.5787 36.019 14.5771 36.2461 14.5813C36.3036 14.5823 36.3612 14.6066 36.4192 14.6205L36.3746 14.7857C36.4009 14.8651 36.4371 14.9469 36.452 15.0333ZM36.4073 13.7513C36.4098 14.0554 36.194 14.2722 35.8884 14.2717C35.5832 14.2717 35.3783 14.0623 35.3769 13.7473C35.3749 13.4402 35.5882 13.2234 35.8913 13.2239C36.1915 13.2249 36.4043 13.4422 36.4073 13.7513ZM13.1091 5.19501C13.1517 5.19153 13.1999 5.25008 13.2832 5.30763C13.1989 5.36568 13.1463 5.42868 13.1096 5.42025C13.0609 5.40884 13.0247 5.34236 12.9826 5.29969C13.0242 5.26248 13.0644 5.19848 13.1091 5.19501ZM9.10332 14.6413L9.55877 14.6418L10.4141 14.6488C10.4865 14.6488 10.5679 14.6517 10.548 14.75C10.5406 14.7872 10.4667 14.8373 10.4225 14.8373C10.0266 14.8417 9.6307 14.8323 9.23479 14.8348C9.09042 14.8358 9.05966 14.7743 9.10332 14.6413ZM10.5991 16.4944C10.4116 16.4284 10.2236 16.3644 10.0365 16.2969C9.76367 16.1977 9.49179 16.0984 9.2204 15.9953C9.09935 15.9491 9.0666 15.8117 9.16782 15.7576C9.60937 15.5234 10.0559 15.2997 10.5074 15.068C10.5833 15.2258 10.5337 15.3245 10.3933 15.3607C10.2107 15.4088 10.1829 15.5234 10.2166 15.6822C10.2241 15.7184 10.2315 15.7566 10.228 15.7923C10.2082 16.0344 10.2494 16.2279 10.5421 16.2741C10.5858 16.281 10.6135 16.3872 10.6493 16.4477C10.6324 16.4626 10.616 16.479 10.5991 16.4944ZM10.1149 14.2583C9.5285 14.4061 9.03039 13.9671 9.12564 13.3826C9.1378 13.2982 9.16843 13.2175 9.21533 13.1462C9.26224 13.0749 9.32427 13.0149 9.39703 12.9703C9.45458 13.0448 9.53942 13.0919 9.44069 13.1886C9.28391 13.3415 9.24769 13.531 9.3365 13.7269C9.43027 13.9333 9.60491 14.0519 9.83114 14.0742C10.0757 14.099 10.2806 14.0182 10.4131 13.8009C10.5267 13.6143 10.5009 13.4164 10.3402 13.1653C10.4275 13.0115 10.4711 13.0086 10.5624 13.1544C10.7693 13.4858 10.6671 14.1189 10.1149 14.2583ZM10.616 12.7699C10.2142 12.6821 9.81179 12.5992 9.40844 12.5194C9.31517 12.501 9.28292 12.4618 9.30772 12.368C9.3494 12.2103 9.37172 12.0466 9.42531 11.8933C9.50171 11.6764 9.65948 11.5926 9.86934 11.6303C10.0792 11.6675 10.1988 11.8188 10.2017 12.0902C10.1908 12.1468 10.1745 12.2455 10.1531 12.3432C10.1333 12.432 10.1571 12.4802 10.2548 12.4956C10.3903 12.5164 10.5252 12.5432 10.6567 12.5819C10.6964 12.5933 10.7465 12.6523 10.7475 12.691C10.75 12.7694 10.6964 12.7873 10.616 12.7699ZM11.1404 10.7075C10.9365 10.6896 10.8413 10.7854 10.8165 10.9774C10.8101 11.0246 10.7958 11.0704 10.7743 11.1128C10.6711 11.3128 10.6815 11.477 10.8968 11.6005C11.003 11.6616 10.9633 11.7499 10.8934 11.8511C10.7574 11.737 10.6254 11.6278 10.4969 11.5152C10.2501 11.2998 10.0058 11.0815 9.76416 10.8603C9.7334 10.832 9.71108 10.7611 9.72447 10.7273C9.74283 10.6847 9.79939 10.6346 9.84354 10.6296C10.3173 10.58 10.7912 10.5383 11.265 10.4957C11.2788 10.4942 11.2942 10.5026 11.3156 10.5086C11.3255 10.6385 11.2744 10.7199 11.1404 10.7075ZM11.9104 9.3104C11.8484 9.45329 11.7298 9.57434 11.6227 9.69242C11.5989 9.71921 11.4892 9.71574 11.4684 9.68845C11.4193 9.62495 11.4292 9.554 11.5229 9.51282C11.6519 9.45626 11.7477 9.35208 11.7412 9.21018C11.7316 9.11612 11.6882 9.02872 11.6192 8.9641C11.5378 8.89117 11.4411 8.94029 11.3662 9.01272C11.2937 9.08218 11.2223 9.15313 11.1464 9.21812C10.9757 9.36646 10.8303 9.39077 10.6701 9.30296C10.4955 9.20721 10.432 9.07375 10.4558 8.85148C10.4801 8.62177 10.6374 8.43771 10.8527 8.39306C10.9137 8.48236 10.9196 8.53793 10.8115 8.61929C10.7272 8.6828 10.6701 8.80981 10.6463 8.91796C10.6344 8.97403 10.7083 9.07375 10.7698 9.11245C10.8145 9.14023 10.9152 9.12088 10.9673 9.08665C11.0591 9.02711 11.132 8.94029 11.2139 8.86537C11.3905 8.70364 11.5711 8.67635 11.7467 8.78401C11.9228 8.89266 12.0042 9.09657 11.9104 9.3104ZM12.1749 8.56522C11.962 8.62326 11.6842 8.5027 11.5765 8.30624C11.4594 8.0924 11.4971 7.85476 11.6758 7.68508C11.8196 7.54865 12.094 7.5283 12.2443 7.65531C12.2726 7.67913 12.2751 7.76942 12.2532 7.80911C12.154 7.98772 12.0414 8.15889 11.9258 8.34593C12.1823 8.43225 12.3892 8.28143 12.3783 8.03684C12.3743 7.95597 12.3644 7.87411 12.4696 7.88453C12.5018 7.8875 12.546 7.98226 12.5489 8.03684C12.5603 8.27399 12.3902 8.50618 12.1744 8.56522H12.1749ZM12.7762 7.64886C12.5554 7.49653 12.3391 7.3377 12.1277 7.17258C12.1069 7.15621 12.1287 7.0416 12.1342 7.0416C12.2681 7.03664 12.2443 6.92948 12.2671 6.8501C12.3158 6.67943 12.3748 6.65958 12.4998 6.77766C12.352 7.04855 12.3683 7.12148 12.6149 7.30902C12.7032 7.37599 12.7975 7.43553 12.8779 7.50945C12.9047 7.53426 12.8987 7.59379 12.9071 7.63696C12.863 7.64192 12.8039 7.66772 12.7762 7.64886ZM13.4474 6.87788C13.1319 6.78461 12.8208 6.67744 12.5018 6.57375C12.5529 6.43732 12.6164 6.39812 12.7315 6.4398C12.9225 6.51025 13.117 6.57127 13.3383 6.60947C13.242 6.43285 13.1498 6.25375 13.048 6.07961C12.9875 5.97542 13.0004 5.90447 13.1299 5.84295C13.2797 6.12872 13.432 6.40904 13.5744 6.69481C13.6166 6.77915 13.5298 6.90219 13.4474 6.87788ZM13.9619 6.25772C13.7547 6.07003 13.5528 5.87646 13.3566 5.67725C13.3398 5.65988 13.3457 5.59538 13.3651 5.57306C13.3849 5.54825 13.4529 5.52692 13.4668 5.54031C13.6786 5.73877 13.885 5.94268 14.0919 6.14609C14.1018 6.15601 14.1038 6.17437 14.1241 6.22547C14.0646 6.23886 13.9857 6.27905 13.9619 6.25821V6.25772ZM14.8693 5.42422C14.8222 5.66484 14.5379 5.83601 14.2824 5.7859C14.0274 5.73579 13.8275 5.46589 13.8602 5.21535C13.8959 4.9395 14.1271 4.747 14.4025 4.77181C14.4303 4.87947 14.3921 4.92164 14.2943 4.94744C14.1281 4.9911 14.0299 5.12555 14.0393 5.26595C14.0492 5.41579 14.2015 5.57852 14.3534 5.60134C14.5136 5.62614 14.6347 5.54379 14.7086 5.37659C14.7265 5.3374 14.783 5.31606 14.8222 5.2863C14.8391 5.33194 14.8773 5.38304 14.8693 5.42422ZM15.7068 4.74105C15.6567 4.95538 15.4066 5.12803 15.1794 5.11811C14.9591 5.10819 14.7508 4.91469 14.7031 4.67655C14.6585 4.45081 14.7577 4.24988 14.9686 4.13627C15.1536 4.03704 15.3476 4.07772 15.5153 4.24045C15.5986 4.32132 15.6106 4.3759 15.5039 4.44883C15.3362 4.56393 15.1774 4.69193 15.0127 4.81696C15.1908 4.98911 15.3947 4.95587 15.5123 4.75445C15.5252 4.73212 15.5262 4.69987 15.5441 4.6835C15.5833 4.64629 15.6294 4.61602 15.6731 4.58328C15.6855 4.63587 15.7177 4.69342 15.7068 4.74105ZM16.8975 4.01075C16.4798 4.00926 16.1141 3.63369 16.1176 3.21049C16.1216 2.79076 16.4788 2.45042 16.9144 2.45141C17.3401 2.4524 17.6834 2.81111 17.6834 3.25514C17.6834 3.65949 17.3177 4.01174 16.8975 4.01075ZM18.3264 2.48862C18.1175 2.65532 18.0981 2.70444 18.1865 2.95151C18.2252 3.06066 18.2812 3.16385 18.3145 3.27449C18.3249 3.30922 18.2867 3.35933 18.2703 3.402C18.2296 3.38116 18.1661 3.36925 18.1512 3.337C18.0453 3.0957 17.9444 2.85221 17.8486 2.6067C17.8377 2.57991 17.8486 2.5174 17.862 2.51293C17.9116 2.49904 17.9657 2.50251 18.0366 2.49805C18.0977 2.44794 18.1661 2.38245 18.245 2.33383C18.2658 2.32043 18.3383 2.34722 18.3502 2.37302C18.3646 2.40279 18.3517 2.46878 18.3264 2.48862ZM19.6555 3.39455C19.4635 3.54438 19.2427 3.57663 19.011 3.50966C18.9803 3.50073 18.9664 3.43474 18.9445 3.39505C18.9892 3.37322 19.0324 3.33601 19.0785 3.33254C19.1901 3.3246 19.3117 3.35734 19.4149 3.32758C19.6322 3.26457 19.6912 3.07505 19.5816 2.86469C19.2859 3.0944 19.0358 3.12664 18.8284 2.96193C18.6573 2.82549 18.5853 2.53675 18.6742 2.34375C18.7823 2.10859 19.0224 2.01283 19.3062 2.07584C19.3638 2.02871 19.404 1.97414 19.4521 1.96669C19.4784 1.96173 19.5339 2.03119 19.5488 2.07584C19.6352 2.33681 19.7185 2.59827 19.7924 2.86221C19.8485 3.06165 19.8346 3.25514 19.6555 3.39455ZM20.7271 2.63895C20.5659 2.68955 20.4374 2.74512 20.3034 2.76695C20.1531 2.79176 20.0529 2.70444 20.0053 2.56254C19.9566 2.41966 20.0192 2.30654 20.1328 2.2351C20.229 2.17457 20.3446 2.1448 20.4518 2.10263C20.4905 2.08775 20.5297 2.07535 20.5738 2.06046C20.5391 1.9146 20.4473 1.87193 20.3233 1.90617C20.2489 1.92601 20.1849 1.98158 20.1119 2.00787C20.0713 2.02276 20.0211 2.00936 19.976 2.00936C19.982 1.96818 19.9735 1.91212 19.9973 1.8893C20.1392 1.75286 20.3149 1.69531 20.5074 1.7355C20.6755 1.77122 20.7336 1.91261 20.7663 2.06393C20.807 2.24899 20.8452 2.43454 20.8933 2.66276C20.8379 2.65491 20.7825 2.64697 20.7271 2.63895ZM21.962 2.50847C21.9278 2.47175 21.8712 2.43901 21.8638 2.39783C21.8385 2.25296 21.8325 2.10412 21.8142 1.95727C21.7938 1.78809 21.71 1.69928 21.5844 1.70523C21.5147 1.70744 21.4487 1.73688 21.4004 1.78725C21.3522 1.83762 21.3256 1.9049 21.3265 1.97463C21.3265 2.12694 21.3582 2.27925 21.3612 2.43107C21.3627 2.48068 21.318 2.5303 21.2942 2.57991C21.2565 2.54022 21.193 2.5045 21.1866 2.46034C21.1503 2.21481 21.121 1.9683 21.0987 1.72111C21.0953 1.68886 21.1255 1.62585 21.1434 1.62436C21.193 1.62139 21.2446 1.64272 21.3071 1.6576C21.3632 1.62585 21.4192 1.58368 21.4822 1.56036C21.7144 1.47404 21.9303 1.59013 21.9744 1.83274C22.0072 2.01432 22.0265 2.19888 22.0389 2.38295C22.0419 2.42313 21.9893 2.46679 21.962 2.50847ZM22.4304 1.00817C22.47 1.04885 22.536 1.08606 22.542 1.13072C22.5479 1.17338 22.4904 1.22448 22.4363 1.30932C22.3743 1.22994 22.3063 1.17934 22.3133 1.14312C22.3232 1.09251 22.3887 1.05282 22.4304 1.00817ZM22.5623 2.35814C22.5584 2.4018 22.5097 2.44149 22.4815 2.48316C22.4502 2.44496 22.3956 2.40874 22.3921 2.36905C22.3743 2.1319 22.3624 1.89475 22.3619 1.6576C22.3614 1.60601 22.4065 1.51869 22.4447 1.51025C22.5469 1.48644 22.54 1.57971 22.5415 1.64669C22.544 1.76229 22.542 1.87888 22.542 1.99497H22.5663C22.5663 2.11603 22.5732 2.23808 22.5623 2.35814ZM23.4975 2.32936C23.5422 2.33284 23.5834 2.37749 23.6265 2.40329C23.5819 2.42909 23.5387 2.47572 23.4941 2.47671C23.3204 2.48019 23.1453 2.47175 22.9716 2.46183C22.924 2.45836 22.8411 2.43603 22.8387 2.4147C22.8349 2.35923 22.8513 2.30426 22.8848 2.25991C23.0138 2.09271 23.1527 1.93246 23.2867 1.76874C23.3085 1.74195 23.3264 1.71119 23.3591 1.66356C23.2346 1.65463 23.1294 1.65463 23.0272 1.63726C22.9706 1.62734 22.919 1.58765 22.8655 1.56136C22.921 1.53903 22.9756 1.50033 23.0322 1.49735C23.185 1.48991 23.3388 1.49438 23.4921 1.49984C23.6394 1.5048 23.6732 1.5678 23.5834 1.68688C23.4722 1.83472 23.3497 1.97314 23.2321 2.11652C23.1789 2.17749 23.1389 2.24876 23.1145 2.32589C23.242 2.32589 23.3705 2.31894 23.4975 2.32936ZM24.7135 1.98207C24.7036 2.12397 24.6917 2.26586 24.6738 2.40775C24.6674 2.46084 24.6441 2.51194 24.6277 2.56403L24.4972 2.52335C24.3211 2.52335 24.1787 2.54518 24.0472 2.5174C23.9068 2.48763 23.827 2.37153 23.8389 2.21972C23.8493 2.07733 23.9351 1.97959 24.072 1.95429C24.2209 1.92651 24.3732 1.92452 24.5245 1.91113C24.522 1.75137 24.4392 1.68142 24.2586 1.69928C24.202 1.70474 24.148 1.73897 24.0919 1.74195C24.0537 1.74393 24.014 1.71416 23.9753 1.69878C23.9927 1.66207 24.0001 1.60551 24.0284 1.59112C24.1106 1.54736 24.2024 1.52477 24.2955 1.52537C24.3886 1.52598 24.4801 1.54977 24.5617 1.5946C24.717 1.67596 24.7245 1.82927 24.7135 1.98207ZM25.5609 2.59727C25.4989 2.64788 25.4602 2.70642 25.4136 2.71337C25.2548 2.73718 25.1209 2.65979 25.1 2.53823C25.0918 2.47052 25.0938 2.40194 25.106 2.33482C25.1283 2.17308 25.1571 2.01234 25.1854 1.8382C25.1303 1.82331 25.0901 1.82083 25.0613 1.80148C25.0355 1.78412 25.0053 1.74691 25.0077 1.72111C25.0107 1.6968 25.0554 1.65463 25.0772 1.6576C25.1933 1.67199 25.2375 1.62188 25.2533 1.51174C25.2583 1.47801 25.3178 1.45221 25.3526 1.42244C25.3779 1.46411 25.4324 1.51273 25.4245 1.54598C25.3942 1.67199 25.4349 1.72111 25.5599 1.73302C25.5962 1.73649 25.6274 1.79255 25.6607 1.8243C25.616 1.84465 25.5674 1.8888 25.5287 1.88136C25.4071 1.85655 25.3481 1.88781 25.3436 2.01779C25.3411 2.08527 25.3213 2.15274 25.3084 2.22022C25.2568 2.50003 25.2563 2.50003 25.5609 2.59727ZM26.1067 1.94883C26.053 2.20756 25.9925 2.46481 25.9251 2.72031C25.9167 2.75256 25.8536 2.7858 25.8149 2.78828C25.7901 2.78928 25.7629 2.73272 25.749 2.71585C25.8144 2.42809 25.87 2.16961 25.936 1.91361C25.9439 1.88235 26.0094 1.86647 26.0481 1.84316C26.0685 1.87888 26.1126 1.91906 26.1067 1.94883ZM26.1265 1.59212C26.0809 1.58567 26.0432 1.52216 26.0015 1.48297C26.0447 1.4408 26.0829 1.37531 26.1335 1.3639C26.1682 1.35596 26.2193 1.42343 26.3002 1.48545C26.2168 1.54002 26.1677 1.59807 26.1265 1.59212ZM26.8365 3.07753C26.5418 3.0686 26.3056 2.84435 26.3066 2.57396C26.3081 2.26536 26.5274 2.03566 26.8161 2.04111C27.1317 2.04607 27.3693 2.27032 27.3649 2.55709C27.365 2.62614 27.3514 2.69453 27.3248 2.75826C27.2982 2.82199 27.2591 2.87977 27.2099 2.92823C27.1607 2.97669 27.1024 3.01485 27.0382 3.04049C26.9741 3.06612 26.9055 3.07871 26.8365 3.07753ZM28.2544 3.54984C28.245 3.57068 28.1651 3.58259 28.1388 3.56621C28.114 3.54984 28.0957 3.48435 28.1076 3.4526C28.1602 3.30872 28.2251 3.16981 28.2847 3.02841C28.3531 2.86469 28.3303 2.76149 28.2137 2.69749C28.1838 2.6798 28.1506 2.66842 28.1162 2.66405C28.0817 2.65967 28.0467 2.66241 28.0133 2.67207C27.9799 2.68174 27.9489 2.69814 27.9221 2.72026C27.8953 2.74238 27.8733 2.76975 27.8575 2.80069C27.7816 2.93216 27.7305 3.07852 27.6655 3.21744C27.6382 3.27449 27.6273 3.36131 27.5236 3.31567C27.4219 3.27151 27.4725 3.20553 27.4973 3.1455C27.5901 2.92075 27.6859 2.69749 27.7781 2.47225C27.8213 2.36657 27.9061 2.37253 27.9389 2.44794C27.9771 2.53724 28.0252 2.51492 28.0857 2.51244C28.3373 2.50053 28.5174 2.65284 28.5144 2.94506C28.4469 3.1063 28.3556 3.33006 28.2544 3.54984ZM30.097 4.35407C30.1769 4.34911 30.2474 4.35456 30.2404 4.44337C30.2374 4.48157 30.164 4.53516 30.1164 4.54409C29.846 4.59469 29.5181 4.41658 29.3777 4.15363C29.2288 3.8753 29.2789 3.51462 29.5002 3.26804C29.7011 3.04329 29.9517 2.95746 30.2434 3.02742C30.4944 3.08795 30.6825 3.23083 30.7604 3.49031C30.7678 3.51462 30.7693 3.54042 30.7738 3.56572L30.7375 3.62178C30.6795 3.59003 30.5957 3.57316 30.5674 3.52404C30.4136 3.25613 30.2449 3.15592 29.9983 3.20801C29.7284 3.26556 29.522 3.49378 29.5032 3.75623C29.4754 4.13627 29.714 4.37987 30.097 4.35407ZM31.0114 5.27488C30.7296 5.27191 30.4701 5.02335 30.4721 4.75693C30.4746 4.4523 30.7073 4.21962 31.003 4.22507C31.2922 4.23004 31.5224 4.46669 31.5194 4.75593C31.517 5.04369 31.2878 5.27786 31.0114 5.27488ZM31.7735 6.13517C31.9327 5.96947 32.0533 5.84494 32.1728 5.71942C32.2641 5.62366 32.3475 5.52345 32.2478 5.38751C32.152 5.25752 31.9967 5.23371 31.8578 5.35377C31.7194 5.47383 31.6068 5.62317 31.4718 5.77201L31.3096 5.64152C31.5229 5.4138 31.7234 5.19798 31.9273 4.98663C31.9471 4.96679 32.0136 4.95587 32.0215 4.96679C32.0543 5.01342 32.0736 5.07048 32.1019 5.1325C32.4105 5.20047 32.5797 5.43315 32.4373 5.65889C32.3133 5.85734 32.1332 6.02106 31.9679 6.19074C31.9511 6.2086 31.8687 6.16395 31.7735 6.13517ZM32.6139 6.77022C32.5658 6.87937 32.5053 6.88234 32.4264 6.81636C32.2448 6.66554 32.2329 6.53208 32.3996 6.36488C32.5038 6.26069 32.6228 6.17139 32.725 6.06571C32.7548 6.03496 32.7737 5.96401 32.7593 5.9263C32.7374 5.87024 32.6635 5.81914 32.7518 5.77399C32.7816 5.75911 32.8426 5.80525 32.8888 5.82608C32.9071 5.83452 32.922 5.84891 32.9354 5.85833C33.0396 5.84097 33.1239 5.59836 33.244 5.84196C33.2222 5.86528 33.2033 5.89157 33.1785 5.90894C33.0808 5.97691 33.0545 6.04438 33.1611 6.1312C33.242 6.19719 33.2351 6.26169 33.1418 6.31031C33.1274 6.30535 33.1155 6.30535 33.1081 6.2989C32.9334 6.13666 32.9334 6.13666 32.7464 6.29939L32.6273 6.40408C32.4403 6.57375 32.4398 6.58814 32.6139 6.77072V6.77022ZM32.8421 7.12594C32.8074 7.14579 32.7469 7.12098 32.6982 7.11602C32.7082 7.07286 32.7032 7.01233 32.731 6.98951C32.9285 6.82281 33.1314 6.66206 33.3363 6.50429C33.3631 6.48296 33.4355 6.47056 33.4424 6.48197C33.4722 6.5291 33.4846 6.58665 33.5059 6.64718C33.5774 6.69282 33.6568 6.7345 33.7228 6.79205C33.7426 6.80941 33.7411 6.88681 33.7203 6.90715C33.697 6.92948 33.629 6.93692 33.6012 6.91856C33.3576 6.76079 33.3144 6.76079 33.0818 6.94386C33.0024 7.00588 32.928 7.07583 32.8421 7.12594ZM33.2504 7.72626C33.2485 7.44446 33.4921 7.20929 33.7828 7.21326C34.0512 7.21624 34.2928 7.47522 34.2938 7.76049C34.2948 8.03684 34.0586 8.26803 33.7729 8.27002C33.4816 8.2725 33.2529 8.03386 33.2504 7.72626ZM34.006 8.79195C33.8904 8.85942 33.8324 8.83908 33.8076 8.69073L35.1337 7.9396C35.2518 8.03386 35.2384 8.09389 35.1223 8.15839C34.7483 8.36577 34.3757 8.57663 34.006 8.79195ZM35.0221 9.72467C34.9924 9.69738 34.911 9.70631 34.8614 9.72318C34.7418 9.76386 34.6297 9.82687 34.5091 9.86458C34.4699 9.87698 34.4158 9.84275 34.3687 9.82985C34.3891 9.78024 34.3975 9.70234 34.4327 9.68696C34.8152 9.52126 35.2017 9.36349 35.5897 9.21018C35.6244 9.1958 35.7068 9.21515 35.7172 9.23896C35.7931 9.41806 35.875 9.59865 35.9181 9.78669C35.9643 9.98811 35.8869 10.1221 35.7331 10.2005C35.5708 10.2828 35.3907 10.2555 35.2518 10.125C35.233 10.1077 35.224 10.0799 35.1973 10.0328L34.7443 10.6495C34.6451 10.5542 34.6227 10.4718 34.7046 10.3667C34.8142 10.2253 34.912 10.0739 35.0256 9.93503C35.0901 9.85614 35.0807 9.78024 35.0221 9.72467ZM35.1908 11.478C35.2702 11.545 35.3099 11.5956 35.2121 11.6834C34.9631 11.6353 34.8341 11.2825 34.8996 11.0454C34.9616 10.8206 35.2126 10.6673 35.4741 10.6971C35.7261 10.7254 35.9132 10.9352 35.9176 11.1932C35.9216 11.4165 35.7514 11.5961 35.4731 11.6457L35.2548 10.9447C35.0112 11.0459 34.9824 11.3034 35.1908 11.478ZM35.2489 12.2043C35.0995 12.2331 34.9566 12.2673 34.8123 12.2837C34.7726 12.2887 34.7269 12.2405 34.6838 12.2162C34.716 12.1795 34.7433 12.118 34.7825 12.1101C35.1642 12.0293 35.5471 11.9541 35.931 11.8843C35.9836 11.8749 36.064 11.8843 36.0933 11.9186C36.1166 11.9458 36.0823 12.0227 36.0709 12.0957C36.2614 12.3403 36.2823 12.5734 36.1191 12.7823C35.9752 12.9659 35.6944 13.0284 35.4726 12.9262C35.2315 12.8141 35.1655 12.6102 35.2489 12.2043ZM36.258 16.7638C36.2272 16.7945 36.1712 16.7985 36.1265 16.8154C36.123 16.7603 36.1091 16.7032 36.1181 16.6501C36.131 16.5757 36.1726 16.5063 36.1796 16.4318C36.1826 16.4011 36.1334 16.35 36.0972 16.3376C36.0739 16.3286 36.0179 16.3644 36.0005 16.3941C35.9598 16.4676 35.932 16.5479 35.9013 16.6268C35.8442 16.7692 35.739 16.8352 35.5887 16.8109C35.4404 16.7861 35.3555 16.6908 35.3441 16.5405C35.3287 16.3376 35.352 16.1491 35.5614 16.0369C35.6458 16.1074 35.6775 16.1714 35.5818 16.2582C35.546 16.2909 35.5098 16.3535 35.5163 16.3961C35.5277 16.4705 35.5718 16.54 35.6021 16.6119C35.6577 16.5673 35.7251 16.5326 35.7658 16.4765C35.811 16.414 35.8249 16.3296 35.865 16.2617C35.8878 16.2229 35.9203 16.1907 35.9593 16.1684C35.9984 16.146 36.0426 16.1342 36.0876 16.1342C36.1325 16.1342 36.1767 16.146 36.2158 16.1684C36.2548 16.1907 36.2873 16.2229 36.3101 16.2617C36.3979 16.4056 36.3775 16.6462 36.258 16.7638ZM36.6038 15.6683C36.4381 15.641 36.4078 15.7363 36.3974 15.8677C36.3949 15.894 36.3453 15.9169 36.317 15.9407C36.2947 15.9109 36.2476 15.8762 36.253 15.8524C36.2982 15.644 36.1637 15.644 36.0238 15.643C35.9494 15.643 35.876 15.637 35.802 15.6331C35.6671 15.6261 35.554 15.641 35.5674 15.8236C35.5693 15.8484 35.5197 15.902 35.5004 15.8995C35.4816 15.895 35.4642 15.8863 35.4492 15.8741C35.4343 15.8619 35.4223 15.8465 35.4141 15.829C35.3411 15.6286 35.4632 15.451 35.679 15.4485C35.8318 15.4465 35.9851 15.4679 36.1379 15.4654C36.1806 15.4644 36.2272 15.4212 36.2639 15.3885C36.3011 15.3557 36.3284 15.3121 36.3602 15.2734C36.384 15.3195 36.4083 15.3657 36.4311 15.4123C36.4381 15.4257 36.4396 15.4421 36.4475 15.4713C36.5075 15.4798 36.5646 15.4763 36.6102 15.4971C36.6284 15.5072 36.644 15.5212 36.656 15.5381C36.6681 15.555 36.6761 15.5744 36.6797 15.5949C36.6817 15.6182 36.6266 15.6718 36.6038 15.6683Z" fill="#94A0BC"/>
<path d="M37.1297 19.326C36.062 19.006 34.9929 18.6884 33.9262 18.3635C33.7928 18.3223 33.7412 18.3516 33.698 18.4801C33.0952 20.2934 32.0975 21.8572 30.6979 23.1566C28.6509 25.0573 26.2213 26.0599 23.4351 26.1889C22.1352 26.249 20.8611 26.0718 19.6188 25.6799C17.4984 25.0106 15.7321 23.813 14.3092 22.1088C13.3997 21.0231 12.71 19.771 12.2786 18.422C12.2339 18.2841 12.1813 18.2563 12.0424 18.2975C10.9419 18.6199 9.84014 18.9383 8.73722 19.2525C8.62509 19.2843 8.61368 19.3394 8.65139 19.4376C8.85976 19.9858 9.03539 20.5489 9.27601 21.0823C10.7828 24.4212 13.1855 26.9034 16.4719 28.5193C18.5229 29.5274 20.7029 30.0022 22.9861 29.9903C23.2604 29.9903 23.5358 30.0012 23.8101 29.9883C25.2543 29.9187 26.68 29.634 28.0401 29.1434C30.2789 28.3497 32.295 27.031 33.9193 25.2979C35.4632 23.6607 36.5884 21.7704 37.283 19.6271C37.3579 19.3954 37.3599 19.3944 37.1297 19.326ZM12.3729 22.5855L11.8559 22.9304L11.7066 22.7111L12.4145 22.2199C12.5579 22.1207 12.6993 22.0175 12.8472 21.9252C12.8809 21.9039 12.9647 21.9004 12.9796 21.9207C13.1592 22.1678 13.3299 22.4213 13.51 22.6833L13.3215 22.8148L12.9097 22.2333C12.873 22.2457 12.8571 22.2482 12.8437 22.2561C12.5574 22.4268 12.5574 22.4263 12.7479 22.7026C12.8164 22.8029 12.8829 22.9036 12.9563 23.0142L12.7688 23.1442L12.3729 22.5855ZM12.615 23.7787C12.6174 23.6425 12.6726 23.5126 12.7689 23.4162C12.8653 23.3199 12.9952 23.2647 13.1314 23.2623C13.4514 23.2613 13.7288 23.55 13.7258 23.8814C13.7228 24.0176 13.6666 24.1471 13.5692 24.2423C13.4718 24.3374 13.341 24.3906 13.2049 24.3905C12.8938 24.3855 12.6145 24.0958 12.615 23.7787ZM13.5611 24.9759L13.3726 24.8037L14.1098 24.1141C14.153 24.1617 14.2968 24.1861 14.2289 24.3041C14.344 24.3776 14.4477 24.4381 14.5399 24.5135C14.5479 24.52 14.4804 24.6192 14.4368 24.6951C14.3901 24.6579 14.3594 24.6356 14.3321 24.6107C14.1852 24.4758 14.0627 24.4728 13.9163 24.6122C13.7987 24.7239 13.6881 24.8444 13.5611 24.9759ZM15.3293 26.4593L15.1239 26.2971C15.239 26.1492 15.3472 26.0138 15.4513 25.8754C15.5729 25.7146 15.5744 25.6199 15.4613 25.5306C15.3467 25.4398 15.2236 25.4661 15.1075 25.6109C14.9989 25.7459 14.8942 25.8838 14.7776 26.0327L14.5782 25.8764C14.6947 25.7226 14.8029 25.5762 14.916 25.4328C14.9984 25.3286 15.0564 25.2264 14.9289 25.1163C14.8232 25.0245 14.6883 25.0389 14.5816 25.1639C14.4621 25.3033 14.3519 25.4512 14.2294 25.6055L14.0274 25.4507L14.6625 24.6321C14.732 24.7214 14.789 24.7928 14.8709 24.897C15.1373 24.9317 15.238 25.0166 15.2876 25.281C15.4166 25.3187 15.5357 25.3321 15.6319 25.3862C15.8304 25.4968 15.879 25.6928 15.7525 25.8888C15.6275 26.0833 15.4776 26.2619 15.3293 26.4593ZM16.2967 26.7803C16.4371 26.7783 16.5031 26.824 16.5071 26.9614C16.266 27.0621 15.9643 26.9435 15.8224 26.6945C15.7607 26.5823 15.7413 26.4515 15.7679 26.3262C15.7945 26.2009 15.8653 26.0893 15.9673 26.0118C16.1747 25.856 16.5121 25.8918 16.7085 26.0897C16.8842 26.2673 16.8822 26.5377 16.6927 26.7778L16.0323 26.3909C15.9237 26.5779 16.0616 26.7838 16.2967 26.7803ZM17.1516 27.0482C17.1168 27.1202 17.0757 27.1886 17.0479 27.2626C17.0107 27.3618 16.9621 27.3901 16.8579 27.3409C16.7512 27.2903 16.7715 27.2288 16.8107 27.1504C16.9377 26.8959 17.0628 26.6404 17.2086 26.3447L17.4284 26.5377C17.5485 26.5744 17.6641 26.6057 17.7732 26.6518C17.7797 26.6548 17.737 26.7749 17.7172 26.8413C17.3704 26.7124 17.2999 26.7401 17.1516 27.0482ZM17.5663 27.6649L18.1865 26.1904L18.4246 26.2852L17.8035 27.7622L17.5663 27.6649ZM19.1812 27.4923C18.9605 27.7483 18.7407 28.0048 18.5179 28.2583C18.3185 28.4845 18.1349 28.5014 17.867 28.3099L17.9494 28.1377C18.0749 28.1878 18.2078 28.2618 18.3095 28.1243C18.3577 28.0588 18.4003 27.9686 18.3979 27.8912C18.3899 27.6282 18.3596 27.3653 18.3403 27.1023C18.3353 27.0408 18.3398 26.9783 18.3398 26.9168C18.5169 26.9192 18.6062 26.9907 18.6042 27.1733C18.6028 27.3494 18.6241 27.526 18.6355 27.7026L18.6787 27.718C18.7878 27.5865 18.9079 27.4625 19.0031 27.3211C19.1053 27.1678 19.2135 27.1574 19.3678 27.269C19.3058 27.3434 19.2442 27.4188 19.1812 27.4923ZM20.9743 28.2315C20.9296 28.423 20.7932 28.5391 20.5778 28.5589C20.3055 28.5838 20.0668 28.5202 19.8897 28.296C20.0212 28.1293 20.0569 28.1273 20.2082 28.2394C20.267 28.284 20.3353 28.3145 20.4077 28.3287C20.5218 28.3481 20.6359 28.3258 20.687 28.2032C20.7391 28.0792 20.6542 28.0038 20.5635 27.9437C20.4712 27.8832 20.37 27.8356 20.2767 27.7761C20.1403 27.6897 20.0703 27.5652 20.0897 27.4015C20.0955 27.3218 20.1251 27.2457 20.1747 27.183C20.2242 27.1203 20.2913 27.0739 20.3675 27.0497C20.6404 26.9515 20.9787 27.0398 21.132 27.2611L20.9633 27.3911C20.8463 27.339 20.7465 27.2804 20.6389 27.2511C20.5347 27.2229 20.4345 27.2596 20.3903 27.3692C20.3447 27.4814 20.4191 27.5483 20.5034 27.6009C20.5888 27.654 20.6796 27.6972 20.7654 27.7498C20.9623 27.8708 21.0244 28.0177 20.9743 28.2315ZM22.2672 28.547C22.2334 28.4389 22.1789 28.3898 22.0662 28.3917C21.9922 28.3916 21.9182 28.3847 21.8455 28.3709C21.6415 28.3357 21.4808 28.354 21.4054 28.5962C21.3558 28.7544 21.2069 28.6507 21.0839 28.6711C21.0988 28.622 21.1037 28.5872 21.1201 28.5584C21.3434 28.1506 21.5696 27.7448 21.7919 27.3365C21.834 27.2586 21.8792 27.2179 21.9754 27.2244C22.0722 27.2313 22.1129 27.2769 22.1421 27.3603C22.292 27.789 22.4458 28.2166 22.5971 28.6448C22.6105 28.683 22.6164 28.7237 22.6259 28.7638C22.3614 28.7951 22.3441 28.7896 22.2672 28.547ZM23.5293 28.7505C23.255 28.8536 22.9414 28.7986 22.7618 28.5942L22.9315 28.4225L22.9484 28.4756C23.0724 28.5049 23.1964 28.553 23.3214 28.557C23.4281 28.5599 23.5293 28.4989 23.5417 28.3699C23.5531 28.2459 23.4673 28.1908 23.3676 28.1546C23.2535 28.1139 23.1324 28.0896 23.0228 28.0395C22.7464 27.913 22.6978 27.5781 22.9191 27.3717C23.1275 27.1772 23.5422 27.1693 23.7853 27.3692L23.6424 27.5196C23.4916 27.4982 23.3671 27.4575 23.25 27.4729C23.183 27.4814 23.1007 27.5726 23.0788 27.6436C23.0659 27.6863 23.1433 27.7835 23.2029 27.8157C23.3031 27.8703 23.4212 27.8902 23.5313 27.9289C23.7402 28.0033 23.829 28.1258 23.8275 28.3282C23.826 28.5346 23.7263 28.676 23.5298 28.75L23.5293 28.7505ZM25.5664 27.3315C25.4761 27.6843 25.3586 28.0301 25.2737 28.3833C25.2271 28.5738 25.1199 28.6284 24.9195 28.6125L25.3169 27.2819L24.5692 27.4015L24.5211 27.1802L25.5704 26.9942C25.5704 27.1212 25.5917 27.2323 25.5664 27.3315ZM27.035 27.8401C27.0052 28.0881 26.8579 28.2439 26.6321 28.2915C26.3915 28.3436 26.1796 28.2553 26.0492 28.0385C25.9207 27.8303 25.8522 27.5906 25.8512 27.3459C25.8507 27.0497 25.9802 26.8567 26.2263 26.7893C26.4892 26.7178 26.7115 26.8091 26.8549 27.0651C26.9888 27.3037 27.0682 27.5627 27.035 27.8401ZM28.7104 27.2755C28.5998 27.1936 28.4936 27.1023 28.373 27.0398C28.317 27.011 28.2311 27.0408 28.1587 27.0438C28.1617 27.0954 28.1518 27.1529 28.1701 27.1986C28.2282 27.3444 28.2971 27.4863 28.3686 27.6441L28.1274 27.7607L27.4959 26.3844C27.742 26.2842 27.9652 26.177 28.1989 26.1021C28.4112 26.0341 28.575 26.1046 28.6692 26.2599C28.7784 26.4405 28.7605 26.5977 28.6112 26.7803C28.5983 26.7957 28.5889 26.8141 28.565 26.8513L29.1668 27.2571C28.9351 27.4238 28.9113 27.4238 28.7104 27.2755ZM29.5657 26.9966C29.2889 27.0036 29.0656 26.824 29.0274 26.5635C28.9867 26.2862 29.1534 26.0277 29.4288 25.9419C29.6823 25.8625 29.9016 25.9771 30.043 26.2753L29.3772 26.6821C29.5335 26.8523 29.7602 26.8225 29.8659 26.6131C29.9329 26.4792 30.0113 26.4891 30.1179 26.5308C30.0852 26.7883 29.8441 26.9897 29.5662 26.9971L29.5657 26.9966ZM30.679 26.243L30.999 26.7029C30.8185 26.8845 30.8175 26.883 30.6781 26.693C30.4285 26.3527 30.176 26.0148 29.8971 25.6387C30.0063 25.5961 30.0877 25.5643 30.169 25.5316C30.3635 25.2398 30.5649 25.1099 30.813 25.1694C31.0581 25.2284 31.2397 25.4571 31.2421 25.7117C31.2451 25.9945 31.1107 26.1254 30.679 26.243ZM31.6624 25.4388C31.5241 25.4384 31.3914 25.3841 31.2926 25.2873C31.1938 25.1906 31.1367 25.0591 31.1335 24.9208C31.1305 24.6053 31.4237 24.3136 31.7437 24.3146C32.0097 24.3146 32.2577 24.5641 32.2612 24.835C32.2657 25.1371 31.972 25.4333 31.6624 25.4388ZM33.565 23.615C33.4147 23.8303 33.2693 23.8566 33.058 23.7003C32.9354 23.6096 32.8179 23.5123 32.6794 23.4027C32.5743 23.5282 32.479 23.6334 32.3947 23.746C32.3039 23.868 32.3312 23.9861 32.4343 24.0873C32.5594 24.2089 32.6884 24.3255 32.8273 24.456L32.6566 24.641C32.421 24.4292 32.1927 24.2262 31.9695 24.0184C31.9476 23.9985 31.9362 23.9325 31.9516 23.9137C32.0037 23.8497 32.0479 23.75 32.1987 23.8442C32.1198 23.548 32.4031 23.4736 32.4899 23.2657L32.2845 23.0797L32.4353 22.8912L32.6685 23.0534C32.731 22.9825 32.7861 22.9194 32.8526 22.845L33.0074 22.9621L32.8417 23.1973C32.9766 23.3015 33.0982 23.423 33.245 23.495C33.3031 23.5232 33.4152 23.4414 33.4966 23.3918C33.6553 23.4389 33.6652 23.4711 33.565 23.615ZM34.0984 22.7403C34.0775 22.9671 33.9024 23.1804 33.6593 23.2548L33.6097 23.0896C33.7114 23.0008 33.7992 22.9413 33.8597 22.8614C33.886 22.8267 33.8563 22.7493 33.8518 22.6912C33.7987 22.6977 33.7357 22.6897 33.694 22.715C33.628 22.7557 33.5779 22.8217 33.5174 22.8728C33.4162 22.9581 33.3036 22.9924 33.1815 22.9199C33.0575 22.8465 33.0208 22.7294 33.0426 22.5925C33.0763 22.3806 33.2574 22.1956 33.4554 22.1708C33.5 22.2814 33.4931 22.3682 33.3676 22.4273C33.3254 22.4471 33.2882 22.5012 33.2728 22.5473C33.2599 22.5841 33.2688 22.6505 33.2941 22.6714C33.318 22.6912 33.3869 22.6828 33.4182 22.6615C33.4961 22.6069 33.5606 22.5349 33.6355 22.4769C33.7347 22.3995 33.8419 22.3767 33.9599 22.4442C34.0775 22.5116 34.1098 22.6148 34.0984 22.7403Z" fill="#94A0BC"/>
<path d="M16.9091 2.638C16.5916 2.63205 16.3361 2.87118 16.3286 3.18226C16.3197 3.51119 16.5946 3.81234 16.9076 3.81681C16.9815 3.81805 17.055 3.80469 17.1237 3.77749C17.1925 3.75029 17.2552 3.70979 17.3082 3.6583C17.3613 3.60681 17.4036 3.54536 17.4329 3.47746C17.4621 3.40956 17.4777 3.33655 17.4787 3.26263C17.4826 2.93419 17.2177 2.64395 16.9091 2.638ZM19.1858 2.20935C19.141 2.20728 19.0962 2.21423 19.0541 2.22979C19.0121 2.24534 18.9735 2.26919 18.9408 2.2999C18.9081 2.33062 18.8819 2.36759 18.8637 2.40862C18.8456 2.44965 18.8358 2.49391 18.8351 2.53878C18.8341 2.72681 18.9889 2.89252 19.165 2.89301C19.3481 2.89301 19.5034 2.74219 19.5009 2.56656C19.4984 2.38795 19.3451 2.21431 19.1858 2.20935ZM35.3775 9.96881C35.4202 10.0174 35.5412 10.0457 35.5973 10.0199C35.6608 9.99064 35.7337 9.88596 35.7278 9.82146C35.7154 9.68602 35.6534 9.55554 35.6082 9.40967C35.4703 9.46722 35.3626 9.50741 35.2599 9.55901C35.2327 9.5729 35.2004 9.63144 35.2093 9.65278C35.2565 9.76292 35.3006 9.881 35.3775 9.96881ZM9.42102 15.835L9.42301 15.8797L10.0655 16.098L10.0248 15.5463L9.42102 15.835ZM10.0203 10.845L10.5279 11.2811L10.6961 10.7532L10.0298 10.7954C10.0263 10.8119 10.0235 10.8284 10.0203 10.845ZM36.0533 12.443C36.0473 12.2609 35.892 12.1081 35.7159 12.1111C35.5199 12.1146 35.3488 12.2798 35.3562 12.4594C35.3636 12.6434 35.512 12.7789 35.703 12.7759C35.8995 12.7734 36.0597 12.6211 36.0533 12.443ZM9.79461 11.8303C9.6418 11.8283 9.50288 12.0099 9.52322 12.251C9.5396 12.4425 9.74648 12.3964 9.85365 12.3998C10.0645 12.4063 9.9489 12.1875 10.0124 12.1061C10.0194 11.9325 9.93303 11.8318 9.79461 11.8303ZM14.9965 4.32385C14.875 4.41067 14.8402 4.52379 14.9037 4.69595L15.3518 4.35759C15.2252 4.2271 15.1116 4.24149 14.9965 4.32385ZM35.7333 11.1347C35.7149 10.9769 35.6286 10.902 35.4108 10.8767L35.5661 11.4091C35.7283 11.3644 35.7481 11.2583 35.7333 11.1347ZM11.7454 7.86869C11.6402 8.01009 11.6531 8.11874 11.7895 8.2527L12.0823 7.79031C11.9205 7.70448 11.8228 7.76451 11.7454 7.86869ZM33.7874 7.40382C33.6049 7.40531 33.4193 7.58144 33.4203 7.7531C33.4234 7.83822 33.4585 7.91903 33.5187 7.9793C33.5789 8.03958 33.6596 8.07486 33.7448 8.07806C33.9422 8.07806 34.1124 7.92426 34.1169 7.74119C34.1157 7.65345 34.0808 7.56953 34.0195 7.50674C33.9582 7.44396 33.8751 7.40712 33.7874 7.40382ZM24.3317 2.04761C24.1432 2.07489 24.0261 2.14088 24.036 2.24209C24.0479 2.35918 24.1372 2.39291 24.2399 2.39738C24.3803 2.40333 24.5336 2.28377 24.5063 2.16916C24.4934 2.11806 24.3922 2.08779 24.3317 2.04761ZM20.5507 2.24606C20.3835 2.23266 20.19 2.35322 20.1915 2.46287C20.1935 2.56705 20.2615 2.60774 20.3572 2.61022C20.506 2.61419 20.635 2.49115 20.6335 2.31204C20.6177 2.29915 20.5859 2.24904 20.5507 2.24606ZM26.8391 2.21133C26.664 2.20935 26.5087 2.37009 26.4993 2.56358C26.4982 2.60707 26.5057 2.65034 26.5214 2.69091C26.5371 2.73147 26.5607 2.76851 26.5909 2.79989C26.621 2.83126 26.657 2.85635 26.6969 2.8737C26.7368 2.89105 26.7798 2.90031 26.8233 2.90095C27.0063 2.9069 27.1631 2.7536 27.1706 2.5611C27.1729 2.51609 27.1661 2.47108 27.1505 2.42879C27.1349 2.3865 27.1109 2.34782 27.0799 2.31511C27.0489 2.28239 27.0116 2.25632 26.9702 2.23848C26.9288 2.22064 26.8842 2.2114 26.8391 2.21133ZM31.0041 4.39827C30.8265 4.40273 30.6539 4.58829 30.6593 4.76888C30.6643 4.946 30.8295 5.0993 31.0056 5.08987C31.1832 5.07995 31.3519 4.8944 31.3465 4.71381C31.3415 4.56001 31.1629 4.3948 31.0041 4.39827ZM35.5457 13.7563C35.5487 13.9458 35.6861 14.0763 35.8831 14.0763C36.088 14.0768 36.2343 13.9408 36.2348 13.7488C36.2348 13.5553 36.087 13.4149 35.8866 13.4189C35.6846 13.4229 35.5427 13.5628 35.5457 13.7563ZM28.2402 26.2915L27.8631 26.5157C27.9291 26.6229 27.9723 26.7821 28.0666 26.8233C28.1856 26.8759 28.46 26.6328 28.463 26.5207C28.465 26.413 28.3717 26.3222 28.2402 26.2915ZM21.918 27.5864L21.6546 28.1376L22.1428 28.1713L21.9671 27.5933C21.9508 27.5908 21.9344 27.5885 21.918 27.5864ZM26.3113 27.0128C26.1704 27.0525 26.0905 27.1637 26.1133 27.3006C26.146 27.5016 26.1995 27.6986 26.2731 27.8885C26.3222 28.014 26.4328 28.1048 26.5906 28.0587C26.7528 28.0111 26.7831 27.8781 26.8252 27.7193C26.7518 27.5298 26.6888 27.3353 26.602 27.1518C26.5494 27.0411 26.4427 26.9756 26.3113 27.0128ZM30.6727 25.4103C30.5878 25.415 30.5078 25.4519 30.4491 25.5135C30.3904 25.575 30.3573 25.6567 30.3567 25.7418C30.3622 25.9095 30.5155 26.0538 30.6792 26.0459C30.8424 26.0384 30.9922 25.8822 30.9898 25.7229C30.9868 25.5562 30.836 25.4074 30.6727 25.4103ZM31.6982 24.559C31.6159 24.5645 31.5384 24.5997 31.4802 24.6581C31.4219 24.7166 31.3869 24.7942 31.3817 24.8765C31.3818 24.959 31.4143 25.0382 31.4722 25.0971C31.5301 25.1559 31.6088 25.1896 31.6913 25.1911C31.8585 25.1916 32.0113 25.0492 32.0172 24.8864C32.0232 24.7148 31.8684 24.556 31.6982 24.559ZM13.1876 23.5067C13.105 23.5055 13.025 23.536 12.9641 23.5919C12.9032 23.6478 12.866 23.7249 12.8602 23.8074C12.8537 23.976 13.0065 24.1403 13.1728 24.1442C13.3315 24.1477 13.4918 23.9954 13.4977 23.8346C13.5042 23.6848 13.3429 23.5141 13.1876 23.5067ZM29.3883 26.1664C29.2513 26.2384 29.2146 26.3495 29.2806 26.5202L29.7395 26.2424C29.6279 26.1 29.5108 26.1019 29.3883 26.1664ZM16.6124 26.3599C16.575 26.2669 16.5121 26.1864 16.4308 26.1277C16.3366 26.0593 16.2314 26.0915 16.1123 26.2151L16.4874 26.4443C16.5926 26.5078 16.6417 26.4398 16.6124 26.3599Z" fill="#94A0BC"/>
<path d="M86.5079 20.01H84.3519V10H86.5079V20.01Z" fill="#94A0BC"/>
<path d="M82.6967 20.01H80.5406V10H82.6967V20.01Z" fill="#94A0BC"/>
<path d="M76.7036 20.01H69.1996V10H76.6056V11.792H71.3556V13.962H75.9056V15.754H71.3556V18.218H76.7036V20.01Z" fill="#94A0BC"/>
<path d="M62.3901 20.01H60.2341V10H64.8401C66.8561 10 68.1861 11.008 68.1861 13.108C68.1861 15.208 66.8561 16.23 64.8401 16.23H62.3901V20.01ZM62.3901 14.438H64.4481C65.4141 14.438 65.9741 14.06 65.9741 13.108C65.9741 12.17 65.4141 11.792 64.4481 11.792H62.3901V14.438Z" fill="#94A0BC"/>
<path d="M55.9606 20.01H53.8046V16.202L50.3326 10H52.6566L54.8686 14.452H54.8966L57.1366 10H59.4186L55.9606 16.202V20.01Z" fill="#94A0BC"/>
<path d="M47.194 20.01H45.038V11.792H42V10H50.218V11.792H47.194V20.01Z" fill="#94A0BC"/>
</svg>
