<svg width="170" height="49" viewBox="0 0 170 49" fill="none" xmlns="http://www.w3.org/2000/svg">
<path fill-rule="evenodd" clip-rule="evenodd" d="M21.6301 7.42249C12.2139 7.42249 4.55493 15.0951 4.55493 24.528C4.55493 33.9611 12.2139 41.6337 21.6301 41.6337C31.0461 41.6337 38.7051 33.9611 38.7051 24.528C38.7051 15.0951 31.0461 7.42249 21.6301 7.42249ZM7.04478 29.8462C7.92648 32.2751 11.0776 33.5659 15.2036 33.5659C17.9294 33.5659 21.0805 33.003 24.2875 31.8335C32.3439 28.8975 37.6867 23.2435 36.2184 19.2096H36.2215C34.0513 13.2382 28.339 8.97733 21.6301 8.97733C13.0583 8.97733 6.10721 15.9409 6.10721 24.5279C6.10721 26.397 6.4363 28.1885 7.03857 29.8462H7.04168H7.04478ZM24.8156 33.2947C28.9355 31.7955 32.5336 29.5594 34.9489 27.0028L34.9459 26.9998C35.8927 25.9952 36.6223 24.9781 37.1345 23.9675C37.1438 24.154 37.1501 24.3406 37.1501 24.5271C37.1501 33.1143 30.199 40.0778 21.6273 40.0778C16.6569 40.0778 12.2329 37.7327 9.39221 34.0908C10.9631 34.7595 12.9252 35.1202 15.2008 35.1202C18.2154 35.1202 21.5403 34.489 24.8156 33.2947Z" fill="#666F84"/>
<path d="M18.5029 33.2807C17.3472 33.4474 16.2291 33.5309 15.1768 33.5309H15.1736C11.0112 33.5309 7.83222 32.2518 6.94273 29.839H6.9396C6.332 28.1924 6 26.4128 6 24.5561C6 24.4152 6.00525 24.2778 6.01051 24.14C6.01229 24.0934 6.01407 24.0468 6.01565 24C6.52931 25.0041 7.26533 26.0143 8.22371 27.0123C10.6604 29.5516 14.2904 31.7699 18.4466 33.2621L18.5029 33.2807Z" fill="#B4BCD0"/>
<path d="M21.6599 34.229C21.6604 34.2289 21.6594 34.2291 21.6599 34.229Z" fill="#B4BCD0"/>
<path d="M21.6599 34.229C19.4305 34.7817 17.2308 35.0755 15.1736 35.0755C12.8778 35.0755 10.8984 34.7171 9.3136 34.0529C12.1794 37.6706 16.6425 40 21.6568 40C26.6711 40 31.1342 37.6706 34 34.0529C32.4152 34.7202 30.4388 35.0755 28.1401 35.0755C26.0858 35.0755 23.8861 34.7817 21.6599 34.229Z" fill="#B4BCD0"/>
<path d="M111.544 33.5375V21.8863H111.548C111.548 17.5904 108.801 15.4223 105.046 15.4223C102.48 15.4223 100.384 16.5248 99.2288 18.7967V8H94.2806V33.5375H99.2288V24.1615C99.2288 20.6096 101.287 19.2592 103.383 19.2592C105.26 19.2592 106.596 20.251 106.596 23.3071V33.5375H111.544Z" fill="#666F84"/>
<path d="M54.8933 27.5729L52.0035 30.4848L52 30.4883C53.6597 32.9043 56.6586 33.8995 60.3797 33.8995C65.7641 33.8995 68.6163 31.5906 68.6163 28.3939C68.6163 25.445 66.6672 23.8802 61.392 22.8514C58.359 22.2449 57.4559 21.6083 57.4559 20.6834C57.4559 19.7585 58.6827 18.9777 60.707 18.9777C63.1299 18.9777 64.5748 19.9026 65.621 21.7489L68.6914 19.1922C67.0285 16.6321 64.7894 15.4257 60.6354 15.4257C55.2886 15.4257 52.5079 18.197 52.5079 21.1458C52.5079 24.0947 54.3855 25.797 60.022 26.8993C62.6597 27.4322 63.6342 27.9281 63.6342 28.7458C63.6342 29.7041 62.4415 30.3441 60.3116 30.3441C57.8546 30.3441 55.9053 29.7041 54.8933 27.5729Z" fill="#666F84"/>
<path fill-rule="evenodd" clip-rule="evenodd" d="M132.083 26.5039H119.293C119.798 29.0608 121.389 30.2704 123.809 30.2704C125.905 30.2704 127.278 29.4896 127.782 28.0689L131.827 29.5266C130.672 32.3681 127.891 33.8962 123.809 33.8962C117.811 33.8962 114.417 30.4848 114.417 24.661C114.417 18.837 117.705 15.4257 123.519 15.4257C129.333 15.4257 132.226 18.7633 132.226 24.5906C132.226 25.0866 132.155 26.0483 132.083 26.5073V26.5039ZM119.259 23.0927H127.677C127.278 20.4287 125.761 19.0079 123.485 19.0079C121.209 19.0079 119.655 20.3918 119.259 23.0927Z" fill="#666F84"/>
<path d="M146.709 20.0768L147.323 15.8144C146.89 15.563 146.167 15.4223 145.373 15.4223C142.555 15.4223 140.391 16.8096 139.451 19.2591V15.7775H135.15V33.5408H140.098V24.3391C140.098 21.1055 142.266 19.544 144.433 19.544C145.373 19.544 146.205 19.7584 146.709 20.0768Z" fill="#666F84"/>
<path fill-rule="evenodd" clip-rule="evenodd" d="M165.857 26.5039H153.068C153.573 29.0608 155.164 30.2704 157.584 30.2704C159.679 30.2704 161.053 29.4896 161.557 28.0689L165.603 29.5266C164.447 32.3681 161.666 33.8962 157.584 33.8962C151.586 33.8962 148.192 30.4848 148.192 24.661C148.192 18.837 151.48 15.4257 157.294 15.4257C163.108 15.4257 166 18.7633 166 24.5906C166 25.0866 165.929 26.0483 165.857 26.5073V26.5039ZM153.034 23.0927H161.451C161.053 20.4287 159.536 19.0079 157.26 19.0079C154.983 19.0079 153.43 20.3918 153.034 23.0927Z" fill="#666F84"/>
<path fill-rule="evenodd" clip-rule="evenodd" d="M82.5608 33.896C87.3283 33.896 91.312 30.4479 91.312 24.6241C91.312 18.8336 87.3658 15.4223 82.5608 15.4223C79.6711 15.4223 77.5617 16.5449 76.5494 18.8168V15.7775H71.6015V41H76.5494V30.592C77.5957 32.5825 79.8892 33.896 82.5608 33.896ZM81.4192 19.1553C84.0569 19.1553 86.6672 21.0385 86.6672 24.6608C86.6672 28.2833 84.0227 30.1664 81.4192 30.1664C78.8157 30.1664 76.5461 28.2129 76.5461 24.8385V24.4833C76.5461 21.0385 78.7816 19.1553 81.4192 19.1553Z" fill="#666F84"/>
</svg>
