<svg width="171" height="49" viewBox="0 0 171 49" fill="none" xmlns="http://www.w3.org/2000/svg">
<path d="M84.0084 10.0428V22.9024C84.0084 22.9972 84.0157 23.0702 84.023 23.165C84.0376 23.1723 84.0595 23.1723 84.0595 23.1796C84.096 23.1358 84.1324 23.0847 84.1762 23.041L86.255 20.4516C87.4075 19.0219 88.5527 17.5996 89.6978 16.1772C89.7562 16.0897 89.8583 16.0386 89.9677 16.0532H96.7659C95.6863 17.3589 91.4266 22.4356 90.347 23.7193C92.8124 26.6516 95.2633 29.5692 97.736 32.5015C97.7068 32.5087 97.6776 32.516 97.6411 32.516H97.4807C95.1538 32.5087 92.8416 32.4869 90.5148 32.4796C90.3981 32.4796 90.2887 32.4285 90.2157 32.3337C89.5957 31.5751 88.983 30.8019 88.3557 30.0433C87.5315 29.0295 86.7073 28.0156 85.8903 27.0017C85.3068 26.2796 84.7233 25.5647 84.1397 24.8353C84.1033 24.7989 84.0741 24.7624 84.023 24.7113C84.0084 24.7405 83.9938 24.777 83.9865 24.8134C83.9792 24.8791 83.9792 24.9447 83.9865 25.0104V32.4723C83.9282 32.4796 83.8771 32.4869 83.8188 32.4869C82.5934 32.5015 81.3753 32.516 80.1425 32.5233C79.5517 32.5306 78.9536 32.5233 78.3628 32.5233H78.1585C78.144 32.4796 78.1367 32.4358 78.1367 32.3847V10.32C78.1367 10.2252 78.1294 10.145 78.1221 10.0501C80.0988 10.0428 82.0536 10.0428 84.0084 10.0428Z" fill="#666F84"/>
<path d="M134.659 39.9925C134.863 39.5549 135.074 39.1027 135.286 38.665C135.556 38.1107 135.811 37.5417 136.074 36.9801C136.468 36.1412 136.862 35.2878 137.248 34.4563C137.576 33.7342 137.912 33.0267 138.255 32.3191C138.539 31.6991 138.831 31.0937 139.115 30.4883C139.166 30.3935 139.174 30.2768 139.123 30.1746C138.707 29.2629 138.284 28.3511 137.875 27.4248C137.416 26.4255 136.971 25.4262 136.511 24.4342C135.877 23.0483 135.25 21.6624 134.615 20.2765C133.988 18.9052 133.375 17.5266 132.748 16.1626C132.726 16.1262 132.711 16.0824 132.704 16.0386C132.755 16.0313 132.799 16.024 132.85 16.024H138.729C138.855 16.024 138.938 16.0775 138.977 16.1845C139.648 17.833 140.319 19.4742 140.997 21.1226C141.384 22.0782 141.785 23.041 142.172 23.9965C142.201 24.0476 142.223 24.0986 142.274 24.1935C142.376 23.9965 142.442 23.8579 142.522 23.7048C142.901 22.8951 143.273 22.0855 143.652 21.2685C144.061 20.3932 144.462 19.5179 144.87 18.6426C145.155 18.0226 145.447 17.4172 145.731 16.7972C145.841 16.6003 145.928 16.3888 146.008 16.1772C146.059 16.0386 146.132 16.0168 146.256 16.0168H151.523C151.596 16.0168 151.661 16.0095 151.734 16.0095V16.0459C151.698 16.0897 151.669 16.1408 151.632 16.1845C151.494 16.4909 151.355 16.8045 151.216 17.0963C150.852 17.8768 150.494 18.6426 150.137 19.4231C149.655 20.4516 149.174 21.4946 148.685 22.5231C148.313 23.3109 147.949 24.0913 147.584 24.8718C147.11 25.8784 146.636 26.8923 146.169 27.8989C145.797 28.6866 145.432 29.4671 145.067 30.2476C144.681 31.0791 144.287 31.9107 143.9 32.7495C143.528 33.5372 143.164 34.3323 142.792 35.1201C142.405 35.9589 142.004 36.7904 141.617 37.6292C141.267 38.3732 140.917 39.1172 140.567 39.8685C140.552 39.9123 140.545 39.9561 140.538 39.9998C138.59 39.9998 136.628 39.9998 134.659 39.9925Z" fill="#666F84"/>
<path d="M76.6778 23.8287C76.6632 23.4859 76.634 23.1504 76.583 22.8149C76.4517 21.852 76.1453 20.9257 75.6858 20.065C75.27 19.2845 74.7157 18.5843 74.0446 18.0007C73.2422 17.2932 72.3013 16.8045 71.2947 16.4471C70.7331 16.2502 70.1568 16.1043 69.5733 16.024C69.1065 15.9438 68.6397 15.8927 68.1728 15.8636C67.4726 15.8344 66.7724 15.8198 66.0794 15.8927C65.8022 15.9292 65.5178 15.9292 65.2406 15.9657C64.6644 16.0532 64.0954 16.1772 63.5411 16.345C62.1187 16.7899 60.8641 17.5193 59.8502 18.6353C59.0989 19.4669 58.5373 20.4516 58.2091 21.5238C57.9684 22.348 57.8371 23.2087 57.8298 24.0695C57.8152 24.6967 57.8516 25.324 57.9465 25.944C58.0778 26.8412 58.3622 27.7092 58.7707 28.5189C59.15 29.2629 59.6533 29.9339 60.266 30.4956C61.3309 31.473 62.6001 32.1149 64.0006 32.4796C64.4528 32.5963 64.9197 32.6838 65.3865 32.7422C65.722 32.7786 66.0648 32.8151 66.4004 32.8443C66.6702 32.8589 66.9474 32.8443 67.2319 32.8443V32.8735L68.399 32.8224C68.9241 32.7859 69.4493 32.7203 69.9745 32.6182C70.9811 32.4212 71.9439 32.0565 72.8338 31.5459C74.0154 30.8457 74.971 29.9266 75.642 28.7012C76.3568 27.3956 76.6486 26.0024 76.6997 24.5363C76.6997 24.2956 76.6924 24.0622 76.6778 23.8287ZM70.1495 26.7099C69.9015 27.257 69.5587 27.7311 69.0408 28.0739C68.6542 28.3292 68.2093 28.4824 67.7498 28.5116C67.582 28.5262 67.4142 28.548 67.2392 28.5553C66.59 28.548 65.9773 28.4022 65.4448 28.0229C64.9342 27.6655 64.5914 27.184 64.358 26.6224C64.1319 26.0972 64.0006 25.5356 63.9787 24.9666C63.9641 24.6165 63.9422 24.2737 63.9568 23.9309C63.9933 23.2015 64.1173 22.4939 64.4382 21.8375C64.854 21.0059 65.4959 20.4443 66.4149 20.24C66.8526 20.1379 67.3121 20.1233 67.7571 20.1817C68.1801 20.2255 68.5886 20.3567 68.9533 20.5683C69.4347 20.8455 69.7848 21.2612 70.0401 21.7426C70.3173 22.2678 70.4851 22.8367 70.5288 23.4276C70.5726 23.7631 70.5872 24.1059 70.5872 24.4415C70.5726 25.2146 70.4778 25.9805 70.1495 26.7099Z" fill="#666F84"/>
<path d="M120.456 32.4504H114.709C114.665 32.2899 114.665 16.221 114.709 16.0459H120.442C120.464 16.1918 120.471 16.345 120.456 16.4909C120.464 16.644 120.456 16.8045 120.456 16.9504V18.3217C120.529 18.3582 120.558 18.2852 120.588 18.256C121.084 17.7309 121.638 17.2567 122.236 16.841C122.973 16.3523 123.79 16.0459 124.665 15.8709C125.453 15.7104 126.241 15.7031 127.021 15.7469C127.802 15.7833 128.56 15.973 129.26 16.3158C130.034 16.6878 130.683 17.2786 131.128 18.008C131.551 18.6864 131.813 19.4377 131.981 20.2109C132.112 20.8455 132.185 21.4873 132.2 22.1365C132.207 22.5012 132.229 22.8659 132.229 23.2306V32.4504C130.289 32.4358 128.363 32.4869 126.43 32.4066C126.423 32.3337 126.416 32.2535 126.416 32.1805V27.5852C126.416 26.1556 126.423 24.7405 126.416 23.3109C126.423 22.596 126.277 21.8885 125.993 21.232C125.781 20.7215 125.373 20.4224 124.855 20.2838C124.096 20.0869 123.352 20.1379 122.652 20.5026C122.2 20.7433 121.806 21.0716 121.478 21.4582C121.164 21.8375 120.872 22.2459 120.566 22.6325C120.486 22.7346 120.442 22.8659 120.456 22.9972V32.1659C120.456 32.2899 120.456 32.3556 120.456 32.4504Z" fill="#666F84"/>
<path d="M113.411 25.6523H101.843C101.857 25.7471 101.864 25.7982 101.879 25.8565C102.112 26.7099 102.63 27.4612 103.352 27.9864C103.958 28.4605 104.665 28.7888 105.417 28.9419C105.694 29.0076 105.971 29.0368 106.256 29.0441C106.562 29.0368 106.861 29.0514 107.153 29.0368C107.525 29.0076 107.889 28.9784 108.261 28.9274C109.166 28.7815 110.063 28.5626 110.931 28.2709C111.573 28.0594 112.2 27.7968 112.813 27.5269C112.871 27.4977 112.93 27.4831 113.017 27.4539C113.024 27.5196 113.024 27.5852 113.024 27.6509V30.8384C113.039 30.9551 112.966 31.0718 112.857 31.1083C112.273 31.3928 111.675 31.6408 111.062 31.8523C110.406 32.0784 109.728 32.3118 109.035 32.4431C108.699 32.5161 108.356 32.5671 108.013 32.6036C107.598 32.6547 107.182 32.6765 106.773 32.713C105.971 32.7714 105.161 32.7787 104.359 32.7422C103.185 32.6911 102.025 32.4504 100.931 32.0128C99.8294 31.5824 98.8374 30.9186 98.0132 30.0579C97.3713 29.3869 96.8753 28.5918 96.5398 27.7238C96.2334 26.9652 96.0365 26.1629 95.9489 25.3459C95.876 24.777 95.8614 24.1935 95.8979 23.6245C95.9708 22.1511 96.3574 20.7798 97.1306 19.5106C97.3713 19.1241 97.6485 18.7666 97.9621 18.4384C98.976 17.3735 100.209 16.6732 101.602 16.2429C102.2 16.0678 102.805 15.9365 103.425 15.8636C104.279 15.7396 105.14 15.7396 105.993 15.7688C106.722 15.8125 107.444 15.9584 108.13 16.1918C108.772 16.3888 109.385 16.6732 109.954 17.0233C110.771 17.5631 111.471 18.2633 112.018 19.0803C112.674 20.0504 113.068 21.1226 113.258 22.2751C113.338 22.7201 113.389 23.165 113.404 23.6172C113.418 24.2445 113.426 24.8791 113.44 25.4991C113.426 25.5429 113.418 25.6012 113.411 25.6523ZM101.675 22.7784H107.977C107.992 22.7128 107.999 22.6471 107.992 22.5815C107.992 22.4866 107.97 22.4064 107.97 22.3116C107.948 21.8521 107.838 21.3998 107.656 20.9768C107.342 20.2473 106.824 19.7076 106.066 19.445C105.504 19.2408 104.928 19.2408 104.344 19.321C103.389 19.4596 102.66 19.9556 102.164 20.7725C101.813 21.3269 101.689 21.9542 101.653 22.6033C101.653 22.6617 101.668 22.7201 101.675 22.7784Z" fill="#666F84"/>
<path d="M45.86 20.0504C45.5464 20.0358 45.2692 20.0431 44.9701 20.0431H43.256C43.2487 19.9775 43.2341 19.9337 43.2341 19.8899V19.1459C43.2341 19.0657 43.2706 18.9855 43.329 18.9271C43.6499 18.6062 43.9781 18.2707 44.2918 17.9497C44.9847 17.2422 45.6777 16.5347 46.3779 15.8344C46.6843 15.5208 46.9833 15.2144 47.2824 14.9154C47.9388 14.237 48.6099 13.5659 49.2737 12.8876C49.8207 12.3405 50.3678 11.7789 50.893 11.2245C50.9659 11.1297 51.0899 11.0859 51.2066 11.1005C51.3087 11.1078 51.4181 11.1005 51.5203 11.1005C51.6443 11.1005 51.6515 11.1151 51.6515 11.2464V16.0386C51.7537 16.0459 51.8412 16.0532 51.9214 16.0532H57.1805C57.2316 16.2064 57.2388 19.8608 57.1878 20.0504C57.1221 20.0504 57.0419 20.0577 56.969 20.0577H51.9287C51.8558 20.0577 51.7683 20.065 51.6661 20.0723C51.6588 20.1307 51.6515 20.1963 51.6515 20.2619V25.5429C51.6515 25.9441 51.688 26.338 51.7537 26.7318C51.8631 27.3737 52.2497 27.7676 52.8332 27.9937C53.1177 28.1031 53.424 28.1542 53.7304 28.1469H53.9054C54.5838 28.1834 55.2257 28.0083 55.853 27.7895C56.4146 27.5925 56.9617 27.3518 57.4941 27.082C57.5379 27.0528 57.5963 27.0455 57.6546 27.0163C57.6619 27.0747 57.6692 27.1257 57.6692 27.1841V31.349C57.6838 31.4511 57.6254 31.5533 57.5233 31.597C56.8596 31.8888 56.1739 32.1222 55.4664 32.2827C54.9339 32.4213 54.4014 32.5307 53.869 32.6328C53.6283 32.6693 53.3803 32.6911 53.1323 32.7057C52.5487 32.7641 51.9579 32.7714 51.3744 32.7349C50.3094 32.6765 49.281 32.465 48.34 31.9253C47.4501 31.4147 46.7499 30.6123 46.3706 29.6568C46.1372 29.0587 45.984 28.4387 45.9111 27.7968C45.86 27.3227 45.8381 26.8485 45.8454 26.3671L45.86 20.0504Z" fill="#666F84"/>
<path d="M24.2987 10.196L29.7401 21.356C29.8349 21.5238 29.8349 21.728 29.7401 21.8958L24.3205 33.0339C24.2257 33.2163 24.0069 33.2892 23.8245 33.2017C23.7516 33.1652 23.6932 33.1069 23.6568 33.0266L18.5574 21.9104C18.4626 21.7207 18.4626 21.5019 18.5574 21.3196L23.6786 10.2033C23.7516 10.0283 23.9558 9.95532 24.1236 10.0283C24.2038 10.0574 24.2622 10.1158 24.2987 10.196Z" fill="#94A0BC"/>
<path d="M30.5279 10.196L35.9693 21.356C36.0641 21.5238 36.0641 21.728 35.9693 21.8958L30.5425 33.0412C30.4476 33.2236 30.2288 33.2965 30.0465 33.209C29.9735 33.1725 29.9152 33.1142 29.8787 33.0339L27.6467 28.1615L30.6446 21.8739C30.7394 21.6843 30.7394 21.4655 30.6446 21.2831L27.6394 15.1196L29.8933 10.2033C30.0246 9.93345 30.4039 9.93345 30.5279 10.196Z" fill="#94A0BC"/>
<path d="M36.3122 10.196L41.8338 21.356C41.9286 21.5238 41.9286 21.728 41.8338 21.8958L36.407 33.0339C36.3122 33.2163 36.0933 33.2892 35.911 33.2017C35.838 33.1652 35.7797 33.1069 35.7432 33.0266L33.6717 28.7231L36.9322 21.8593C37.027 21.6697 37.027 21.4508 36.9322 21.2685L33.6279 14.4558L35.6922 10.196C35.7797 10.021 35.9839 9.95531 36.159 10.0355C36.2246 10.0647 36.283 10.1231 36.3122 10.196Z" fill="#94A0BC"/>
</svg>
