<svg width="170" height="49" viewBox="0 0 170 49" fill="none" xmlns="http://www.w3.org/2000/svg">
<path d="M22.2058 42.2246C21.9541 42.6623 21.6878 42.6951 21.3449 42.3267C21.1625 42.1297 21.0239 41.8889 20.8889 41.6555L3.64875 10.8778C3.13074 9.95489 2.57626 9.05385 2.1385 8.09079C1.82478 7.40498 2.04366 7.02195 2.79878 7.0183C5.42165 7.00006 8.04816 7.00371 10.671 7.00006C10.9337 7.00006 11.1416 7.08761 11.2766 7.32473C11.6377 7.95217 12.0499 8.55408 12.3491 9.21436C12.6008 9.7652 12.4002 10.0972 11.7836 10.1081L8.91637 10.1227C8.18678 10.1884 7.9825 10.4984 8.32905 11.1405C9.16443 12.6981 10.0363 14.2339 10.8899 15.7806C12.5169 18.7282 14.1439 21.6794 15.7708 24.6269C17.2738 27.3483 18.7804 30.0696 20.287 32.7946C20.6007 33.3637 20.8889 33.9474 21.2318 34.4982C21.5565 35.0162 21.9541 35.0016 22.2277 34.4654C23.3549 32.262 24.6572 30.1499 25.7662 27.9356C26.0945 27.2789 26.1127 26.7464 25.7407 26.0861C24.2231 23.372 22.8004 20.6032 21.2719 17.8965C19.4699 14.7155 17.6897 11.5272 15.9386 8.32061C15.4061 7.33202 15.6067 7.00006 16.7193 7.00006C20.6627 7.00006 24.6062 7.00006 28.5496 7.00006C32.4054 7.00006 36.2577 7.00006 40.1099 7.00006C40.3069 7.00006 40.5039 7.00006 40.7008 7.00736C41.507 7.05113 41.7259 7.42687 41.3319 8.13822L22.2058 42.2246ZM22.6582 10.13C21.852 10.2431 21.7133 10.4984 22.0927 11.2025C23.0667 13.0228 24.0444 14.8431 25.033 16.6598C25.9486 18.3415 26.8642 20.0232 27.809 21.6903C28.3234 22.595 28.5897 22.5804 29.1259 21.683C31.2126 18.1846 33.1642 14.6097 35.1414 11.0493C35.404 10.575 35.28 10.2796 34.7474 10.1482L22.6618 10.13H22.6582Z" fill="#666F84"/>
<path d="M109.692 21.7773C109.609 22.0363 109.521 22.2734 109.455 22.5142C108.759 25.0932 107.854 27.6067 107.062 30.1566C106.654 31.4662 106.209 32.7685 105.811 34.0818C105.665 34.5669 105.402 34.7676 104.888 34.7311C104.33 34.691 103.765 34.6837 103.206 34.7311C102.674 34.7712 102.455 34.5341 102.316 34.0562C101.802 32.3052 101.255 30.5615 100.719 28.8178C99.5585 25.0239 98.3948 21.2301 97.2384 17.4362C97.0815 16.9255 97.1253 16.8744 97.636 16.8744C98.3182 16.8744 99.0003 16.8671 99.6825 16.8854C100.463 16.9073 100.824 17.1772 101.036 17.9178C101.846 20.7449 102.637 23.5793 103.447 26.4101C103.757 27.4936 104.06 28.5807 104.264 29.6969C104.458 29.6568 104.439 29.5218 104.458 29.4379C104.888 27.4425 105.625 25.5383 106.249 23.6012C106.829 21.7919 107.485 20.0044 108.044 18.1877C108.485 16.7504 109.412 16.6993 110.805 17.0094C111.206 17.1006 111.367 17.5019 111.484 17.863C112.22 20.0992 112.95 22.3391 113.676 24.5752C114.161 26.0672 114.632 27.5665 115.11 29.0586C115.153 29.1972 115.179 29.354 115.354 29.4708C115.558 28.6427 115.741 27.8256 115.967 27.023C116.758 24.174 117.565 21.3286 118.367 18.4832C118.407 18.3373 118.455 18.195 118.506 18.0527C118.849 17.1043 119.17 16.8854 120.191 16.8744C120.797 16.8671 121.402 16.8562 122.012 16.8343C122.318 16.8234 122.416 16.9182 122.314 17.2392C120.68 22.4996 119.057 27.7599 117.43 33.0239C117.306 33.4288 117.174 33.8301 117.058 34.235C116.963 34.5742 116.755 34.7347 116.397 34.7311C115.715 34.7202 115.033 34.7129 114.351 34.7311C113.986 34.742 113.804 34.6071 113.694 34.2605C112.997 32.028 112.304 29.7918 111.575 27.5702C110.995 25.8082 110.488 24.0208 109.944 22.2479C109.897 22.0983 109.893 21.9195 109.681 21.7809L109.692 21.7773Z" fill="#666F84"/>
<path d="M55.0502 30.4456C55.083 30.3945 55.1304 30.3544 55.145 30.2997C55.7943 27.7936 56.8668 25.437 57.7861 23.0294C58.3734 21.4936 58.9498 19.9542 59.5335 18.4147C59.6356 18.1484 59.7706 17.8931 59.8837 17.6304C60.1026 17.1343 60.5111 16.8972 61.0328 16.8789C61.8061 16.8534 62.5795 16.8643 63.3529 16.8571C63.7286 16.8571 63.5863 17.0759 63.517 17.251C62.8531 18.9218 62.1965 20.5925 61.5216 22.256C59.9749 26.09 58.4209 29.924 56.8668 33.7579C56.6066 34.4 56.1227 34.7198 55.415 34.7174C54.9736 34.7174 54.5358 34.6955 54.0944 34.7174C53.6348 34.7429 53.4049 34.5094 53.2517 34.1154C52.6425 32.5724 52.0187 31.0329 51.3986 29.4935C49.7971 25.5355 48.192 21.5738 46.5906 17.6158C46.5505 17.5173 46.5176 17.4188 46.4812 17.3203C46.3425 16.9738 46.4775 16.8498 46.8277 16.8571C47.4953 16.8716 48.1629 16.8571 48.8304 16.8716C49.6001 16.8862 49.9941 17.189 50.2677 17.8967C51.0484 19.925 51.8509 21.9423 52.6133 23.9778C53.3648 25.9842 54.2513 27.9395 54.7912 30.0225C54.8313 30.172 54.8495 30.3544 55.0502 30.442V30.4456Z" fill="#666F84"/>
<path d="M153.443 28.7486C152.304 28.7486 151.17 28.7486 150.032 28.7486C149.393 28.7486 149.393 28.7559 149.488 29.3687C149.725 30.9337 150.626 32.0135 152.005 32.2907C152.833 32.4549 153.665 32.4038 154.457 32.05C154.953 31.8274 155.456 31.6159 155.956 31.397C156.328 31.2365 156.635 31.3167 156.883 31.6341C156.912 31.6706 156.937 31.7071 156.966 31.7399C157.809 32.7905 157.791 33.013 156.627 33.7353C155.69 34.319 154.632 34.5962 153.541 34.7422C151.64 34.9975 149.919 34.6035 148.456 33.334C147.106 32.1631 146.541 30.6127 146.391 28.8945C146.278 27.5922 146.344 26.3118 146.964 25.1007C148.222 22.6492 150.925 21.4089 153.643 21.9525C156.014 22.4304 157.506 24.3492 157.773 26.6401C157.831 27.1326 157.889 27.6214 157.82 28.1248C157.758 28.5808 157.517 28.7413 157.087 28.7376C155.876 28.7303 154.661 28.7376 153.45 28.7376L153.443 28.7486ZM152.213 26.8334V26.8225C153.001 26.8225 153.789 26.8225 154.573 26.8225C154.832 26.8225 155.037 26.7714 154.997 26.4467C154.924 25.8375 154.73 25.283 154.307 24.8088C153.402 23.7947 150.787 23.7108 149.911 25.5202C149.787 25.7792 149.674 26.0418 149.572 26.3081C149.419 26.713 149.495 26.8225 149.937 26.8261C150.692 26.8334 151.451 26.8261 152.21 26.8261L152.213 26.8334Z" fill="#666F84"/>
<path d="M132.178 30.8245C132.178 31.9262 132.178 33.0278 132.178 34.1295C132.178 34.6658 132.112 34.7278 131.576 34.7278C131.335 34.7278 131.091 34.7278 130.85 34.7095C130.19 34.6621 129.752 34.363 129.595 33.6772C129.464 33.1118 129.384 33.1118 128.928 33.4802C127.458 34.6585 125.812 35.1509 123.956 34.6183C122.69 34.2572 121.927 33.4072 121.705 32.1013C121.471 30.7406 121.946 29.6572 123.069 28.8801C124.269 28.0484 125.666 27.7456 127.089 27.5523C127.6 27.483 128.114 27.4319 128.629 27.4538C128.928 27.4647 129.077 27.3553 129.077 27.0379C129.077 26.436 129.114 25.8268 128.811 25.2687C128.264 24.2582 126.994 23.9481 125.688 24.5172C125.218 24.7215 124.754 24.955 124.288 25.1665C123.624 25.4693 123.211 25.3526 122.803 24.758C122.135 23.7913 122.128 23.7803 123.095 23.1237C124.63 22.0804 126.327 21.6353 128.184 21.8506C130.412 22.1096 132.018 23.9445 132.12 26.2536C132.185 27.7785 132.174 29.2997 132.185 30.8208L132.178 30.8245ZM129.07 30.4269C129.044 29.2194 129.285 29.2121 127.946 29.3945C127.932 29.3945 127.917 29.3945 127.903 29.3982C126.991 29.5404 126.06 29.617 125.258 30.1423C124.685 30.5144 124.488 31.058 124.66 31.7146C124.78 32.1815 125.309 32.5792 125.904 32.6193C126.206 32.6412 126.513 32.6485 126.812 32.6083C127.622 32.4989 128.297 32.0976 128.877 31.5468C129.22 31.2221 129.019 30.7734 129.07 30.4269Z" fill="#666F84"/>
<path d="M89.8697 30.5551C89.8697 31.8356 89.8697 32.981 89.8697 34.1301C89.8697 34.67 89.8004 34.7284 89.2678 34.7284C89.1146 34.7284 88.965 34.7284 88.8118 34.7211C87.7211 34.6919 87.5934 34.597 87.2687 33.5683C87.1082 33.0613 87.1082 33.0649 86.7033 33.4005C85.3426 34.535 83.8141 35.0859 82.023 34.7247C80.6331 34.4438 79.7503 33.634 79.4293 32.2587C79.0973 30.8506 79.6008 29.7562 80.7535 28.9099C81.9756 28.0162 83.4019 27.7608 84.8501 27.5529C85.3754 27.4763 85.9044 27.4215 86.437 27.4544C86.7325 27.4726 86.8456 27.3486 86.8383 27.0568C86.831 26.5862 86.7908 26.1192 86.6486 25.6742C86.3093 24.5871 85.3754 24.0654 84.2409 24.2843C83.5734 24.412 82.9751 24.6856 82.3914 25.0139C81.2861 25.6341 80.323 25.1963 80.0495 23.9633C80.002 23.7481 80.1078 23.6095 80.2574 23.5C82.0266 22.2123 83.9673 21.5192 86.1853 21.8876C87.9655 22.1831 89.3918 23.7007 89.6873 25.5465C89.9609 27.2537 89.8405 28.9792 89.8697 30.5624V30.5551ZM86.8383 30.2961C86.8383 30.1466 86.8383 29.9933 86.8383 29.8438C86.8346 29.3039 86.769 29.2455 86.2291 29.3148C85.795 29.3732 85.3608 29.4316 84.9267 29.5009C84.2519 29.6103 83.588 29.7562 82.997 30.121C82.4753 30.442 82.2054 31.0585 82.3404 31.6349C82.468 32.1821 82.935 32.5651 83.5588 32.6089C83.8615 32.6308 84.1643 32.6308 84.4671 32.6053C85.8789 32.4776 86.8456 31.5328 86.8456 30.2925L86.8383 30.2961Z" fill="#666F84"/>
<path d="M71.9145 28.2015C71.9145 27.0852 71.9035 25.969 71.9218 24.8527C71.9291 24.4733 71.8306 24.3019 71.4147 24.3238C69.93 24.3967 70.1635 24.1195 70.0175 22.8938C69.9774 22.5691 70.1233 22.3976 70.4808 22.3794C70.8128 22.3648 71.1375 22.2371 71.4694 22.2371C71.9728 22.2371 72.1479 21.9854 72.2136 21.5294C72.3376 20.6649 72.4908 19.804 72.6477 18.943C72.7717 18.2682 72.9432 18.1369 73.6181 18.1369C73.9683 18.1369 74.3148 18.1441 74.665 18.1369C74.9641 18.1369 75.0845 18.2426 75.0736 18.5746C75.0408 19.5997 75.0553 20.6247 75.0335 21.6498C75.0262 22.011 75.1867 22.1277 75.5296 22.1131C76.3029 22.0803 77.0763 22.0766 77.846 22.0401C78.2655 22.0183 78.4187 22.1934 78.3969 22.6019C78.3713 23.0214 78.3823 23.4482 78.3859 23.8678C78.3896 24.1888 78.2436 24.331 77.919 24.3274C77.131 24.3165 76.3394 24.3383 75.5515 24.3165C75.1538 24.3055 75.0225 24.4624 75.0262 24.8491C75.0407 26.8992 75.0335 28.953 75.0444 31.0031C75.0517 32.1522 75.7047 32.6009 76.748 32.1048C77.4703 31.7619 77.6053 31.8786 77.9956 32.5389C78.1743 32.838 78.3531 33.1335 78.5282 33.4327C78.6303 33.6078 78.6522 33.7865 78.4479 33.9032C77.2879 34.5489 76.0695 34.9976 74.7124 34.7714C72.9578 34.4796 71.9692 33.3086 71.9254 31.4992C71.8999 30.3976 71.9218 29.2959 71.9218 28.1942H71.9181L71.9145 28.2015Z" fill="#666F84"/>
<path d="M160.742 28.2164C160.742 27.0855 160.731 25.9547 160.746 24.8238C160.749 24.4554 160.618 24.2839 160.242 24.324C160.165 24.3313 160.089 24.3313 160.016 24.324C159.666 24.2912 159.195 24.4736 159.002 24.1161C158.757 23.6674 158.801 23.1202 158.881 22.6095C158.911 22.4308 159.075 22.4052 159.232 22.3833C159.651 22.325 160.071 22.2556 160.49 22.19C160.76 22.1499 160.917 22.0149 160.961 21.7267C161.092 20.8475 161.227 19.9684 161.384 19.0929C161.53 18.2721 161.712 18.1262 162.529 18.1335C164.08 18.1481 163.846 17.9474 163.85 19.4504C163.85 20.1727 163.821 20.895 163.784 21.6173C163.766 21.9966 163.927 22.1462 164.291 22.1097C165.09 22.0258 165.896 22.0514 166.699 22.0404C167.053 22.0331 167.191 22.1681 167.166 22.5256C167.137 22.9451 167.129 23.3719 167.151 23.7914C167.177 24.2146 166.991 24.3459 166.586 24.335C165.86 24.3131 165.13 24.3277 164.404 24.324C163.802 24.324 163.759 24.3423 163.788 24.9223C163.879 26.6405 163.843 28.3586 163.85 30.0768C163.85 30.4817 163.806 30.8867 163.85 31.2952C163.934 32.0285 164.361 32.3677 165.094 32.2474C165.243 32.2218 165.389 32.1744 165.528 32.1197C166.279 31.8351 166.279 31.8315 166.706 32.4991C166.885 32.78 167.056 33.0645 167.224 33.349C167.363 33.5934 167.352 33.8233 167.082 33.9692C165.812 34.6477 164.492 35.0927 163.029 34.6805C161.57 34.2683 160.778 33.1484 160.742 31.4776C160.742 31.4485 160.742 31.4156 160.742 31.3864C160.742 30.3322 160.742 29.2743 160.742 28.22V28.2164Z" fill="#666F84"/>
<path d="M138.026 25.4546C138.026 28.3037 138.026 31.1527 138.026 34.0054C138.026 34.7241 138.026 34.7277 137.282 34.7241C136.643 34.7241 136.009 34.7058 135.37 34.7241C135.013 34.735 134.889 34.6037 134.892 34.2535C134.907 33.0168 134.9 31.7802 134.9 30.5435C134.9 26.0201 134.9 21.4966 134.9 16.9732C134.9 16.3312 134.911 16.3202 135.563 16.3202C136.26 16.3202 136.957 16.3202 137.654 16.3239C137.92 16.3239 138.062 16.4041 138.059 16.7215C138.048 19.6325 138.051 22.5399 138.051 25.451C138.044 25.451 138.033 25.451 138.026 25.451V25.4546Z" fill="#666F84"/>
<path d="M144.034 25.5351C144.034 28.3878 144.034 31.2368 144.034 34.0895C144.034 34.7242 144.027 34.7279 143.407 34.7242C142.739 34.7242 142.071 34.7133 141.404 34.7242C141.072 34.7279 140.933 34.5893 140.951 34.2646C141.043 32.6814 140.984 31.0982 140.988 29.515C140.999 25.9108 140.992 22.303 140.988 18.6989C140.988 18.0823 140.955 17.4622 140.922 16.8457C140.904 16.4554 141.068 16.3095 141.462 16.324C142.115 16.3496 142.764 16.3313 143.417 16.3386C144.027 16.3423 144.03 16.3459 144.03 16.9405C144.03 19.8078 144.03 22.6751 144.03 25.5387L144.034 25.5351Z" fill="#666F84"/>
<path d="M64.9938 28.359C64.9938 26.4438 65.0048 24.525 64.9829 22.6098C64.9792 22.1538 65.1178 21.9933 65.5811 22.0152C66.2633 22.048 66.9455 22.0444 67.6276 22.0152C68.0617 21.9969 68.204 22.1429 68.204 22.5843C68.1894 26.2213 68.1967 29.8583 68.1967 33.4916C68.1967 34.907 68.3171 34.71 66.9564 34.721C66.4858 34.721 66.0152 34.6918 65.5447 34.7283C65.085 34.7647 64.9829 34.5714 64.9865 34.1519C65.0048 32.2221 64.9938 30.2887 64.9938 28.359Z" fill="#666F84"/>
<path d="M68.3833 18.7866C68.3833 19.6767 67.4786 20.5193 66.5228 20.5084C65.6473 20.4974 64.8484 19.6767 64.8302 18.7647C64.8119 17.8527 65.6911 16.9991 66.6396 17.0064C67.5625 17.0137 68.3796 17.849 68.3833 18.7866Z" fill="#666F84"/>
</svg>
