<svg width="196" height="20" viewBox="0 0 196 20" fill="none" xmlns="http://www.w3.org/2000/svg">
<g clip-path="url(#clip0_4327_10752)">
<path d="M25.6288 3.86551C20.3731 -1.2872 11.8544 -1.2872 6.59867 3.86551H6.59504L5.90178 4.54551C5.64044 4.80369 5.64044 5.22187 5.90178 5.48006L8.06504 7.60006C8.1957 7.72733 8.40985 7.72733 8.54052 7.60006L9.47333 6.68733C13.1393 3.09462 19.0846 3.09462 22.7505 6.68733L23.6216 7.54187C23.7523 7.66915 23.9664 7.66915 24.0971 7.54187L26.2604 5.42187C26.5217 5.16369 26.5217 4.74551 26.2604 4.48733L25.6288 3.86551Z" fill="#666F84"/>
<path d="M32.0279 10.1382L30.1041 8.25097V8.2546C29.8428 7.99642 29.4145 7.99642 29.1532 8.2546L22.9901 14.2946C22.9211 14.3601 22.8159 14.3601 22.7505 14.2946L16.5874 8.25097C16.3261 7.99278 15.8978 7.99278 15.6364 8.25097L9.47333 14.291C9.40437 14.3564 9.29911 14.3564 9.23378 14.291L3.07067 8.25097C2.80933 7.99278 2.38104 7.99278 2.1197 8.25097L0.196 10.1382C-0.0653333 10.3964 -0.0653333 10.8146 0.196 11.0728L8.87807 19.5855C9.13941 19.8437 9.5677 19.8437 9.82904 19.5855L15.9921 13.5455C16.0611 13.4801 16.1664 13.4801 16.2317 13.5455L22.3948 19.5855C22.6561 19.8437 23.0844 19.8437 23.3458 19.5855L32.0279 11.0728C32.2892 10.8146 32.2892 10.3964 32.0279 10.1382Z" fill="#666F84"/>
<path d="M48.0091 7.02925L45.2252 18.1893L45.2216 18.1856H40.3579L36.1801 1.6329H40.1691L42.434 11.8256C42.6445 12.7965 42.8115 13.5747 43.0002 14.7347C43.189 13.5747 43.3523 12.7965 43.5665 11.8256L45.9983 1.6329H51.0036L53.3079 12.1025C53.4972 12.9582 53.6677 13.7292 53.8383 14.7347C54.0053 13.5783 54.1468 12.7965 54.3828 11.8038L56.6948 1.63654H60.5168L56.3173 18.1893H51.3375L48.931 7.02925C48.8982 6.8556 48.8613 6.67817 48.8221 6.48951L48.822 6.48906C48.7225 6.01019 48.6079 5.45869 48.5064 4.71289C48.3176 5.75289 48.1761 6.41471 48.0091 7.02925Z" fill="#666F84"/>
<path fill-rule="evenodd" clip-rule="evenodd" d="M63.8343 18.6146C65.7217 18.6146 66.9267 17.8327 67.5401 16.6982C67.4676 17.0546 67.4458 17.4073 67.4458 17.7637V18.1891H70.6072V11.3564C70.6072 8.09456 69.119 6.20002 65.4858 6.20002C62.3461 6.20002 60.2918 7.94911 60.103 10.36H63.573C63.6927 9.29456 64.4477 8.6582 65.6019 8.6582C66.6872 8.6582 67.2788 9.27274 67.2788 9.98184C67.2788 10.5018 66.9703 10.8109 66.052 10.9273L64.4005 11.1164C61.9469 11.4255 59.8453 12.3237 59.8453 14.9237C59.8453 17.2873 61.8053 18.6109 63.8343 18.6109V18.6146ZM64.8978 16.1782C63.9759 16.1782 63.2935 15.6582 63.2935 14.76C63.2935 13.8618 64.0739 13.4582 65.2535 13.2473L66.0556 13.1055C66.7416 12.9637 67.1191 12.8437 67.355 12.6327V13.72C67.355 15.1855 66.2916 16.1782 64.9014 16.1782H64.8978Z" fill="#666F84"/>
<path d="M72.4075 18.1892V1.63645H75.8302V18.1892H72.4075Z" fill="#666F84"/>
<path d="M77.9644 1.63645V18.1892H81.3872V1.63645H77.9644Z" fill="#666F84"/>
<path fill-rule="evenodd" clip-rule="evenodd" d="M94.6063 14.36C94.3704 16.7709 92.2688 18.6146 89.013 18.6146C85.5213 18.6146 82.9951 16.3891 82.9951 12.3709C82.9951 8.6582 85.3108 6.20002 88.9441 6.20002C92.5773 6.20002 94.6789 8.70911 94.6789 12.5382V13.2H86.465C86.4868 14.8327 87.5503 16.0146 89.013 16.0146C90.0983 16.0146 90.9948 15.4255 91.1618 14.36H94.6063ZM88.9187 8.6582C87.5503 8.6582 86.5812 9.62911 86.4396 10.9527H91.1836C91.1618 9.58184 90.287 8.6582 88.9187 8.6582Z" fill="#666F84"/>
<path d="M102.076 18.4255C102.831 18.4255 103.564 18.3055 103.895 18.2109V15.6109C103.633 15.6582 103.328 15.6837 103.067 15.6837C101.815 15.6837 101.368 14.9746 101.368 13.8146V9.27274H104.152V6.60002H101.368V2.4873H97.971V6.60002H95.4702V9.27274H97.971V14.2873C97.971 17.0291 99.3393 18.4255 102.076 18.4255Z" fill="#666F84"/>
<path d="M121.484 11.9238C121.132 15.8729 118.301 18.6147 113.626 18.6147C108.671 18.6147 105.484 15.211 105.484 9.81831C105.484 4.42558 109.118 1.21103 113.861 1.21103C118.017 1.21103 121.037 3.55284 121.415 7.66558H117.615C117.357 5.65467 116.083 4.28376 113.84 4.28376C111.219 4.28376 109.306 6.22194 109.306 9.81831C109.306 13.4147 111.147 15.5419 113.767 15.5419C115.985 15.5419 117.495 14.0765 117.778 11.9238H121.484Z" fill="#666F84"/>
<path fill-rule="evenodd" clip-rule="evenodd" d="M128.75 18.6146C132.315 18.6146 134.841 16.3673 134.841 12.4437C134.841 8.52002 132.315 6.20002 128.75 6.20002C125.186 6.20002 122.685 8.58911 122.685 12.4437C122.685 16.2982 125.186 18.6146 128.75 18.6146ZM128.75 15.9673C127.168 15.9673 126.155 14.6655 126.155 12.4437C126.155 10.2218 127.219 8.8982 128.75 8.8982C130.282 8.8982 131.371 10.1746 131.371 12.4437C131.371 14.7127 130.333 15.9673 128.75 15.9673Z" fill="#666F84"/>
<path d="M139.61 11.4037V18.1855H136.187V6.60002H139.61V7.05093C139.61 7.36002 139.585 7.69093 139.516 8.11638C140.107 7.07638 141.214 6.20002 143.033 6.20002C145.653 6.20002 147.116 8.06911 147.116 10.8582V18.1891H143.693V11.3564C143.693 9.82184 142.986 8.8982 141.781 8.8982C140.507 8.8982 139.61 9.96002 139.61 11.4037Z" fill="#666F84"/>
<path d="M152.43 18.1855V11.4037C152.43 9.96002 153.326 8.8982 154.6 8.8982C155.805 8.8982 156.513 9.82184 156.513 11.3564V18.1891H159.936V10.8582C159.936 8.06911 158.473 6.20002 155.853 6.20002C154.034 6.20002 152.927 7.07638 152.336 8.11638C152.405 7.69093 152.43 7.36002 152.43 7.05093V6.60002H149.007V18.1855H152.43Z" fill="#666F84"/>
<path fill-rule="evenodd" clip-rule="evenodd" d="M172.894 14.36C172.658 16.7709 170.556 18.6146 167.301 18.6146C163.809 18.6146 161.283 16.3891 161.283 12.3709C161.283 8.6582 163.598 6.20002 167.232 6.20002C170.865 6.20002 172.966 8.70911 172.966 12.5382V13.2H164.753C164.774 14.8327 165.838 16.0146 167.301 16.0146C168.386 16.0146 169.282 15.4255 169.449 14.36H172.894ZM167.206 8.6582C165.834 8.6582 164.869 9.62911 164.727 10.9527H169.471C169.449 9.58184 168.578 8.6582 167.206 8.6582Z" fill="#666F84"/>
<path d="M180.313 18.6146C183.899 18.6146 185.859 16.6509 186.236 13.6H182.814C182.697 14.8764 181.964 15.9637 180.429 15.9637C178.894 15.9637 177.808 14.52 177.808 12.3927C177.808 10.0764 179.035 8.89456 180.498 8.89456C181.961 8.89456 182.647 9.93456 182.741 11.1418H186.164C185.906 8.32729 183.993 6.20002 180.476 6.20002C176.959 6.20002 174.338 8.46911 174.338 12.3964C174.338 16.3237 176.629 18.6146 180.309 18.6146H180.313Z" fill="#666F84"/>
<path d="M195.459 18.2109C195.129 18.3055 194.396 18.4255 193.641 18.4255C190.904 18.4255 189.536 17.0291 189.536 14.2873V9.27274H187.035V6.60002H189.536V2.4873H192.933V6.60002H195.717V9.27274H192.933V13.8146C192.933 14.9746 193.379 15.6837 194.632 15.6837C194.893 15.6837 195.198 15.6582 195.459 15.6109V18.2109Z" fill="#666F84"/>
</g>
<defs>
<clipPath id="clip0_4327_10752">
<rect width="196" height="20" fill="white"/>
</clipPath>
</defs>
</svg>
