<svg width="170" height="49" viewBox="0 0 170 49" fill="none" xmlns="http://www.w3.org/2000/svg">
<path fill-rule="evenodd" clip-rule="evenodd" d="M39.7043 3.65512C38.2544 6.22966 39.1112 9.47292 41.6484 10.9775L50.5782 16.2269V26.7926C50.5782 29.7349 52.9506 32.1423 55.8503 32.1423C58.75 32.1423 61.1225 29.7349 61.1225 26.7926V13.4183C61.1225 12.5824 60.9249 11.78 60.5953 11.0778C60.1669 10.0079 59.409 9.03825 58.3217 8.40298L46.9206 1.71585C44.3834 0.244681 41.1541 1.11401 39.7043 3.65512Z" fill="#666F84"/>
<path d="M67.3826 11.7468C70.2943 11.7468 72.6548 9.35168 72.6548 6.39712C72.6548 3.44257 70.2943 1.04742 67.3826 1.04742C64.4708 1.04742 62.1104 3.44257 62.1104 6.39712C62.1104 9.35168 64.4708 11.7468 67.3826 11.7468Z" fill="#94A0BC"/>
<path d="M77.2346 40.5012L79.3765 35.7533L72.5227 21.4094H76.8392L81.4524 31.7076L85.7689 21.4094H89.8219L79.6071 44.2794C77.6959 44.2794 76.4438 42.2732 77.2346 40.5012Z" fill="#666F84"/>
<path d="M97.6328 20.908C98.852 20.908 99.9394 21.142 100.961 21.5767C101.982 22.0113 102.839 22.6132 103.597 23.3822C104.355 24.1512 104.915 25.0539 105.343 26.0905C105.772 27.127 105.969 28.2973 105.969 29.5344C105.969 30.7715 105.772 31.9417 105.343 32.9783C104.915 34.0482 104.355 34.951 103.597 35.7199C102.839 36.489 101.982 37.0907 100.961 37.5254C99.9394 37.9601 98.852 38.1942 97.6328 38.1942C96.4466 38.1942 95.3592 37.9601 94.3378 37.5254C93.3162 37.0907 92.4265 36.489 91.7016 35.7199C90.9767 34.951 90.3836 34.0482 89.9882 32.9783C89.5598 31.9083 89.3621 30.7715 89.3621 29.5344C89.3621 28.2973 89.5598 27.127 89.9882 26.0905C90.4165 25.0539 90.9767 24.1512 91.7016 23.3822C92.4265 22.6132 93.3162 22.0113 94.3378 21.5767C95.3592 21.1085 96.4466 20.908 97.6328 20.908ZM97.6328 34.7168C98.226 34.7168 98.7862 34.6166 99.3133 34.3824C99.8406 34.1484 100.335 33.814 100.763 33.3795C101.192 32.9448 101.521 32.4099 101.752 31.7411C101.982 31.1058 102.114 30.3368 102.114 29.5009C102.114 28.665 101.982 27.896 101.752 27.2607C101.521 26.6254 101.192 26.0905 100.763 25.6558C100.335 25.2211 99.8735 24.8867 99.3133 24.6862C98.7862 24.4855 98.226 24.3518 97.6328 24.3518C97.0397 24.3518 96.4795 24.4522 95.9524 24.6862C95.4251 24.8867 94.9308 25.2211 94.5354 25.6558C94.14 26.0905 93.8105 26.6254 93.547 27.2607C93.2833 27.896 93.1514 28.6316 93.1514 29.5009C93.1514 30.3368 93.2833 31.1058 93.547 31.7411C93.8105 32.3764 94.14 32.9448 94.5354 33.3795C94.9308 33.814 95.4251 34.1484 95.9524 34.3824C96.4795 34.5831 97.0397 34.7168 97.6328 34.7168Z" fill="#666F84"/>
<path d="M108.343 37.6924V16.6279C108.343 14.8892 109.727 13.485 111.44 13.485H112.165V34.6497C112.165 36.3216 110.814 37.6924 109.167 37.6924H108.343Z" fill="#666F84"/>
<path d="M122.839 20.9078C124.058 20.9078 125.146 21.1419 126.167 21.5766C127.189 22.0111 128.045 22.613 128.803 23.3821C129.561 24.151 130.121 25.0538 130.55 26.0904C130.978 27.1269 131.176 28.2971 131.176 29.5343C131.176 30.7714 130.978 31.9416 130.55 32.9781C130.121 34.0481 129.561 34.9509 128.803 35.7198C128.045 36.4889 127.189 37.0906 126.167 37.5253C125.146 37.96 124.058 38.1941 122.839 38.1941C121.653 38.1941 120.565 37.96 119.544 37.5253C118.522 37.0906 117.633 36.4889 116.908 35.7198C116.183 34.9509 115.59 34.0481 115.195 32.9781C114.766 31.9082 114.568 30.7714 114.568 29.5343C114.568 28.2971 114.766 27.1269 115.195 26.0904C115.623 25.0538 116.183 24.151 116.908 23.3821C117.633 22.613 118.522 22.0111 119.544 21.5766C120.565 21.1084 121.653 20.9078 122.839 20.9078ZM122.839 34.7167C123.432 34.7167 123.992 34.6165 124.52 34.3823C125.047 34.1483 125.541 33.8139 125.969 33.3794C126.398 32.9447 126.727 32.4097 126.958 31.741C127.189 31.1056 127.32 30.3367 127.32 29.5008C127.32 28.6649 127.189 27.8959 126.958 27.2605C126.727 26.6253 126.398 26.0904 125.969 25.6557C125.541 25.221 125.08 24.8866 124.52 24.6861C123.992 24.4854 123.432 24.3517 122.839 24.3517C122.246 24.3517 121.686 24.4521 121.159 24.6861C120.631 24.8866 120.137 25.221 119.742 25.6557C119.346 26.0904 119.017 26.6253 118.753 27.2605C118.49 27.8959 118.358 28.6315 118.358 29.5008C118.358 30.3367 118.49 31.1056 118.753 31.741C119.017 32.3763 119.346 32.9447 119.742 33.3794C120.137 33.8139 120.631 34.1483 121.159 34.3823C121.686 34.583 122.246 34.7167 122.839 34.7167Z" fill="#666F84"/>
<path d="M90.6144 45.6508C90.6474 45.8848 90.7463 46.0855 90.9111 46.2527C91.0759 46.4198 91.3065 46.4867 91.5701 46.4867C92.2951 46.4867 92.6574 46.0855 92.6574 45.3164V44.9152C92.5586 45.0824 92.4268 45.2161 92.262 45.3164C92.0644 45.4167 91.8336 45.4836 91.5701 45.4836C91.3065 45.4836 91.0759 45.4502 90.8452 45.3499C90.6146 45.2496 90.4498 45.1159 90.2851 44.9487C90.1203 44.7815 89.9884 44.5808 89.9225 44.3468C89.8236 44.1128 89.7908 43.8452 89.7908 43.5777C89.7908 43.3103 89.8236 43.0762 89.9225 42.8421C90.0214 42.6081 90.1203 42.4076 90.2851 42.2404C90.4498 42.0732 90.6146 41.9394 90.8452 41.8392C91.0759 41.7388 91.3065 41.672 91.5701 41.672C91.8667 41.672 92.1303 41.7388 92.2951 41.8392C92.4927 41.9394 92.6246 42.0732 92.6905 42.2404V41.7388H93.5801V45.2831C93.5801 45.5504 93.5471 45.7845 93.4812 46.052C93.4154 46.286 93.2835 46.52 93.1517 46.6872C92.987 46.8879 92.7893 47.0216 92.5586 47.1219C92.2951 47.2223 91.9984 47.2891 91.636 47.2891C91.3724 47.2891 91.1417 47.2556 90.944 47.1888C90.7463 47.1219 90.5486 47.0216 90.3838 46.8879C90.219 46.7542 90.0873 46.6204 89.9884 46.4198C89.8895 46.2192 89.8236 46.052 89.7908 45.8515L90.6144 45.6508ZM91.7019 44.7145C91.9984 44.7145 92.229 44.6143 92.4268 44.4136C92.6246 44.2131 92.6905 43.9456 92.6905 43.6112C92.6905 43.444 92.6575 43.3103 92.6246 43.1432C92.5586 43.0093 92.4927 42.8756 92.4268 42.8088C92.3279 42.7085 92.2292 42.6416 92.1303 42.5748C91.9984 42.5078 91.8667 42.5078 91.7349 42.5078C91.4382 42.5078 91.2076 42.6081 91.01 42.8088C90.8122 43.0093 90.7133 43.2768 90.7133 43.6112C90.7133 43.9456 90.8122 44.2131 90.977 44.4136C91.1747 44.6143 91.4054 44.7145 91.7019 44.7145Z" fill="#666F84"/>
<path d="M96.6436 42.6744C96.5449 42.6744 96.446 42.6411 96.3471 42.6411C95.9847 42.6411 95.7211 42.7413 95.5563 42.942C95.3916 43.1426 95.2927 43.41 95.2927 43.7779V45.6503H94.3701V41.7383H95.2598V42.3736C95.3585 42.1729 95.4904 42.0057 95.6881 41.872C95.8858 41.7383 96.1165 41.7048 96.3801 41.7048C96.446 41.7048 96.4789 41.7048 96.5449 41.7048C96.5777 41.7048 96.6108 41.7048 96.6436 41.7048V42.6744Z" fill="#666F84"/>
<path d="M98.7527 41.6382C99.0493 41.6382 99.3128 41.705 99.5435 41.8054C99.7742 41.9057 100.005 42.0394 100.17 42.2401C100.334 42.4406 100.499 42.6413 100.598 42.9088C100.697 43.1762 100.763 43.4437 100.763 43.7446C100.763 44.0456 100.697 44.313 100.598 44.5805C100.499 44.848 100.367 45.0486 100.17 45.2492C100.005 45.4499 99.7742 45.5836 99.5435 45.6839C99.3128 45.7841 99.0493 45.8511 98.7527 45.8511C98.4562 45.8511 98.1925 45.7841 97.9619 45.6839C97.7312 45.5836 97.5006 45.4499 97.3358 45.2492C97.1711 45.0486 97.0063 44.848 96.9074 44.5805C96.8086 44.313 96.7427 44.0456 96.7427 43.7446C96.7427 43.4437 96.8086 43.1762 96.9074 42.9088C97.0063 42.6413 97.1381 42.4406 97.3358 42.2401C97.5006 42.0394 97.7312 41.9057 97.9619 41.8054C98.1925 41.705 98.489 41.6382 98.7527 41.6382ZM98.7527 44.9484C98.8846 44.9484 99.0163 44.9149 99.1481 44.8814C99.28 44.8145 99.3787 44.7477 99.4776 44.6474C99.5765 44.5472 99.6424 44.4133 99.7082 44.2461C99.7742 44.079 99.8071 43.9118 99.8071 43.7112C99.8071 43.5106 99.7742 43.3434 99.7082 43.1762C99.6424 43.009 99.5765 42.9088 99.4776 42.775C99.3787 42.6413 99.247 42.6078 99.1481 42.5409C99.0163 42.4741 98.8846 42.4741 98.7527 42.4741C98.6209 42.4741 98.489 42.5075 98.3573 42.5409C98.2255 42.6078 98.1266 42.6746 98.0278 42.775C97.9289 42.8753 97.863 43.009 97.7971 43.1762C97.7312 43.3434 97.6982 43.5106 97.6982 43.7112C97.6982 43.9118 97.7312 44.079 97.7971 44.2461C97.863 44.4133 97.9289 44.5472 98.0278 44.6474C98.1266 44.7477 98.2255 44.8145 98.3573 44.8814C98.489 44.9149 98.6209 44.9484 98.7527 44.9484Z" fill="#666F84"/>
<path d="M103.827 45.2494C103.728 45.4166 103.596 45.5502 103.366 45.6506C103.135 45.7509 102.937 45.7843 102.707 45.7843C102.476 45.7843 102.278 45.7509 102.081 45.6506C101.916 45.5837 101.751 45.4499 101.619 45.3162C101.487 45.1825 101.389 45.0153 101.323 44.8147C101.257 44.6141 101.224 44.4134 101.224 44.2129V41.7386H102.146V44.0457C102.146 44.1794 102.146 44.2798 102.179 44.38C102.212 44.4803 102.245 44.5806 102.311 44.6475C102.377 44.7143 102.443 44.7813 102.542 44.8482C102.641 44.8815 102.772 44.915 102.904 44.915C103.168 44.915 103.366 44.8482 103.497 44.681C103.629 44.5138 103.695 44.3131 103.695 44.0457V41.7386H104.618V44.9485C104.618 45.1155 104.618 45.2494 104.618 45.3831C104.618 45.5169 104.651 45.6171 104.651 45.6841H103.761C103.761 45.6506 103.728 45.5837 103.728 45.4834C103.728 45.3831 103.827 45.3162 103.827 45.2494Z" fill="#666F84"/>
<path d="M105.574 47.1883V41.7717H106.464V42.3067C106.563 42.1395 106.727 42.0057 106.925 41.872C107.123 41.7383 107.386 41.7048 107.683 41.7048C107.98 41.7048 108.21 41.7717 108.441 41.872C108.671 41.9724 108.836 42.106 109.001 42.3067C109.166 42.4739 109.265 42.7079 109.33 42.942C109.396 43.176 109.462 43.4435 109.462 43.7444C109.462 44.0454 109.429 44.3128 109.33 44.5468C109.232 44.781 109.133 45.015 108.968 45.1822C108.803 45.3827 108.606 45.5166 108.408 45.6168C108.177 45.7171 107.947 45.784 107.65 45.784C107.386 45.784 107.123 45.7171 106.925 45.6168C106.727 45.5166 106.563 45.3827 106.464 45.249V47.2218H105.574V47.1883ZM108.573 43.711C108.573 43.3432 108.474 43.0423 108.276 42.8416C108.078 42.6076 107.848 42.5073 107.518 42.5073C107.353 42.5073 107.222 42.5408 107.09 42.6076C106.958 42.6744 106.859 42.7413 106.76 42.8416C106.661 42.942 106.596 43.0757 106.563 43.2095C106.497 43.3432 106.497 43.5104 106.497 43.711C106.497 44.0788 106.596 44.3796 106.793 44.6138C106.991 44.8478 107.222 44.948 107.551 44.948C107.848 44.948 108.111 44.8478 108.309 44.6138C108.474 44.3796 108.573 44.0788 108.573 43.711Z" fill="#666F84"/>
</svg>
