<svg width="170" height="49" viewBox="0 0 170 49" fill="none" xmlns="http://www.w3.org/2000/svg">
<g clip-path="url(#clip0_4327_10384)">
<path d="M72.4221 1.80535C70.8156 0.371571 68.1745 0.873243 67.395 3.13564C67.3239 3.34186 67.2618 3.44759 67.0515 3.48359C66.0223 3.66056 64.9938 3.84203 63.9662 4.0265C61.4227 4.48393 58.88 4.94361 56.3373 5.40479C54.7867 5.68599 53.2415 5.99644 51.6856 6.24766C50.225 6.48312 48.7849 6.82282 47.3191 7.03428C47.024 7.07703 46.6986 7.08003 46.414 7.19251C46.0182 7.34923 45.5929 7.36798 45.1873 7.42947C44.787 7.49021 44.3829 7.58245 43.9848 7.64694C43.689 7.69493 43.3673 7.68818 43.0767 7.79316C42.6567 7.94389 42.2072 7.94764 41.7774 8.04887C41.3362 8.15311 40.8837 8.2041 40.4387 8.29709C40.1988 8.34733 39.9082 8.55955 39.6759 8.26409C38.5128 6.78232 36.3537 6.52511 34.9394 7.92814C34.0948 8.76576 33.9072 9.80435 34.2159 10.9434C34.5035 12.0045 35.7673 13.1271 36.9546 13.0708C37.0749 13.0648 37.1665 13.0828 37.2195 13.2141C37.3958 13.6513 37.5691 14.0907 37.7704 14.5174C38.0163 15.0408 38.2539 15.5717 38.459 16.1064C38.7292 16.8105 39.0334 17.4997 39.3149 18.1985C39.7546 19.2911 40.2215 20.3732 40.6771 21.459C40.6249 21.5108 40.5795 21.5738 40.5189 21.612C38.6982 22.7751 36.8782 23.9374 35.0544 25.0952C33.3971 26.1466 31.733 27.1889 30.0795 28.2455C29.9244 28.3445 29.7715 28.406 29.6323 28.3122C29.2683 28.067 28.8536 27.986 28.4381 27.92C27.5572 27.782 26.2647 28.1892 25.6729 28.9691C25.1356 29.677 24.9464 30.4299 25.0145 31.2788C25.0766 32.0519 25.3952 32.738 25.9862 33.2165C27.0994 34.1171 28.3337 34.2655 29.6179 33.5457C29.7768 33.4564 29.9024 33.4437 30.0575 33.5412C31.7951 34.6307 33.5318 35.7218 35.2746 36.8024C37.5055 38.1859 39.744 39.5575 41.9764 40.9387C44.0847 42.2435 46.1878 43.5566 48.2968 44.8591C48.8182 45.1808 49.3313 45.486 49.1376 46.2352C49.1164 46.3169 49.1989 46.4204 49.2102 46.5164C49.3888 48.0296 51.1748 49.255 52.6724 48.9565C54.5136 48.5891 55.5617 47.105 55.2242 45.2701C54.9994 44.0455 53.9354 43.0227 52.5581 42.9484C52.3818 42.9387 52.2108 42.9117 52.1199 42.6882C51.5948 41.3977 51.0544 40.1131 50.5149 38.8278C49.4199 36.2182 48.3233 33.6086 47.2245 31.0005C46.7848 29.956 46.3383 28.9144 45.8949 27.872C45.8298 27.6966 45.7715 27.5188 45.6996 27.3471C45.014 25.7079 44.3254 24.0694 43.6383 22.4309C44.3042 21.9952 44.9679 21.5558 45.6361 21.1238C46.7758 20.3867 47.9184 19.6541 49.0596 18.9199C49.0952 18.9079 49.1353 18.9034 49.1663 18.8839C51.0665 17.6856 52.969 16.4896 54.8647 15.2845C56.8633 14.0142 58.8528 12.7311 60.8506 11.4593C63.3086 9.89434 65.771 8.33758 68.2267 6.76882C68.4416 6.6316 68.624 6.5926 68.845 6.72833C69.5207 7.14302 70.2745 7.24275 71.0161 7.05153C72.1542 6.75833 72.9935 6.05044 73.3038 4.90236C73.6208 3.72805 73.3681 2.65047 72.4244 1.8076L72.4221 1.80535ZM43.8085 28.8056C45.2138 32.1659 46.6191 35.5253 48.0244 38.8856C48.5367 40.1109 49.0536 41.3347 49.5606 42.5622C49.5984 42.653 49.7301 42.773 49.603 42.8599C49.497 42.9327 49.3979 42.803 49.3063 42.746C46.4042 40.9462 43.5028 39.145 40.6014 37.3446C37.5403 35.4444 34.48 33.5419 31.4136 31.6499C31.1919 31.5127 31.1579 31.359 31.12 31.1183C31.0224 30.4974 31.3334 30.2049 31.8223 29.9012C34.4346 28.2777 37.0288 26.6265 39.6199 24.9707C40.2911 24.5418 40.9382 24.0739 41.645 23.7004C42.3661 25.4027 43.0873 27.1049 43.8085 28.8071V28.8056ZM62.5843 7.62219C59.2092 9.77361 55.8303 11.9198 52.4552 14.0697C50.9424 15.0333 49.4335 16.0021 47.923 16.968C46.3156 17.9818 44.7091 18.9964 43.101 20.0088C42.9746 20.0882 42.8391 20.1535 42.7082 20.2255C42.1474 18.8974 41.5867 17.5694 41.0267 16.2413C40.5908 15.208 40.1579 14.1732 39.7198 13.1406C39.6441 12.9614 39.573 12.7679 39.4784 12.6112C39.2741 12.2737 39.4065 12.0532 39.6222 11.8155C39.8689 11.5433 40.0111 11.2119 40.1322 10.8729C40.1784 10.7432 40.2359 10.6525 40.3782 10.6255C40.7739 10.5512 41.1712 10.4852 41.5632 10.396C42.295 10.2295 43.0404 10.1373 43.7745 9.98282C44.115 9.91083 44.4805 9.86659 44.8279 9.80135C45.3152 9.70912 45.8079 9.60713 46.2922 9.5194C46.9612 9.39791 47.6392 9.30043 48.3112 9.18495C49.6393 8.95698 50.9651 8.71927 52.291 8.48156C54.1844 8.14186 56.0763 7.79616 57.9689 7.45572C59.2849 7.21875 60.6016 6.98704 61.9176 6.75083C62.7001 6.6106 63.4811 6.46587 64.2636 6.32564C64.3218 6.31514 64.3862 6.30315 64.4626 6.38563C63.833 6.80032 63.2132 7.22025 62.5828 7.62219H62.5843Z" fill="#666F84"/>
<path d="M119.125 17.2275C119.125 20.4887 119.121 23.7507 119.129 27.012C119.13 27.5346 118.936 27.9231 118.485 28.1998C116.605 29.3516 114.576 30.022 112.36 30.1397C111.018 30.211 109.718 30.0602 108.481 29.5353C106.457 28.6752 105.275 27.1057 104.704 25.0375C104.475 24.2111 104.392 23.3653 104.369 22.5172C104.323 20.8442 104.263 19.1644 104.573 17.5087C104.959 15.4503 105.903 13.7398 107.846 12.7229C109.327 11.9483 110.925 11.8313 112.556 11.9798C113.756 12.0893 114.914 12.3862 116.028 12.8362C116.361 12.9704 116.354 12.7829 116.354 12.558C116.352 10.846 116.385 9.13324 116.34 7.42276C116.317 6.51465 117.077 5.94774 117.723 5.94849C118.542 5.94849 119.122 6.57089 119.123 7.44375C119.124 10.705 119.123 13.967 119.123 17.2282H119.125V17.2275ZM116.352 20.9949C116.352 19.3706 116.35 17.7456 116.354 16.1214C116.354 15.8972 116.338 15.715 116.092 15.601C114.442 14.8354 112.722 14.4109 110.893 14.5984C108.895 14.8024 107.709 15.8327 107.394 17.7944C107.067 19.8243 107.069 21.8888 107.372 23.9172C107.722 26.2658 109.338 27.5346 111.739 27.5324C113.288 27.5309 114.715 27.0772 116.064 26.3423C116.298 26.2148 116.358 26.0431 116.357 25.7926C116.348 24.1931 116.352 22.5936 116.352 20.9941V20.9949Z" fill="#666F84"/>
<path d="M144.873 22.3395C144.873 23.9637 144.871 25.5879 144.875 27.2129C144.876 27.7071 144.669 28.0663 144.237 28.3228C142.373 29.4288 140.368 30.0422 138.19 30.145C137.009 30.2012 135.853 30.1232 134.712 29.8225C131.162 28.8852 129.497 24.7541 131.428 21.6503C132.329 20.2023 133.737 19.4891 135.357 19.1532C137.414 18.7265 139.445 18.9837 141.46 19.4674C141.594 19.4996 141.728 19.5386 141.861 19.5761C142.018 19.6196 142.101 19.5739 142.099 19.3992C142.092 18.5758 142.147 17.7487 141.942 16.9373C141.602 15.5905 140.638 14.7949 139.172 14.5992C137.422 14.3652 135.764 14.7169 134.14 15.3198C133.94 15.394 133.735 15.4653 133.527 15.5035C132.872 15.6235 132.308 15.3513 132.079 14.8211C131.83 14.2452 132.038 13.5231 132.562 13.1519C132.853 12.9449 133.193 12.8399 133.524 12.7214C135.702 11.9416 137.937 11.7016 140.22 12.1013C143.031 12.5932 144.752 14.6082 144.843 17.5402C144.893 19.1382 144.852 20.7392 144.852 22.3387C144.86 22.3387 144.867 22.3387 144.874 22.3387L144.873 22.3395ZM142.098 24.2764C142.098 23.6517 142.094 23.0271 142.101 22.4032C142.103 22.1872 142.036 22.0545 141.807 21.9975C140.115 21.5761 138.412 21.2379 136.655 21.4253C135.665 21.5311 134.771 21.8715 134.085 22.6312C133.082 23.7425 133.172 26.4383 135.347 27.2534C136.491 27.6824 137.67 27.6824 138.852 27.5774C139.835 27.4896 140.782 27.2362 141.653 26.7405C141.972 26.559 142.126 26.3416 142.106 25.9636C142.077 25.4027 142.098 24.8396 142.098 24.2779L142.098 24.2764Z" fill="#666F84"/>
<path d="M93.6579 11.9303C95.6096 11.9371 97.3857 12.4455 98.8826 13.745C100.257 14.9381 101.01 16.4529 101.182 18.2421C101.356 20.0471 101.336 21.8565 101.192 23.6645C100.946 26.7443 98.5889 29.3748 95.5135 29.9725C93.2213 30.4179 91.0426 30.1585 89.0894 28.8049C87.277 27.5481 86.2932 25.7859 86.0995 23.6142C85.9459 21.8963 85.9557 20.1693 86.0904 18.4506C86.3386 15.298 88.4121 12.9232 91.5224 12.1643C92.2224 11.9933 92.9322 11.8988 93.6579 11.9303ZM88.8435 21.0129C88.879 21.8228 88.8215 22.6341 88.9214 23.444C89.212 25.8084 91.3105 27.5661 93.829 27.5346C96.1045 27.5069 98.1629 25.6164 98.3589 23.3345C98.4981 21.7155 98.5193 20.0875 98.3415 18.473C98.1508 16.7401 97.2086 15.5118 95.5468 14.8781C94.6864 14.5497 93.7957 14.4934 92.8739 14.5924C91.0713 14.7851 89.542 16.0397 89.069 17.7727C88.7776 18.8397 88.8813 19.9301 88.8442 21.0129H88.8435Z" fill="#666F84"/>
<path d="M72.8547 27.2497C73.0394 27.3389 73.1794 27.3074 73.3141 27.3074C76.2132 27.3044 79.1131 27.2984 82.0122 27.2939C82.741 27.2932 83.3093 27.8218 83.3305 28.5147C83.3547 29.2954 82.8356 29.8773 82.0569 29.8915C81.011 29.911 79.9644 29.8975 78.9179 29.8975C76.6741 29.8975 74.4296 29.8998 72.1858 29.896C71.5539 29.8953 70.9553 29.7648 70.4558 29.3516C69.5954 28.64 69.4864 27.3479 70.1887 26.2846C70.4672 25.8631 70.8388 25.5212 71.1763 25.1515C73.6229 22.4782 76.0785 19.8123 78.5312 17.1435C79.023 16.6081 79.5149 16.0727 80.003 15.5335C80.0999 15.4263 80.2233 15.3318 80.2497 15.1706C80.1135 15.0948 79.9728 15.1308 79.8396 15.1301C77.1168 15.1278 74.3932 15.1286 71.6704 15.1278C70.7903 15.1278 70.2099 14.6284 70.1978 13.865C70.1849 13.0964 70.7933 12.5415 71.6674 12.5407C74.7943 12.5385 77.9205 12.5347 81.0474 12.5422C82.3664 12.5452 83.2836 13.2959 83.3804 14.4702C83.4485 15.2973 83.1383 16.0157 82.5805 16.6246C79.7526 19.7134 76.92 22.7984 74.0898 25.8856C73.6841 26.3281 73.2838 26.7758 72.8547 27.2497Z" fill="#666F84"/>
<path d="M126.613 21.1037C126.613 23.564 126.616 26.0251 126.612 28.4855C126.61 29.2999 126.217 29.8315 125.523 29.992C124.782 30.1637 124.017 29.6853 123.867 28.9422C123.82 28.7112 123.797 28.4713 123.797 28.2358C123.793 23.4643 123.794 18.6928 123.796 13.922C123.796 13.7608 123.809 13.5973 123.834 13.4376C123.955 12.6457 124.527 12.1381 125.257 12.1665C125.989 12.195 126.534 12.7462 126.604 13.5343C126.617 13.6836 126.613 13.8335 126.613 13.9835C126.613 16.3569 126.613 18.7303 126.613 21.1029V21.1037Z" fill="#666F84"/>
<path d="M125.994 39.2095C125.994 38.0727 125.991 36.9359 125.995 35.7991C125.998 34.885 126.356 34.5243 127.286 34.5333C128.217 34.5423 129.15 34.4755 130.081 34.5925C132.121 34.8497 133.494 36.3465 133.581 38.3817C133.612 39.1315 133.65 39.8837 133.526 40.6216C133.192 42.6035 131.616 43.891 129.538 43.918C128.769 43.9278 128 43.921 127.231 43.9195C126.346 43.918 126.013 43.6136 125.999 42.7317C125.982 41.5574 125.995 40.3831 125.995 39.2088H125.993L125.994 39.2095ZM127.453 39.2163C127.453 40.2031 127.46 41.1892 127.449 42.1761C127.446 42.4535 127.546 42.5518 127.823 42.545C128.377 42.5308 128.933 42.5548 129.486 42.5368C131.052 42.4865 131.991 41.5754 132.112 40.0524C132.159 39.4772 132.153 38.9111 132.109 38.3367C132.001 36.9411 131.045 36.0008 129.632 35.958C129.027 35.94 128.422 35.9655 127.818 35.94C127.532 35.928 127.444 36.015 127.448 36.2947C127.461 37.2688 127.453 38.2429 127.453 39.217V39.2163Z" fill="#666F84"/>
<path d="M113.713 39.1908C113.697 38.1672 113.785 37.1706 114.349 36.2678C115.225 34.8662 116.949 34.1651 118.69 34.522C120.333 34.8587 121.561 36.159 121.777 37.8095C121.913 38.8421 121.928 39.883 121.733 40.9043C121.367 42.8225 119.68 44.1115 117.698 44.0448C115.65 43.9758 114.078 42.6073 113.787 40.6478C113.715 40.1634 113.733 39.676 113.714 39.1916L113.713 39.1908ZM120.386 39.4293C120.384 38.8189 120.384 38.3584 120.303 37.9003C120.084 36.66 119.154 35.8411 117.913 35.8103C116.566 35.7773 115.548 36.5107 115.293 37.763C115.093 38.7491 115.097 39.7532 115.296 40.7393C115.514 41.8221 116.402 42.5495 117.564 42.674C118.628 42.788 119.624 42.2301 120.091 41.259C120.395 40.6291 120.394 39.9549 120.386 39.4285V39.4293Z" fill="#666F84"/>
<path d="M96.4981 34.4358C97.3873 34.4253 98.225 34.6173 98.9969 35.0619C99.1823 35.1684 99.3692 35.2802 99.4775 35.4744C99.6281 35.7428 99.6114 36.009 99.4124 36.243C99.1808 36.5152 98.8796 36.5729 98.558 36.4267C98.0782 36.2093 97.6257 35.9318 97.0861 35.8583C96.5806 35.7893 96.0811 35.7856 95.584 35.9026C94.996 36.0413 94.6456 36.396 94.5941 36.8961C94.5313 37.5133 94.7334 37.8462 95.3592 38.1207C95.8821 38.3502 96.4436 38.4439 96.9991 38.5564C97.5318 38.6644 98.051 38.8188 98.5459 39.0393C99.4987 39.4645 100.017 40.1806 100.012 41.238C100.006 42.2713 99.5932 43.0737 98.6594 43.5791C98.0934 43.8851 97.4774 44.005 96.8417 44.0313C95.6475 44.08 94.5018 43.9083 93.4749 43.2492C93.3493 43.1682 93.2244 43.0767 93.1245 42.9679C92.896 42.7182 92.8695 42.3155 93.0708 42.0696C93.2955 41.7944 93.5922 41.7216 93.9183 41.8694C94.1931 41.9939 94.4503 42.1543 94.7235 42.2833C95.5847 42.6897 96.4868 42.7827 97.4153 42.587C97.7634 42.5135 98.0934 42.3755 98.3181 42.0793C98.7964 41.4487 98.5754 40.6748 97.8081 40.3149C97.2337 40.0457 96.6086 39.9399 95.9934 39.8079C95.5242 39.7075 95.0679 39.5687 94.6274 39.3768C93.5922 38.9253 93.07 38.1657 93.1169 37.0236C93.1616 35.9303 93.7019 35.1917 94.6887 34.7552C95.2631 34.501 95.8738 34.42 96.4989 34.4373L96.4981 34.4358Z" fill="#666F84"/>
<path d="M89.0841 38.0764C89.0334 38.8908 89.1885 39.9196 89.0099 40.9357C88.6618 42.9177 87.0431 44.1497 85.0528 44.0455C82.4337 43.9083 81.3765 42.0126 81.3342 40.3688C81.2903 38.6831 81.3137 36.9959 81.3175 35.3086C81.3183 34.771 81.5809 34.4912 82.0394 34.492C82.4965 34.4935 82.7311 34.7695 82.7319 35.3251C82.7349 36.8241 82.7273 38.3239 82.7357 39.8229C82.7387 40.3486 82.8015 40.8667 83.0429 41.3512C83.5265 42.323 84.5526 42.8449 85.6113 42.6462C86.779 42.4273 87.569 41.6181 87.6031 40.4761C87.6493 38.9283 87.6228 37.3783 87.6288 35.829C87.6296 35.5793 87.6122 35.3289 87.6705 35.0822C87.7681 34.6675 88.0458 34.4598 88.4597 34.495C88.8442 34.528 89.0773 34.78 89.081 35.2066C89.0894 36.0937 89.0833 36.9809 89.0833 38.0757L89.0841 38.0764Z" fill="#666F84"/>
<path d="M69.8088 39.2358C69.8255 38.0975 69.9337 36.9974 70.6473 36.0278C72.2448 33.8584 75.8152 33.8989 77.1811 36.1178C77.3136 36.333 77.4188 36.558 77.4574 36.8099C77.5126 37.1684 77.362 37.4638 77.0669 37.5793C76.7271 37.712 76.3835 37.6026 76.1747 37.2921C76.1262 37.2194 76.0876 37.1399 76.0415 37.0656C75.433 36.0736 74.4424 35.6514 73.2952 35.8958C72.238 36.1208 71.5025 36.9599 71.367 38.084C71.2739 38.8571 71.2754 39.6272 71.3647 40.4011C71.4956 41.5334 72.2524 42.3831 73.3338 42.593C74.4848 42.8165 75.5125 42.3403 76.0717 41.3205C76.1754 41.1323 76.2738 40.9418 76.4834 40.8488C76.7354 40.7363 76.9829 40.7663 77.1993 40.926C77.4362 41.1008 77.5012 41.3542 77.4354 41.6302C77.247 42.4138 76.7664 43.001 76.0944 43.4194C73.7326 44.8914 70.3053 43.6946 69.8996 40.5444C69.8436 40.1117 69.8376 39.673 69.8088 39.2373V39.2358Z" fill="#666F84"/>
<path d="M141.452 41.7666C141.452 42.2661 141.46 42.7662 141.449 43.2657C141.439 43.7223 141.176 43.981 140.75 43.9818C140.326 43.9825 140.049 43.7253 140.043 43.2717C140.03 42.3103 140.028 41.3482 140.041 40.3869C140.046 40.0434 139.952 39.7637 139.732 39.4945C138.787 38.3404 137.857 37.1751 136.922 36.0128C136.829 35.8958 136.733 35.7781 136.653 35.6513C136.396 35.2479 136.424 34.8745 136.722 34.639C137.041 34.3863 137.434 34.432 137.755 34.8017C138.157 35.2652 138.534 35.7503 138.916 36.2303C139.448 36.8969 139.983 37.5591 140.496 38.2399C140.682 38.4874 140.789 38.4724 140.969 38.2429C141.825 37.1474 142.693 36.06 143.558 34.9705C143.596 34.9217 143.633 34.8707 143.674 34.8227C143.981 34.465 144.435 34.3818 144.744 34.6263C145.052 34.8692 145.092 35.2772 144.799 35.6671C144.378 36.2273 143.928 36.7672 143.49 37.3146C142.911 38.0382 142.338 38.7679 141.745 39.481C141.539 39.7292 141.449 39.9932 141.451 40.3051C141.455 40.7918 141.452 41.2792 141.452 41.7666H141.45H141.452Z" fill="#666F84"/>
<path d="M107.697 39.748C107.697 40.8975 107.705 42.0463 107.694 43.1959C107.688 43.8071 107.225 44.1235 106.677 43.9211C106.374 43.8086 106.264 43.5634 106.243 43.2762C106.222 42.9777 106.231 42.677 106.231 42.377C106.23 40.3786 106.221 38.3794 106.238 36.381C106.241 36.0023 106.131 35.8763 105.745 35.8936C105.104 35.9221 104.46 35.9063 103.817 35.8988C103.365 35.8936 103.095 35.6588 103.068 35.2719C103.041 34.8745 103.306 34.573 103.765 34.5445C104.243 34.5153 104.722 34.5303 105.201 34.5303C106.727 34.5295 108.252 34.5288 109.777 34.531C109.941 34.531 110.107 34.531 110.267 34.5588C110.656 34.6263 110.884 34.9097 110.853 35.2637C110.819 35.6543 110.599 35.8838 110.189 35.8936C109.522 35.9101 108.852 35.9206 108.185 35.8936C107.805 35.8778 107.682 35.9895 107.69 36.3757C107.715 37.4998 107.699 38.6239 107.699 39.748H107.697Z" fill="#666F84"/>
<path d="M126.909 7.81793C126.898 8.76728 126.097 9.58616 125.195 9.56816C124.27 9.55016 123.506 8.74629 123.509 7.79469C123.512 6.83109 124.276 6.07671 125.237 6.08945C126.167 6.10145 126.919 6.87983 126.909 7.81793Z" fill="#666F84"/>
</g>
<defs>
<clipPath id="clip0_4327_10384">
<rect width="120" height="48" fill="white" transform="translate(25 1)"/>
</clipPath>
</defs>
</svg>
