<svg width="170" height="49" viewBox="0 0 170 49" fill="none" xmlns="http://www.w3.org/2000/svg">
<path d="M60.3327 39.0347C60.5653 39.0347 60.7532 39.1163 60.8964 39.2796C61.0574 39.4429 61.138 39.6425 61.138 39.8783V43.607C61.138 43.861 61.0664 44.0697 60.9232 44.2329C60.7801 44.378 60.5832 44.4507 60.3327 44.4507H43.1005C42.8142 44.4507 42.5547 44.3599 42.3221 44.1786C42.1074 43.9971 42 43.7612 42 43.4709V41.212C42 40.9579 42.0179 40.7493 42.0537 40.586C42.1074 40.4227 42.2147 40.2322 42.3758 40.0144L52.7634 26.3247H43.4763C43.2437 26.3247 43.0468 26.243 42.8858 26.0797C42.7247 25.8983 42.6442 25.6987 42.6442 25.4809V21.7251C42.6442 21.4892 42.7158 21.2987 42.8589 21.1536C43.02 20.9903 43.2258 20.9086 43.4763 20.9086H59.9301C60.1806 20.9086 60.3685 20.9903 60.4938 21.1536C60.6369 21.2987 60.6817 21.4983 60.628 21.7523L60.6548 24.5284C60.6369 24.6372 60.5922 24.7643 60.5206 24.9094C60.5206 24.9638 60.4759 25.0545 60.3864 25.1816L50.133 39.0347H60.3327Z" fill="#666F84"/>
<path d="M86.7174 20.8813C87.2187 20.8813 87.4693 21.1444 87.4693 21.6706V43.743C87.4693 43.9788 87.3977 44.1695 87.2545 44.3146C87.1292 44.4416 86.9412 44.5049 86.691 44.5049H83.2553C82.8436 44.5049 82.6019 44.3327 82.5303 43.9879L82.0742 41.5657C81.215 42.7088 80.1415 43.6069 78.8531 44.2599C77.5826 44.9131 76.2137 45.2399 74.7464 45.2399C72.8317 45.2399 71.1675 44.8045 69.7538 43.9335C68.3402 43.0625 67.2576 41.8197 66.506 40.2048C65.7545 38.59 65.3787 36.6939 65.3787 34.5166V21.6978C65.3787 21.4438 65.4503 21.2532 65.5934 21.1262C65.7366 20.9811 65.9245 20.9085 66.1571 20.9085H70.4517C70.7022 20.9085 70.8901 20.9811 71.0154 21.1262C71.1585 21.2532 71.2301 21.4438 71.2301 21.6978V34.5711C71.2301 35.4964 71.4538 36.3402 71.9012 37.1022C72.3664 37.8643 72.9837 38.4721 73.7532 38.9257C74.5405 39.3611 75.3905 39.5789 76.3032 39.5789C77.2694 39.5789 78.1552 39.3521 78.9604 38.8985C79.7836 38.4267 80.4367 37.7826 80.92 36.9661C81.403 36.1315 81.6446 35.1971 81.6446 34.1628V21.6706C81.6446 21.1444 81.8952 20.8813 82.396 20.8813H86.7174Z" fill="#666F84"/>
<path d="M127.249 20.8813C127.75 20.8813 128 21.1444 128 21.6706V43.743C128 43.9788 127.929 44.1695 127.785 44.3146C127.66 44.4416 127.472 44.5049 127.222 44.5049H123.786C123.375 44.5049 123.133 44.3327 123.061 43.9879L122.605 41.5657C121.746 42.7088 120.672 43.6069 119.384 44.2599C118.114 44.9131 116.745 45.2399 115.277 45.2399C113.363 45.2399 111.698 44.8045 110.285 43.9335C108.871 43.0625 107.789 41.8197 107.037 40.2048C106.285 38.59 105.91 36.6939 105.91 34.5166V21.6978C105.91 21.4438 105.981 21.2532 106.124 21.1262C106.268 20.9811 106.455 20.9085 106.688 20.9085H110.983C111.233 20.9085 111.421 20.9811 111.547 21.1262C111.689 21.2532 111.761 21.4438 111.761 21.6978V34.5711C111.761 35.4964 111.985 36.3402 112.432 37.1022C112.897 37.8643 113.515 38.4721 114.284 38.9257C115.071 39.3611 115.922 39.5789 116.834 39.5789C117.8 39.5789 118.686 39.3521 119.492 38.8985C120.315 38.4267 120.968 37.7826 121.451 36.9661C121.934 36.1315 122.176 35.1971 122.176 34.1628V21.6706C122.176 21.1444 122.426 20.8813 122.927 20.8813H127.249Z" fill="#666F84"/>
<path d="M99.0454 4.73663C99.5357 4.73663 99.7808 4.97189 99.7808 5.44242V43.7177C99.7808 44.2064 99.5357 44.4506 99.0454 44.4506H94.7893C94.3165 44.4506 94.0803 44.2064 94.0803 43.7177V9.17677C94.0803 8.70626 93.8468 7.33056 94.7893 6.91436L99.0454 4.73663Z" fill="#666F84"/>
</svg>
