<svg width="1442" height="1098" viewBox="0 0 1442 1098" fill="none" xmlns="http://www.w3.org/2000/svg">
<mask id="mask0_4143_24770" style="mask-type:alpha" maskUnits="userSpaceOnUse" x="-297" y="-646" width="2036" height="2036">
<circle cx="721" cy="372" r="1018" fill="url(#paint0_angular_4143_24770)"/>
</mask>
<g mask="url(#mask0_4143_24770)">
<path d="M719 0L0.5 430V1098H1441.5V430L719 0Z" fill="url(#paint1_angular_4143_24770)"/>
</g>
<mask id="mask1_4143_24770" style="mask-type:alpha" maskUnits="userSpaceOnUse" x="0" y="-349" width="1443" height="1445">
<g opacity="0.12">
<path d="M721.5 1094C1119.42 1094 1442 771.197 1442 373C1442 -25.1973 1119.42 -348 721.5 -348C323.579 -348 1 -25.1973 1 373C1 771.197 323.579 1094 721.5 1094Z" stroke="#685879" stroke-width="2"/>
<path d="M1201 374C1201 639.096 985.872 854 720.5 854C455.128 854 240 639.096 240 374C240 108.904 455.128 -106 720.5 -106C985.872 -106 1201 108.904 1201 374Z" stroke="#685879" stroke-width="2"/>
<path d="M961 373.5C961 506.324 853.324 614 720.5 614C587.676 614 480 506.324 480 373.5C480 240.676 587.676 133 720.5 133C853.324 133 961 240.676 961 373.5Z" stroke="#685879" stroke-width="2"/>
<path d="M239.725 133.686V134.735H240.774V133.686H239.725ZM238.676 -105.512V133.686H240.774V-105.512H238.676ZM239.725 132.637H0.527344V134.735H239.725V132.637Z" fill="#534661"/>
<path d="M479.971 133.686V134.735H481.02V133.686H479.971ZM478.922 -105.512V133.686H481.02V-105.512H478.922ZM479.971 132.637H240.773V134.735H479.971V132.637Z" fill="#534661"/>
<path d="M720.221 133.686V134.735H721.27V133.686H720.221ZM719.172 -105.512V133.686H721.27V-105.512H719.172ZM720.221 132.637H481.023V134.735H720.221V132.637Z" fill="#534661"/>
<path d="M960.463 133.686V134.735H961.512V133.686H960.463ZM959.414 -105.512V133.686H961.512V-105.512H959.414ZM960.463 132.637H721.266V134.735H960.463V132.637Z" fill="#534661"/>
<path d="M1200.71 133.686V134.735H1201.76V133.686H1200.71ZM1199.66 -105.512V133.686H1201.76V-105.512H1199.66ZM1200.71 132.637H961.516V134.735H1200.71V132.637Z" fill="#534661"/>
<path d="M1440.96 133.686V134.735H1442V133.686H1440.96ZM1439.91 -105.512V133.686H1442V-105.512H1439.91ZM1440.96 132.637H1201.76V134.735H1440.96V132.637Z" fill="#534661"/>
<path d="M239.725 373.932V374.981H240.774V373.932H239.725ZM238.676 134.734V373.932H240.774V134.734H238.676ZM239.725 372.883H0.527344V374.981H239.725V372.883Z" fill="#534661"/>
<path d="M479.971 373.932V374.981H481.02V373.932H479.971ZM478.922 134.734V373.932H481.02V134.734H478.922ZM479.971 372.883H240.773V374.981H479.971V372.883Z" fill="#534661"/>
<path d="M720.221 373.932V374.981H721.27V373.932H720.221ZM719.172 134.734V373.932H721.27V134.734H719.172ZM720.221 372.883H481.023V374.981H720.221V372.883Z" fill="#534661"/>
<path d="M960.463 373.932V374.981H961.512V373.932H960.463ZM959.414 134.734V373.932H961.512V134.734H959.414ZM960.463 372.883H721.266V374.981H960.463V372.883Z" fill="#534661"/>
<path d="M1200.71 373.932V374.981H1201.76V373.932H1200.71ZM1199.66 134.734V373.932H1201.76V134.734H1199.66ZM1200.71 372.883H961.516V374.981H1200.71V372.883Z" fill="#534661"/>
<path d="M1440.96 373.932V374.981H1442V373.932H1440.96ZM1439.91 134.734V373.932H1442V134.734H1439.91ZM1440.96 372.883H1201.76V374.981H1440.96V372.883Z" fill="#534661"/>
<path d="M239.725 614.18V615.229H240.774V614.18H239.725ZM238.676 374.982V614.18H240.774V374.982H238.676ZM239.725 613.131H0.527344V615.229H239.725V613.131Z" fill="#534661"/>
<path d="M479.971 614.18V615.229H481.02V614.18H479.971ZM478.922 374.982V614.18H481.02V374.982H478.922ZM479.971 613.131H240.773V615.229H479.971V613.131Z" fill="#534661"/>
<path d="M720.221 614.18V615.229H721.27V614.18H720.221ZM719.172 374.982V614.18H721.27V374.982H719.172ZM720.221 613.131H481.023V615.229H720.221V613.131Z" fill="#534661"/>
<path d="M960.463 614.18V615.229H961.512V614.18H960.463ZM959.414 374.982V614.18H961.512V374.982H959.414ZM960.463 613.131H721.266V615.229H960.463V613.131Z" fill="#534661"/>
<path d="M1200.71 614.18V615.229H1201.76V614.18H1200.71ZM1199.66 374.982V614.18H1201.76V374.982H1199.66ZM1200.71 613.131H961.516V615.229H1200.71V613.131Z" fill="#534661"/>
<path d="M1440.96 614.18V615.229H1442V614.18H1440.96ZM1439.91 374.982V614.18H1442V374.982H1439.91ZM1440.96 613.131H1201.76V615.229H1440.96V613.131Z" fill="#534661"/>
<path d="M239.725 854.426V855.475H240.774V854.426H239.725ZM238.676 615.229V854.426H240.774V615.229H238.676ZM239.725 853.377H0.527344V855.475H239.725V853.377Z" fill="#534661"/>
<path d="M479.971 854.426V855.475H481.02V854.426H479.971ZM478.922 615.229V854.426H481.02V615.229H478.922ZM479.971 853.377H240.773V855.475H479.971V853.377Z" fill="#534661"/>
<path d="M720.221 854.426V855.475H721.27V854.426H720.221ZM719.172 615.229V854.426H721.27V615.229H719.172ZM720.221 853.377H481.023V855.475H720.221V853.377Z" fill="#534661"/>
<path d="M960.463 854.426V855.475H961.512V854.426H960.463ZM959.414 615.229V854.426H961.512V615.229H959.414ZM960.463 853.377H721.266V855.475H960.463V853.377Z" fill="#534661"/>
<path d="M1200.71 854.426V855.475H1201.76V854.426H1200.71ZM1199.66 615.229V854.426H1201.76V615.229H1199.66ZM1200.71 853.377H961.516V855.475H1200.71V853.377Z" fill="#534661"/>
<path d="M1440.96 854.426V855.475H1442V854.426H1440.96ZM1439.91 615.229V854.426H1442V615.229H1439.91ZM1440.96 853.377H1201.76V855.475H1440.96V853.377Z" fill="#534661"/>
<path d="M239.725 1094.67V1095.72H240.774V1094.67H239.725ZM238.676 855.477V1094.67H240.774V855.477H238.676ZM239.725 1093.63H0.527344V1095.72H239.725V1093.63Z" fill="#534661"/>
<path d="M479.971 1094.67V1095.72H481.02V1094.67H479.971ZM478.922 855.477V1094.67H481.02V855.477H478.922ZM479.971 1093.63H240.773V1095.72H479.971V1093.63Z" fill="#534661"/>
<path d="M720.221 1094.67V1095.72H721.27V1094.67H720.221ZM719.172 855.477V1094.67H721.27V855.477H719.172ZM720.221 1093.63H481.023V1095.72H720.221V1093.63Z" fill="#534661"/>
<path d="M960.463 1094.67V1095.72H961.512V1094.67H960.463ZM959.414 855.477V1094.67H961.512V855.477H959.414ZM960.463 1093.63H721.266V1095.72H960.463V1093.63Z" fill="#534661"/>
<path d="M1200.71 1094.67V1095.72H1201.76V1094.67H1200.71ZM1199.66 855.477V1094.67H1201.76V855.477H1199.66ZM1200.71 1093.63H961.516V1095.72H1200.71V1093.63Z" fill="#534661"/>
<path d="M1440.96 1094.67V1095.72H1442V1094.67H1440.96ZM1439.91 855.477V1094.67H1442V855.477H1439.91ZM1440.96 1093.63H1201.76V1095.72H1440.96V1093.63Z" fill="#534661"/>
</g>
</mask>
<g mask="url(#mask1_4143_24770)">
<path d="M719 0L0.5 430V1098H1441.5V430L719 0Z" fill="url(#paint2_radial_4143_24770)"/>
</g>
<g filter="url(#filter0_d_4143_24770)">
<mask id="path-37-inside-1_4143_24770" fill="white">
<path fill-rule="evenodd" clip-rule="evenodd" d="M612.001 310.077L720.913 246L829.826 310.078L829.827 310.077V438.188L720.914 502.265V502.118L720.913 502.265L612 438.187V310.078V310.077L612.001 310.077Z"/>
</mask>
<path d="M720.913 246L721.42 245.138L720.913 244.84L720.406 245.138L720.913 246ZM612.001 310.077L611.5 310.943L612.005 311.235L612.508 310.939L612.001 310.077ZM829.826 310.078L829.319 310.94L829.757 311.198L830.224 310.995L829.826 310.078ZM829.827 310.077H830.827V308.553L829.429 309.16L829.827 310.077ZM829.827 438.188L830.334 439.049L830.827 438.759V438.188H829.827ZM720.914 502.265H719.914V504.014L721.421 503.127L720.914 502.265ZM720.914 502.118H721.914L719.914 502.111L720.914 502.118ZM720.913 502.265L720.406 503.127L721.899 504.006L721.913 502.273L720.913 502.265ZM612 438.187H611V438.759L611.493 439.049L612 438.187ZM612 310.077L612.501 309.211L611 308.343V310.077H612ZM720.406 245.138L611.493 309.215L612.508 310.939L721.42 246.862L720.406 245.138ZM830.333 309.216L721.42 245.138L720.406 246.862L829.319 310.94L830.333 309.216ZM830.224 310.995L830.225 310.994L829.429 309.16L829.428 309.16L830.224 310.995ZM828.827 310.077V438.188H830.827V310.077H828.827ZM829.32 437.326L720.407 501.403L721.421 503.127L830.334 439.049L829.32 437.326ZM721.914 502.265V502.118H719.914V502.265H721.914ZM719.914 502.111L719.913 502.257L721.913 502.273L721.914 502.126L719.914 502.111ZM721.42 501.403L612.507 437.326L611.493 439.049L720.406 503.127L721.42 501.403ZM613 438.187V310.078H611V438.187H613ZM613 310.078V310.077H611V310.078H613ZM611.499 310.943L611.5 310.943L612.501 309.212L612.501 309.211L611.499 310.943Z" fill="#8D64FF" mask="url(#path-37-inside-1_4143_24770)"/>
<path d="M687.531 351.539V391.401L721.389 411.31" stroke="#8D64FF" stroke-linejoin="bevel"/>
<path d="M687.531 351.538L721.389 331.629L755.247 351.538" stroke="#8D64FF" stroke-linejoin="bevel"/>
<path d="M721.391 411.31L755.249 391.401V351.539" stroke="#8D64FF" stroke-linejoin="bevel"/>
<path d="M655.809 332.861V410.072L721.39 448.634" stroke="#8D64FF" stroke-linejoin="bevel"/>
<path d="M655.809 332.859L721.39 294.297L786.971 332.859" stroke="#8D64FF" stroke-linejoin="bevel"/>
<path d="M721.395 448.632L786.976 410.07V332.859" stroke="#8D64FF" stroke-linejoin="bevel"/>
</g>
<defs>
<filter id="filter0_d_4143_24770" x="467" y="91" width="507.827" height="546.266" filterUnits="userSpaceOnUse" color-interpolation-filters="sRGB">
<feFlood flood-opacity="0" result="BackgroundImageFix"/>
<feColorMatrix in="SourceAlpha" type="matrix" values="0 0 0 0 0 0 0 0 0 0 0 0 0 0 0 0 0 0 127 0" result="hardAlpha"/>
<feOffset dy="-10"/>
<feGaussianBlur stdDeviation="72.5"/>
<feComposite in2="hardAlpha" operator="out"/>
<feColorMatrix type="matrix" values="0 0 0 0 0.443137 0 0 0 0 0.239216 0 0 0 0 1 0 0 0 0.25 0"/>
<feBlend mode="normal" in2="BackgroundImageFix" result="effect1_dropShadow_4143_24770"/>
<feBlend mode="normal" in="SourceGraphic" in2="effect1_dropShadow_4143_24770" result="shape"/>
</filter>
<radialGradient id="paint0_angular_4143_24770" cx="0" cy="0" r="1" gradientUnits="userSpaceOnUse" gradientTransform="translate(721 372) rotate(-90) scale(1018)">
<stop stop-color="#713DFF" stop-opacity="0.05"/>
<stop offset="0.723958" stop-color="#130722" stop-opacity="0.7"/>
<stop offset="0.998911" stop-color="#130722" stop-opacity="0.7"/>
</radialGradient>
<radialGradient id="paint1_angular_4143_24770" cx="0" cy="0" r="1" gradientUnits="userSpaceOnUse" gradientTransform="translate(721 374) rotate(-90) scale(482 488.959)">
<stop stop-color="#713DFF"/>
<stop offset="0.723958" stop-color="#130722"/>
<stop offset="0.998911" stop-color="#130722"/>
</radialGradient>
<radialGradient id="paint2_radial_4143_24770" cx="0" cy="0" r="1" gradientUnits="userSpaceOnUse" gradientTransform="translate(721 548.989) scale(701.958 438470)">
<stop stop-color="#B4BCD0"/>
<stop offset="1" stop-color="#713DFF" stop-opacity="0.2"/>
</radialGradient>
</defs>
</svg>
